G75*
%MOIN*%
%OFA0B0*%
%FSLAX25Y25*%
%IPPOS*%
%LPD*%
%AMOC8*
5,1,8,0,0,1.08239X$1,22.5*
%
%ADD10C,0.00000*%
%ADD11R,0.03937X0.04331*%
%ADD12R,0.04331X0.03937*%
%ADD13R,0.03937X0.05512*%
%ADD14R,0.05512X0.03937*%
%ADD15R,0.05000X0.02200*%
%ADD16R,0.02200X0.05000*%
%ADD17OC8,0.06000*%
%ADD18C,0.04400*%
%ADD19OC8,0.15000*%
%ADD20OC8,0.10000*%
%ADD21C,0.07000*%
%ADD22R,0.10630X0.06299*%
%ADD23OC8,0.06300*%
%ADD24C,0.01969*%
%ADD25C,0.02978*%
%ADD26C,0.02000*%
%ADD27C,0.01575*%
%ADD28C,0.02400*%
%ADD29C,0.00800*%
%ADD30C,0.05000*%
D10*
X0001000Y0001000D02*
X0001000Y0111236D01*
X0178165Y0111236D01*
X0178165Y0001000D01*
X0001000Y0001000D01*
X0123047Y0010055D02*
X0123049Y0010208D01*
X0123055Y0010362D01*
X0123065Y0010515D01*
X0123079Y0010667D01*
X0123097Y0010820D01*
X0123119Y0010971D01*
X0123144Y0011122D01*
X0123174Y0011273D01*
X0123208Y0011423D01*
X0123245Y0011571D01*
X0123286Y0011719D01*
X0123331Y0011865D01*
X0123380Y0012011D01*
X0123433Y0012155D01*
X0123489Y0012297D01*
X0123549Y0012438D01*
X0123613Y0012578D01*
X0123680Y0012716D01*
X0123751Y0012852D01*
X0123826Y0012986D01*
X0123903Y0013118D01*
X0123985Y0013248D01*
X0124069Y0013376D01*
X0124157Y0013502D01*
X0124248Y0013625D01*
X0124342Y0013746D01*
X0124440Y0013864D01*
X0124540Y0013980D01*
X0124644Y0014093D01*
X0124750Y0014204D01*
X0124859Y0014312D01*
X0124971Y0014417D01*
X0125085Y0014518D01*
X0125203Y0014617D01*
X0125322Y0014713D01*
X0125444Y0014806D01*
X0125569Y0014895D01*
X0125696Y0014982D01*
X0125825Y0015064D01*
X0125956Y0015144D01*
X0126089Y0015220D01*
X0126224Y0015293D01*
X0126361Y0015362D01*
X0126500Y0015427D01*
X0126640Y0015489D01*
X0126782Y0015547D01*
X0126925Y0015602D01*
X0127070Y0015653D01*
X0127216Y0015700D01*
X0127363Y0015743D01*
X0127511Y0015782D01*
X0127660Y0015818D01*
X0127810Y0015849D01*
X0127961Y0015877D01*
X0128112Y0015901D01*
X0128265Y0015921D01*
X0128417Y0015937D01*
X0128570Y0015949D01*
X0128723Y0015957D01*
X0128876Y0015961D01*
X0129030Y0015961D01*
X0129183Y0015957D01*
X0129336Y0015949D01*
X0129489Y0015937D01*
X0129641Y0015921D01*
X0129794Y0015901D01*
X0129945Y0015877D01*
X0130096Y0015849D01*
X0130246Y0015818D01*
X0130395Y0015782D01*
X0130543Y0015743D01*
X0130690Y0015700D01*
X0130836Y0015653D01*
X0130981Y0015602D01*
X0131124Y0015547D01*
X0131266Y0015489D01*
X0131406Y0015427D01*
X0131545Y0015362D01*
X0131682Y0015293D01*
X0131817Y0015220D01*
X0131950Y0015144D01*
X0132081Y0015064D01*
X0132210Y0014982D01*
X0132337Y0014895D01*
X0132462Y0014806D01*
X0132584Y0014713D01*
X0132703Y0014617D01*
X0132821Y0014518D01*
X0132935Y0014417D01*
X0133047Y0014312D01*
X0133156Y0014204D01*
X0133262Y0014093D01*
X0133366Y0013980D01*
X0133466Y0013864D01*
X0133564Y0013746D01*
X0133658Y0013625D01*
X0133749Y0013502D01*
X0133837Y0013376D01*
X0133921Y0013248D01*
X0134003Y0013118D01*
X0134080Y0012986D01*
X0134155Y0012852D01*
X0134226Y0012716D01*
X0134293Y0012578D01*
X0134357Y0012438D01*
X0134417Y0012297D01*
X0134473Y0012155D01*
X0134526Y0012011D01*
X0134575Y0011865D01*
X0134620Y0011719D01*
X0134661Y0011571D01*
X0134698Y0011423D01*
X0134732Y0011273D01*
X0134762Y0011122D01*
X0134787Y0010971D01*
X0134809Y0010820D01*
X0134827Y0010667D01*
X0134841Y0010515D01*
X0134851Y0010362D01*
X0134857Y0010208D01*
X0134859Y0010055D01*
X0134857Y0009902D01*
X0134851Y0009748D01*
X0134841Y0009595D01*
X0134827Y0009443D01*
X0134809Y0009290D01*
X0134787Y0009139D01*
X0134762Y0008988D01*
X0134732Y0008837D01*
X0134698Y0008687D01*
X0134661Y0008539D01*
X0134620Y0008391D01*
X0134575Y0008245D01*
X0134526Y0008099D01*
X0134473Y0007955D01*
X0134417Y0007813D01*
X0134357Y0007672D01*
X0134293Y0007532D01*
X0134226Y0007394D01*
X0134155Y0007258D01*
X0134080Y0007124D01*
X0134003Y0006992D01*
X0133921Y0006862D01*
X0133837Y0006734D01*
X0133749Y0006608D01*
X0133658Y0006485D01*
X0133564Y0006364D01*
X0133466Y0006246D01*
X0133366Y0006130D01*
X0133262Y0006017D01*
X0133156Y0005906D01*
X0133047Y0005798D01*
X0132935Y0005693D01*
X0132821Y0005592D01*
X0132703Y0005493D01*
X0132584Y0005397D01*
X0132462Y0005304D01*
X0132337Y0005215D01*
X0132210Y0005128D01*
X0132081Y0005046D01*
X0131950Y0004966D01*
X0131817Y0004890D01*
X0131682Y0004817D01*
X0131545Y0004748D01*
X0131406Y0004683D01*
X0131266Y0004621D01*
X0131124Y0004563D01*
X0130981Y0004508D01*
X0130836Y0004457D01*
X0130690Y0004410D01*
X0130543Y0004367D01*
X0130395Y0004328D01*
X0130246Y0004292D01*
X0130096Y0004261D01*
X0129945Y0004233D01*
X0129794Y0004209D01*
X0129641Y0004189D01*
X0129489Y0004173D01*
X0129336Y0004161D01*
X0129183Y0004153D01*
X0129030Y0004149D01*
X0128876Y0004149D01*
X0128723Y0004153D01*
X0128570Y0004161D01*
X0128417Y0004173D01*
X0128265Y0004189D01*
X0128112Y0004209D01*
X0127961Y0004233D01*
X0127810Y0004261D01*
X0127660Y0004292D01*
X0127511Y0004328D01*
X0127363Y0004367D01*
X0127216Y0004410D01*
X0127070Y0004457D01*
X0126925Y0004508D01*
X0126782Y0004563D01*
X0126640Y0004621D01*
X0126500Y0004683D01*
X0126361Y0004748D01*
X0126224Y0004817D01*
X0126089Y0004890D01*
X0125956Y0004966D01*
X0125825Y0005046D01*
X0125696Y0005128D01*
X0125569Y0005215D01*
X0125444Y0005304D01*
X0125322Y0005397D01*
X0125203Y0005493D01*
X0125085Y0005592D01*
X0124971Y0005693D01*
X0124859Y0005798D01*
X0124750Y0005906D01*
X0124644Y0006017D01*
X0124540Y0006130D01*
X0124440Y0006246D01*
X0124342Y0006364D01*
X0124248Y0006485D01*
X0124157Y0006608D01*
X0124069Y0006734D01*
X0123985Y0006862D01*
X0123903Y0006992D01*
X0123826Y0007124D01*
X0123751Y0007258D01*
X0123680Y0007394D01*
X0123613Y0007532D01*
X0123549Y0007672D01*
X0123489Y0007813D01*
X0123433Y0007955D01*
X0123380Y0008099D01*
X0123331Y0008245D01*
X0123286Y0008391D01*
X0123245Y0008539D01*
X0123208Y0008687D01*
X0123174Y0008837D01*
X0123144Y0008988D01*
X0123119Y0009139D01*
X0123097Y0009290D01*
X0123079Y0009443D01*
X0123065Y0009595D01*
X0123055Y0009748D01*
X0123049Y0009902D01*
X0123047Y0010055D01*
X0044307Y0102575D02*
X0044309Y0102728D01*
X0044315Y0102882D01*
X0044325Y0103035D01*
X0044339Y0103187D01*
X0044357Y0103340D01*
X0044379Y0103491D01*
X0044404Y0103642D01*
X0044434Y0103793D01*
X0044468Y0103943D01*
X0044505Y0104091D01*
X0044546Y0104239D01*
X0044591Y0104385D01*
X0044640Y0104531D01*
X0044693Y0104675D01*
X0044749Y0104817D01*
X0044809Y0104958D01*
X0044873Y0105098D01*
X0044940Y0105236D01*
X0045011Y0105372D01*
X0045086Y0105506D01*
X0045163Y0105638D01*
X0045245Y0105768D01*
X0045329Y0105896D01*
X0045417Y0106022D01*
X0045508Y0106145D01*
X0045602Y0106266D01*
X0045700Y0106384D01*
X0045800Y0106500D01*
X0045904Y0106613D01*
X0046010Y0106724D01*
X0046119Y0106832D01*
X0046231Y0106937D01*
X0046345Y0107038D01*
X0046463Y0107137D01*
X0046582Y0107233D01*
X0046704Y0107326D01*
X0046829Y0107415D01*
X0046956Y0107502D01*
X0047085Y0107584D01*
X0047216Y0107664D01*
X0047349Y0107740D01*
X0047484Y0107813D01*
X0047621Y0107882D01*
X0047760Y0107947D01*
X0047900Y0108009D01*
X0048042Y0108067D01*
X0048185Y0108122D01*
X0048330Y0108173D01*
X0048476Y0108220D01*
X0048623Y0108263D01*
X0048771Y0108302D01*
X0048920Y0108338D01*
X0049070Y0108369D01*
X0049221Y0108397D01*
X0049372Y0108421D01*
X0049525Y0108441D01*
X0049677Y0108457D01*
X0049830Y0108469D01*
X0049983Y0108477D01*
X0050136Y0108481D01*
X0050290Y0108481D01*
X0050443Y0108477D01*
X0050596Y0108469D01*
X0050749Y0108457D01*
X0050901Y0108441D01*
X0051054Y0108421D01*
X0051205Y0108397D01*
X0051356Y0108369D01*
X0051506Y0108338D01*
X0051655Y0108302D01*
X0051803Y0108263D01*
X0051950Y0108220D01*
X0052096Y0108173D01*
X0052241Y0108122D01*
X0052384Y0108067D01*
X0052526Y0108009D01*
X0052666Y0107947D01*
X0052805Y0107882D01*
X0052942Y0107813D01*
X0053077Y0107740D01*
X0053210Y0107664D01*
X0053341Y0107584D01*
X0053470Y0107502D01*
X0053597Y0107415D01*
X0053722Y0107326D01*
X0053844Y0107233D01*
X0053963Y0107137D01*
X0054081Y0107038D01*
X0054195Y0106937D01*
X0054307Y0106832D01*
X0054416Y0106724D01*
X0054522Y0106613D01*
X0054626Y0106500D01*
X0054726Y0106384D01*
X0054824Y0106266D01*
X0054918Y0106145D01*
X0055009Y0106022D01*
X0055097Y0105896D01*
X0055181Y0105768D01*
X0055263Y0105638D01*
X0055340Y0105506D01*
X0055415Y0105372D01*
X0055486Y0105236D01*
X0055553Y0105098D01*
X0055617Y0104958D01*
X0055677Y0104817D01*
X0055733Y0104675D01*
X0055786Y0104531D01*
X0055835Y0104385D01*
X0055880Y0104239D01*
X0055921Y0104091D01*
X0055958Y0103943D01*
X0055992Y0103793D01*
X0056022Y0103642D01*
X0056047Y0103491D01*
X0056069Y0103340D01*
X0056087Y0103187D01*
X0056101Y0103035D01*
X0056111Y0102882D01*
X0056117Y0102728D01*
X0056119Y0102575D01*
X0056117Y0102422D01*
X0056111Y0102268D01*
X0056101Y0102115D01*
X0056087Y0101963D01*
X0056069Y0101810D01*
X0056047Y0101659D01*
X0056022Y0101508D01*
X0055992Y0101357D01*
X0055958Y0101207D01*
X0055921Y0101059D01*
X0055880Y0100911D01*
X0055835Y0100765D01*
X0055786Y0100619D01*
X0055733Y0100475D01*
X0055677Y0100333D01*
X0055617Y0100192D01*
X0055553Y0100052D01*
X0055486Y0099914D01*
X0055415Y0099778D01*
X0055340Y0099644D01*
X0055263Y0099512D01*
X0055181Y0099382D01*
X0055097Y0099254D01*
X0055009Y0099128D01*
X0054918Y0099005D01*
X0054824Y0098884D01*
X0054726Y0098766D01*
X0054626Y0098650D01*
X0054522Y0098537D01*
X0054416Y0098426D01*
X0054307Y0098318D01*
X0054195Y0098213D01*
X0054081Y0098112D01*
X0053963Y0098013D01*
X0053844Y0097917D01*
X0053722Y0097824D01*
X0053597Y0097735D01*
X0053470Y0097648D01*
X0053341Y0097566D01*
X0053210Y0097486D01*
X0053077Y0097410D01*
X0052942Y0097337D01*
X0052805Y0097268D01*
X0052666Y0097203D01*
X0052526Y0097141D01*
X0052384Y0097083D01*
X0052241Y0097028D01*
X0052096Y0096977D01*
X0051950Y0096930D01*
X0051803Y0096887D01*
X0051655Y0096848D01*
X0051506Y0096812D01*
X0051356Y0096781D01*
X0051205Y0096753D01*
X0051054Y0096729D01*
X0050901Y0096709D01*
X0050749Y0096693D01*
X0050596Y0096681D01*
X0050443Y0096673D01*
X0050290Y0096669D01*
X0050136Y0096669D01*
X0049983Y0096673D01*
X0049830Y0096681D01*
X0049677Y0096693D01*
X0049525Y0096709D01*
X0049372Y0096729D01*
X0049221Y0096753D01*
X0049070Y0096781D01*
X0048920Y0096812D01*
X0048771Y0096848D01*
X0048623Y0096887D01*
X0048476Y0096930D01*
X0048330Y0096977D01*
X0048185Y0097028D01*
X0048042Y0097083D01*
X0047900Y0097141D01*
X0047760Y0097203D01*
X0047621Y0097268D01*
X0047484Y0097337D01*
X0047349Y0097410D01*
X0047216Y0097486D01*
X0047085Y0097566D01*
X0046956Y0097648D01*
X0046829Y0097735D01*
X0046704Y0097824D01*
X0046582Y0097917D01*
X0046463Y0098013D01*
X0046345Y0098112D01*
X0046231Y0098213D01*
X0046119Y0098318D01*
X0046010Y0098426D01*
X0045904Y0098537D01*
X0045800Y0098650D01*
X0045700Y0098766D01*
X0045602Y0098884D01*
X0045508Y0099005D01*
X0045417Y0099128D01*
X0045329Y0099254D01*
X0045245Y0099382D01*
X0045163Y0099512D01*
X0045086Y0099644D01*
X0045011Y0099778D01*
X0044940Y0099914D01*
X0044873Y0100052D01*
X0044809Y0100192D01*
X0044749Y0100333D01*
X0044693Y0100475D01*
X0044640Y0100619D01*
X0044591Y0100765D01*
X0044546Y0100911D01*
X0044505Y0101059D01*
X0044468Y0101207D01*
X0044434Y0101357D01*
X0044404Y0101508D01*
X0044379Y0101659D01*
X0044357Y0101810D01*
X0044339Y0101963D01*
X0044325Y0102115D01*
X0044315Y0102268D01*
X0044309Y0102422D01*
X0044307Y0102575D01*
D11*
X0076000Y0084346D03*
X0076000Y0077654D03*
X0096472Y0067457D03*
X0103165Y0067457D03*
X0123835Y0074819D03*
X0130528Y0074819D03*
X0128953Y0086394D03*
X0122260Y0086394D03*
X0093126Y0018520D03*
X0093126Y0011827D03*
D12*
X0101394Y0011827D03*
X0101394Y0018520D03*
X0071945Y0052732D03*
X0065252Y0052732D03*
X0043520Y0034268D03*
X0043520Y0027575D03*
X0036236Y0027496D03*
X0029543Y0027496D03*
X0016591Y0044858D03*
X0009898Y0044858D03*
X0009858Y0052811D03*
X0016551Y0052811D03*
X0016669Y0065724D03*
X0009976Y0065724D03*
X0074425Y0091079D03*
X0074425Y0097772D03*
X0105213Y0098559D03*
X0105213Y0091866D03*
X0095528Y0077063D03*
X0088835Y0077063D03*
D13*
X0087260Y0089701D03*
X0094740Y0089701D03*
X0091000Y0098362D03*
D14*
X0115882Y0095016D03*
X0124543Y0098756D03*
X0115882Y0102496D03*
X0115724Y0082772D03*
X0107063Y0079031D03*
X0115724Y0075291D03*
D15*
X0059002Y0071748D03*
X0059002Y0068598D03*
X0059002Y0065449D03*
X0059002Y0062299D03*
X0059002Y0059150D03*
X0059002Y0056000D03*
X0059002Y0052850D03*
X0059002Y0049701D03*
X0025202Y0049701D03*
X0025202Y0052850D03*
X0025202Y0056000D03*
X0025202Y0059150D03*
X0025202Y0062299D03*
X0025202Y0065449D03*
X0025202Y0068598D03*
X0025202Y0071748D03*
D16*
X0031079Y0077624D03*
X0034228Y0077624D03*
X0037378Y0077624D03*
X0040528Y0077624D03*
X0043677Y0077624D03*
X0046827Y0077624D03*
X0049976Y0077624D03*
X0053126Y0077624D03*
X0053126Y0043824D03*
X0049976Y0043824D03*
X0046827Y0043824D03*
X0043677Y0043824D03*
X0040528Y0043824D03*
X0037378Y0043824D03*
X0034228Y0043824D03*
X0031079Y0043824D03*
D17*
X0062890Y0021748D03*
X0072890Y0021748D03*
X0082890Y0021748D03*
X0082890Y0011748D03*
X0072890Y0011748D03*
X0062890Y0011748D03*
D18*
X0015995Y0038756D02*
X0011595Y0038756D01*
X0011595Y0058756D02*
X0015995Y0058756D01*
D19*
X0164386Y0099425D03*
X0164386Y0012811D03*
D20*
X0012811Y0010843D03*
X0010843Y0099425D03*
D21*
X0160886Y0065094D02*
X0167886Y0065094D01*
X0167886Y0025094D02*
X0160886Y0025094D01*
D22*
X0164386Y0075803D03*
X0164386Y0086827D03*
D23*
X0010843Y0088795D03*
X0010843Y0080921D03*
D24*
X0014049Y0069506D02*
X0010787Y0066244D01*
X0009976Y0065724D01*
X0009699Y0065700D01*
X0009699Y0062438D01*
X0007524Y0060263D01*
X0007524Y0055914D01*
X0009699Y0053739D01*
X0009858Y0052811D01*
X0010243Y0052652D01*
X0010243Y0045040D01*
X0009898Y0044858D01*
X0009699Y0043952D01*
X0007524Y0041778D01*
X0007524Y0037428D01*
X0017311Y0027641D01*
X0029272Y0027641D01*
X0029543Y0027496D01*
X0035797Y0027098D02*
X0036236Y0027496D01*
X0036341Y0027641D01*
X0043409Y0027641D01*
X0043520Y0027575D01*
X0035797Y0027098D02*
X0020030Y0011330D01*
X0012961Y0011330D01*
X0012811Y0010843D01*
X0071945Y0052732D02*
X0072056Y0059870D01*
X0082555Y0045040D01*
X0082555Y0022204D01*
X0082890Y0021748D01*
X0083099Y0021661D01*
X0085817Y0018942D01*
X0092885Y0018942D01*
X0093126Y0018520D01*
X0071945Y0052732D02*
X0072843Y0060563D01*
X0072843Y0068175D01*
X0075487Y0077118D01*
X0076000Y0077654D01*
X0076574Y0077118D01*
X0088536Y0077118D01*
X0088835Y0077063D01*
X0087448Y0077662D01*
X0087448Y0083099D01*
X0115177Y0083099D01*
X0115724Y0082772D01*
X0116265Y0083099D01*
X0119527Y0086361D01*
X0122245Y0086361D01*
X0122260Y0086394D01*
X0107063Y0079031D02*
X0107022Y0078749D01*
X0103216Y0074943D01*
X0103216Y0072769D01*
X0102672Y0072769D01*
X0103216Y0072769D02*
X0103216Y0067875D01*
X0103165Y0067457D01*
X0087448Y0083099D02*
X0087448Y0089623D01*
X0087260Y0089701D01*
X0059002Y0062299D02*
X0058632Y0062438D01*
X0054283Y0062438D01*
X0054283Y0057545D01*
X0054283Y0062438D02*
X0029816Y0062438D01*
X0029816Y0060807D01*
X0028185Y0059176D01*
X0025467Y0059176D01*
X0025202Y0059150D01*
X0029816Y0062438D02*
X0029816Y0064069D01*
X0028335Y0065550D01*
X0025073Y0065550D01*
X0025202Y0065449D01*
X0024379Y0065700D01*
X0022204Y0065700D01*
X0020573Y0067331D01*
X0020573Y0068419D01*
X0019486Y0069506D01*
X0014049Y0069506D01*
X0031447Y0074400D02*
X0033078Y0072769D01*
X0031447Y0074400D02*
X0031447Y0077118D01*
X0031079Y0077624D01*
X0164386Y0075803D02*
X0164654Y0075487D01*
X0164654Y0065157D01*
X0164386Y0065094D01*
X0164386Y0086827D02*
X0164654Y0086905D01*
X0164654Y0101041D01*
X0164386Y0099425D01*
D25*
X0102672Y0072769D03*
X0054283Y0057545D03*
X0033078Y0072769D03*
X0101041Y0022748D03*
X0067331Y0017311D03*
D26*
X0077463Y0008994D02*
X0078317Y0008994D01*
X0077890Y0009421D02*
X0080744Y0006567D01*
X0085036Y0006567D01*
X0087374Y0008906D01*
X0088976Y0008906D01*
X0088976Y0008758D01*
X0090254Y0007480D01*
X0095998Y0007480D01*
X0097260Y0008742D01*
X0098325Y0007677D01*
X0104462Y0007677D01*
X0105740Y0008955D01*
X0105740Y0014699D01*
X0105266Y0015173D01*
X0105740Y0015648D01*
X0105740Y0021392D01*
X0104711Y0022421D01*
X0104711Y0023478D01*
X0104152Y0024827D01*
X0104009Y0024970D01*
X0104009Y0060013D01*
X0125554Y0060013D01*
X0126645Y0060465D01*
X0127480Y0061300D01*
X0127480Y0061300D01*
X0136723Y0070543D01*
X0137175Y0071634D01*
X0137175Y0096738D01*
X0136723Y0097829D01*
X0129908Y0104645D01*
X0128816Y0105097D01*
X0120819Y0105097D01*
X0120819Y0105368D01*
X0119951Y0106236D01*
X0173165Y0106236D01*
X0173165Y0084858D01*
X0140764Y0084858D01*
X0140764Y0006000D01*
X0139156Y0006000D01*
X0139858Y0008619D01*
X0139858Y0011491D01*
X0139115Y0014264D01*
X0137679Y0016751D01*
X0135649Y0018782D01*
X0133162Y0020217D01*
X0130388Y0020961D01*
X0127517Y0020961D01*
X0124743Y0020217D01*
X0122257Y0018782D01*
X0120226Y0016751D01*
X0118790Y0014264D01*
X0118047Y0011491D01*
X0118047Y0008619D01*
X0118749Y0006000D01*
X0067830Y0006000D01*
X0069570Y0007740D01*
X0070744Y0006567D01*
X0075036Y0006567D01*
X0077890Y0009421D01*
X0080315Y0006996D02*
X0075464Y0006996D01*
X0070315Y0006996D02*
X0068826Y0006996D01*
X0080787Y0017293D02*
X0080787Y0031417D01*
X0080394Y0032366D01*
X0079668Y0033092D01*
X0079668Y0033092D01*
X0071225Y0041534D01*
X0071225Y0068708D01*
X0070832Y0069656D01*
X0070106Y0070382D01*
X0070106Y0070382D01*
X0064626Y0075862D01*
X0063900Y0076588D01*
X0062952Y0076981D01*
X0056407Y0076981D01*
X0056407Y0081028D01*
X0055129Y0082305D01*
X0039525Y0082305D01*
X0039401Y0082606D01*
X0038542Y0083465D01*
X0071850Y0083465D01*
X0071850Y0081278D01*
X0073128Y0080000D01*
X0078872Y0080000D01*
X0080150Y0081278D01*
X0080150Y0087415D01*
X0078872Y0088693D01*
X0078772Y0088693D01*
X0078772Y0093951D01*
X0078297Y0094425D01*
X0078682Y0094810D01*
X0086850Y0094810D01*
X0086850Y0094703D01*
X0088128Y0093425D01*
X0090656Y0093425D01*
X0090591Y0093360D01*
X0090591Y0086041D01*
X0091868Y0084764D01*
X0097612Y0084764D01*
X0098890Y0086041D01*
X0098890Y0088830D01*
X0101031Y0088830D01*
X0102144Y0087717D01*
X0108281Y0087717D01*
X0109559Y0088994D01*
X0109559Y0091225D01*
X0109882Y0091548D01*
X0111541Y0091548D01*
X0112223Y0090866D01*
X0119541Y0090866D01*
X0120819Y0092144D01*
X0120819Y0094671D01*
X0120884Y0094606D01*
X0121995Y0094606D01*
X0121995Y0090120D01*
X0122447Y0089029D01*
X0124803Y0086673D01*
X0124803Y0083325D01*
X0126081Y0082047D01*
X0126345Y0082047D01*
X0126345Y0079165D01*
X0120963Y0079165D01*
X0120311Y0078514D01*
X0119384Y0079441D01*
X0112065Y0079441D01*
X0112000Y0079376D01*
X0112000Y0081903D01*
X0110722Y0083181D01*
X0103404Y0083181D01*
X0102126Y0081903D01*
X0102126Y0078330D01*
X0100532Y0076736D01*
X0100050Y0075573D01*
X0100050Y0075337D01*
X0099874Y0075161D01*
X0099874Y0079935D01*
X0098596Y0081213D01*
X0092459Y0081213D01*
X0091181Y0079935D01*
X0091181Y0074191D01*
X0092459Y0072913D01*
X0092635Y0072913D01*
X0092635Y0070838D01*
X0092323Y0070525D01*
X0092323Y0064388D01*
X0093600Y0063110D01*
X0096171Y0063110D01*
X0098072Y0061209D01*
X0098072Y0024970D01*
X0097930Y0024827D01*
X0097371Y0023478D01*
X0097371Y0022018D01*
X0097460Y0021804D01*
X0097047Y0021392D01*
X0097047Y0015648D01*
X0097522Y0015173D01*
X0097260Y0014911D01*
X0095998Y0016173D01*
X0090254Y0016173D01*
X0088976Y0014896D01*
X0088976Y0014843D01*
X0087122Y0014843D01*
X0085036Y0016929D01*
X0081150Y0016929D01*
X0080787Y0017293D01*
X0081091Y0016988D02*
X0097047Y0016988D01*
X0097047Y0018987D02*
X0080787Y0018987D01*
X0080787Y0020985D02*
X0097047Y0020985D01*
X0097371Y0022984D02*
X0080787Y0022984D01*
X0080787Y0024982D02*
X0098072Y0024982D01*
X0098072Y0026981D02*
X0080787Y0026981D01*
X0080787Y0028979D02*
X0098072Y0028979D01*
X0098072Y0030978D02*
X0080787Y0030978D01*
X0079783Y0032976D02*
X0098072Y0032976D01*
X0098072Y0034975D02*
X0077785Y0034975D01*
X0075786Y0036973D02*
X0098072Y0036973D01*
X0098072Y0038972D02*
X0073788Y0038972D01*
X0071789Y0040970D02*
X0098072Y0040970D01*
X0098072Y0042969D02*
X0071225Y0042969D01*
X0071225Y0044967D02*
X0098072Y0044967D01*
X0098072Y0046966D02*
X0071225Y0046966D01*
X0071225Y0048964D02*
X0098072Y0048964D01*
X0098072Y0050963D02*
X0071225Y0050963D01*
X0071225Y0052961D02*
X0098072Y0052961D01*
X0098072Y0054960D02*
X0071225Y0054960D01*
X0071225Y0056958D02*
X0098072Y0056958D01*
X0098072Y0058957D02*
X0071225Y0058957D01*
X0071225Y0060955D02*
X0098072Y0060955D01*
X0096327Y0062954D02*
X0071225Y0062954D01*
X0071225Y0064952D02*
X0092323Y0064952D01*
X0092323Y0066951D02*
X0071225Y0066951D01*
X0071125Y0068949D02*
X0092323Y0068949D01*
X0092635Y0070948D02*
X0069540Y0070948D01*
X0067542Y0072946D02*
X0092426Y0072946D01*
X0091181Y0074945D02*
X0065543Y0074945D01*
X0064626Y0075862D02*
X0064626Y0075862D01*
X0063042Y0076943D02*
X0091181Y0076943D01*
X0091181Y0078942D02*
X0056407Y0078942D01*
X0056407Y0080940D02*
X0072188Y0080940D01*
X0071850Y0082939D02*
X0039067Y0082939D01*
X0027798Y0079043D02*
X0027798Y0075029D01*
X0021799Y0075029D01*
X0020521Y0073751D01*
X0020521Y0069091D01*
X0019738Y0069874D01*
X0013600Y0069874D01*
X0012323Y0068596D01*
X0012323Y0063137D01*
X0010724Y0063137D01*
X0009114Y0062470D01*
X0007881Y0061238D01*
X0007214Y0059627D01*
X0007214Y0057884D01*
X0007881Y0056274D01*
X0009114Y0055042D01*
X0010724Y0054375D01*
X0012205Y0054375D01*
X0012205Y0049939D01*
X0013329Y0048815D01*
X0012244Y0047730D01*
X0012244Y0043137D01*
X0010724Y0043137D01*
X0009114Y0042470D01*
X0007881Y0041238D01*
X0007214Y0039627D01*
X0007214Y0037884D01*
X0007881Y0036274D01*
X0009114Y0035042D01*
X0010724Y0034375D01*
X0016867Y0034375D01*
X0018477Y0035042D01*
X0019709Y0036274D01*
X0020376Y0037884D01*
X0020376Y0039627D01*
X0019850Y0040899D01*
X0020937Y0041986D01*
X0020937Y0044468D01*
X0022889Y0046420D01*
X0024418Y0046420D01*
X0024493Y0046393D01*
X0024981Y0046420D01*
X0027798Y0046420D01*
X0027798Y0040421D01*
X0029075Y0039143D01*
X0040984Y0039143D01*
X0040984Y0038417D01*
X0040451Y0038417D01*
X0039173Y0037140D01*
X0039173Y0031646D01*
X0033167Y0031646D01*
X0031890Y0030368D01*
X0031890Y0027667D01*
X0019016Y0014793D01*
X0015786Y0018024D01*
X0009837Y0018024D01*
X0006118Y0014305D01*
X0006118Y0078106D01*
X0008634Y0075590D01*
X0013051Y0075590D01*
X0016174Y0078713D01*
X0016174Y0079043D01*
X0027798Y0079043D01*
X0027798Y0078942D02*
X0016174Y0078942D01*
X0014404Y0076943D02*
X0027798Y0076943D01*
X0021715Y0074945D02*
X0006118Y0074945D01*
X0006118Y0076943D02*
X0007281Y0076943D01*
X0006118Y0072946D02*
X0020521Y0072946D01*
X0020521Y0070948D02*
X0006118Y0070948D01*
X0006118Y0068949D02*
X0012676Y0068949D01*
X0012323Y0066951D02*
X0006118Y0066951D01*
X0006118Y0064952D02*
X0012323Y0064952D01*
X0010282Y0062954D02*
X0006118Y0062954D01*
X0006118Y0060955D02*
X0007764Y0060955D01*
X0007214Y0058957D02*
X0006118Y0058957D01*
X0006118Y0056958D02*
X0007598Y0056958D01*
X0006118Y0054960D02*
X0009311Y0054960D01*
X0012205Y0052961D02*
X0006118Y0052961D01*
X0006118Y0050963D02*
X0012205Y0050963D01*
X0013180Y0048964D02*
X0006118Y0048964D01*
X0006118Y0046966D02*
X0012244Y0046966D01*
X0012244Y0044967D02*
X0006118Y0044967D01*
X0006118Y0042969D02*
X0010318Y0042969D01*
X0007770Y0040970D02*
X0006118Y0040970D01*
X0006118Y0038972D02*
X0007214Y0038972D01*
X0007592Y0036973D02*
X0006118Y0036973D01*
X0006118Y0034975D02*
X0009276Y0034975D01*
X0006118Y0032976D02*
X0039173Y0032976D01*
X0039173Y0034975D02*
X0018315Y0034975D01*
X0019999Y0036973D02*
X0039173Y0036973D01*
X0040984Y0038972D02*
X0020376Y0038972D01*
X0019921Y0040970D02*
X0027798Y0040970D01*
X0027798Y0042969D02*
X0020937Y0042969D01*
X0021437Y0044967D02*
X0027798Y0044967D01*
X0032133Y0056164D02*
X0030458Y0057839D01*
X0029623Y0058674D01*
X0028923Y0058964D01*
X0028737Y0059150D01*
X0029883Y0060296D01*
X0029883Y0064303D01*
X0028737Y0065449D01*
X0029883Y0066595D01*
X0029883Y0070891D01*
X0029967Y0070690D01*
X0030999Y0069657D01*
X0032348Y0069098D01*
X0033808Y0069098D01*
X0035157Y0069657D01*
X0036190Y0070690D01*
X0036748Y0072038D01*
X0036748Y0072943D01*
X0039040Y0072943D01*
X0040133Y0071850D01*
X0040859Y0071124D01*
X0041808Y0070731D01*
X0054321Y0070731D01*
X0054321Y0069745D01*
X0054321Y0063445D01*
X0055467Y0062299D01*
X0054321Y0061153D01*
X0054321Y0056164D01*
X0032133Y0056164D01*
X0031339Y0056958D02*
X0054321Y0056958D01*
X0054321Y0058957D02*
X0028940Y0058957D01*
X0029883Y0060955D02*
X0054321Y0060955D01*
X0054813Y0062954D02*
X0029883Y0062954D01*
X0029234Y0064952D02*
X0054321Y0064952D01*
X0054321Y0066951D02*
X0029883Y0066951D01*
X0029883Y0068949D02*
X0054321Y0068949D01*
X0041284Y0070948D02*
X0036297Y0070948D01*
X0078772Y0088934D02*
X0090591Y0088934D01*
X0090591Y0086936D02*
X0080150Y0086936D01*
X0080150Y0084937D02*
X0091695Y0084937D01*
X0092187Y0080940D02*
X0079812Y0080940D01*
X0080150Y0082939D02*
X0103162Y0082939D01*
X0102126Y0080940D02*
X0098868Y0080940D01*
X0099874Y0078942D02*
X0102126Y0078942D01*
X0100739Y0076943D02*
X0099874Y0076943D01*
X0110964Y0082939D02*
X0125189Y0082939D01*
X0126345Y0080940D02*
X0112000Y0080940D01*
X0119883Y0078942D02*
X0120739Y0078942D01*
X0124803Y0084937D02*
X0097786Y0084937D01*
X0098890Y0086936D02*
X0124540Y0086936D01*
X0122542Y0088934D02*
X0109499Y0088934D01*
X0109559Y0090933D02*
X0112156Y0090933D01*
X0119608Y0090933D02*
X0121995Y0090933D01*
X0121995Y0092932D02*
X0120819Y0092932D01*
X0133627Y0100926D02*
X0173165Y0100926D01*
X0173165Y0098927D02*
X0135625Y0098927D01*
X0137096Y0096929D02*
X0173165Y0096929D01*
X0173165Y0094930D02*
X0137175Y0094930D01*
X0137175Y0092932D02*
X0173165Y0092932D01*
X0173165Y0090933D02*
X0137175Y0090933D01*
X0137175Y0088934D02*
X0173165Y0088934D01*
X0173165Y0086936D02*
X0137175Y0086936D01*
X0137175Y0084937D02*
X0173165Y0084937D01*
X0173165Y0102924D02*
X0131628Y0102924D01*
X0129237Y0104923D02*
X0173165Y0104923D01*
X0140764Y0082939D02*
X0137175Y0082939D01*
X0137175Y0080940D02*
X0140764Y0080940D01*
X0140764Y0078942D02*
X0137175Y0078942D01*
X0137175Y0076943D02*
X0140764Y0076943D01*
X0140764Y0074945D02*
X0137175Y0074945D01*
X0137175Y0072946D02*
X0140764Y0072946D01*
X0140764Y0070948D02*
X0136891Y0070948D01*
X0135129Y0068949D02*
X0140764Y0068949D01*
X0140764Y0066951D02*
X0133131Y0066951D01*
X0131132Y0064952D02*
X0140764Y0064952D01*
X0140764Y0062954D02*
X0129134Y0062954D01*
X0127135Y0060955D02*
X0140764Y0060955D01*
X0140764Y0058957D02*
X0104009Y0058957D01*
X0104009Y0056958D02*
X0140764Y0056958D01*
X0140764Y0054960D02*
X0104009Y0054960D01*
X0104009Y0052961D02*
X0140764Y0052961D01*
X0140764Y0050963D02*
X0104009Y0050963D01*
X0104009Y0048964D02*
X0140764Y0048964D01*
X0140764Y0046966D02*
X0104009Y0046966D01*
X0104009Y0044967D02*
X0140764Y0044967D01*
X0140764Y0042969D02*
X0104009Y0042969D01*
X0104009Y0040970D02*
X0140764Y0040970D01*
X0140764Y0038972D02*
X0104009Y0038972D01*
X0104009Y0036973D02*
X0140764Y0036973D01*
X0140764Y0034975D02*
X0104009Y0034975D01*
X0104009Y0032976D02*
X0140764Y0032976D01*
X0140764Y0030978D02*
X0104009Y0030978D01*
X0104009Y0028979D02*
X0140764Y0028979D01*
X0140764Y0026981D02*
X0104009Y0026981D01*
X0104009Y0024982D02*
X0140764Y0024982D01*
X0140764Y0022984D02*
X0104711Y0022984D01*
X0105740Y0020985D02*
X0140764Y0020985D01*
X0140764Y0018987D02*
X0135294Y0018987D01*
X0137442Y0016988D02*
X0140764Y0016988D01*
X0140764Y0014990D02*
X0138696Y0014990D01*
X0139456Y0012991D02*
X0140764Y0012991D01*
X0140764Y0010993D02*
X0139858Y0010993D01*
X0139858Y0008994D02*
X0140764Y0008994D01*
X0140764Y0006996D02*
X0139423Y0006996D01*
X0122612Y0018987D02*
X0105740Y0018987D01*
X0105740Y0016988D02*
X0120463Y0016988D01*
X0119209Y0014990D02*
X0105449Y0014990D01*
X0105740Y0012991D02*
X0118449Y0012991D01*
X0118047Y0010993D02*
X0105740Y0010993D01*
X0105740Y0008994D02*
X0118047Y0008994D01*
X0118482Y0006996D02*
X0085464Y0006996D01*
X0086975Y0014990D02*
X0089070Y0014990D01*
X0097182Y0014990D02*
X0097338Y0014990D01*
X0032499Y0030978D02*
X0006118Y0030978D01*
X0006118Y0028979D02*
X0031890Y0028979D01*
X0031203Y0026981D02*
X0006118Y0026981D01*
X0006118Y0024982D02*
X0029205Y0024982D01*
X0027206Y0022984D02*
X0006118Y0022984D01*
X0006118Y0020985D02*
X0025208Y0020985D01*
X0023209Y0018987D02*
X0006118Y0018987D01*
X0006118Y0016988D02*
X0008801Y0016988D01*
X0006802Y0014990D02*
X0006118Y0014990D01*
X0016821Y0016988D02*
X0021211Y0016988D01*
X0019212Y0014990D02*
X0018820Y0014990D01*
X0078772Y0090933D02*
X0090591Y0090933D01*
X0090591Y0092932D02*
X0078772Y0092932D01*
D27*
X0074943Y0090711D02*
X0074425Y0091079D01*
X0075037Y0089680D01*
X0075016Y0086827D01*
X0074622Y0086433D01*
X0036827Y0086433D01*
X0032006Y0091254D01*
X0019486Y0091254D01*
X0011330Y0099410D01*
X0010843Y0099425D01*
X0010843Y0088795D02*
X0011330Y0088536D01*
X0029272Y0088536D01*
X0036884Y0080924D01*
X0036884Y0077662D01*
X0037378Y0077624D01*
X0034228Y0077624D02*
X0034166Y0077662D01*
X0034166Y0080380D01*
X0032535Y0082011D01*
X0012418Y0082011D01*
X0011330Y0080924D01*
X0010843Y0080921D01*
X0016669Y0065724D02*
X0016767Y0065700D01*
X0018398Y0065700D01*
X0021661Y0062438D01*
X0021117Y0061894D01*
X0021117Y0057545D01*
X0022598Y0056064D01*
X0025317Y0056064D01*
X0025202Y0056000D01*
X0024679Y0056157D01*
X0027941Y0056157D01*
X0030904Y0053195D01*
X0054826Y0053195D01*
X0054826Y0047758D01*
X0062438Y0040146D01*
X0062438Y0022204D01*
X0062890Y0021748D01*
X0067331Y0017311D02*
X0067331Y0038515D01*
X0059176Y0046671D01*
X0059176Y0049389D01*
X0059002Y0049701D01*
X0059002Y0052850D02*
X0058632Y0053195D01*
X0054826Y0053195D01*
X0053126Y0043824D02*
X0053195Y0043409D01*
X0053195Y0021117D01*
X0062438Y0011874D01*
X0062890Y0011748D01*
X0064613Y0006981D02*
X0068419Y0010787D01*
X0068419Y0014049D01*
X0072769Y0018398D01*
X0072769Y0021661D01*
X0072890Y0021748D01*
X0082555Y0011874D02*
X0082890Y0011748D01*
X0083643Y0011874D01*
X0092342Y0011874D01*
X0093126Y0011827D01*
X0093429Y0011874D01*
X0101041Y0011874D01*
X0101394Y0011827D01*
X0101394Y0018520D02*
X0101041Y0018942D01*
X0101041Y0022748D01*
X0101041Y0062438D01*
X0101585Y0062982D01*
X0124964Y0062982D01*
X0134207Y0072225D01*
X0134207Y0096148D01*
X0128226Y0102128D01*
X0121158Y0102128D01*
X0120070Y0101041D01*
X0120070Y0099410D01*
X0116265Y0095604D01*
X0115882Y0095016D01*
X0115721Y0094517D01*
X0108653Y0094517D01*
X0105934Y0091798D01*
X0105213Y0091866D01*
X0104847Y0091798D01*
X0096691Y0091798D01*
X0095060Y0090167D01*
X0094740Y0089701D01*
X0091798Y0098322D02*
X0091000Y0098362D01*
X0090711Y0098322D01*
X0090167Y0097779D01*
X0074943Y0097779D01*
X0074425Y0097772D01*
X0074943Y0090711D02*
X0074943Y0085274D01*
X0075487Y0084730D01*
X0076000Y0084346D01*
X0095528Y0077063D02*
X0095604Y0076574D01*
X0095604Y0068419D01*
X0096148Y0067875D01*
X0096472Y0067457D01*
X0096691Y0066788D01*
X0101041Y0062438D01*
X0115724Y0075291D02*
X0116265Y0074943D01*
X0123333Y0074943D01*
X0123835Y0074819D01*
X0129313Y0076031D02*
X0130401Y0074943D01*
X0130528Y0074819D01*
X0129313Y0076031D02*
X0129313Y0086361D01*
X0128953Y0086394D01*
X0128770Y0086905D01*
X0124964Y0090711D01*
X0124964Y0098322D01*
X0124543Y0098756D01*
X0115882Y0102496D02*
X0115721Y0102128D01*
X0112459Y0098866D01*
X0105391Y0098866D01*
X0105213Y0098559D01*
X0104847Y0098322D01*
X0091798Y0098322D01*
X0040528Y0077624D02*
X0040690Y0077118D01*
X0025202Y0062299D02*
X0024923Y0062438D01*
X0021661Y0062438D01*
X0016224Y0056457D02*
X0014049Y0058632D01*
X0013795Y0058756D01*
X0016224Y0056457D02*
X0016224Y0053195D01*
X0016551Y0052811D01*
X0017311Y0052652D01*
X0024923Y0052652D01*
X0025202Y0052850D01*
X0025202Y0049701D02*
X0024923Y0049389D01*
X0021661Y0049389D01*
X0017311Y0045040D01*
X0016591Y0044858D01*
X0016224Y0044496D01*
X0016224Y0041234D01*
X0014049Y0039059D01*
X0013795Y0038756D01*
X0043520Y0034268D02*
X0043952Y0034709D01*
X0043952Y0043409D01*
X0043677Y0043824D01*
X0049976Y0043824D02*
X0050477Y0043409D01*
X0050477Y0017855D01*
X0061351Y0006981D01*
X0064613Y0006981D01*
X0164386Y0012811D02*
X0164654Y0011330D01*
X0164654Y0024923D02*
X0164386Y0025094D01*
D28*
X0065252Y0052732D02*
X0059002Y0052732D01*
X0059002Y0052850D01*
D29*
X0068644Y0040465D02*
X0078206Y0030904D01*
X0078206Y0016224D01*
X0082555Y0011874D01*
X0068644Y0040465D02*
X0068644Y0068194D01*
X0062438Y0074400D01*
X0055914Y0074400D01*
X0054826Y0073312D01*
X0042321Y0073312D01*
X0040690Y0074943D01*
X0040690Y0077118D01*
D30*
X0164654Y0024923D02*
X0164654Y0011330D01*
M02*
