G75*
%MOIN*%
%OFA0B0*%
%FSLAX25Y25*%
%IPPOS*%
%LPD*%
%AMOC8*
5,1,8,0,0,1.08239X$1,22.5*
%
%ADD10C,0.00000*%
D10*
X0001000Y0001000D02*
X0001000Y0111236D01*
X0178165Y0111236D01*
X0178165Y0001000D01*
X0001000Y0001000D01*
X0123047Y0010055D02*
X0123049Y0010208D01*
X0123055Y0010362D01*
X0123065Y0010515D01*
X0123079Y0010667D01*
X0123097Y0010820D01*
X0123119Y0010971D01*
X0123144Y0011122D01*
X0123174Y0011273D01*
X0123208Y0011423D01*
X0123245Y0011571D01*
X0123286Y0011719D01*
X0123331Y0011865D01*
X0123380Y0012011D01*
X0123433Y0012155D01*
X0123489Y0012297D01*
X0123549Y0012438D01*
X0123613Y0012578D01*
X0123680Y0012716D01*
X0123751Y0012852D01*
X0123826Y0012986D01*
X0123903Y0013118D01*
X0123985Y0013248D01*
X0124069Y0013376D01*
X0124157Y0013502D01*
X0124248Y0013625D01*
X0124342Y0013746D01*
X0124440Y0013864D01*
X0124540Y0013980D01*
X0124644Y0014093D01*
X0124750Y0014204D01*
X0124859Y0014312D01*
X0124971Y0014417D01*
X0125085Y0014518D01*
X0125203Y0014617D01*
X0125322Y0014713D01*
X0125444Y0014806D01*
X0125569Y0014895D01*
X0125696Y0014982D01*
X0125825Y0015064D01*
X0125956Y0015144D01*
X0126089Y0015220D01*
X0126224Y0015293D01*
X0126361Y0015362D01*
X0126500Y0015427D01*
X0126640Y0015489D01*
X0126782Y0015547D01*
X0126925Y0015602D01*
X0127070Y0015653D01*
X0127216Y0015700D01*
X0127363Y0015743D01*
X0127511Y0015782D01*
X0127660Y0015818D01*
X0127810Y0015849D01*
X0127961Y0015877D01*
X0128112Y0015901D01*
X0128265Y0015921D01*
X0128417Y0015937D01*
X0128570Y0015949D01*
X0128723Y0015957D01*
X0128876Y0015961D01*
X0129030Y0015961D01*
X0129183Y0015957D01*
X0129336Y0015949D01*
X0129489Y0015937D01*
X0129641Y0015921D01*
X0129794Y0015901D01*
X0129945Y0015877D01*
X0130096Y0015849D01*
X0130246Y0015818D01*
X0130395Y0015782D01*
X0130543Y0015743D01*
X0130690Y0015700D01*
X0130836Y0015653D01*
X0130981Y0015602D01*
X0131124Y0015547D01*
X0131266Y0015489D01*
X0131406Y0015427D01*
X0131545Y0015362D01*
X0131682Y0015293D01*
X0131817Y0015220D01*
X0131950Y0015144D01*
X0132081Y0015064D01*
X0132210Y0014982D01*
X0132337Y0014895D01*
X0132462Y0014806D01*
X0132584Y0014713D01*
X0132703Y0014617D01*
X0132821Y0014518D01*
X0132935Y0014417D01*
X0133047Y0014312D01*
X0133156Y0014204D01*
X0133262Y0014093D01*
X0133366Y0013980D01*
X0133466Y0013864D01*
X0133564Y0013746D01*
X0133658Y0013625D01*
X0133749Y0013502D01*
X0133837Y0013376D01*
X0133921Y0013248D01*
X0134003Y0013118D01*
X0134080Y0012986D01*
X0134155Y0012852D01*
X0134226Y0012716D01*
X0134293Y0012578D01*
X0134357Y0012438D01*
X0134417Y0012297D01*
X0134473Y0012155D01*
X0134526Y0012011D01*
X0134575Y0011865D01*
X0134620Y0011719D01*
X0134661Y0011571D01*
X0134698Y0011423D01*
X0134732Y0011273D01*
X0134762Y0011122D01*
X0134787Y0010971D01*
X0134809Y0010820D01*
X0134827Y0010667D01*
X0134841Y0010515D01*
X0134851Y0010362D01*
X0134857Y0010208D01*
X0134859Y0010055D01*
X0134857Y0009902D01*
X0134851Y0009748D01*
X0134841Y0009595D01*
X0134827Y0009443D01*
X0134809Y0009290D01*
X0134787Y0009139D01*
X0134762Y0008988D01*
X0134732Y0008837D01*
X0134698Y0008687D01*
X0134661Y0008539D01*
X0134620Y0008391D01*
X0134575Y0008245D01*
X0134526Y0008099D01*
X0134473Y0007955D01*
X0134417Y0007813D01*
X0134357Y0007672D01*
X0134293Y0007532D01*
X0134226Y0007394D01*
X0134155Y0007258D01*
X0134080Y0007124D01*
X0134003Y0006992D01*
X0133921Y0006862D01*
X0133837Y0006734D01*
X0133749Y0006608D01*
X0133658Y0006485D01*
X0133564Y0006364D01*
X0133466Y0006246D01*
X0133366Y0006130D01*
X0133262Y0006017D01*
X0133156Y0005906D01*
X0133047Y0005798D01*
X0132935Y0005693D01*
X0132821Y0005592D01*
X0132703Y0005493D01*
X0132584Y0005397D01*
X0132462Y0005304D01*
X0132337Y0005215D01*
X0132210Y0005128D01*
X0132081Y0005046D01*
X0131950Y0004966D01*
X0131817Y0004890D01*
X0131682Y0004817D01*
X0131545Y0004748D01*
X0131406Y0004683D01*
X0131266Y0004621D01*
X0131124Y0004563D01*
X0130981Y0004508D01*
X0130836Y0004457D01*
X0130690Y0004410D01*
X0130543Y0004367D01*
X0130395Y0004328D01*
X0130246Y0004292D01*
X0130096Y0004261D01*
X0129945Y0004233D01*
X0129794Y0004209D01*
X0129641Y0004189D01*
X0129489Y0004173D01*
X0129336Y0004161D01*
X0129183Y0004153D01*
X0129030Y0004149D01*
X0128876Y0004149D01*
X0128723Y0004153D01*
X0128570Y0004161D01*
X0128417Y0004173D01*
X0128265Y0004189D01*
X0128112Y0004209D01*
X0127961Y0004233D01*
X0127810Y0004261D01*
X0127660Y0004292D01*
X0127511Y0004328D01*
X0127363Y0004367D01*
X0127216Y0004410D01*
X0127070Y0004457D01*
X0126925Y0004508D01*
X0126782Y0004563D01*
X0126640Y0004621D01*
X0126500Y0004683D01*
X0126361Y0004748D01*
X0126224Y0004817D01*
X0126089Y0004890D01*
X0125956Y0004966D01*
X0125825Y0005046D01*
X0125696Y0005128D01*
X0125569Y0005215D01*
X0125444Y0005304D01*
X0125322Y0005397D01*
X0125203Y0005493D01*
X0125085Y0005592D01*
X0124971Y0005693D01*
X0124859Y0005798D01*
X0124750Y0005906D01*
X0124644Y0006017D01*
X0124540Y0006130D01*
X0124440Y0006246D01*
X0124342Y0006364D01*
X0124248Y0006485D01*
X0124157Y0006608D01*
X0124069Y0006734D01*
X0123985Y0006862D01*
X0123903Y0006992D01*
X0123826Y0007124D01*
X0123751Y0007258D01*
X0123680Y0007394D01*
X0123613Y0007532D01*
X0123549Y0007672D01*
X0123489Y0007813D01*
X0123433Y0007955D01*
X0123380Y0008099D01*
X0123331Y0008245D01*
X0123286Y0008391D01*
X0123245Y0008539D01*
X0123208Y0008687D01*
X0123174Y0008837D01*
X0123144Y0008988D01*
X0123119Y0009139D01*
X0123097Y0009290D01*
X0123079Y0009443D01*
X0123065Y0009595D01*
X0123055Y0009748D01*
X0123049Y0009902D01*
X0123047Y0010055D01*
X0044307Y0102575D02*
X0044309Y0102728D01*
X0044315Y0102882D01*
X0044325Y0103035D01*
X0044339Y0103187D01*
X0044357Y0103340D01*
X0044379Y0103491D01*
X0044404Y0103642D01*
X0044434Y0103793D01*
X0044468Y0103943D01*
X0044505Y0104091D01*
X0044546Y0104239D01*
X0044591Y0104385D01*
X0044640Y0104531D01*
X0044693Y0104675D01*
X0044749Y0104817D01*
X0044809Y0104958D01*
X0044873Y0105098D01*
X0044940Y0105236D01*
X0045011Y0105372D01*
X0045086Y0105506D01*
X0045163Y0105638D01*
X0045245Y0105768D01*
X0045329Y0105896D01*
X0045417Y0106022D01*
X0045508Y0106145D01*
X0045602Y0106266D01*
X0045700Y0106384D01*
X0045800Y0106500D01*
X0045904Y0106613D01*
X0046010Y0106724D01*
X0046119Y0106832D01*
X0046231Y0106937D01*
X0046345Y0107038D01*
X0046463Y0107137D01*
X0046582Y0107233D01*
X0046704Y0107326D01*
X0046829Y0107415D01*
X0046956Y0107502D01*
X0047085Y0107584D01*
X0047216Y0107664D01*
X0047349Y0107740D01*
X0047484Y0107813D01*
X0047621Y0107882D01*
X0047760Y0107947D01*
X0047900Y0108009D01*
X0048042Y0108067D01*
X0048185Y0108122D01*
X0048330Y0108173D01*
X0048476Y0108220D01*
X0048623Y0108263D01*
X0048771Y0108302D01*
X0048920Y0108338D01*
X0049070Y0108369D01*
X0049221Y0108397D01*
X0049372Y0108421D01*
X0049525Y0108441D01*
X0049677Y0108457D01*
X0049830Y0108469D01*
X0049983Y0108477D01*
X0050136Y0108481D01*
X0050290Y0108481D01*
X0050443Y0108477D01*
X0050596Y0108469D01*
X0050749Y0108457D01*
X0050901Y0108441D01*
X0051054Y0108421D01*
X0051205Y0108397D01*
X0051356Y0108369D01*
X0051506Y0108338D01*
X0051655Y0108302D01*
X0051803Y0108263D01*
X0051950Y0108220D01*
X0052096Y0108173D01*
X0052241Y0108122D01*
X0052384Y0108067D01*
X0052526Y0108009D01*
X0052666Y0107947D01*
X0052805Y0107882D01*
X0052942Y0107813D01*
X0053077Y0107740D01*
X0053210Y0107664D01*
X0053341Y0107584D01*
X0053470Y0107502D01*
X0053597Y0107415D01*
X0053722Y0107326D01*
X0053844Y0107233D01*
X0053963Y0107137D01*
X0054081Y0107038D01*
X0054195Y0106937D01*
X0054307Y0106832D01*
X0054416Y0106724D01*
X0054522Y0106613D01*
X0054626Y0106500D01*
X0054726Y0106384D01*
X0054824Y0106266D01*
X0054918Y0106145D01*
X0055009Y0106022D01*
X0055097Y0105896D01*
X0055181Y0105768D01*
X0055263Y0105638D01*
X0055340Y0105506D01*
X0055415Y0105372D01*
X0055486Y0105236D01*
X0055553Y0105098D01*
X0055617Y0104958D01*
X0055677Y0104817D01*
X0055733Y0104675D01*
X0055786Y0104531D01*
X0055835Y0104385D01*
X0055880Y0104239D01*
X0055921Y0104091D01*
X0055958Y0103943D01*
X0055992Y0103793D01*
X0056022Y0103642D01*
X0056047Y0103491D01*
X0056069Y0103340D01*
X0056087Y0103187D01*
X0056101Y0103035D01*
X0056111Y0102882D01*
X0056117Y0102728D01*
X0056119Y0102575D01*
X0056117Y0102422D01*
X0056111Y0102268D01*
X0056101Y0102115D01*
X0056087Y0101963D01*
X0056069Y0101810D01*
X0056047Y0101659D01*
X0056022Y0101508D01*
X0055992Y0101357D01*
X0055958Y0101207D01*
X0055921Y0101059D01*
X0055880Y0100911D01*
X0055835Y0100765D01*
X0055786Y0100619D01*
X0055733Y0100475D01*
X0055677Y0100333D01*
X0055617Y0100192D01*
X0055553Y0100052D01*
X0055486Y0099914D01*
X0055415Y0099778D01*
X0055340Y0099644D01*
X0055263Y0099512D01*
X0055181Y0099382D01*
X0055097Y0099254D01*
X0055009Y0099128D01*
X0054918Y0099005D01*
X0054824Y0098884D01*
X0054726Y0098766D01*
X0054626Y0098650D01*
X0054522Y0098537D01*
X0054416Y0098426D01*
X0054307Y0098318D01*
X0054195Y0098213D01*
X0054081Y0098112D01*
X0053963Y0098013D01*
X0053844Y0097917D01*
X0053722Y0097824D01*
X0053597Y0097735D01*
X0053470Y0097648D01*
X0053341Y0097566D01*
X0053210Y0097486D01*
X0053077Y0097410D01*
X0052942Y0097337D01*
X0052805Y0097268D01*
X0052666Y0097203D01*
X0052526Y0097141D01*
X0052384Y0097083D01*
X0052241Y0097028D01*
X0052096Y0096977D01*
X0051950Y0096930D01*
X0051803Y0096887D01*
X0051655Y0096848D01*
X0051506Y0096812D01*
X0051356Y0096781D01*
X0051205Y0096753D01*
X0051054Y0096729D01*
X0050901Y0096709D01*
X0050749Y0096693D01*
X0050596Y0096681D01*
X0050443Y0096673D01*
X0050290Y0096669D01*
X0050136Y0096669D01*
X0049983Y0096673D01*
X0049830Y0096681D01*
X0049677Y0096693D01*
X0049525Y0096709D01*
X0049372Y0096729D01*
X0049221Y0096753D01*
X0049070Y0096781D01*
X0048920Y0096812D01*
X0048771Y0096848D01*
X0048623Y0096887D01*
X0048476Y0096930D01*
X0048330Y0096977D01*
X0048185Y0097028D01*
X0048042Y0097083D01*
X0047900Y0097141D01*
X0047760Y0097203D01*
X0047621Y0097268D01*
X0047484Y0097337D01*
X0047349Y0097410D01*
X0047216Y0097486D01*
X0047085Y0097566D01*
X0046956Y0097648D01*
X0046829Y0097735D01*
X0046704Y0097824D01*
X0046582Y0097917D01*
X0046463Y0098013D01*
X0046345Y0098112D01*
X0046231Y0098213D01*
X0046119Y0098318D01*
X0046010Y0098426D01*
X0045904Y0098537D01*
X0045800Y0098650D01*
X0045700Y0098766D01*
X0045602Y0098884D01*
X0045508Y0099005D01*
X0045417Y0099128D01*
X0045329Y0099254D01*
X0045245Y0099382D01*
X0045163Y0099512D01*
X0045086Y0099644D01*
X0045011Y0099778D01*
X0044940Y0099914D01*
X0044873Y0100052D01*
X0044809Y0100192D01*
X0044749Y0100333D01*
X0044693Y0100475D01*
X0044640Y0100619D01*
X0044591Y0100765D01*
X0044546Y0100911D01*
X0044505Y0101059D01*
X0044468Y0101207D01*
X0044434Y0101357D01*
X0044404Y0101508D01*
X0044379Y0101659D01*
X0044357Y0101810D01*
X0044339Y0101963D01*
X0044325Y0102115D01*
X0044315Y0102268D01*
X0044309Y0102422D01*
X0044307Y0102575D01*
M02*
