G75*
%MOIN*%
%OFA0B0*%
%FSLAX25Y25*%
%IPPOS*%
%LPD*%
%AMOC8*
5,1,8,0,0,1.08239X$1,22.5*
%
%ADD10C,0.00000*%
%ADD11OC8,0.06000*%
%ADD12C,0.04400*%
%ADD13OC8,0.15000*%
%ADD14OC8,0.10000*%
%ADD15C,0.07000*%
%ADD16R,0.24409X0.22835*%
%ADD17R,0.11811X0.06299*%
%ADD18R,0.06299X0.07087*%
%ADD19OC8,0.06300*%
%ADD20C,0.01969*%
%ADD21C,0.02978*%
%ADD22C,0.02000*%
%ADD23C,0.01575*%
%ADD24C,0.05000*%
D10*
X0001000Y0001000D02*
X0001000Y0111236D01*
X0178165Y0111236D01*
X0178165Y0001000D01*
X0001000Y0001000D01*
X0123047Y0010055D02*
X0123049Y0010208D01*
X0123055Y0010362D01*
X0123065Y0010515D01*
X0123079Y0010667D01*
X0123097Y0010820D01*
X0123119Y0010971D01*
X0123144Y0011122D01*
X0123174Y0011273D01*
X0123208Y0011423D01*
X0123245Y0011571D01*
X0123286Y0011719D01*
X0123331Y0011865D01*
X0123380Y0012011D01*
X0123433Y0012155D01*
X0123489Y0012297D01*
X0123549Y0012438D01*
X0123613Y0012578D01*
X0123680Y0012716D01*
X0123751Y0012852D01*
X0123826Y0012986D01*
X0123903Y0013118D01*
X0123985Y0013248D01*
X0124069Y0013376D01*
X0124157Y0013502D01*
X0124248Y0013625D01*
X0124342Y0013746D01*
X0124440Y0013864D01*
X0124540Y0013980D01*
X0124644Y0014093D01*
X0124750Y0014204D01*
X0124859Y0014312D01*
X0124971Y0014417D01*
X0125085Y0014518D01*
X0125203Y0014617D01*
X0125322Y0014713D01*
X0125444Y0014806D01*
X0125569Y0014895D01*
X0125696Y0014982D01*
X0125825Y0015064D01*
X0125956Y0015144D01*
X0126089Y0015220D01*
X0126224Y0015293D01*
X0126361Y0015362D01*
X0126500Y0015427D01*
X0126640Y0015489D01*
X0126782Y0015547D01*
X0126925Y0015602D01*
X0127070Y0015653D01*
X0127216Y0015700D01*
X0127363Y0015743D01*
X0127511Y0015782D01*
X0127660Y0015818D01*
X0127810Y0015849D01*
X0127961Y0015877D01*
X0128112Y0015901D01*
X0128265Y0015921D01*
X0128417Y0015937D01*
X0128570Y0015949D01*
X0128723Y0015957D01*
X0128876Y0015961D01*
X0129030Y0015961D01*
X0129183Y0015957D01*
X0129336Y0015949D01*
X0129489Y0015937D01*
X0129641Y0015921D01*
X0129794Y0015901D01*
X0129945Y0015877D01*
X0130096Y0015849D01*
X0130246Y0015818D01*
X0130395Y0015782D01*
X0130543Y0015743D01*
X0130690Y0015700D01*
X0130836Y0015653D01*
X0130981Y0015602D01*
X0131124Y0015547D01*
X0131266Y0015489D01*
X0131406Y0015427D01*
X0131545Y0015362D01*
X0131682Y0015293D01*
X0131817Y0015220D01*
X0131950Y0015144D01*
X0132081Y0015064D01*
X0132210Y0014982D01*
X0132337Y0014895D01*
X0132462Y0014806D01*
X0132584Y0014713D01*
X0132703Y0014617D01*
X0132821Y0014518D01*
X0132935Y0014417D01*
X0133047Y0014312D01*
X0133156Y0014204D01*
X0133262Y0014093D01*
X0133366Y0013980D01*
X0133466Y0013864D01*
X0133564Y0013746D01*
X0133658Y0013625D01*
X0133749Y0013502D01*
X0133837Y0013376D01*
X0133921Y0013248D01*
X0134003Y0013118D01*
X0134080Y0012986D01*
X0134155Y0012852D01*
X0134226Y0012716D01*
X0134293Y0012578D01*
X0134357Y0012438D01*
X0134417Y0012297D01*
X0134473Y0012155D01*
X0134526Y0012011D01*
X0134575Y0011865D01*
X0134620Y0011719D01*
X0134661Y0011571D01*
X0134698Y0011423D01*
X0134732Y0011273D01*
X0134762Y0011122D01*
X0134787Y0010971D01*
X0134809Y0010820D01*
X0134827Y0010667D01*
X0134841Y0010515D01*
X0134851Y0010362D01*
X0134857Y0010208D01*
X0134859Y0010055D01*
X0134857Y0009902D01*
X0134851Y0009748D01*
X0134841Y0009595D01*
X0134827Y0009443D01*
X0134809Y0009290D01*
X0134787Y0009139D01*
X0134762Y0008988D01*
X0134732Y0008837D01*
X0134698Y0008687D01*
X0134661Y0008539D01*
X0134620Y0008391D01*
X0134575Y0008245D01*
X0134526Y0008099D01*
X0134473Y0007955D01*
X0134417Y0007813D01*
X0134357Y0007672D01*
X0134293Y0007532D01*
X0134226Y0007394D01*
X0134155Y0007258D01*
X0134080Y0007124D01*
X0134003Y0006992D01*
X0133921Y0006862D01*
X0133837Y0006734D01*
X0133749Y0006608D01*
X0133658Y0006485D01*
X0133564Y0006364D01*
X0133466Y0006246D01*
X0133366Y0006130D01*
X0133262Y0006017D01*
X0133156Y0005906D01*
X0133047Y0005798D01*
X0132935Y0005693D01*
X0132821Y0005592D01*
X0132703Y0005493D01*
X0132584Y0005397D01*
X0132462Y0005304D01*
X0132337Y0005215D01*
X0132210Y0005128D01*
X0132081Y0005046D01*
X0131950Y0004966D01*
X0131817Y0004890D01*
X0131682Y0004817D01*
X0131545Y0004748D01*
X0131406Y0004683D01*
X0131266Y0004621D01*
X0131124Y0004563D01*
X0130981Y0004508D01*
X0130836Y0004457D01*
X0130690Y0004410D01*
X0130543Y0004367D01*
X0130395Y0004328D01*
X0130246Y0004292D01*
X0130096Y0004261D01*
X0129945Y0004233D01*
X0129794Y0004209D01*
X0129641Y0004189D01*
X0129489Y0004173D01*
X0129336Y0004161D01*
X0129183Y0004153D01*
X0129030Y0004149D01*
X0128876Y0004149D01*
X0128723Y0004153D01*
X0128570Y0004161D01*
X0128417Y0004173D01*
X0128265Y0004189D01*
X0128112Y0004209D01*
X0127961Y0004233D01*
X0127810Y0004261D01*
X0127660Y0004292D01*
X0127511Y0004328D01*
X0127363Y0004367D01*
X0127216Y0004410D01*
X0127070Y0004457D01*
X0126925Y0004508D01*
X0126782Y0004563D01*
X0126640Y0004621D01*
X0126500Y0004683D01*
X0126361Y0004748D01*
X0126224Y0004817D01*
X0126089Y0004890D01*
X0125956Y0004966D01*
X0125825Y0005046D01*
X0125696Y0005128D01*
X0125569Y0005215D01*
X0125444Y0005304D01*
X0125322Y0005397D01*
X0125203Y0005493D01*
X0125085Y0005592D01*
X0124971Y0005693D01*
X0124859Y0005798D01*
X0124750Y0005906D01*
X0124644Y0006017D01*
X0124540Y0006130D01*
X0124440Y0006246D01*
X0124342Y0006364D01*
X0124248Y0006485D01*
X0124157Y0006608D01*
X0124069Y0006734D01*
X0123985Y0006862D01*
X0123903Y0006992D01*
X0123826Y0007124D01*
X0123751Y0007258D01*
X0123680Y0007394D01*
X0123613Y0007532D01*
X0123549Y0007672D01*
X0123489Y0007813D01*
X0123433Y0007955D01*
X0123380Y0008099D01*
X0123331Y0008245D01*
X0123286Y0008391D01*
X0123245Y0008539D01*
X0123208Y0008687D01*
X0123174Y0008837D01*
X0123144Y0008988D01*
X0123119Y0009139D01*
X0123097Y0009290D01*
X0123079Y0009443D01*
X0123065Y0009595D01*
X0123055Y0009748D01*
X0123049Y0009902D01*
X0123047Y0010055D01*
X0044307Y0102575D02*
X0044309Y0102728D01*
X0044315Y0102882D01*
X0044325Y0103035D01*
X0044339Y0103187D01*
X0044357Y0103340D01*
X0044379Y0103491D01*
X0044404Y0103642D01*
X0044434Y0103793D01*
X0044468Y0103943D01*
X0044505Y0104091D01*
X0044546Y0104239D01*
X0044591Y0104385D01*
X0044640Y0104531D01*
X0044693Y0104675D01*
X0044749Y0104817D01*
X0044809Y0104958D01*
X0044873Y0105098D01*
X0044940Y0105236D01*
X0045011Y0105372D01*
X0045086Y0105506D01*
X0045163Y0105638D01*
X0045245Y0105768D01*
X0045329Y0105896D01*
X0045417Y0106022D01*
X0045508Y0106145D01*
X0045602Y0106266D01*
X0045700Y0106384D01*
X0045800Y0106500D01*
X0045904Y0106613D01*
X0046010Y0106724D01*
X0046119Y0106832D01*
X0046231Y0106937D01*
X0046345Y0107038D01*
X0046463Y0107137D01*
X0046582Y0107233D01*
X0046704Y0107326D01*
X0046829Y0107415D01*
X0046956Y0107502D01*
X0047085Y0107584D01*
X0047216Y0107664D01*
X0047349Y0107740D01*
X0047484Y0107813D01*
X0047621Y0107882D01*
X0047760Y0107947D01*
X0047900Y0108009D01*
X0048042Y0108067D01*
X0048185Y0108122D01*
X0048330Y0108173D01*
X0048476Y0108220D01*
X0048623Y0108263D01*
X0048771Y0108302D01*
X0048920Y0108338D01*
X0049070Y0108369D01*
X0049221Y0108397D01*
X0049372Y0108421D01*
X0049525Y0108441D01*
X0049677Y0108457D01*
X0049830Y0108469D01*
X0049983Y0108477D01*
X0050136Y0108481D01*
X0050290Y0108481D01*
X0050443Y0108477D01*
X0050596Y0108469D01*
X0050749Y0108457D01*
X0050901Y0108441D01*
X0051054Y0108421D01*
X0051205Y0108397D01*
X0051356Y0108369D01*
X0051506Y0108338D01*
X0051655Y0108302D01*
X0051803Y0108263D01*
X0051950Y0108220D01*
X0052096Y0108173D01*
X0052241Y0108122D01*
X0052384Y0108067D01*
X0052526Y0108009D01*
X0052666Y0107947D01*
X0052805Y0107882D01*
X0052942Y0107813D01*
X0053077Y0107740D01*
X0053210Y0107664D01*
X0053341Y0107584D01*
X0053470Y0107502D01*
X0053597Y0107415D01*
X0053722Y0107326D01*
X0053844Y0107233D01*
X0053963Y0107137D01*
X0054081Y0107038D01*
X0054195Y0106937D01*
X0054307Y0106832D01*
X0054416Y0106724D01*
X0054522Y0106613D01*
X0054626Y0106500D01*
X0054726Y0106384D01*
X0054824Y0106266D01*
X0054918Y0106145D01*
X0055009Y0106022D01*
X0055097Y0105896D01*
X0055181Y0105768D01*
X0055263Y0105638D01*
X0055340Y0105506D01*
X0055415Y0105372D01*
X0055486Y0105236D01*
X0055553Y0105098D01*
X0055617Y0104958D01*
X0055677Y0104817D01*
X0055733Y0104675D01*
X0055786Y0104531D01*
X0055835Y0104385D01*
X0055880Y0104239D01*
X0055921Y0104091D01*
X0055958Y0103943D01*
X0055992Y0103793D01*
X0056022Y0103642D01*
X0056047Y0103491D01*
X0056069Y0103340D01*
X0056087Y0103187D01*
X0056101Y0103035D01*
X0056111Y0102882D01*
X0056117Y0102728D01*
X0056119Y0102575D01*
X0056117Y0102422D01*
X0056111Y0102268D01*
X0056101Y0102115D01*
X0056087Y0101963D01*
X0056069Y0101810D01*
X0056047Y0101659D01*
X0056022Y0101508D01*
X0055992Y0101357D01*
X0055958Y0101207D01*
X0055921Y0101059D01*
X0055880Y0100911D01*
X0055835Y0100765D01*
X0055786Y0100619D01*
X0055733Y0100475D01*
X0055677Y0100333D01*
X0055617Y0100192D01*
X0055553Y0100052D01*
X0055486Y0099914D01*
X0055415Y0099778D01*
X0055340Y0099644D01*
X0055263Y0099512D01*
X0055181Y0099382D01*
X0055097Y0099254D01*
X0055009Y0099128D01*
X0054918Y0099005D01*
X0054824Y0098884D01*
X0054726Y0098766D01*
X0054626Y0098650D01*
X0054522Y0098537D01*
X0054416Y0098426D01*
X0054307Y0098318D01*
X0054195Y0098213D01*
X0054081Y0098112D01*
X0053963Y0098013D01*
X0053844Y0097917D01*
X0053722Y0097824D01*
X0053597Y0097735D01*
X0053470Y0097648D01*
X0053341Y0097566D01*
X0053210Y0097486D01*
X0053077Y0097410D01*
X0052942Y0097337D01*
X0052805Y0097268D01*
X0052666Y0097203D01*
X0052526Y0097141D01*
X0052384Y0097083D01*
X0052241Y0097028D01*
X0052096Y0096977D01*
X0051950Y0096930D01*
X0051803Y0096887D01*
X0051655Y0096848D01*
X0051506Y0096812D01*
X0051356Y0096781D01*
X0051205Y0096753D01*
X0051054Y0096729D01*
X0050901Y0096709D01*
X0050749Y0096693D01*
X0050596Y0096681D01*
X0050443Y0096673D01*
X0050290Y0096669D01*
X0050136Y0096669D01*
X0049983Y0096673D01*
X0049830Y0096681D01*
X0049677Y0096693D01*
X0049525Y0096709D01*
X0049372Y0096729D01*
X0049221Y0096753D01*
X0049070Y0096781D01*
X0048920Y0096812D01*
X0048771Y0096848D01*
X0048623Y0096887D01*
X0048476Y0096930D01*
X0048330Y0096977D01*
X0048185Y0097028D01*
X0048042Y0097083D01*
X0047900Y0097141D01*
X0047760Y0097203D01*
X0047621Y0097268D01*
X0047484Y0097337D01*
X0047349Y0097410D01*
X0047216Y0097486D01*
X0047085Y0097566D01*
X0046956Y0097648D01*
X0046829Y0097735D01*
X0046704Y0097824D01*
X0046582Y0097917D01*
X0046463Y0098013D01*
X0046345Y0098112D01*
X0046231Y0098213D01*
X0046119Y0098318D01*
X0046010Y0098426D01*
X0045904Y0098537D01*
X0045800Y0098650D01*
X0045700Y0098766D01*
X0045602Y0098884D01*
X0045508Y0099005D01*
X0045417Y0099128D01*
X0045329Y0099254D01*
X0045245Y0099382D01*
X0045163Y0099512D01*
X0045086Y0099644D01*
X0045011Y0099778D01*
X0044940Y0099914D01*
X0044873Y0100052D01*
X0044809Y0100192D01*
X0044749Y0100333D01*
X0044693Y0100475D01*
X0044640Y0100619D01*
X0044591Y0100765D01*
X0044546Y0100911D01*
X0044505Y0101059D01*
X0044468Y0101207D01*
X0044434Y0101357D01*
X0044404Y0101508D01*
X0044379Y0101659D01*
X0044357Y0101810D01*
X0044339Y0101963D01*
X0044325Y0102115D01*
X0044315Y0102268D01*
X0044309Y0102422D01*
X0044307Y0102575D01*
D11*
X0062890Y0021748D03*
X0072890Y0021748D03*
X0082890Y0021748D03*
X0082890Y0011748D03*
X0072890Y0011748D03*
X0062890Y0011748D03*
D12*
X0015995Y0038756D02*
X0011595Y0038756D01*
X0011595Y0058756D02*
X0015995Y0058756D01*
D13*
X0164386Y0099425D03*
X0164386Y0012811D03*
D14*
X0012811Y0010843D03*
X0010843Y0099425D03*
D15*
X0160886Y0065094D02*
X0167886Y0065094D01*
X0167886Y0025094D02*
X0160886Y0025094D01*
D16*
X0136118Y0048638D03*
D17*
X0164386Y0057614D03*
X0164386Y0039661D03*
D18*
X0147063Y0030528D03*
X0136039Y0030528D03*
D19*
X0010843Y0080921D03*
X0010843Y0088795D03*
D20*
X0033078Y0072769D02*
X0102672Y0072769D01*
X0136381Y0049389D02*
X0136118Y0048638D01*
X0136381Y0048302D01*
X0136381Y0030904D01*
X0136039Y0030528D01*
X0135294Y0030360D01*
X0091254Y0030360D01*
X0086361Y0025467D01*
X0054283Y0057545D01*
X0086361Y0025467D02*
X0083099Y0022204D01*
X0082890Y0021748D01*
X0136381Y0049389D02*
X0146276Y0049389D01*
X0146276Y0068717D01*
X0155724Y0078165D01*
X0164110Y0086567D01*
X0164110Y0101041D01*
X0164386Y0099425D01*
D21*
X0102672Y0072769D03*
X0054283Y0057545D03*
X0033078Y0072769D03*
X0101041Y0022748D03*
X0067331Y0017311D03*
D22*
X0060563Y0016748D02*
X0057709Y0013894D01*
X0057709Y0009602D01*
X0060744Y0006567D01*
X0065036Y0006567D01*
X0067890Y0009421D01*
X0070744Y0006567D01*
X0075036Y0006567D01*
X0077890Y0009421D01*
X0080744Y0006567D01*
X0085036Y0006567D01*
X0088071Y0009602D01*
X0088071Y0013894D01*
X0086791Y0015174D01*
X0087246Y0015629D01*
X0089765Y0018148D01*
X0121623Y0018148D01*
X0120226Y0016751D01*
X0118790Y0014264D01*
X0118047Y0011491D01*
X0118047Y0008619D01*
X0118749Y0006000D01*
X0018124Y0006000D01*
X0019992Y0007868D01*
X0019992Y0013817D01*
X0015786Y0018024D01*
X0009837Y0018024D01*
X0006000Y0014187D01*
X0006000Y0078224D01*
X0008634Y0075590D01*
X0013051Y0075590D01*
X0016174Y0078713D01*
X0016174Y0083129D01*
X0014445Y0084858D01*
X0016174Y0086587D01*
X0016174Y0091003D01*
X0014375Y0092802D01*
X0018024Y0096451D01*
X0018024Y0102400D01*
X0014187Y0106236D01*
X0039903Y0106236D01*
X0039307Y0104011D01*
X0039307Y0101139D01*
X0040050Y0098365D01*
X0041486Y0095879D01*
X0043516Y0093848D01*
X0046003Y0092412D01*
X0048777Y0091669D01*
X0051648Y0091669D01*
X0054422Y0092412D01*
X0056909Y0093848D01*
X0058939Y0095879D01*
X0060375Y0098365D01*
X0061118Y0101139D01*
X0061118Y0104011D01*
X0060522Y0106236D01*
X0173165Y0106236D01*
X0173165Y0078165D01*
X0155724Y0078165D01*
X0146276Y0068717D01*
X0146276Y0036252D01*
X0143010Y0036252D01*
X0141732Y0034974D01*
X0141732Y0028997D01*
X0136820Y0024085D01*
X0104459Y0024085D01*
X0104152Y0024827D01*
X0103120Y0025859D01*
X0101771Y0026418D01*
X0100311Y0026418D01*
X0098962Y0025859D01*
X0097930Y0024827D01*
X0097622Y0024085D01*
X0087945Y0024085D01*
X0086854Y0023633D01*
X0083500Y0020280D01*
X0082154Y0020280D01*
X0080630Y0021803D01*
X0080630Y0023882D01*
X0080178Y0024973D01*
X0076916Y0028235D01*
X0076916Y0028235D01*
X0076081Y0029070D01*
X0074990Y0029522D01*
X0067285Y0029522D01*
X0066194Y0029070D01*
X0064052Y0026929D01*
X0060744Y0026929D01*
X0057709Y0023894D01*
X0057709Y0019602D01*
X0060563Y0016748D01*
X0060323Y0016988D02*
X0016821Y0016988D01*
X0018820Y0014990D02*
X0058804Y0014990D01*
X0057709Y0012991D02*
X0019992Y0012991D01*
X0019992Y0010993D02*
X0057709Y0010993D01*
X0058317Y0008994D02*
X0019992Y0008994D01*
X0019120Y0006996D02*
X0060315Y0006996D01*
X0065464Y0006996D02*
X0070315Y0006996D01*
X0068317Y0008994D02*
X0067463Y0008994D01*
X0075464Y0006996D02*
X0080315Y0006996D01*
X0078317Y0008994D02*
X0077463Y0008994D01*
X0085464Y0006996D02*
X0118482Y0006996D01*
X0118047Y0008994D02*
X0087463Y0008994D01*
X0088071Y0010993D02*
X0118047Y0010993D01*
X0118449Y0012991D02*
X0088071Y0012991D01*
X0086975Y0014990D02*
X0119209Y0014990D01*
X0120463Y0016988D02*
X0088605Y0016988D01*
X0084206Y0020985D02*
X0081448Y0020985D01*
X0080630Y0022984D02*
X0086204Y0022984D01*
X0080169Y0024982D02*
X0098085Y0024982D01*
X0103997Y0024982D02*
X0137717Y0024982D01*
X0139716Y0026981D02*
X0078171Y0026981D01*
X0076172Y0028979D02*
X0141714Y0028979D01*
X0141732Y0030978D02*
X0006000Y0030978D01*
X0006000Y0032976D02*
X0141732Y0032976D01*
X0141733Y0034975D02*
X0018315Y0034975D01*
X0018477Y0035042D02*
X0019709Y0036274D01*
X0020376Y0037884D01*
X0020376Y0039627D01*
X0019709Y0041238D01*
X0018477Y0042470D01*
X0016867Y0043137D01*
X0010724Y0043137D01*
X0009114Y0042470D01*
X0007881Y0041238D01*
X0007214Y0039627D01*
X0007214Y0037884D01*
X0007881Y0036274D01*
X0009114Y0035042D01*
X0010724Y0034375D01*
X0016867Y0034375D01*
X0018477Y0035042D01*
X0019999Y0036973D02*
X0146276Y0036973D01*
X0146276Y0038972D02*
X0020376Y0038972D01*
X0019820Y0040970D02*
X0146276Y0040970D01*
X0146276Y0042969D02*
X0017273Y0042969D01*
X0010318Y0042969D02*
X0006000Y0042969D01*
X0006000Y0044967D02*
X0146276Y0044967D01*
X0146276Y0046966D02*
X0006000Y0046966D01*
X0006000Y0048964D02*
X0146276Y0048964D01*
X0146276Y0050963D02*
X0006000Y0050963D01*
X0006000Y0052961D02*
X0146276Y0052961D01*
X0146276Y0054960D02*
X0018279Y0054960D01*
X0018477Y0055042D02*
X0019709Y0056274D01*
X0020376Y0057884D01*
X0020376Y0059627D01*
X0019709Y0061238D01*
X0018477Y0062470D01*
X0016867Y0063137D01*
X0010724Y0063137D01*
X0009114Y0062470D01*
X0007881Y0061238D01*
X0007214Y0059627D01*
X0007214Y0057884D01*
X0007881Y0056274D01*
X0009114Y0055042D01*
X0010724Y0054375D01*
X0016867Y0054375D01*
X0018477Y0055042D01*
X0019993Y0056958D02*
X0146276Y0056958D01*
X0146276Y0058957D02*
X0020376Y0058957D01*
X0019826Y0060955D02*
X0146276Y0060955D01*
X0146276Y0062954D02*
X0017309Y0062954D01*
X0010282Y0062954D02*
X0006000Y0062954D01*
X0006000Y0064952D02*
X0146276Y0064952D01*
X0146276Y0066951D02*
X0006000Y0066951D01*
X0006000Y0068949D02*
X0146508Y0068949D01*
X0148507Y0070948D02*
X0105890Y0070948D01*
X0105783Y0070690D02*
X0104751Y0069657D01*
X0103402Y0069098D01*
X0101942Y0069098D01*
X0100724Y0069603D01*
X0035027Y0069603D01*
X0033808Y0069098D01*
X0032348Y0069098D01*
X0030999Y0069657D01*
X0029967Y0070690D01*
X0029408Y0072038D01*
X0029408Y0073499D01*
X0029967Y0074847D01*
X0030999Y0075880D01*
X0032348Y0076439D01*
X0033808Y0076439D01*
X0035027Y0075934D01*
X0100724Y0075934D01*
X0101942Y0076439D01*
X0103402Y0076439D01*
X0104751Y0075880D01*
X0105783Y0074847D01*
X0106342Y0073499D01*
X0106342Y0072038D01*
X0105783Y0070690D01*
X0106342Y0072946D02*
X0150505Y0072946D01*
X0152504Y0074945D02*
X0105686Y0074945D01*
X0061061Y0100926D02*
X0173165Y0100926D01*
X0173165Y0098927D02*
X0060525Y0098927D01*
X0059545Y0096929D02*
X0173165Y0096929D01*
X0173165Y0094930D02*
X0057991Y0094930D01*
X0055321Y0092932D02*
X0173165Y0092932D01*
X0173165Y0090933D02*
X0016174Y0090933D01*
X0014504Y0092932D02*
X0045104Y0092932D01*
X0042435Y0094930D02*
X0016503Y0094930D01*
X0018024Y0096929D02*
X0040880Y0096929D01*
X0039900Y0098927D02*
X0018024Y0098927D01*
X0018024Y0100926D02*
X0039364Y0100926D01*
X0039307Y0102924D02*
X0017499Y0102924D01*
X0015501Y0104923D02*
X0039551Y0104923D01*
X0060874Y0104923D02*
X0173165Y0104923D01*
X0173165Y0102924D02*
X0061118Y0102924D01*
X0030064Y0074945D02*
X0006000Y0074945D01*
X0006000Y0076943D02*
X0007281Y0076943D01*
X0006000Y0072946D02*
X0029408Y0072946D01*
X0029860Y0070948D02*
X0006000Y0070948D01*
X0014404Y0076943D02*
X0154502Y0076943D01*
X0173165Y0078942D02*
X0016174Y0078942D01*
X0016174Y0080940D02*
X0173165Y0080940D01*
X0173165Y0082939D02*
X0016174Y0082939D01*
X0014524Y0084937D02*
X0173165Y0084937D01*
X0173165Y0086936D02*
X0016174Y0086936D01*
X0016174Y0088934D02*
X0173165Y0088934D01*
X0066102Y0028979D02*
X0006000Y0028979D01*
X0006000Y0026981D02*
X0064104Y0026981D01*
X0058797Y0024982D02*
X0006000Y0024982D01*
X0006000Y0022984D02*
X0057709Y0022984D01*
X0057709Y0020985D02*
X0006000Y0020985D01*
X0006000Y0018987D02*
X0058324Y0018987D01*
X0009276Y0034975D02*
X0006000Y0034975D01*
X0006000Y0036973D02*
X0007592Y0036973D01*
X0007214Y0038972D02*
X0006000Y0038972D01*
X0006000Y0040970D02*
X0007770Y0040970D01*
X0009311Y0054960D02*
X0006000Y0054960D01*
X0006000Y0056958D02*
X0007598Y0056958D01*
X0007214Y0058957D02*
X0006000Y0058957D01*
X0006000Y0060955D02*
X0007764Y0060955D01*
X0008801Y0016988D02*
X0006000Y0016988D01*
X0006000Y0014990D02*
X0006802Y0014990D01*
D23*
X0062890Y0021748D02*
X0063526Y0022204D01*
X0067875Y0026554D01*
X0074400Y0026554D01*
X0077662Y0023292D01*
X0077662Y0020573D01*
X0080924Y0017311D01*
X0084730Y0017311D01*
X0088536Y0021117D01*
X0101041Y0021117D01*
X0101041Y0022748D01*
X0101041Y0021117D02*
X0138050Y0021117D01*
X0146899Y0029966D01*
X0146712Y0030360D01*
X0147063Y0030528D01*
X0147256Y0030904D01*
X0155411Y0030904D01*
X0164110Y0039603D01*
X0164386Y0039661D01*
X0072890Y0011748D02*
X0072769Y0011874D01*
X0067331Y0017311D01*
D24*
X0164386Y0057614D02*
X0164386Y0065094D01*
M02*
