%
M48
M72
T01C0.01378
T02C0.02400
T03C0.03200
T04C0.04000
T05C0.04400
T06C0.05500
T07C0.11811
%
T01
X33078Y72769
X54283Y57545
X102672Y72769
X101041Y22748
X67331Y17311
T02
X13795Y38756
X13795Y58756
T03
X164386Y25094
X164386Y65094
X10843Y88795
X10843Y80921
T04
X62890Y21748
X72890Y21748
X82890Y21748
X82890Y11748
X72890Y11748
X62890Y11748
T05
X12811Y10843
X10843Y99425
T06
X164386Y99425
X164386Y12811
T07
X128953Y10055
X50213Y102575
M30
