G75*
%MOIN*%
%OFA0B0*%
%FSLAX25Y25*%
%IPPOS*%
%LPD*%
%AMOC8*
5,1,8,0,0,1.08239X$1,22.5*
%
%ADD10C,0.00000*%
%ADD11C,0.00600*%
%ADD12C,0.00200*%
%ADD13C,0.00800*%
%ADD14R,0.03000X0.03400*%
%ADD15C,0.00400*%
D10*
X0001000Y0001000D02*
X0001000Y0111236D01*
X0178165Y0111236D01*
X0178165Y0001000D01*
X0001000Y0001000D01*
X0123047Y0010055D02*
X0123049Y0010208D01*
X0123055Y0010362D01*
X0123065Y0010515D01*
X0123079Y0010667D01*
X0123097Y0010820D01*
X0123119Y0010971D01*
X0123144Y0011122D01*
X0123174Y0011273D01*
X0123208Y0011423D01*
X0123245Y0011571D01*
X0123286Y0011719D01*
X0123331Y0011865D01*
X0123380Y0012011D01*
X0123433Y0012155D01*
X0123489Y0012297D01*
X0123549Y0012438D01*
X0123613Y0012578D01*
X0123680Y0012716D01*
X0123751Y0012852D01*
X0123826Y0012986D01*
X0123903Y0013118D01*
X0123985Y0013248D01*
X0124069Y0013376D01*
X0124157Y0013502D01*
X0124248Y0013625D01*
X0124342Y0013746D01*
X0124440Y0013864D01*
X0124540Y0013980D01*
X0124644Y0014093D01*
X0124750Y0014204D01*
X0124859Y0014312D01*
X0124971Y0014417D01*
X0125085Y0014518D01*
X0125203Y0014617D01*
X0125322Y0014713D01*
X0125444Y0014806D01*
X0125569Y0014895D01*
X0125696Y0014982D01*
X0125825Y0015064D01*
X0125956Y0015144D01*
X0126089Y0015220D01*
X0126224Y0015293D01*
X0126361Y0015362D01*
X0126500Y0015427D01*
X0126640Y0015489D01*
X0126782Y0015547D01*
X0126925Y0015602D01*
X0127070Y0015653D01*
X0127216Y0015700D01*
X0127363Y0015743D01*
X0127511Y0015782D01*
X0127660Y0015818D01*
X0127810Y0015849D01*
X0127961Y0015877D01*
X0128112Y0015901D01*
X0128265Y0015921D01*
X0128417Y0015937D01*
X0128570Y0015949D01*
X0128723Y0015957D01*
X0128876Y0015961D01*
X0129030Y0015961D01*
X0129183Y0015957D01*
X0129336Y0015949D01*
X0129489Y0015937D01*
X0129641Y0015921D01*
X0129794Y0015901D01*
X0129945Y0015877D01*
X0130096Y0015849D01*
X0130246Y0015818D01*
X0130395Y0015782D01*
X0130543Y0015743D01*
X0130690Y0015700D01*
X0130836Y0015653D01*
X0130981Y0015602D01*
X0131124Y0015547D01*
X0131266Y0015489D01*
X0131406Y0015427D01*
X0131545Y0015362D01*
X0131682Y0015293D01*
X0131817Y0015220D01*
X0131950Y0015144D01*
X0132081Y0015064D01*
X0132210Y0014982D01*
X0132337Y0014895D01*
X0132462Y0014806D01*
X0132584Y0014713D01*
X0132703Y0014617D01*
X0132821Y0014518D01*
X0132935Y0014417D01*
X0133047Y0014312D01*
X0133156Y0014204D01*
X0133262Y0014093D01*
X0133366Y0013980D01*
X0133466Y0013864D01*
X0133564Y0013746D01*
X0133658Y0013625D01*
X0133749Y0013502D01*
X0133837Y0013376D01*
X0133921Y0013248D01*
X0134003Y0013118D01*
X0134080Y0012986D01*
X0134155Y0012852D01*
X0134226Y0012716D01*
X0134293Y0012578D01*
X0134357Y0012438D01*
X0134417Y0012297D01*
X0134473Y0012155D01*
X0134526Y0012011D01*
X0134575Y0011865D01*
X0134620Y0011719D01*
X0134661Y0011571D01*
X0134698Y0011423D01*
X0134732Y0011273D01*
X0134762Y0011122D01*
X0134787Y0010971D01*
X0134809Y0010820D01*
X0134827Y0010667D01*
X0134841Y0010515D01*
X0134851Y0010362D01*
X0134857Y0010208D01*
X0134859Y0010055D01*
X0134857Y0009902D01*
X0134851Y0009748D01*
X0134841Y0009595D01*
X0134827Y0009443D01*
X0134809Y0009290D01*
X0134787Y0009139D01*
X0134762Y0008988D01*
X0134732Y0008837D01*
X0134698Y0008687D01*
X0134661Y0008539D01*
X0134620Y0008391D01*
X0134575Y0008245D01*
X0134526Y0008099D01*
X0134473Y0007955D01*
X0134417Y0007813D01*
X0134357Y0007672D01*
X0134293Y0007532D01*
X0134226Y0007394D01*
X0134155Y0007258D01*
X0134080Y0007124D01*
X0134003Y0006992D01*
X0133921Y0006862D01*
X0133837Y0006734D01*
X0133749Y0006608D01*
X0133658Y0006485D01*
X0133564Y0006364D01*
X0133466Y0006246D01*
X0133366Y0006130D01*
X0133262Y0006017D01*
X0133156Y0005906D01*
X0133047Y0005798D01*
X0132935Y0005693D01*
X0132821Y0005592D01*
X0132703Y0005493D01*
X0132584Y0005397D01*
X0132462Y0005304D01*
X0132337Y0005215D01*
X0132210Y0005128D01*
X0132081Y0005046D01*
X0131950Y0004966D01*
X0131817Y0004890D01*
X0131682Y0004817D01*
X0131545Y0004748D01*
X0131406Y0004683D01*
X0131266Y0004621D01*
X0131124Y0004563D01*
X0130981Y0004508D01*
X0130836Y0004457D01*
X0130690Y0004410D01*
X0130543Y0004367D01*
X0130395Y0004328D01*
X0130246Y0004292D01*
X0130096Y0004261D01*
X0129945Y0004233D01*
X0129794Y0004209D01*
X0129641Y0004189D01*
X0129489Y0004173D01*
X0129336Y0004161D01*
X0129183Y0004153D01*
X0129030Y0004149D01*
X0128876Y0004149D01*
X0128723Y0004153D01*
X0128570Y0004161D01*
X0128417Y0004173D01*
X0128265Y0004189D01*
X0128112Y0004209D01*
X0127961Y0004233D01*
X0127810Y0004261D01*
X0127660Y0004292D01*
X0127511Y0004328D01*
X0127363Y0004367D01*
X0127216Y0004410D01*
X0127070Y0004457D01*
X0126925Y0004508D01*
X0126782Y0004563D01*
X0126640Y0004621D01*
X0126500Y0004683D01*
X0126361Y0004748D01*
X0126224Y0004817D01*
X0126089Y0004890D01*
X0125956Y0004966D01*
X0125825Y0005046D01*
X0125696Y0005128D01*
X0125569Y0005215D01*
X0125444Y0005304D01*
X0125322Y0005397D01*
X0125203Y0005493D01*
X0125085Y0005592D01*
X0124971Y0005693D01*
X0124859Y0005798D01*
X0124750Y0005906D01*
X0124644Y0006017D01*
X0124540Y0006130D01*
X0124440Y0006246D01*
X0124342Y0006364D01*
X0124248Y0006485D01*
X0124157Y0006608D01*
X0124069Y0006734D01*
X0123985Y0006862D01*
X0123903Y0006992D01*
X0123826Y0007124D01*
X0123751Y0007258D01*
X0123680Y0007394D01*
X0123613Y0007532D01*
X0123549Y0007672D01*
X0123489Y0007813D01*
X0123433Y0007955D01*
X0123380Y0008099D01*
X0123331Y0008245D01*
X0123286Y0008391D01*
X0123245Y0008539D01*
X0123208Y0008687D01*
X0123174Y0008837D01*
X0123144Y0008988D01*
X0123119Y0009139D01*
X0123097Y0009290D01*
X0123079Y0009443D01*
X0123065Y0009595D01*
X0123055Y0009748D01*
X0123049Y0009902D01*
X0123047Y0010055D01*
X0044307Y0102575D02*
X0044309Y0102728D01*
X0044315Y0102882D01*
X0044325Y0103035D01*
X0044339Y0103187D01*
X0044357Y0103340D01*
X0044379Y0103491D01*
X0044404Y0103642D01*
X0044434Y0103793D01*
X0044468Y0103943D01*
X0044505Y0104091D01*
X0044546Y0104239D01*
X0044591Y0104385D01*
X0044640Y0104531D01*
X0044693Y0104675D01*
X0044749Y0104817D01*
X0044809Y0104958D01*
X0044873Y0105098D01*
X0044940Y0105236D01*
X0045011Y0105372D01*
X0045086Y0105506D01*
X0045163Y0105638D01*
X0045245Y0105768D01*
X0045329Y0105896D01*
X0045417Y0106022D01*
X0045508Y0106145D01*
X0045602Y0106266D01*
X0045700Y0106384D01*
X0045800Y0106500D01*
X0045904Y0106613D01*
X0046010Y0106724D01*
X0046119Y0106832D01*
X0046231Y0106937D01*
X0046345Y0107038D01*
X0046463Y0107137D01*
X0046582Y0107233D01*
X0046704Y0107326D01*
X0046829Y0107415D01*
X0046956Y0107502D01*
X0047085Y0107584D01*
X0047216Y0107664D01*
X0047349Y0107740D01*
X0047484Y0107813D01*
X0047621Y0107882D01*
X0047760Y0107947D01*
X0047900Y0108009D01*
X0048042Y0108067D01*
X0048185Y0108122D01*
X0048330Y0108173D01*
X0048476Y0108220D01*
X0048623Y0108263D01*
X0048771Y0108302D01*
X0048920Y0108338D01*
X0049070Y0108369D01*
X0049221Y0108397D01*
X0049372Y0108421D01*
X0049525Y0108441D01*
X0049677Y0108457D01*
X0049830Y0108469D01*
X0049983Y0108477D01*
X0050136Y0108481D01*
X0050290Y0108481D01*
X0050443Y0108477D01*
X0050596Y0108469D01*
X0050749Y0108457D01*
X0050901Y0108441D01*
X0051054Y0108421D01*
X0051205Y0108397D01*
X0051356Y0108369D01*
X0051506Y0108338D01*
X0051655Y0108302D01*
X0051803Y0108263D01*
X0051950Y0108220D01*
X0052096Y0108173D01*
X0052241Y0108122D01*
X0052384Y0108067D01*
X0052526Y0108009D01*
X0052666Y0107947D01*
X0052805Y0107882D01*
X0052942Y0107813D01*
X0053077Y0107740D01*
X0053210Y0107664D01*
X0053341Y0107584D01*
X0053470Y0107502D01*
X0053597Y0107415D01*
X0053722Y0107326D01*
X0053844Y0107233D01*
X0053963Y0107137D01*
X0054081Y0107038D01*
X0054195Y0106937D01*
X0054307Y0106832D01*
X0054416Y0106724D01*
X0054522Y0106613D01*
X0054626Y0106500D01*
X0054726Y0106384D01*
X0054824Y0106266D01*
X0054918Y0106145D01*
X0055009Y0106022D01*
X0055097Y0105896D01*
X0055181Y0105768D01*
X0055263Y0105638D01*
X0055340Y0105506D01*
X0055415Y0105372D01*
X0055486Y0105236D01*
X0055553Y0105098D01*
X0055617Y0104958D01*
X0055677Y0104817D01*
X0055733Y0104675D01*
X0055786Y0104531D01*
X0055835Y0104385D01*
X0055880Y0104239D01*
X0055921Y0104091D01*
X0055958Y0103943D01*
X0055992Y0103793D01*
X0056022Y0103642D01*
X0056047Y0103491D01*
X0056069Y0103340D01*
X0056087Y0103187D01*
X0056101Y0103035D01*
X0056111Y0102882D01*
X0056117Y0102728D01*
X0056119Y0102575D01*
X0056117Y0102422D01*
X0056111Y0102268D01*
X0056101Y0102115D01*
X0056087Y0101963D01*
X0056069Y0101810D01*
X0056047Y0101659D01*
X0056022Y0101508D01*
X0055992Y0101357D01*
X0055958Y0101207D01*
X0055921Y0101059D01*
X0055880Y0100911D01*
X0055835Y0100765D01*
X0055786Y0100619D01*
X0055733Y0100475D01*
X0055677Y0100333D01*
X0055617Y0100192D01*
X0055553Y0100052D01*
X0055486Y0099914D01*
X0055415Y0099778D01*
X0055340Y0099644D01*
X0055263Y0099512D01*
X0055181Y0099382D01*
X0055097Y0099254D01*
X0055009Y0099128D01*
X0054918Y0099005D01*
X0054824Y0098884D01*
X0054726Y0098766D01*
X0054626Y0098650D01*
X0054522Y0098537D01*
X0054416Y0098426D01*
X0054307Y0098318D01*
X0054195Y0098213D01*
X0054081Y0098112D01*
X0053963Y0098013D01*
X0053844Y0097917D01*
X0053722Y0097824D01*
X0053597Y0097735D01*
X0053470Y0097648D01*
X0053341Y0097566D01*
X0053210Y0097486D01*
X0053077Y0097410D01*
X0052942Y0097337D01*
X0052805Y0097268D01*
X0052666Y0097203D01*
X0052526Y0097141D01*
X0052384Y0097083D01*
X0052241Y0097028D01*
X0052096Y0096977D01*
X0051950Y0096930D01*
X0051803Y0096887D01*
X0051655Y0096848D01*
X0051506Y0096812D01*
X0051356Y0096781D01*
X0051205Y0096753D01*
X0051054Y0096729D01*
X0050901Y0096709D01*
X0050749Y0096693D01*
X0050596Y0096681D01*
X0050443Y0096673D01*
X0050290Y0096669D01*
X0050136Y0096669D01*
X0049983Y0096673D01*
X0049830Y0096681D01*
X0049677Y0096693D01*
X0049525Y0096709D01*
X0049372Y0096729D01*
X0049221Y0096753D01*
X0049070Y0096781D01*
X0048920Y0096812D01*
X0048771Y0096848D01*
X0048623Y0096887D01*
X0048476Y0096930D01*
X0048330Y0096977D01*
X0048185Y0097028D01*
X0048042Y0097083D01*
X0047900Y0097141D01*
X0047760Y0097203D01*
X0047621Y0097268D01*
X0047484Y0097337D01*
X0047349Y0097410D01*
X0047216Y0097486D01*
X0047085Y0097566D01*
X0046956Y0097648D01*
X0046829Y0097735D01*
X0046704Y0097824D01*
X0046582Y0097917D01*
X0046463Y0098013D01*
X0046345Y0098112D01*
X0046231Y0098213D01*
X0046119Y0098318D01*
X0046010Y0098426D01*
X0045904Y0098537D01*
X0045800Y0098650D01*
X0045700Y0098766D01*
X0045602Y0098884D01*
X0045508Y0099005D01*
X0045417Y0099128D01*
X0045329Y0099254D01*
X0045245Y0099382D01*
X0045163Y0099512D01*
X0045086Y0099644D01*
X0045011Y0099778D01*
X0044940Y0099914D01*
X0044873Y0100052D01*
X0044809Y0100192D01*
X0044749Y0100333D01*
X0044693Y0100475D01*
X0044640Y0100619D01*
X0044591Y0100765D01*
X0044546Y0100911D01*
X0044505Y0101059D01*
X0044468Y0101207D01*
X0044434Y0101357D01*
X0044404Y0101508D01*
X0044379Y0101659D01*
X0044357Y0101810D01*
X0044339Y0101963D01*
X0044325Y0102115D01*
X0044315Y0102268D01*
X0044309Y0102422D01*
X0044307Y0102575D01*
D11*
X0022795Y0062256D02*
X0022795Y0035256D01*
X0022792Y0035037D01*
X0022784Y0034818D01*
X0022771Y0034599D01*
X0022752Y0034381D01*
X0022728Y0034163D01*
X0022699Y0033946D01*
X0022665Y0033729D01*
X0022625Y0033514D01*
X0022580Y0033299D01*
X0022529Y0033086D01*
X0022474Y0032874D01*
X0022413Y0032663D01*
X0022348Y0032454D01*
X0022277Y0032247D01*
X0022201Y0032041D01*
X0022120Y0031837D01*
X0022035Y0031635D01*
X0021944Y0031436D01*
X0021849Y0031239D01*
X0021748Y0031044D01*
X0021643Y0030851D01*
X0021534Y0030661D01*
X0021420Y0030474D01*
X0021301Y0030290D01*
X0021178Y0030109D01*
X0021050Y0029931D01*
X0020918Y0029755D01*
X0020782Y0029584D01*
X0020642Y0029415D01*
X0020498Y0029250D01*
X0020350Y0029089D01*
X0020198Y0028931D01*
X0020042Y0028777D01*
X0019882Y0028627D01*
X0019719Y0028480D01*
X0019552Y0028338D01*
X0019382Y0028200D01*
X0019208Y0028066D01*
X0019032Y0027936D01*
X0018852Y0027811D01*
X0018669Y0027690D01*
X0018483Y0027574D01*
X0018295Y0027462D01*
X0018104Y0027355D01*
X0017910Y0027252D01*
X0017714Y0027154D01*
X0017516Y0027061D01*
X0017315Y0026973D01*
X0017112Y0026890D01*
X0016907Y0026811D01*
X0016701Y0026738D01*
X0016493Y0026670D01*
X0016283Y0026607D01*
X0016071Y0026549D01*
X0015859Y0026496D01*
X0015645Y0026448D01*
X0015430Y0026406D01*
X0015214Y0026369D01*
X0014997Y0026337D01*
X0014779Y0026310D01*
X0014561Y0026289D01*
X0014343Y0026273D01*
X0014124Y0026262D01*
X0013905Y0026257D01*
X0013685Y0026257D01*
X0013466Y0026262D01*
X0013247Y0026273D01*
X0013029Y0026289D01*
X0012811Y0026310D01*
X0012593Y0026337D01*
X0012376Y0026369D01*
X0012160Y0026406D01*
X0011945Y0026448D01*
X0011731Y0026496D01*
X0011519Y0026549D01*
X0011307Y0026607D01*
X0011097Y0026670D01*
X0010889Y0026738D01*
X0010683Y0026811D01*
X0010478Y0026890D01*
X0010275Y0026973D01*
X0010074Y0027061D01*
X0009876Y0027154D01*
X0009680Y0027252D01*
X0009486Y0027355D01*
X0009295Y0027462D01*
X0009107Y0027574D01*
X0008921Y0027690D01*
X0008738Y0027811D01*
X0008558Y0027936D01*
X0008382Y0028066D01*
X0008208Y0028200D01*
X0008038Y0028338D01*
X0007871Y0028480D01*
X0007708Y0028627D01*
X0007548Y0028777D01*
X0007392Y0028931D01*
X0007240Y0029089D01*
X0007092Y0029250D01*
X0006948Y0029415D01*
X0006808Y0029584D01*
X0006672Y0029755D01*
X0006540Y0029931D01*
X0006412Y0030109D01*
X0006289Y0030290D01*
X0006170Y0030474D01*
X0006056Y0030661D01*
X0005947Y0030851D01*
X0005842Y0031044D01*
X0005741Y0031239D01*
X0005646Y0031436D01*
X0005555Y0031635D01*
X0005470Y0031837D01*
X0005389Y0032041D01*
X0005313Y0032247D01*
X0005242Y0032454D01*
X0005177Y0032663D01*
X0005116Y0032874D01*
X0005061Y0033086D01*
X0005010Y0033299D01*
X0004965Y0033514D01*
X0004925Y0033729D01*
X0004891Y0033946D01*
X0004862Y0034163D01*
X0004838Y0034381D01*
X0004819Y0034599D01*
X0004806Y0034818D01*
X0004798Y0035037D01*
X0004795Y0035256D01*
X0004795Y0062256D01*
X0004798Y0062475D01*
X0004806Y0062694D01*
X0004819Y0062913D01*
X0004838Y0063131D01*
X0004862Y0063349D01*
X0004891Y0063566D01*
X0004925Y0063783D01*
X0004965Y0063998D01*
X0005010Y0064213D01*
X0005061Y0064426D01*
X0005116Y0064638D01*
X0005177Y0064849D01*
X0005242Y0065058D01*
X0005313Y0065265D01*
X0005389Y0065471D01*
X0005470Y0065675D01*
X0005555Y0065877D01*
X0005646Y0066076D01*
X0005741Y0066273D01*
X0005842Y0066468D01*
X0005947Y0066661D01*
X0006056Y0066851D01*
X0006170Y0067038D01*
X0006289Y0067222D01*
X0006412Y0067403D01*
X0006540Y0067581D01*
X0006672Y0067757D01*
X0006808Y0067928D01*
X0006948Y0068097D01*
X0007092Y0068262D01*
X0007240Y0068423D01*
X0007392Y0068581D01*
X0007548Y0068735D01*
X0007708Y0068885D01*
X0007871Y0069032D01*
X0008038Y0069174D01*
X0008208Y0069312D01*
X0008382Y0069446D01*
X0008558Y0069576D01*
X0008738Y0069701D01*
X0008921Y0069822D01*
X0009107Y0069938D01*
X0009295Y0070050D01*
X0009486Y0070157D01*
X0009680Y0070260D01*
X0009876Y0070358D01*
X0010074Y0070451D01*
X0010275Y0070539D01*
X0010478Y0070622D01*
X0010683Y0070701D01*
X0010889Y0070774D01*
X0011097Y0070842D01*
X0011307Y0070905D01*
X0011519Y0070963D01*
X0011731Y0071016D01*
X0011945Y0071064D01*
X0012160Y0071106D01*
X0012376Y0071143D01*
X0012593Y0071175D01*
X0012811Y0071202D01*
X0013029Y0071223D01*
X0013247Y0071239D01*
X0013466Y0071250D01*
X0013685Y0071255D01*
X0013905Y0071255D01*
X0014124Y0071250D01*
X0014343Y0071239D01*
X0014561Y0071223D01*
X0014779Y0071202D01*
X0014997Y0071175D01*
X0015214Y0071143D01*
X0015430Y0071106D01*
X0015645Y0071064D01*
X0015859Y0071016D01*
X0016071Y0070963D01*
X0016283Y0070905D01*
X0016493Y0070842D01*
X0016701Y0070774D01*
X0016907Y0070701D01*
X0017112Y0070622D01*
X0017315Y0070539D01*
X0017516Y0070451D01*
X0017714Y0070358D01*
X0017910Y0070260D01*
X0018104Y0070157D01*
X0018295Y0070050D01*
X0018483Y0069938D01*
X0018669Y0069822D01*
X0018852Y0069701D01*
X0019032Y0069576D01*
X0019208Y0069446D01*
X0019382Y0069312D01*
X0019552Y0069174D01*
X0019719Y0069032D01*
X0019882Y0068885D01*
X0020042Y0068735D01*
X0020198Y0068581D01*
X0020350Y0068423D01*
X0020498Y0068262D01*
X0020642Y0068097D01*
X0020782Y0067928D01*
X0020918Y0067757D01*
X0021050Y0067581D01*
X0021178Y0067403D01*
X0021301Y0067222D01*
X0021420Y0067038D01*
X0021534Y0066851D01*
X0021643Y0066661D01*
X0021748Y0066468D01*
X0021849Y0066273D01*
X0021944Y0066076D01*
X0022035Y0065877D01*
X0022120Y0065675D01*
X0022201Y0065471D01*
X0022277Y0065265D01*
X0022348Y0065058D01*
X0022413Y0064849D01*
X0022474Y0064638D01*
X0022529Y0064426D01*
X0022580Y0064213D01*
X0022625Y0063998D01*
X0022665Y0063783D01*
X0022699Y0063566D01*
X0022728Y0063349D01*
X0022752Y0063131D01*
X0022771Y0062913D01*
X0022784Y0062694D01*
X0022792Y0062475D01*
X0022795Y0062256D01*
D12*
X0020795Y0062256D02*
X0020795Y0035256D01*
X0020793Y0035086D01*
X0020787Y0034915D01*
X0020776Y0034745D01*
X0020762Y0034575D01*
X0020743Y0034406D01*
X0020720Y0034237D01*
X0020694Y0034068D01*
X0020663Y0033901D01*
X0020628Y0033734D01*
X0020588Y0033568D01*
X0020545Y0033403D01*
X0020498Y0033239D01*
X0020447Y0033077D01*
X0020392Y0032915D01*
X0020333Y0032755D01*
X0020270Y0032597D01*
X0020204Y0032440D01*
X0020133Y0032285D01*
X0020059Y0032131D01*
X0019981Y0031980D01*
X0019899Y0031830D01*
X0019814Y0031682D01*
X0019725Y0031537D01*
X0019633Y0031394D01*
X0019537Y0031253D01*
X0019438Y0031114D01*
X0019335Y0030978D01*
X0019230Y0030844D01*
X0019121Y0030713D01*
X0019008Y0030585D01*
X0018893Y0030459D01*
X0018775Y0030336D01*
X0018654Y0030217D01*
X0018529Y0030100D01*
X0018402Y0029986D01*
X0018273Y0029875D01*
X0018140Y0029768D01*
X0018005Y0029664D01*
X0017868Y0029563D01*
X0017728Y0029465D01*
X0017586Y0029371D01*
X0017442Y0029281D01*
X0017295Y0029194D01*
X0017146Y0029110D01*
X0016996Y0029031D01*
X0016843Y0028955D01*
X0016689Y0028882D01*
X0016533Y0028814D01*
X0016375Y0028749D01*
X0016216Y0028688D01*
X0016055Y0028631D01*
X0015893Y0028578D01*
X0015730Y0028529D01*
X0015566Y0028484D01*
X0015400Y0028443D01*
X0015234Y0028405D01*
X0015066Y0028372D01*
X0014898Y0028344D01*
X0014730Y0028319D01*
X0014561Y0028298D01*
X0014391Y0028281D01*
X0014221Y0028269D01*
X0014051Y0028261D01*
X0013880Y0028257D01*
X0013710Y0028257D01*
X0013539Y0028261D01*
X0013369Y0028269D01*
X0013199Y0028281D01*
X0013029Y0028298D01*
X0012860Y0028319D01*
X0012692Y0028344D01*
X0012524Y0028372D01*
X0012356Y0028405D01*
X0012190Y0028443D01*
X0012024Y0028484D01*
X0011860Y0028529D01*
X0011697Y0028578D01*
X0011535Y0028631D01*
X0011374Y0028688D01*
X0011215Y0028749D01*
X0011057Y0028814D01*
X0010901Y0028882D01*
X0010747Y0028955D01*
X0010594Y0029031D01*
X0010444Y0029110D01*
X0010295Y0029194D01*
X0010148Y0029281D01*
X0010004Y0029371D01*
X0009862Y0029465D01*
X0009722Y0029563D01*
X0009585Y0029664D01*
X0009450Y0029768D01*
X0009317Y0029875D01*
X0009188Y0029986D01*
X0009061Y0030100D01*
X0008936Y0030217D01*
X0008815Y0030336D01*
X0008697Y0030459D01*
X0008582Y0030585D01*
X0008469Y0030713D01*
X0008360Y0030844D01*
X0008255Y0030978D01*
X0008152Y0031114D01*
X0008053Y0031253D01*
X0007957Y0031394D01*
X0007865Y0031537D01*
X0007776Y0031682D01*
X0007691Y0031830D01*
X0007609Y0031980D01*
X0007531Y0032131D01*
X0007457Y0032285D01*
X0007386Y0032440D01*
X0007320Y0032597D01*
X0007257Y0032755D01*
X0007198Y0032915D01*
X0007143Y0033077D01*
X0007092Y0033239D01*
X0007045Y0033403D01*
X0007002Y0033568D01*
X0006962Y0033734D01*
X0006927Y0033901D01*
X0006896Y0034068D01*
X0006870Y0034237D01*
X0006847Y0034406D01*
X0006828Y0034575D01*
X0006814Y0034745D01*
X0006803Y0034915D01*
X0006797Y0035086D01*
X0006795Y0035256D01*
X0006795Y0062256D01*
X0006797Y0062426D01*
X0006803Y0062597D01*
X0006814Y0062767D01*
X0006828Y0062937D01*
X0006847Y0063106D01*
X0006870Y0063275D01*
X0006896Y0063444D01*
X0006927Y0063611D01*
X0006962Y0063778D01*
X0007002Y0063944D01*
X0007045Y0064109D01*
X0007092Y0064273D01*
X0007143Y0064435D01*
X0007198Y0064597D01*
X0007257Y0064757D01*
X0007320Y0064915D01*
X0007386Y0065072D01*
X0007457Y0065227D01*
X0007531Y0065381D01*
X0007609Y0065532D01*
X0007691Y0065682D01*
X0007776Y0065830D01*
X0007865Y0065975D01*
X0007957Y0066118D01*
X0008053Y0066259D01*
X0008152Y0066398D01*
X0008255Y0066534D01*
X0008360Y0066668D01*
X0008469Y0066799D01*
X0008582Y0066927D01*
X0008697Y0067053D01*
X0008815Y0067176D01*
X0008936Y0067295D01*
X0009061Y0067412D01*
X0009188Y0067526D01*
X0009317Y0067637D01*
X0009450Y0067744D01*
X0009585Y0067848D01*
X0009722Y0067949D01*
X0009862Y0068047D01*
X0010004Y0068141D01*
X0010148Y0068231D01*
X0010295Y0068318D01*
X0010444Y0068402D01*
X0010594Y0068481D01*
X0010747Y0068557D01*
X0010901Y0068630D01*
X0011057Y0068698D01*
X0011215Y0068763D01*
X0011374Y0068824D01*
X0011535Y0068881D01*
X0011697Y0068934D01*
X0011860Y0068983D01*
X0012024Y0069028D01*
X0012190Y0069069D01*
X0012356Y0069107D01*
X0012524Y0069140D01*
X0012692Y0069168D01*
X0012860Y0069193D01*
X0013029Y0069214D01*
X0013199Y0069231D01*
X0013369Y0069243D01*
X0013539Y0069251D01*
X0013710Y0069255D01*
X0013880Y0069255D01*
X0014051Y0069251D01*
X0014221Y0069243D01*
X0014391Y0069231D01*
X0014561Y0069214D01*
X0014730Y0069193D01*
X0014898Y0069168D01*
X0015066Y0069140D01*
X0015234Y0069107D01*
X0015400Y0069069D01*
X0015566Y0069028D01*
X0015730Y0068983D01*
X0015893Y0068934D01*
X0016055Y0068881D01*
X0016216Y0068824D01*
X0016375Y0068763D01*
X0016533Y0068698D01*
X0016689Y0068630D01*
X0016843Y0068557D01*
X0016996Y0068481D01*
X0017146Y0068402D01*
X0017295Y0068318D01*
X0017442Y0068231D01*
X0017586Y0068141D01*
X0017728Y0068047D01*
X0017868Y0067949D01*
X0018005Y0067848D01*
X0018140Y0067744D01*
X0018273Y0067637D01*
X0018402Y0067526D01*
X0018529Y0067412D01*
X0018654Y0067295D01*
X0018775Y0067176D01*
X0018893Y0067053D01*
X0019008Y0066927D01*
X0019121Y0066799D01*
X0019230Y0066668D01*
X0019335Y0066534D01*
X0019438Y0066398D01*
X0019537Y0066259D01*
X0019633Y0066118D01*
X0019725Y0065975D01*
X0019814Y0065830D01*
X0019899Y0065682D01*
X0019981Y0065532D01*
X0020059Y0065381D01*
X0020133Y0065227D01*
X0020204Y0065072D01*
X0020270Y0064915D01*
X0020333Y0064757D01*
X0020392Y0064597D01*
X0020447Y0064435D01*
X0020498Y0064273D01*
X0020545Y0064109D01*
X0020588Y0063944D01*
X0020628Y0063778D01*
X0020663Y0063611D01*
X0020694Y0063444D01*
X0020720Y0063275D01*
X0020743Y0063106D01*
X0020762Y0062937D01*
X0020776Y0062767D01*
X0020787Y0062597D01*
X0020793Y0062426D01*
X0020795Y0062256D01*
D13*
X0130388Y0061538D02*
X0153988Y0061539D01*
X0153988Y0035736D01*
X0130388Y0035738D01*
D14*
X0155888Y0048638D03*
D15*
X0131391Y0029702D02*
X0129856Y0031237D01*
X0129856Y0026633D01*
X0131391Y0026633D02*
X0128321Y0026633D01*
X0126787Y0027400D02*
X0126019Y0026633D01*
X0123717Y0026633D01*
X0123717Y0029702D01*
X0122183Y0028935D02*
X0120648Y0028935D01*
X0122183Y0031237D02*
X0119113Y0031237D01*
X0122183Y0031237D02*
X0122183Y0026633D01*
X0126787Y0027400D02*
X0126787Y0029702D01*
X0122217Y0048917D02*
X0122217Y0053520D01*
X0120683Y0051986D01*
X0119148Y0053520D01*
X0119148Y0048917D01*
X0117613Y0049684D02*
X0116846Y0048917D01*
X0115311Y0048917D01*
X0114544Y0049684D01*
X0113009Y0049684D02*
X0113009Y0048917D01*
X0113009Y0049684D02*
X0109940Y0052753D01*
X0109940Y0053520D01*
X0113009Y0053520D01*
X0114544Y0052753D02*
X0115311Y0053520D01*
X0116846Y0053520D01*
X0117613Y0052753D01*
X0117613Y0049684D01*
X0108406Y0049684D02*
X0107638Y0048917D01*
X0106104Y0048917D01*
X0105336Y0049684D01*
X0105336Y0050451D01*
X0106104Y0051218D01*
X0107638Y0051218D01*
X0108406Y0051986D01*
X0108406Y0052753D01*
X0107638Y0053520D01*
X0106104Y0053520D01*
X0105336Y0052753D01*
X0105336Y0051986D01*
X0106104Y0051218D01*
X0107638Y0051218D02*
X0108406Y0050451D01*
X0108406Y0049684D01*
X0103802Y0048917D02*
X0103802Y0053520D01*
X0102267Y0051986D01*
X0100732Y0053520D01*
X0100732Y0048917D01*
X0099198Y0049684D02*
X0096128Y0052753D01*
X0096128Y0049684D01*
X0096896Y0048917D01*
X0098430Y0048917D01*
X0099198Y0049684D01*
X0099198Y0052753D01*
X0098430Y0053520D01*
X0096896Y0053520D01*
X0096128Y0052753D01*
X0094594Y0053520D02*
X0094594Y0051218D01*
X0093059Y0051986D01*
X0092292Y0051986D01*
X0091524Y0051218D01*
X0091524Y0049684D01*
X0092292Y0048917D01*
X0093826Y0048917D01*
X0094594Y0049684D01*
X0089990Y0048917D02*
X0089990Y0051986D01*
X0088455Y0053520D01*
X0086921Y0051986D01*
X0086921Y0048917D01*
X0085386Y0048917D02*
X0083084Y0048917D01*
X0082317Y0049684D01*
X0082317Y0050451D01*
X0083084Y0051218D01*
X0085386Y0051218D01*
X0086921Y0051218D02*
X0089990Y0051218D01*
X0091524Y0053520D02*
X0094594Y0053520D01*
X0085386Y0053520D02*
X0085386Y0048917D01*
X0083084Y0051218D02*
X0082317Y0051986D01*
X0082317Y0052753D01*
X0083084Y0053520D01*
X0085386Y0053520D01*
X0080782Y0053520D02*
X0078480Y0053520D01*
X0077713Y0052753D01*
X0077713Y0049684D01*
X0078480Y0048917D01*
X0080782Y0048917D01*
X0080782Y0053520D01*
X0076178Y0053520D02*
X0073109Y0053520D01*
X0074643Y0053520D02*
X0074643Y0048917D01*
X0071574Y0049684D02*
X0070807Y0048917D01*
X0069272Y0048917D01*
X0068505Y0049684D01*
X0068505Y0051218D01*
X0070040Y0051218D01*
X0071574Y0049684D02*
X0071574Y0052753D01*
X0070807Y0053520D01*
X0069272Y0053520D01*
X0068505Y0052753D01*
M02*
