G75*
%MOIN*%
%OFA0B0*%
%FSLAX25Y25*%
%IPPOS*%
%LPD*%
%AMOC8*
5,1,8,0,0,1.08239X$1,22.5*
%
%ADD10C,0.00000*%
%ADD11C,0.00787*%
%ADD12C,0.00300*%
%ADD13C,0.00400*%
%ADD14C,0.00600*%
%ADD15C,0.03000*%
%ADD16R,0.02000X0.03000*%
%ADD17R,0.04000X0.03000*%
%ADD18R,0.02559X0.05512*%
%ADD19C,0.00500*%
%ADD20R,0.01969X0.07480*%
%ADD21C,0.00800*%
%ADD22R,0.07300X0.12600*%
%ADD23R,0.07300X0.03400*%
%ADD24R,0.05709X0.02953*%
%ADD25R,0.02000X0.02000*%
%ADD26R,0.01800X0.03900*%
%ADD27R,0.03900X0.01800*%
%ADD28R,0.02953X0.05709*%
%ADD29R,0.05512X0.02559*%
%ADD30R,0.02300X0.02300*%
%ADD31R,0.02559X0.01969*%
%ADD32C,0.01000*%
%ADD33C,0.01600*%
%ADD34C,0.00080*%
%ADD35R,0.06693X0.02953*%
%ADD36R,0.02953X0.06693*%
D10*
X0027244Y0007496D02*
X0027244Y0188598D01*
X0188661Y0188598D01*
X0212283Y0164976D01*
X0420157Y0164976D01*
X0420157Y0007496D01*
X0027244Y0007496D01*
D11*
X0339843Y0145291D02*
X0357953Y0145291D01*
X0362677Y0150016D01*
D12*
X0344181Y0149890D02*
X0344181Y0152317D01*
X0344181Y0151104D02*
X0340541Y0151104D01*
X0341754Y0149890D01*
X0341754Y0153515D02*
X0343574Y0153515D01*
X0344181Y0154122D01*
X0344181Y0155942D01*
X0341754Y0155942D01*
X0342361Y0157140D02*
X0342361Y0158354D01*
X0344181Y0157140D02*
X0340541Y0157140D01*
X0340541Y0159567D01*
X0337032Y0145894D02*
X0337032Y0143468D01*
X0335819Y0142254D01*
X0334605Y0143468D01*
X0334605Y0145894D01*
X0333407Y0145894D02*
X0330980Y0145894D01*
X0330980Y0144074D01*
X0332194Y0144681D01*
X0332800Y0144681D01*
X0333407Y0144074D01*
X0333407Y0142861D01*
X0332800Y0142254D01*
X0331587Y0142254D01*
X0330980Y0142861D01*
X0329774Y0142861D02*
X0329774Y0142254D01*
X0329168Y0142254D01*
X0329168Y0142861D01*
X0329774Y0142861D01*
X0327969Y0142254D02*
X0325543Y0142254D01*
X0327969Y0144681D01*
X0327969Y0145288D01*
X0327363Y0145894D01*
X0326149Y0145894D01*
X0325543Y0145288D01*
X0324344Y0144074D02*
X0321917Y0144074D01*
X0320719Y0142861D02*
X0320112Y0142254D01*
X0318899Y0142254D01*
X0318292Y0142861D01*
X0320719Y0145288D01*
X0320719Y0142861D01*
X0318292Y0142861D02*
X0318292Y0145288D01*
X0318899Y0145894D01*
X0320112Y0145894D01*
X0320719Y0145288D01*
X0315881Y0145894D02*
X0314667Y0144681D01*
X0313469Y0145288D02*
X0311042Y0142861D01*
X0311042Y0142254D01*
X0309844Y0142254D02*
X0307417Y0142254D01*
X0308630Y0142254D02*
X0308630Y0145894D01*
X0307417Y0144681D01*
X0306219Y0144074D02*
X0305612Y0143468D01*
X0303792Y0143468D01*
X0303792Y0142254D02*
X0303792Y0145894D01*
X0305612Y0145894D01*
X0306219Y0145288D01*
X0306219Y0144074D01*
X0302593Y0142861D02*
X0302593Y0145288D01*
X0301987Y0145894D01*
X0300167Y0145894D01*
X0300167Y0142254D01*
X0301987Y0142254D01*
X0302593Y0142861D01*
X0298968Y0142254D02*
X0298968Y0144681D01*
X0297755Y0145894D01*
X0296542Y0144681D01*
X0296542Y0142254D01*
X0296542Y0144074D02*
X0298968Y0144074D01*
X0311042Y0145894D02*
X0313469Y0145894D01*
X0313469Y0145288D01*
X0315881Y0145894D02*
X0315881Y0142254D01*
X0317094Y0142254D02*
X0314667Y0142254D01*
X0297553Y0130365D02*
X0297553Y0129758D01*
X0296946Y0129151D01*
X0295733Y0129151D01*
X0295126Y0129758D01*
X0295126Y0130365D01*
X0295733Y0130971D01*
X0296946Y0130971D01*
X0297553Y0130365D01*
X0296946Y0129151D02*
X0297553Y0128544D01*
X0297553Y0127938D01*
X0296946Y0127331D01*
X0295733Y0127331D01*
X0295126Y0127938D01*
X0295126Y0128544D01*
X0295733Y0129151D01*
X0293928Y0128544D02*
X0293928Y0127938D01*
X0293321Y0127331D01*
X0292108Y0127331D01*
X0291501Y0127938D01*
X0291501Y0129151D01*
X0293321Y0129151D01*
X0293928Y0128544D01*
X0292714Y0130365D02*
X0291501Y0129151D01*
X0290303Y0128544D02*
X0290303Y0127938D01*
X0289696Y0127331D01*
X0288482Y0127331D01*
X0287876Y0127938D01*
X0287876Y0128544D01*
X0288482Y0129151D01*
X0289696Y0129151D01*
X0290303Y0128544D01*
X0289696Y0129151D02*
X0290303Y0129758D01*
X0290303Y0130365D01*
X0289696Y0130971D01*
X0288482Y0130971D01*
X0287876Y0130365D01*
X0287876Y0129758D01*
X0288482Y0129151D01*
X0286677Y0128544D02*
X0286677Y0127938D01*
X0286071Y0127331D01*
X0284857Y0127331D01*
X0284251Y0127938D01*
X0283052Y0127938D02*
X0282446Y0127331D01*
X0281232Y0127331D01*
X0280626Y0127938D01*
X0279427Y0127331D02*
X0277000Y0130971D01*
X0279427Y0130971D02*
X0277000Y0127331D01*
X0280626Y0129758D02*
X0281232Y0129151D01*
X0282446Y0129151D01*
X0283052Y0128544D01*
X0283052Y0127938D01*
X0285464Y0129151D02*
X0286071Y0129151D01*
X0286677Y0128544D01*
X0286071Y0129151D02*
X0286677Y0129758D01*
X0286677Y0130365D01*
X0286071Y0130971D01*
X0284857Y0130971D01*
X0284251Y0130365D01*
X0283052Y0130365D02*
X0282446Y0130971D01*
X0281232Y0130971D01*
X0280626Y0130365D01*
X0280626Y0129758D01*
X0292714Y0130365D02*
X0293928Y0130971D01*
X0331092Y0118941D02*
X0331092Y0117727D01*
X0331698Y0117121D01*
X0334125Y0117121D01*
X0331698Y0119547D01*
X0334125Y0119547D01*
X0334732Y0118941D01*
X0334732Y0117727D01*
X0334125Y0117121D01*
X0331698Y0115922D02*
X0334125Y0113496D01*
X0334732Y0113496D01*
X0334732Y0111691D02*
X0331092Y0111691D01*
X0332912Y0109870D01*
X0332912Y0112297D01*
X0331092Y0113496D02*
X0331092Y0115922D01*
X0331698Y0115922D01*
X0331092Y0118941D02*
X0331698Y0119547D01*
X0347969Y0123945D02*
X0350396Y0123945D01*
X0349183Y0123945D02*
X0349183Y0127585D01*
X0347969Y0126372D01*
X0351594Y0126979D02*
X0351594Y0124552D01*
X0354021Y0126979D01*
X0354021Y0124552D01*
X0353415Y0123945D01*
X0352201Y0123945D01*
X0351594Y0124552D01*
X0351594Y0126979D02*
X0352201Y0127585D01*
X0353415Y0127585D01*
X0354021Y0126979D01*
X0355220Y0127585D02*
X0355220Y0123945D01*
X0355220Y0125159D02*
X0357040Y0126372D01*
X0355220Y0125159D02*
X0357040Y0123945D01*
X0357180Y0106326D02*
X0354753Y0106326D01*
X0354753Y0102685D01*
X0353555Y0102685D02*
X0353555Y0105112D01*
X0354753Y0104505D02*
X0355967Y0104505D01*
X0353555Y0102685D02*
X0351735Y0102685D01*
X0351128Y0103292D01*
X0351128Y0105112D01*
X0348716Y0106326D02*
X0348716Y0102685D01*
X0347503Y0102685D02*
X0349930Y0102685D01*
X0346297Y0102685D02*
X0346297Y0103292D01*
X0345690Y0103292D01*
X0345690Y0102685D01*
X0346297Y0102685D01*
X0344492Y0103292D02*
X0343885Y0102685D01*
X0342672Y0102685D01*
X0342065Y0103292D01*
X0344492Y0105719D01*
X0344492Y0103292D01*
X0342065Y0103292D02*
X0342065Y0105719D01*
X0342672Y0106326D01*
X0343885Y0106326D01*
X0344492Y0105719D01*
X0347503Y0105112D02*
X0348716Y0106326D01*
X0348298Y0090414D02*
X0345872Y0090414D01*
X0348298Y0087987D01*
X0348905Y0088594D01*
X0348905Y0089807D01*
X0348298Y0090414D01*
X0345872Y0090414D02*
X0345265Y0089807D01*
X0345265Y0088594D01*
X0345872Y0087987D01*
X0348298Y0087987D01*
X0348298Y0086788D02*
X0347692Y0086788D01*
X0347085Y0086182D01*
X0347085Y0084362D01*
X0348298Y0084362D01*
X0348905Y0084968D01*
X0348905Y0086182D01*
X0348298Y0086788D01*
X0345872Y0085575D02*
X0347085Y0084362D01*
X0346478Y0083163D02*
X0347085Y0082557D01*
X0347692Y0083163D01*
X0348298Y0083163D01*
X0348905Y0082557D01*
X0348905Y0081343D01*
X0348298Y0080737D01*
X0347085Y0081950D02*
X0347085Y0082557D01*
X0346478Y0083163D02*
X0345872Y0083163D01*
X0345265Y0082557D01*
X0345265Y0081343D01*
X0345872Y0080737D01*
X0345872Y0085575D02*
X0345265Y0086788D01*
X0385372Y0102505D02*
X0385372Y0104931D01*
X0385979Y0105538D01*
X0387192Y0105538D01*
X0387799Y0104931D01*
X0385372Y0102505D01*
X0385979Y0101898D01*
X0387192Y0101898D01*
X0387799Y0102505D01*
X0387799Y0104931D01*
X0388997Y0102505D02*
X0389604Y0102505D01*
X0389604Y0101898D01*
X0388997Y0101898D01*
X0388997Y0102505D01*
X0390810Y0101898D02*
X0393237Y0101898D01*
X0392023Y0101898D02*
X0392023Y0105538D01*
X0390810Y0104325D01*
X0394435Y0104325D02*
X0394435Y0102505D01*
X0395042Y0101898D01*
X0396862Y0101898D01*
X0396862Y0104325D01*
X0398060Y0103718D02*
X0399274Y0103718D01*
X0398060Y0105538D02*
X0400487Y0105538D01*
X0398060Y0105538D02*
X0398060Y0101898D01*
X0414376Y0127193D02*
X0413769Y0127800D01*
X0413769Y0129013D01*
X0414376Y0129620D01*
X0414982Y0129620D01*
X0415589Y0129013D01*
X0416196Y0129620D01*
X0416802Y0129620D01*
X0417409Y0129013D01*
X0417409Y0127800D01*
X0416802Y0127193D01*
X0415589Y0128407D02*
X0415589Y0129013D01*
X0415589Y0130818D02*
X0415589Y0132638D01*
X0416196Y0133245D01*
X0416802Y0133245D01*
X0417409Y0132638D01*
X0417409Y0131425D01*
X0416802Y0130818D01*
X0415589Y0130818D01*
X0414376Y0132032D01*
X0413769Y0133245D01*
X0414376Y0134444D02*
X0413769Y0135050D01*
X0413769Y0136264D01*
X0414376Y0136870D01*
X0416802Y0134444D01*
X0417409Y0135050D01*
X0417409Y0136264D01*
X0416802Y0136870D01*
X0414376Y0136870D01*
X0414376Y0134444D02*
X0416802Y0134444D01*
X0402085Y0148827D02*
X0402085Y0152467D01*
X0404512Y0152467D01*
X0403299Y0150647D02*
X0402085Y0150647D01*
X0400887Y0151254D02*
X0400887Y0148827D01*
X0399067Y0148827D01*
X0398460Y0149434D01*
X0398460Y0151254D01*
X0396048Y0152467D02*
X0396048Y0148827D01*
X0394835Y0148827D02*
X0397262Y0148827D01*
X0394835Y0151254D02*
X0396048Y0152467D01*
X0238905Y0122595D02*
X0238905Y0121381D01*
X0238298Y0120775D01*
X0235872Y0120775D01*
X0235265Y0121381D01*
X0235265Y0122595D01*
X0235872Y0123201D01*
X0238298Y0123201D02*
X0238905Y0122595D01*
X0238905Y0119571D02*
X0238905Y0118358D01*
X0238905Y0118964D02*
X0235265Y0118964D01*
X0235265Y0118358D02*
X0235265Y0119571D01*
X0235265Y0117159D02*
X0238905Y0117159D01*
X0238905Y0114733D02*
X0235265Y0114733D01*
X0236478Y0115946D01*
X0235265Y0117159D01*
X0224109Y0108688D02*
X0221682Y0108688D01*
X0221682Y0105048D01*
X0220484Y0105048D02*
X0220484Y0107474D01*
X0221682Y0106868D02*
X0222896Y0106868D01*
X0220484Y0105048D02*
X0218664Y0105048D01*
X0218057Y0105654D01*
X0218057Y0107474D01*
X0216859Y0107474D02*
X0216859Y0108081D01*
X0216252Y0108688D01*
X0215039Y0108688D01*
X0214432Y0108081D01*
X0216859Y0107474D02*
X0214432Y0105048D01*
X0216859Y0105048D01*
X0213226Y0105048D02*
X0212619Y0105048D01*
X0212619Y0105654D01*
X0213226Y0105654D01*
X0213226Y0105048D01*
X0211421Y0105048D02*
X0208994Y0105048D01*
X0211421Y0107474D01*
X0211421Y0108081D01*
X0210814Y0108688D01*
X0209601Y0108688D01*
X0208994Y0108081D01*
X0207173Y0107846D02*
X0207173Y0108453D01*
X0206566Y0108453D01*
X0206566Y0107846D01*
X0207173Y0107846D01*
X0206566Y0106648D02*
X0207173Y0106041D01*
X0207173Y0104828D01*
X0206566Y0104221D01*
X0204139Y0106648D01*
X0206566Y0106648D01*
X0204139Y0106648D02*
X0203533Y0106041D01*
X0203533Y0104828D01*
X0204139Y0104221D01*
X0206566Y0104221D01*
X0213086Y0099420D02*
X0213693Y0100026D01*
X0214906Y0100026D01*
X0215513Y0099420D01*
X0215513Y0098813D01*
X0213086Y0096386D01*
X0215513Y0096386D01*
X0216711Y0096386D02*
X0217318Y0096386D01*
X0217318Y0096993D01*
X0216711Y0096993D01*
X0216711Y0096386D01*
X0218524Y0096386D02*
X0220950Y0098813D01*
X0220950Y0099420D01*
X0220344Y0100026D01*
X0219130Y0100026D01*
X0218524Y0099420D01*
X0222149Y0100026D02*
X0222149Y0096386D01*
X0220950Y0096386D02*
X0218524Y0096386D01*
X0222149Y0097600D02*
X0223969Y0098813D01*
X0222149Y0097600D02*
X0223969Y0096386D01*
X0203413Y0087900D02*
X0200986Y0087900D01*
X0200986Y0084260D01*
X0199788Y0084260D02*
X0199788Y0086687D01*
X0200986Y0086080D02*
X0202199Y0086080D01*
X0199788Y0084260D02*
X0197968Y0084260D01*
X0197361Y0084867D01*
X0197361Y0086687D01*
X0196162Y0086687D02*
X0196162Y0087294D01*
X0195556Y0087900D01*
X0194342Y0087900D01*
X0193736Y0087294D01*
X0192537Y0087294D02*
X0191931Y0087900D01*
X0190717Y0087900D01*
X0190111Y0087294D01*
X0192537Y0087294D02*
X0192537Y0086687D01*
X0190111Y0084260D01*
X0192537Y0084260D01*
X0193736Y0084260D02*
X0196162Y0086687D01*
X0196162Y0084260D02*
X0193736Y0084260D01*
X0217391Y0072078D02*
X0217391Y0069651D01*
X0221031Y0069651D01*
X0221031Y0068452D02*
X0218604Y0068452D01*
X0219211Y0069651D02*
X0219211Y0070864D01*
X0221031Y0068452D02*
X0221031Y0066632D01*
X0220424Y0066026D01*
X0218604Y0066026D01*
X0218604Y0064827D02*
X0217998Y0064827D01*
X0217391Y0064221D01*
X0217391Y0063007D01*
X0217998Y0062401D01*
X0217998Y0061202D02*
X0217391Y0060595D01*
X0217391Y0059382D01*
X0217998Y0058775D01*
X0218604Y0061202D02*
X0221031Y0058775D01*
X0221031Y0061202D01*
X0221031Y0062401D02*
X0218604Y0064827D01*
X0221031Y0064827D02*
X0221031Y0062401D01*
X0218604Y0061202D02*
X0217998Y0061202D01*
X0226840Y0067551D02*
X0228053Y0066338D01*
X0226840Y0067551D02*
X0230480Y0067551D01*
X0230480Y0066338D02*
X0230480Y0068764D01*
X0229873Y0069963D02*
X0230480Y0070569D01*
X0230480Y0072389D01*
X0228053Y0072389D01*
X0228660Y0073588D02*
X0228660Y0074801D01*
X0230480Y0073588D02*
X0226840Y0073588D01*
X0226840Y0076015D01*
X0235501Y0076015D02*
X0235501Y0073588D01*
X0239141Y0073588D01*
X0239141Y0072389D02*
X0236715Y0072389D01*
X0237321Y0073588D02*
X0237321Y0074801D01*
X0239141Y0072389D02*
X0239141Y0070569D01*
X0238535Y0069963D01*
X0236715Y0069963D01*
X0235501Y0067551D02*
X0239141Y0067551D01*
X0239141Y0066338D02*
X0239141Y0068764D01*
X0236715Y0066338D02*
X0235501Y0067551D01*
X0238535Y0065132D02*
X0239141Y0065132D01*
X0239141Y0064525D01*
X0238535Y0064525D01*
X0238535Y0065132D01*
X0238535Y0063327D02*
X0239141Y0062720D01*
X0239141Y0061507D01*
X0238535Y0060900D01*
X0236108Y0063327D01*
X0238535Y0063327D01*
X0236108Y0063327D02*
X0235501Y0062720D01*
X0235501Y0061507D01*
X0236108Y0060900D01*
X0238535Y0060900D01*
X0229873Y0069963D02*
X0228053Y0069963D01*
X0205487Y0054462D02*
X0204880Y0055069D01*
X0203667Y0055069D01*
X0203060Y0054462D01*
X0203060Y0053855D01*
X0203667Y0053249D01*
X0205487Y0053249D01*
X0205487Y0054462D02*
X0205487Y0052035D01*
X0204880Y0051429D01*
X0203667Y0051429D01*
X0203060Y0052035D01*
X0201862Y0052035D02*
X0201255Y0051429D01*
X0200042Y0051429D01*
X0199435Y0052035D01*
X0201862Y0054462D01*
X0201862Y0052035D01*
X0199435Y0052035D02*
X0199435Y0054462D01*
X0200042Y0055069D01*
X0201255Y0055069D01*
X0201862Y0054462D01*
X0198237Y0054462D02*
X0197630Y0055069D01*
X0196417Y0055069D01*
X0195810Y0054462D01*
X0194612Y0055069D02*
X0192185Y0055069D01*
X0192185Y0053249D01*
X0193398Y0053855D01*
X0194005Y0053855D01*
X0194612Y0053249D01*
X0194612Y0052035D01*
X0194005Y0051429D01*
X0192792Y0051429D01*
X0192185Y0052035D01*
X0190986Y0052035D02*
X0190380Y0051429D01*
X0189166Y0051429D01*
X0188560Y0052035D01*
X0188560Y0054462D01*
X0189166Y0055069D01*
X0190380Y0055069D01*
X0190986Y0054462D01*
X0187356Y0055069D02*
X0186143Y0055069D01*
X0186750Y0055069D02*
X0186750Y0051429D01*
X0187356Y0051429D02*
X0186143Y0051429D01*
X0184945Y0051429D02*
X0184945Y0055069D01*
X0183731Y0053855D01*
X0182518Y0055069D01*
X0182518Y0051429D01*
X0173885Y0054436D02*
X0171458Y0054436D01*
X0171458Y0050796D01*
X0170260Y0050796D02*
X0170260Y0053222D01*
X0171458Y0052616D02*
X0172672Y0052616D01*
X0170260Y0050796D02*
X0168440Y0050796D01*
X0167833Y0051402D01*
X0167833Y0053222D01*
X0166635Y0053222D02*
X0166635Y0053829D01*
X0166028Y0054436D01*
X0164815Y0054436D01*
X0164208Y0053829D01*
X0163010Y0053829D02*
X0162403Y0054436D01*
X0161190Y0054436D01*
X0160583Y0053829D01*
X0163010Y0053829D02*
X0163010Y0053222D01*
X0160583Y0050796D01*
X0163010Y0050796D01*
X0164208Y0050796D02*
X0166635Y0053222D01*
X0166635Y0050796D02*
X0164208Y0050796D01*
X0195810Y0051429D02*
X0198237Y0053855D01*
X0198237Y0054462D01*
X0198237Y0051429D02*
X0195810Y0051429D01*
X0233009Y0038183D02*
X0234222Y0039396D01*
X0234222Y0035756D01*
X0233009Y0035756D02*
X0235435Y0035756D01*
X0236634Y0036363D02*
X0237241Y0035756D01*
X0238454Y0035756D01*
X0239061Y0036363D01*
X0239061Y0038790D01*
X0236634Y0036363D01*
X0236634Y0038790D01*
X0237241Y0039396D01*
X0238454Y0039396D01*
X0239061Y0038790D01*
X0240259Y0039396D02*
X0240259Y0035756D01*
X0240259Y0036970D02*
X0242079Y0035756D01*
X0240259Y0036970D02*
X0242079Y0038183D01*
X0241475Y0029160D02*
X0242081Y0028554D01*
X0239655Y0026127D01*
X0240261Y0025520D01*
X0241475Y0025520D01*
X0242081Y0026127D01*
X0242081Y0028554D01*
X0241475Y0029160D02*
X0240261Y0029160D01*
X0239655Y0028554D01*
X0239655Y0026127D01*
X0238456Y0028554D02*
X0236030Y0026127D01*
X0236030Y0025520D01*
X0234225Y0025520D02*
X0234225Y0029160D01*
X0232404Y0027340D01*
X0234831Y0027340D01*
X0236030Y0029160D02*
X0238456Y0029160D01*
X0238456Y0028554D01*
X0275923Y0055261D02*
X0278350Y0057687D01*
X0278350Y0055261D01*
X0277744Y0054654D01*
X0276530Y0054654D01*
X0275923Y0055261D01*
X0275923Y0057687D01*
X0276530Y0058294D01*
X0277744Y0058294D01*
X0278350Y0057687D01*
X0281361Y0057081D02*
X0282575Y0058294D01*
X0282575Y0054654D01*
X0283788Y0054654D02*
X0281361Y0054654D01*
X0280155Y0054654D02*
X0279549Y0054654D01*
X0279549Y0055261D01*
X0280155Y0055261D01*
X0280155Y0054654D01*
X0284986Y0055261D02*
X0284986Y0057081D01*
X0284986Y0055261D02*
X0285593Y0054654D01*
X0287413Y0054654D01*
X0287413Y0057081D01*
X0288611Y0056474D02*
X0289825Y0056474D01*
X0288611Y0058294D02*
X0291038Y0058294D01*
X0288611Y0058294D02*
X0288611Y0054654D01*
X0295213Y0054654D02*
X0297640Y0054654D01*
X0296427Y0054654D02*
X0296427Y0058294D01*
X0295213Y0057081D01*
X0298839Y0057687D02*
X0298839Y0055261D01*
X0301265Y0057687D01*
X0301265Y0055261D01*
X0300659Y0054654D01*
X0299445Y0054654D01*
X0298839Y0055261D01*
X0302464Y0055867D02*
X0304284Y0057081D01*
X0302464Y0058294D02*
X0302464Y0054654D01*
X0302464Y0055867D02*
X0304284Y0054654D01*
X0301265Y0057687D02*
X0300659Y0058294D01*
X0299445Y0058294D01*
X0298839Y0057687D01*
X0315686Y0057081D02*
X0316899Y0058294D01*
X0316899Y0054654D01*
X0315686Y0054654D02*
X0318113Y0054654D01*
X0319311Y0055261D02*
X0321738Y0057687D01*
X0321738Y0055261D01*
X0321131Y0054654D01*
X0319918Y0054654D01*
X0319311Y0055261D01*
X0319311Y0057687D01*
X0319918Y0058294D01*
X0321131Y0058294D01*
X0321738Y0057687D01*
X0322936Y0058294D02*
X0322936Y0054654D01*
X0322936Y0055867D02*
X0324756Y0054654D01*
X0322936Y0055867D02*
X0324756Y0057081D01*
X0411879Y0059356D02*
X0415519Y0059356D01*
X0415519Y0058143D02*
X0415519Y0060569D01*
X0414913Y0061768D02*
X0412486Y0064194D01*
X0414913Y0064194D01*
X0415519Y0063588D01*
X0415519Y0062374D01*
X0414913Y0061768D01*
X0412486Y0061768D01*
X0411879Y0062374D01*
X0411879Y0063588D01*
X0412486Y0064194D01*
X0411879Y0065393D02*
X0415519Y0065393D01*
X0414306Y0065393D02*
X0413093Y0067213D01*
X0414306Y0065393D02*
X0415519Y0067213D01*
X0411879Y0059356D02*
X0413093Y0058143D01*
X0236120Y0135993D02*
X0234907Y0137206D01*
X0235513Y0137206D02*
X0233693Y0137206D01*
X0233693Y0135993D02*
X0233693Y0139633D01*
X0235513Y0139633D01*
X0236120Y0139026D01*
X0236120Y0137813D01*
X0235513Y0137206D01*
X0236120Y0145441D02*
X0233693Y0145441D01*
X0233693Y0149081D01*
X0215959Y0157072D02*
X0215959Y0159498D01*
X0215353Y0160105D01*
X0213533Y0160105D01*
X0213533Y0156465D01*
X0215353Y0156465D01*
X0215959Y0157072D01*
X0212334Y0156465D02*
X0212334Y0160105D01*
X0209908Y0160105D02*
X0212334Y0156465D01*
X0209908Y0156465D02*
X0209908Y0160105D01*
X0208709Y0159498D02*
X0208102Y0160105D01*
X0206889Y0160105D01*
X0206282Y0159498D01*
X0206282Y0157072D01*
X0206889Y0156465D01*
X0208102Y0156465D01*
X0208709Y0157072D01*
X0208709Y0158285D01*
X0207496Y0158285D01*
X0205084Y0158285D02*
X0202657Y0158285D01*
X0202657Y0158892D02*
X0202657Y0156465D01*
X0205084Y0156465D02*
X0205084Y0158892D01*
X0203871Y0160105D01*
X0202657Y0158892D01*
X0211407Y0145558D02*
X0211407Y0143131D01*
X0215047Y0143131D01*
X0214440Y0141932D02*
X0215047Y0141326D01*
X0215047Y0139506D01*
X0216260Y0139506D02*
X0212620Y0139506D01*
X0212620Y0141326D01*
X0213227Y0141932D01*
X0214440Y0141932D01*
X0213227Y0143131D02*
X0213227Y0144344D01*
X0212013Y0138307D02*
X0214440Y0138307D01*
X0215047Y0137701D01*
X0215047Y0136487D01*
X0214440Y0135881D01*
X0212013Y0138307D01*
X0211407Y0137701D01*
X0211407Y0136487D01*
X0212013Y0135881D01*
X0214440Y0135881D01*
X0215047Y0134682D02*
X0215047Y0132255D01*
X0212620Y0134682D01*
X0212013Y0134682D01*
X0211407Y0134076D01*
X0211407Y0132862D01*
X0212013Y0132255D01*
X0212013Y0131057D02*
X0211407Y0130450D01*
X0211407Y0129237D01*
X0212013Y0128630D01*
X0212013Y0131057D02*
X0212620Y0131057D01*
X0215047Y0128630D01*
X0215047Y0131057D01*
X0198511Y0131670D02*
X0198511Y0129244D01*
X0196085Y0131670D01*
X0195478Y0131670D01*
X0194871Y0131064D01*
X0194871Y0129850D01*
X0195478Y0129244D01*
X0195478Y0128045D02*
X0194871Y0127439D01*
X0194871Y0126225D01*
X0195478Y0125619D01*
X0196085Y0128045D02*
X0198511Y0125619D01*
X0198511Y0128045D01*
X0196085Y0128045D02*
X0195478Y0128045D01*
X0195478Y0132869D02*
X0194871Y0133475D01*
X0194871Y0134689D01*
X0195478Y0135296D01*
X0197905Y0132869D01*
X0198511Y0133475D01*
X0198511Y0134689D01*
X0197905Y0135296D01*
X0195478Y0135296D01*
X0195478Y0132869D02*
X0197905Y0132869D01*
X0203533Y0119336D02*
X0203533Y0116909D01*
X0207173Y0116909D01*
X0207173Y0115710D02*
X0204746Y0115710D01*
X0205353Y0116909D02*
X0205353Y0118122D01*
X0207173Y0115710D02*
X0207173Y0113890D01*
X0206566Y0113284D01*
X0204746Y0113284D01*
X0203533Y0110872D02*
X0207173Y0110872D01*
X0207173Y0109659D02*
X0207173Y0112085D01*
X0204746Y0109659D02*
X0203533Y0110872D01*
X0141446Y0117034D02*
X0139019Y0117034D01*
X0139019Y0113394D01*
X0137821Y0113394D02*
X0137821Y0115821D01*
X0139019Y0115214D02*
X0140232Y0115214D01*
X0137821Y0113394D02*
X0136001Y0113394D01*
X0135394Y0114001D01*
X0135394Y0115821D01*
X0132982Y0117034D02*
X0132982Y0113394D01*
X0131769Y0113394D02*
X0134196Y0113394D01*
X0131769Y0115821D02*
X0132982Y0117034D01*
X0128758Y0116428D02*
X0126331Y0114001D01*
X0126938Y0113394D01*
X0128151Y0113394D01*
X0128758Y0114001D01*
X0128758Y0116428D01*
X0128151Y0117034D01*
X0126938Y0117034D01*
X0126331Y0116428D01*
X0126331Y0114001D01*
X0129956Y0114001D02*
X0130563Y0114001D01*
X0130563Y0113394D01*
X0129956Y0113394D01*
X0129956Y0114001D01*
X0132720Y0107585D02*
X0135147Y0107585D01*
X0133933Y0105765D02*
X0132720Y0105765D01*
X0131521Y0106372D02*
X0131521Y0103945D01*
X0129701Y0103945D01*
X0129095Y0104552D01*
X0129095Y0106372D01*
X0126683Y0107585D02*
X0126683Y0103945D01*
X0125470Y0103945D02*
X0127896Y0103945D01*
X0125470Y0106372D02*
X0126683Y0107585D01*
X0122459Y0106979D02*
X0120032Y0104552D01*
X0120639Y0103945D01*
X0121852Y0103945D01*
X0122459Y0104552D01*
X0122459Y0106979D01*
X0121852Y0107585D01*
X0120639Y0107585D01*
X0120032Y0106979D01*
X0120032Y0104552D01*
X0123657Y0104552D02*
X0124264Y0104552D01*
X0124264Y0103945D01*
X0123657Y0103945D01*
X0123657Y0104552D01*
X0132720Y0103945D02*
X0132720Y0107585D01*
X0132383Y0122056D02*
X0132383Y0124482D01*
X0133581Y0123876D02*
X0134795Y0123876D01*
X0133581Y0125696D02*
X0136008Y0125696D01*
X0133581Y0125696D02*
X0133581Y0122056D01*
X0132383Y0122056D02*
X0130563Y0122056D01*
X0129956Y0122662D01*
X0129956Y0124482D01*
X0127544Y0125696D02*
X0127544Y0122056D01*
X0126331Y0122056D02*
X0128758Y0122056D01*
X0126331Y0124482D02*
X0127544Y0125696D01*
X0127342Y0129457D02*
X0129769Y0131884D01*
X0129769Y0132491D01*
X0129162Y0133097D01*
X0127949Y0133097D01*
X0127342Y0132491D01*
X0130967Y0132491D02*
X0131574Y0133097D01*
X0132788Y0133097D01*
X0133394Y0132491D01*
X0133394Y0131884D01*
X0130967Y0129457D01*
X0133394Y0129457D01*
X0134593Y0130064D02*
X0135199Y0129457D01*
X0137019Y0129457D01*
X0137019Y0131884D01*
X0138218Y0131277D02*
X0139431Y0131277D01*
X0138218Y0129457D02*
X0138218Y0133097D01*
X0140644Y0133097D01*
X0134593Y0131884D02*
X0134593Y0130064D01*
X0129769Y0129457D02*
X0127342Y0129457D01*
X0114676Y0131055D02*
X0112250Y0131055D01*
X0113463Y0132268D02*
X0113463Y0129841D01*
X0113463Y0133467D02*
X0111643Y0133467D01*
X0111643Y0135893D01*
X0111643Y0137092D02*
X0114070Y0137092D01*
X0115283Y0138305D01*
X0114070Y0139519D01*
X0111643Y0139519D01*
X0105834Y0139513D02*
X0105834Y0138300D01*
X0105834Y0138907D02*
X0102194Y0138907D01*
X0102194Y0139513D02*
X0102194Y0138300D01*
X0102801Y0137102D02*
X0102194Y0136495D01*
X0102194Y0135282D01*
X0102801Y0134675D01*
X0103408Y0134675D01*
X0104014Y0135282D01*
X0104014Y0136495D01*
X0104621Y0137102D01*
X0105228Y0137102D01*
X0105834Y0136495D01*
X0105834Y0135282D01*
X0105228Y0134675D01*
X0105228Y0133477D02*
X0102801Y0133477D01*
X0102194Y0132870D01*
X0102194Y0131657D01*
X0102801Y0131050D01*
X0105228Y0131050D01*
X0105834Y0131657D01*
X0105834Y0132870D01*
X0105228Y0133477D01*
X0105834Y0129851D02*
X0102194Y0129851D01*
X0103408Y0128638D01*
X0102194Y0127425D01*
X0105834Y0127425D01*
X0095598Y0130448D02*
X0095598Y0131662D01*
X0094991Y0132268D01*
X0093778Y0132268D01*
X0093778Y0131055D01*
X0092565Y0132268D02*
X0091958Y0131662D01*
X0091958Y0130448D01*
X0092565Y0129841D01*
X0094991Y0129841D01*
X0095598Y0130448D01*
X0095598Y0133467D02*
X0091958Y0133467D01*
X0095598Y0135893D01*
X0091958Y0135893D01*
X0091958Y0137092D02*
X0091958Y0138912D01*
X0092565Y0139519D01*
X0094991Y0139519D01*
X0095598Y0138912D01*
X0095598Y0137092D01*
X0091958Y0137092D01*
X0081028Y0131388D02*
X0078601Y0128961D01*
X0079208Y0128355D01*
X0080421Y0128355D01*
X0081028Y0128961D01*
X0081028Y0131388D01*
X0080421Y0131995D01*
X0079208Y0131995D01*
X0078601Y0131388D01*
X0078601Y0128961D01*
X0077403Y0128355D02*
X0074976Y0128355D01*
X0077403Y0130781D01*
X0077403Y0131388D01*
X0076796Y0131995D01*
X0075583Y0131995D01*
X0074976Y0131388D01*
X0073778Y0131388D02*
X0073171Y0131995D01*
X0071957Y0131995D01*
X0071351Y0131388D01*
X0073778Y0131388D02*
X0073778Y0130781D01*
X0071351Y0128355D01*
X0073778Y0128355D01*
X0073171Y0123333D02*
X0071957Y0123333D01*
X0071351Y0122727D01*
X0073171Y0123333D02*
X0073778Y0122727D01*
X0073778Y0122120D01*
X0071351Y0119693D01*
X0073778Y0119693D01*
X0074976Y0119693D02*
X0077403Y0122120D01*
X0077403Y0122727D01*
X0076796Y0123333D01*
X0075583Y0123333D01*
X0074976Y0122727D01*
X0078601Y0122727D02*
X0079208Y0123333D01*
X0080421Y0123333D01*
X0081028Y0122727D01*
X0078601Y0120300D01*
X0079208Y0119693D01*
X0080421Y0119693D01*
X0081028Y0120300D01*
X0081028Y0122727D01*
X0078601Y0122727D02*
X0078601Y0120300D01*
X0077403Y0119693D02*
X0074976Y0119693D01*
X0074976Y0114672D02*
X0077403Y0114672D01*
X0077403Y0114065D01*
X0074976Y0111639D01*
X0074976Y0111032D01*
X0073171Y0111032D02*
X0073171Y0114672D01*
X0071351Y0112852D01*
X0073778Y0112852D01*
X0078601Y0111639D02*
X0078601Y0114065D01*
X0079208Y0114672D01*
X0080421Y0114672D01*
X0081028Y0114065D01*
X0078601Y0111639D01*
X0079208Y0111032D01*
X0080421Y0111032D01*
X0081028Y0111639D01*
X0081028Y0114065D01*
X0087824Y0114916D02*
X0087824Y0112489D01*
X0091464Y0112489D01*
X0091464Y0111291D02*
X0090251Y0110078D01*
X0090857Y0111291D02*
X0091464Y0110684D01*
X0091464Y0109471D01*
X0090857Y0108864D01*
X0088431Y0108864D01*
X0087824Y0109471D01*
X0087824Y0110684D01*
X0088431Y0111291D01*
X0090857Y0111291D01*
X0089644Y0112489D02*
X0089644Y0113703D01*
X0090251Y0116114D02*
X0090251Y0117935D01*
X0089644Y0118541D01*
X0088431Y0118541D01*
X0087824Y0117935D01*
X0087824Y0116114D01*
X0091464Y0116114D01*
X0087824Y0107666D02*
X0087824Y0105239D01*
X0087824Y0106452D02*
X0091464Y0106452D01*
X0092071Y0104041D02*
X0092071Y0101614D01*
X0090251Y0099809D02*
X0090251Y0097989D01*
X0090251Y0096790D02*
X0090857Y0096790D01*
X0091464Y0096184D01*
X0091464Y0094970D01*
X0090857Y0094364D01*
X0090251Y0094364D01*
X0089644Y0094970D01*
X0089644Y0096184D01*
X0090251Y0096790D01*
X0089644Y0096184D02*
X0089037Y0096790D01*
X0088431Y0096790D01*
X0087824Y0096184D01*
X0087824Y0094970D01*
X0088431Y0094364D01*
X0089037Y0094364D01*
X0089644Y0094970D01*
X0089037Y0093165D02*
X0088431Y0093165D01*
X0087824Y0092559D01*
X0087824Y0091345D01*
X0088431Y0090739D01*
X0088431Y0089540D02*
X0089037Y0089540D01*
X0089644Y0088933D01*
X0090251Y0089540D01*
X0090857Y0089540D01*
X0091464Y0088933D01*
X0091464Y0087720D01*
X0090857Y0087113D01*
X0091464Y0085915D02*
X0089037Y0085915D01*
X0087824Y0084702D01*
X0089037Y0083488D01*
X0091464Y0083488D01*
X0090857Y0082290D02*
X0091464Y0081683D01*
X0091464Y0080470D01*
X0090857Y0079863D01*
X0088431Y0079863D01*
X0087824Y0080470D01*
X0087824Y0081683D01*
X0088431Y0082290D01*
X0089644Y0082290D02*
X0089644Y0081077D01*
X0089644Y0082290D02*
X0090857Y0082290D01*
X0089644Y0083488D02*
X0089644Y0085915D01*
X0088431Y0087113D02*
X0087824Y0087720D01*
X0087824Y0088933D01*
X0088431Y0089540D01*
X0089644Y0088933D02*
X0089644Y0088327D01*
X0091464Y0090739D02*
X0089037Y0093165D01*
X0091464Y0093165D02*
X0091464Y0090739D01*
X0091464Y0097989D02*
X0087824Y0097989D01*
X0087824Y0099809D01*
X0088431Y0100416D01*
X0089644Y0100416D01*
X0090251Y0099809D01*
X0086090Y0102861D02*
X0083663Y0102861D01*
X0083663Y0099221D01*
X0082465Y0099221D02*
X0082465Y0101648D01*
X0083663Y0101041D02*
X0084877Y0101041D01*
X0082465Y0099221D02*
X0080645Y0099221D01*
X0080038Y0099828D01*
X0080038Y0101648D01*
X0078840Y0101648D02*
X0078840Y0102254D01*
X0078233Y0102861D01*
X0077020Y0102861D01*
X0076413Y0102254D01*
X0075215Y0102254D02*
X0074608Y0102861D01*
X0073394Y0102861D01*
X0072788Y0102254D01*
X0075215Y0102254D02*
X0075215Y0101648D01*
X0072788Y0099221D01*
X0075215Y0099221D01*
X0076413Y0099221D02*
X0078840Y0101648D01*
X0078840Y0099221D02*
X0076413Y0099221D01*
X0087824Y0078665D02*
X0087824Y0076238D01*
X0091464Y0076238D01*
X0091464Y0078665D01*
X0089644Y0077451D02*
X0089644Y0076238D01*
X0087824Y0075040D02*
X0091464Y0075040D01*
X0091464Y0072613D02*
X0087824Y0072613D01*
X0089037Y0073826D01*
X0087824Y0075040D01*
X0087824Y0071414D02*
X0087824Y0068988D01*
X0087824Y0070201D02*
X0091464Y0070201D01*
X0091464Y0067789D02*
X0089037Y0067789D01*
X0087824Y0066576D01*
X0089037Y0065363D01*
X0091464Y0065363D01*
X0089644Y0065363D02*
X0089644Y0067789D01*
X0069850Y0068338D02*
X0066210Y0068338D01*
X0067423Y0067125D01*
X0069243Y0065919D02*
X0069850Y0065919D01*
X0069850Y0065312D01*
X0069243Y0065312D01*
X0069243Y0065919D01*
X0069850Y0067125D02*
X0069850Y0069552D01*
X0069243Y0070750D02*
X0069850Y0071357D01*
X0069850Y0073177D01*
X0067423Y0073177D01*
X0068030Y0074375D02*
X0068030Y0075589D01*
X0066210Y0074375D02*
X0066210Y0076802D01*
X0061189Y0076662D02*
X0059975Y0074842D01*
X0058762Y0076662D01*
X0057548Y0074842D02*
X0061189Y0074842D01*
X0060582Y0073643D02*
X0061189Y0073037D01*
X0061189Y0071823D01*
X0060582Y0071216D01*
X0058155Y0073643D01*
X0060582Y0073643D01*
X0060582Y0071216D02*
X0058155Y0071216D01*
X0057548Y0071823D01*
X0057548Y0073037D01*
X0058155Y0073643D01*
X0061189Y0070018D02*
X0061189Y0067591D01*
X0061189Y0068805D02*
X0057548Y0068805D01*
X0058762Y0067591D01*
X0066210Y0063507D02*
X0066817Y0064114D01*
X0069243Y0061687D01*
X0069850Y0062294D01*
X0069850Y0063507D01*
X0069243Y0064114D01*
X0066817Y0064114D01*
X0066210Y0063507D02*
X0066210Y0062294D01*
X0066817Y0061687D01*
X0069243Y0061687D01*
X0069243Y0070750D02*
X0067423Y0070750D01*
X0066210Y0074375D02*
X0069850Y0074375D01*
X0108871Y0029948D02*
X0107657Y0028734D01*
X0108871Y0029948D02*
X0108871Y0026307D01*
X0110084Y0026307D02*
X0107657Y0026307D01*
X0111282Y0026914D02*
X0111889Y0026307D01*
X0113102Y0026307D01*
X0113709Y0026914D01*
X0113709Y0028128D01*
X0113102Y0028734D01*
X0112496Y0028734D01*
X0111282Y0028128D01*
X0111282Y0029948D01*
X0113709Y0029948D01*
X0114908Y0028734D02*
X0116728Y0028734D01*
X0117334Y0028128D01*
X0117334Y0026914D01*
X0116728Y0026307D01*
X0114908Y0026307D01*
X0114908Y0025094D02*
X0114908Y0028734D01*
X0118533Y0028128D02*
X0119746Y0028128D01*
X0118533Y0029948D02*
X0118533Y0026307D01*
X0124980Y0026307D02*
X0127407Y0026307D01*
X0126193Y0026307D02*
X0126193Y0029948D01*
X0124980Y0028734D01*
X0128605Y0028128D02*
X0129819Y0028734D01*
X0130425Y0028734D01*
X0131032Y0028128D01*
X0131032Y0026914D01*
X0130425Y0026307D01*
X0129212Y0026307D01*
X0128605Y0026914D01*
X0128605Y0028128D02*
X0128605Y0029948D01*
X0131032Y0029948D01*
X0132230Y0028734D02*
X0134050Y0028734D01*
X0134657Y0028128D01*
X0134657Y0026914D01*
X0134050Y0026307D01*
X0132230Y0026307D01*
X0132230Y0025094D02*
X0132230Y0028734D01*
X0135856Y0028128D02*
X0137069Y0028128D01*
X0135856Y0029948D02*
X0138282Y0029948D01*
X0135856Y0029948D02*
X0135856Y0026307D01*
X0120959Y0029948D02*
X0118533Y0029948D01*
X0114676Y0133467D02*
X0115283Y0134073D01*
X0115283Y0135287D01*
X0114676Y0135893D01*
X0113463Y0135893D01*
X0112856Y0135287D01*
X0112856Y0134680D01*
X0113463Y0133467D01*
X0126949Y0141662D02*
X0129375Y0144089D01*
X0129375Y0144695D01*
X0128769Y0145302D01*
X0127555Y0145302D01*
X0126949Y0144695D01*
X0126949Y0141662D02*
X0129375Y0141662D01*
X0130574Y0141662D02*
X0133001Y0144089D01*
X0133001Y0144695D01*
X0132394Y0145302D01*
X0131180Y0145302D01*
X0130574Y0144695D01*
X0130574Y0141662D02*
X0133001Y0141662D01*
X0134199Y0142268D02*
X0134806Y0141662D01*
X0136626Y0141662D01*
X0136626Y0144089D01*
X0137824Y0143482D02*
X0139037Y0143482D01*
X0137824Y0141662D02*
X0137824Y0145302D01*
X0140251Y0145302D01*
X0134199Y0144089D02*
X0134199Y0142268D01*
X0134550Y0153217D02*
X0133943Y0153824D01*
X0133943Y0155644D01*
X0132745Y0156250D02*
X0130318Y0153824D01*
X0130925Y0153217D01*
X0132138Y0153217D01*
X0132745Y0153824D01*
X0132745Y0156250D01*
X0132138Y0156857D01*
X0130925Y0156857D01*
X0130318Y0156250D01*
X0130318Y0153824D01*
X0129119Y0153217D02*
X0126693Y0153217D01*
X0127906Y0153217D02*
X0127906Y0156857D01*
X0126693Y0155644D01*
X0134550Y0153217D02*
X0136370Y0153217D01*
X0136370Y0155644D01*
X0137568Y0155037D02*
X0139995Y0155037D01*
X0139995Y0156857D02*
X0139995Y0153217D01*
X0137568Y0153217D02*
X0137568Y0156857D01*
X0116858Y0163552D02*
X0113218Y0163552D01*
X0114431Y0164765D01*
X0113218Y0165978D01*
X0116858Y0165978D01*
X0116858Y0167177D02*
X0116858Y0168390D01*
X0116858Y0167783D02*
X0113218Y0167783D01*
X0113218Y0167177D02*
X0113218Y0168390D01*
X0113824Y0169593D02*
X0114431Y0169593D01*
X0115038Y0170200D01*
X0115038Y0171414D01*
X0115645Y0172020D01*
X0116251Y0172020D01*
X0116858Y0171414D01*
X0116858Y0170200D01*
X0116251Y0169593D01*
X0113824Y0169593D02*
X0113218Y0170200D01*
X0113218Y0171414D01*
X0113824Y0172020D01*
X0113824Y0173219D02*
X0116251Y0173219D01*
X0116858Y0173825D01*
X0116858Y0175039D01*
X0116251Y0175645D01*
X0113824Y0175645D01*
X0113218Y0175039D01*
X0113218Y0173825D01*
X0113824Y0173219D01*
X0106622Y0173229D02*
X0104802Y0171409D01*
X0105408Y0170802D02*
X0102982Y0173229D01*
X0102982Y0170802D02*
X0106622Y0170802D01*
X0106015Y0169603D02*
X0106622Y0168997D01*
X0106622Y0167783D01*
X0106015Y0167177D01*
X0103588Y0167177D01*
X0102982Y0167783D01*
X0102982Y0168997D01*
X0103588Y0169603D01*
X0097173Y0169603D02*
X0097173Y0167177D01*
X0093533Y0167177D01*
X0093533Y0169603D01*
X0094139Y0170802D02*
X0094746Y0170802D01*
X0095353Y0171409D01*
X0095353Y0172622D01*
X0095959Y0173229D01*
X0096566Y0173229D01*
X0097173Y0172622D01*
X0097173Y0171409D01*
X0096566Y0170802D01*
X0094139Y0170802D02*
X0093533Y0171409D01*
X0093533Y0172622D01*
X0094139Y0173229D01*
X0093533Y0174427D02*
X0097173Y0174427D01*
X0097173Y0176854D01*
X0095353Y0175640D02*
X0095353Y0174427D01*
X0093533Y0174427D02*
X0093533Y0176854D01*
X0093533Y0178052D02*
X0093533Y0180479D01*
X0093533Y0179265D02*
X0097173Y0179265D01*
X0095353Y0168390D02*
X0095353Y0167177D01*
X0095353Y0165978D02*
X0095959Y0165372D01*
X0095959Y0163552D01*
X0095959Y0164765D02*
X0097173Y0165978D01*
X0095353Y0165978D02*
X0094139Y0165978D01*
X0093533Y0165372D01*
X0093533Y0163552D01*
X0097173Y0163552D01*
X0102982Y0164158D02*
X0102982Y0165372D01*
X0103588Y0165978D01*
X0104802Y0165372D02*
X0104802Y0164158D01*
X0104195Y0163552D01*
X0103588Y0163552D01*
X0102982Y0164158D01*
X0104802Y0165372D02*
X0105408Y0165978D01*
X0106015Y0165978D01*
X0106622Y0165372D01*
X0106622Y0164158D01*
X0106015Y0163552D01*
X0049455Y0166445D02*
X0049455Y0170085D01*
X0047028Y0170085D02*
X0049455Y0166445D01*
X0047028Y0166445D02*
X0047028Y0170085D01*
X0045825Y0170085D02*
X0044611Y0170085D01*
X0045218Y0170085D02*
X0045218Y0166445D01*
X0044611Y0166445D02*
X0045825Y0166445D01*
X0043413Y0165839D02*
X0040986Y0165839D01*
X0039788Y0166445D02*
X0038574Y0167659D01*
X0039181Y0167659D02*
X0037361Y0167659D01*
X0037361Y0166445D02*
X0037361Y0170085D01*
X0039181Y0170085D01*
X0039788Y0169479D01*
X0039788Y0168265D01*
X0039181Y0167659D01*
X0036163Y0168265D02*
X0033736Y0168265D01*
X0033736Y0168872D02*
X0034949Y0170085D01*
X0036163Y0168872D01*
X0036163Y0166445D01*
X0033736Y0166445D02*
X0033736Y0168872D01*
X0032537Y0169479D02*
X0031931Y0170085D01*
X0030717Y0170085D01*
X0030111Y0169479D01*
X0030111Y0167052D01*
X0030717Y0166445D01*
X0031931Y0166445D01*
X0032537Y0167052D01*
D13*
X0117083Y0127417D02*
X0119984Y0127417D01*
X0120083Y0122220D02*
X0117083Y0122220D01*
X0117083Y0118756D02*
X0119984Y0118756D01*
X0120083Y0113559D02*
X0117083Y0113559D01*
X0113685Y0110094D02*
X0110783Y0110094D01*
X0110783Y0104898D02*
X0113783Y0104898D01*
X0070000Y0091673D02*
X0070000Y0088772D01*
X0064803Y0088673D02*
X0064803Y0091673D01*
X0066476Y0099673D02*
X0058878Y0099673D01*
X0058878Y0105870D02*
X0066476Y0105870D01*
X0150217Y0126445D02*
X0157815Y0126445D01*
X0168622Y0127494D02*
X0168622Y0125134D01*
X0170392Y0125134D01*
X0169802Y0126314D01*
X0169802Y0126904D01*
X0170392Y0127494D01*
X0171572Y0127494D01*
X0172162Y0126904D01*
X0172162Y0125724D01*
X0171572Y0125134D01*
X0171572Y0123869D02*
X0169212Y0123869D01*
X0171572Y0121509D01*
X0172162Y0122099D01*
X0172162Y0123279D01*
X0171572Y0123869D01*
X0169212Y0123869D02*
X0168622Y0123279D01*
X0168622Y0122099D01*
X0169212Y0121509D01*
X0171572Y0121509D01*
X0171572Y0120244D02*
X0172162Y0119654D01*
X0172162Y0118474D01*
X0171572Y0117884D01*
X0170392Y0117884D02*
X0169802Y0119064D01*
X0169802Y0119654D01*
X0170392Y0120244D01*
X0171572Y0120244D01*
X0170392Y0117884D02*
X0168622Y0117884D01*
X0168622Y0120244D01*
X0169212Y0116619D02*
X0171572Y0114259D01*
X0172162Y0114849D01*
X0172162Y0116029D01*
X0171572Y0116619D01*
X0169212Y0116619D01*
X0168622Y0116029D01*
X0168622Y0114849D01*
X0169212Y0114259D01*
X0171572Y0114259D01*
X0170392Y0112994D02*
X0170392Y0110634D01*
X0171572Y0109368D02*
X0168622Y0109368D01*
X0168622Y0107008D02*
X0171572Y0107008D01*
X0172162Y0107598D01*
X0172162Y0108778D01*
X0171572Y0109368D01*
X0171572Y0105743D02*
X0172162Y0105153D01*
X0172162Y0103973D01*
X0171572Y0103383D01*
X0169212Y0103383D01*
X0168622Y0103973D01*
X0168622Y0105153D01*
X0169212Y0105743D01*
X0168622Y0102118D02*
X0169212Y0100938D01*
X0170392Y0099758D01*
X0170392Y0101528D01*
X0170982Y0102118D01*
X0171572Y0102118D01*
X0172162Y0101528D01*
X0172162Y0100348D01*
X0171572Y0099758D01*
X0170392Y0099758D01*
X0170392Y0098493D02*
X0169212Y0098493D01*
X0168622Y0097903D01*
X0168622Y0096133D01*
X0172162Y0096133D01*
X0170982Y0096133D02*
X0170982Y0097903D01*
X0170392Y0098493D01*
X0192650Y0095035D02*
X0192650Y0102634D01*
X0198846Y0102634D02*
X0198846Y0095035D01*
X0201811Y0095760D02*
X0201811Y0098661D01*
X0207008Y0098760D02*
X0207008Y0095760D01*
X0217846Y0086886D02*
X0217846Y0079287D01*
X0224043Y0079287D02*
X0224043Y0086886D01*
X0227008Y0086161D02*
X0227008Y0083161D01*
X0232205Y0083260D02*
X0232205Y0086161D01*
X0235669Y0086161D02*
X0235669Y0083161D01*
X0240866Y0083260D02*
X0240866Y0086161D01*
X0233469Y0103323D02*
X0230567Y0103323D01*
X0230469Y0108520D02*
X0233469Y0108520D01*
X0214882Y0120268D02*
X0214882Y0123169D01*
X0209685Y0123169D02*
X0209685Y0120169D01*
X0172162Y0128759D02*
X0172162Y0131119D01*
X0172162Y0132384D02*
X0168622Y0132384D01*
X0168622Y0131119D02*
X0168622Y0128759D01*
X0172162Y0128759D01*
X0170392Y0128759D02*
X0170392Y0129939D01*
X0172162Y0132384D02*
X0172162Y0134744D01*
X0172162Y0136010D02*
X0168622Y0136010D01*
X0168622Y0138370D01*
X0170392Y0137190D02*
X0170392Y0136010D01*
X0157815Y0132642D02*
X0150217Y0132642D01*
X0149016Y0150476D02*
X0159016Y0150476D01*
X0159016Y0157480D02*
X0149016Y0157480D01*
X0183323Y0082415D02*
X0183323Y0080547D01*
X0183323Y0081481D02*
X0180520Y0081481D01*
X0181455Y0080547D01*
X0181418Y0073904D02*
X0180951Y0073904D01*
X0180483Y0073437D01*
X0180483Y0072502D01*
X0180951Y0072035D01*
X0181418Y0073904D02*
X0183286Y0072035D01*
X0183286Y0073904D01*
X0182856Y0064804D02*
X0183323Y0064337D01*
X0183323Y0063402D01*
X0182856Y0062935D01*
X0181922Y0063870D02*
X0181922Y0064337D01*
X0182389Y0064804D01*
X0182856Y0064804D01*
X0181922Y0064337D02*
X0181455Y0064804D01*
X0180988Y0064804D01*
X0180520Y0064337D01*
X0180520Y0063402D01*
X0180988Y0062935D01*
X0207520Y0060855D02*
X0208922Y0059454D01*
X0208922Y0061323D01*
X0210323Y0060855D02*
X0207520Y0060855D01*
X0273424Y0045917D02*
X0273424Y0042377D01*
X0273424Y0043557D02*
X0275194Y0043557D01*
X0275784Y0044147D01*
X0275784Y0045327D01*
X0275194Y0045917D01*
X0273424Y0045917D01*
X0277050Y0045327D02*
X0277640Y0045917D01*
X0278820Y0045917D01*
X0279410Y0045327D01*
X0280675Y0045327D02*
X0280675Y0044737D01*
X0281265Y0044147D01*
X0282445Y0044147D01*
X0283035Y0043557D01*
X0283035Y0042967D01*
X0282445Y0042377D01*
X0281265Y0042377D01*
X0280675Y0042967D01*
X0280675Y0043557D01*
X0281265Y0044147D01*
X0282445Y0044147D02*
X0283035Y0044737D01*
X0283035Y0045327D01*
X0282445Y0045917D01*
X0281265Y0045917D01*
X0280675Y0045327D01*
X0279410Y0042967D02*
X0278820Y0042377D01*
X0277640Y0042377D01*
X0277050Y0042967D01*
X0277050Y0045327D01*
X0284300Y0044737D02*
X0285480Y0045917D01*
X0285480Y0042377D01*
X0284300Y0042377D02*
X0286660Y0042377D01*
X0287925Y0042377D02*
X0287925Y0042967D01*
X0290285Y0045327D01*
X0290285Y0045917D01*
X0287925Y0045917D01*
X0287012Y0061591D02*
X0284012Y0061591D01*
X0284012Y0066787D02*
X0286913Y0066787D01*
X0332540Y0061845D02*
X0334310Y0060075D01*
X0334310Y0062435D01*
X0336080Y0061845D02*
X0332540Y0061845D01*
X0333130Y0058810D02*
X0335490Y0056450D01*
X0336080Y0057040D01*
X0336080Y0058220D01*
X0335490Y0058810D01*
X0333130Y0058810D01*
X0332540Y0058220D01*
X0332540Y0057040D01*
X0333130Y0056450D01*
X0335490Y0056450D01*
X0335490Y0055185D02*
X0333130Y0055185D01*
X0332540Y0054595D01*
X0332540Y0053415D01*
X0333130Y0052825D01*
X0333720Y0052825D01*
X0334310Y0053415D01*
X0334310Y0055185D01*
X0335490Y0055185D02*
X0336080Y0054595D01*
X0336080Y0053415D01*
X0335490Y0052825D01*
X0335490Y0051559D02*
X0336080Y0050969D01*
X0336080Y0049789D01*
X0335490Y0049199D01*
X0336080Y0047934D02*
X0332540Y0047934D01*
X0333130Y0049199D02*
X0332540Y0049789D01*
X0332540Y0050969D01*
X0333130Y0051559D01*
X0333720Y0051559D01*
X0334310Y0050969D01*
X0334900Y0051559D01*
X0335490Y0051559D01*
X0334310Y0050969D02*
X0334310Y0050379D01*
X0336080Y0047934D02*
X0332540Y0045574D01*
X0336080Y0045574D01*
X0336080Y0044309D02*
X0336080Y0041949D01*
X0333720Y0044309D01*
X0333130Y0044309D01*
X0332540Y0043719D01*
X0332540Y0042539D01*
X0333130Y0041949D01*
X0376436Y0053818D02*
X0377026Y0053228D01*
X0378206Y0053228D01*
X0378796Y0053818D01*
X0378796Y0054408D01*
X0378206Y0054998D01*
X0376436Y0054998D01*
X0376436Y0053818D01*
X0376436Y0054998D02*
X0377616Y0056178D01*
X0378796Y0056768D01*
X0380061Y0056768D02*
X0382421Y0053228D01*
X0382421Y0056768D01*
X0383686Y0055588D02*
X0384866Y0056768D01*
X0384866Y0053228D01*
X0383686Y0053228D02*
X0386047Y0053228D01*
X0387312Y0053818D02*
X0387902Y0053228D01*
X0389082Y0053228D01*
X0389672Y0053818D01*
X0389672Y0054408D01*
X0389082Y0054998D01*
X0388492Y0054998D01*
X0389082Y0054998D02*
X0389672Y0055588D01*
X0389672Y0056178D01*
X0389082Y0056768D01*
X0387902Y0056768D01*
X0387312Y0056178D01*
X0390937Y0056768D02*
X0393297Y0056768D01*
X0393297Y0056178D01*
X0390937Y0053818D01*
X0390937Y0053228D01*
X0380061Y0053228D02*
X0380061Y0056768D01*
X0310910Y0016918D02*
X0310910Y0016050D01*
X0310910Y0014315D02*
X0310910Y0010846D01*
X0310043Y0010846D02*
X0311777Y0010846D01*
X0313480Y0010846D02*
X0313480Y0014315D01*
X0316082Y0014315D01*
X0316950Y0013448D01*
X0316950Y0010846D01*
X0318637Y0010846D02*
X0319504Y0010846D01*
X0319504Y0011713D01*
X0318637Y0011713D01*
X0318637Y0010846D01*
X0310910Y0014315D02*
X0310043Y0014315D01*
X0308356Y0014315D02*
X0305754Y0014315D01*
X0304886Y0013448D01*
X0304886Y0011713D01*
X0305754Y0010846D01*
X0308356Y0010846D01*
X0308356Y0009978D02*
X0308356Y0014315D01*
X0308356Y0009978D02*
X0307488Y0009111D01*
X0306621Y0009111D01*
X0303199Y0010846D02*
X0300597Y0010846D01*
X0299730Y0011713D01*
X0300597Y0012580D01*
X0303199Y0012580D01*
X0303199Y0013448D02*
X0303199Y0010846D01*
X0298043Y0010846D02*
X0298043Y0013448D01*
X0297176Y0014315D01*
X0295441Y0014315D01*
X0294573Y0013448D01*
X0292887Y0012580D02*
X0292019Y0013448D01*
X0290284Y0013448D01*
X0289417Y0014315D01*
X0289417Y0015183D01*
X0290284Y0016050D01*
X0292019Y0016050D01*
X0292887Y0015183D01*
X0294573Y0016050D02*
X0294573Y0010846D01*
X0292887Y0011713D02*
X0292019Y0010846D01*
X0290284Y0010846D01*
X0289417Y0011713D01*
X0292887Y0011713D02*
X0292887Y0012580D01*
X0300597Y0014315D02*
X0302332Y0014315D01*
X0303199Y0013448D01*
X0282574Y0014315D02*
X0282574Y0009978D01*
X0281706Y0009111D01*
X0280839Y0009111D01*
X0279972Y0010846D02*
X0282574Y0010846D01*
X0279972Y0010846D02*
X0279104Y0011713D01*
X0279104Y0014315D01*
X0277409Y0014315D02*
X0276542Y0014315D01*
X0274807Y0012580D01*
X0274807Y0010846D02*
X0274807Y0014315D01*
X0273104Y0014315D02*
X0271370Y0014315D01*
X0272237Y0015183D02*
X0272237Y0011713D01*
X0273104Y0010846D01*
X0269667Y0010846D02*
X0267932Y0010846D01*
X0268799Y0010846D02*
X0268799Y0014315D01*
X0267932Y0014315D01*
X0266245Y0013448D02*
X0266245Y0010846D01*
X0264510Y0010846D02*
X0264510Y0013448D01*
X0265378Y0014315D01*
X0266245Y0013448D01*
X0264510Y0013448D02*
X0263643Y0014315D01*
X0262776Y0014315D01*
X0262776Y0010846D01*
X0261089Y0011713D02*
X0261089Y0015183D01*
X0260221Y0016050D01*
X0257619Y0016050D01*
X0257619Y0010846D01*
X0260221Y0010846D01*
X0261089Y0011713D01*
X0268799Y0016050D02*
X0268799Y0016918D01*
X0250776Y0014315D02*
X0250776Y0009978D01*
X0249909Y0009111D01*
X0249041Y0009111D01*
X0248174Y0010846D02*
X0250776Y0010846D01*
X0248174Y0010846D02*
X0247306Y0011713D01*
X0247306Y0014315D01*
X0245620Y0014315D02*
X0244752Y0013448D01*
X0242150Y0013448D01*
X0242150Y0016050D02*
X0244752Y0016050D01*
X0245620Y0015183D01*
X0245620Y0014315D01*
X0244752Y0013448D02*
X0245620Y0012580D01*
X0245620Y0011713D01*
X0244752Y0010846D01*
X0242150Y0010846D01*
X0242150Y0016050D01*
X0235283Y0011713D02*
X0235283Y0010846D01*
X0234415Y0010846D01*
X0234415Y0011713D01*
X0235283Y0011713D01*
X0232729Y0011713D02*
X0231861Y0010846D01*
X0230126Y0010846D01*
X0229259Y0011713D01*
X0232729Y0015183D01*
X0232729Y0011713D01*
X0232729Y0015183D02*
X0231861Y0016050D01*
X0230126Y0016050D01*
X0229259Y0015183D01*
X0229259Y0011713D01*
X0227548Y0011713D02*
X0227548Y0010846D01*
X0226681Y0010846D01*
X0226681Y0011713D01*
X0227548Y0011713D01*
X0224994Y0010846D02*
X0221524Y0010846D01*
X0223259Y0010846D02*
X0223259Y0016050D01*
X0221524Y0014315D01*
X0219838Y0014315D02*
X0218103Y0010846D01*
X0216368Y0014315D01*
X0209501Y0011713D02*
X0209501Y0010846D01*
X0208633Y0010846D01*
X0208633Y0011713D01*
X0209501Y0011713D01*
X0206939Y0014315D02*
X0206071Y0014315D01*
X0204336Y0012580D01*
X0204336Y0010846D02*
X0204336Y0014315D01*
X0202650Y0013448D02*
X0202650Y0011713D01*
X0201782Y0010846D01*
X0200047Y0010846D01*
X0199180Y0011713D01*
X0199180Y0013448D01*
X0200047Y0014315D01*
X0201782Y0014315D01*
X0202650Y0013448D01*
X0197477Y0014315D02*
X0195742Y0014315D01*
X0196610Y0015183D02*
X0196610Y0011713D01*
X0197477Y0010846D01*
X0194056Y0010846D02*
X0191453Y0010846D01*
X0190586Y0011713D01*
X0191453Y0012580D01*
X0194056Y0012580D01*
X0194056Y0013448D02*
X0194056Y0010846D01*
X0188883Y0010846D02*
X0187148Y0010846D01*
X0188016Y0010846D02*
X0188016Y0016050D01*
X0187148Y0016050D01*
X0185462Y0014315D02*
X0185462Y0010846D01*
X0182859Y0010846D01*
X0181992Y0011713D01*
X0181992Y0014315D01*
X0180305Y0013448D02*
X0180305Y0010846D01*
X0178570Y0010846D02*
X0178570Y0013448D01*
X0179438Y0014315D01*
X0180305Y0013448D01*
X0178570Y0013448D02*
X0177703Y0014315D01*
X0176836Y0014315D01*
X0176836Y0010846D01*
X0175149Y0012580D02*
X0171679Y0012580D01*
X0171679Y0011713D02*
X0171679Y0013448D01*
X0172547Y0014315D01*
X0174281Y0014315D01*
X0175149Y0013448D01*
X0175149Y0012580D01*
X0174281Y0010846D02*
X0172547Y0010846D01*
X0171679Y0011713D01*
X0164836Y0012580D02*
X0161366Y0012580D01*
X0161366Y0011713D02*
X0161366Y0013448D01*
X0162234Y0014315D01*
X0163969Y0014315D01*
X0164836Y0013448D01*
X0164836Y0012580D01*
X0163969Y0010846D02*
X0162234Y0010846D01*
X0161366Y0011713D01*
X0159680Y0011713D02*
X0158812Y0010846D01*
X0156210Y0010846D01*
X0154523Y0010846D02*
X0151921Y0010846D01*
X0151054Y0011713D01*
X0151921Y0012580D01*
X0154523Y0012580D01*
X0154523Y0013448D02*
X0154523Y0010846D01*
X0156210Y0009111D02*
X0156210Y0014315D01*
X0158812Y0014315D01*
X0159680Y0013448D01*
X0159680Y0011713D01*
X0154523Y0013448D02*
X0153656Y0014315D01*
X0151921Y0014315D01*
X0149351Y0014315D02*
X0147616Y0014315D01*
X0148483Y0015183D02*
X0148483Y0011713D01*
X0149351Y0010846D01*
X0140773Y0011713D02*
X0139905Y0010846D01*
X0138171Y0010846D01*
X0137303Y0011713D01*
X0135616Y0010846D02*
X0132147Y0010846D01*
X0132147Y0011713D01*
X0135616Y0015183D01*
X0135616Y0016050D01*
X0132147Y0016050D01*
X0128725Y0016050D02*
X0126990Y0014315D01*
X0125304Y0015183D02*
X0121834Y0011713D01*
X0121834Y0010846D01*
X0125304Y0010846D01*
X0126990Y0010846D02*
X0130460Y0010846D01*
X0128725Y0010846D02*
X0128725Y0016050D01*
X0125304Y0016050D02*
X0125304Y0015183D01*
X0125304Y0016050D02*
X0121834Y0016050D01*
X0114991Y0016050D02*
X0114991Y0012580D01*
X0113256Y0010846D01*
X0111521Y0012580D01*
X0111521Y0016050D01*
X0104678Y0013448D02*
X0104678Y0010846D01*
X0102076Y0010846D01*
X0101208Y0011713D01*
X0102076Y0012580D01*
X0104678Y0012580D01*
X0104678Y0013448D02*
X0103811Y0014315D01*
X0102076Y0014315D01*
X0099522Y0013448D02*
X0099522Y0010846D01*
X0097787Y0010846D02*
X0097787Y0013448D01*
X0098654Y0014315D01*
X0099522Y0013448D01*
X0097787Y0013448D02*
X0096919Y0014315D01*
X0096052Y0014315D01*
X0096052Y0010846D01*
X0094365Y0010846D02*
X0094365Y0013448D01*
X0093498Y0014315D01*
X0092630Y0013448D01*
X0092630Y0010846D01*
X0090896Y0010846D02*
X0090896Y0014315D01*
X0091763Y0014315D01*
X0092630Y0013448D01*
X0089209Y0013448D02*
X0089209Y0010846D01*
X0086607Y0010846D01*
X0085739Y0011713D01*
X0086607Y0012580D01*
X0089209Y0012580D01*
X0089209Y0013448D02*
X0088341Y0014315D01*
X0086607Y0014315D01*
X0084052Y0013448D02*
X0082318Y0013448D01*
X0084052Y0013448D02*
X0084052Y0011713D01*
X0083185Y0010846D01*
X0081450Y0010846D01*
X0080583Y0011713D01*
X0080583Y0015183D01*
X0081450Y0016050D01*
X0083185Y0016050D01*
X0084052Y0015183D01*
X0073740Y0016050D02*
X0070270Y0016050D01*
X0068583Y0016050D02*
X0065114Y0012580D01*
X0065981Y0013448D02*
X0068583Y0010846D01*
X0072005Y0010846D02*
X0072005Y0016050D01*
X0065114Y0016050D02*
X0065114Y0010846D01*
X0063427Y0010846D02*
X0063427Y0016050D01*
X0059957Y0016050D02*
X0063427Y0010846D01*
X0059957Y0010846D02*
X0059957Y0016050D01*
X0058271Y0016050D02*
X0058271Y0011713D01*
X0057403Y0010846D01*
X0055668Y0010846D01*
X0054801Y0011713D01*
X0054801Y0016050D01*
X0053114Y0015183D02*
X0052247Y0016050D01*
X0049644Y0016050D01*
X0049644Y0010846D01*
X0049644Y0012580D02*
X0052247Y0012580D01*
X0053114Y0013448D01*
X0053114Y0015183D01*
X0047958Y0016050D02*
X0047958Y0011713D01*
X0047090Y0010846D01*
X0045355Y0010846D01*
X0044488Y0011713D01*
X0044488Y0016050D01*
X0042801Y0014315D02*
X0042801Y0010846D01*
X0039332Y0010846D02*
X0039332Y0014315D01*
X0041066Y0016050D01*
X0042801Y0014315D01*
X0042801Y0013448D02*
X0039332Y0013448D01*
X0037645Y0010846D02*
X0034175Y0010846D01*
X0034175Y0016050D01*
X0032489Y0015183D02*
X0031621Y0016050D01*
X0029019Y0016050D01*
X0029019Y0010846D01*
X0031621Y0010846D01*
X0032489Y0011713D01*
X0032489Y0012580D01*
X0031621Y0013448D01*
X0029019Y0013448D01*
X0031621Y0013448D02*
X0032489Y0014315D01*
X0032489Y0015183D01*
X0066549Y0049393D02*
X0068909Y0049393D01*
X0067729Y0049393D02*
X0067729Y0052933D01*
X0066549Y0051753D01*
X0070174Y0051753D02*
X0071354Y0052933D01*
X0071354Y0049393D01*
X0070174Y0049393D02*
X0072534Y0049393D01*
X0073799Y0049393D02*
X0073799Y0049983D01*
X0074389Y0049983D01*
X0074389Y0049393D01*
X0073799Y0049393D01*
X0075611Y0049983D02*
X0076201Y0049393D01*
X0077381Y0049393D01*
X0077971Y0049983D01*
X0077971Y0052343D01*
X0075611Y0049983D01*
X0075611Y0052343D01*
X0076201Y0052933D01*
X0077381Y0052933D01*
X0077971Y0052343D01*
X0079236Y0052933D02*
X0079236Y0051163D01*
X0080416Y0051753D01*
X0081006Y0051753D01*
X0081597Y0051163D01*
X0081597Y0049983D01*
X0081006Y0049393D01*
X0079826Y0049393D01*
X0079236Y0049983D01*
X0079236Y0052933D02*
X0081597Y0052933D01*
X0082862Y0052343D02*
X0082862Y0051753D01*
X0083452Y0051163D01*
X0085222Y0051163D01*
X0085222Y0049983D02*
X0085222Y0052343D01*
X0084632Y0052933D01*
X0083452Y0052933D01*
X0082862Y0052343D01*
X0082862Y0049983D02*
X0083452Y0049393D01*
X0084632Y0049393D01*
X0085222Y0049983D01*
X0086487Y0049393D02*
X0088847Y0051753D01*
X0088847Y0052343D01*
X0088257Y0052933D01*
X0087077Y0052933D01*
X0086487Y0052343D01*
X0090112Y0052933D02*
X0091292Y0051753D01*
X0092472Y0052933D01*
X0092472Y0049393D01*
X0093737Y0049393D02*
X0093737Y0052933D01*
X0093737Y0051163D02*
X0096097Y0051163D01*
X0097362Y0051753D02*
X0099722Y0051753D01*
X0097362Y0049393D01*
X0099722Y0049393D01*
X0096097Y0049393D02*
X0096097Y0052933D01*
X0090112Y0052933D02*
X0090112Y0049393D01*
X0088847Y0049393D02*
X0086487Y0049393D01*
X0113933Y0036866D02*
X0116835Y0036866D01*
X0116933Y0031669D02*
X0113933Y0031669D01*
X0131256Y0031669D02*
X0134256Y0031669D01*
X0134157Y0036866D02*
X0131256Y0036866D01*
X0138171Y0016050D02*
X0139905Y0016050D01*
X0140773Y0015183D01*
X0140773Y0014315D01*
X0139905Y0013448D01*
X0140773Y0012580D01*
X0140773Y0011713D01*
X0139905Y0013448D02*
X0139038Y0013448D01*
X0137303Y0015183D02*
X0138171Y0016050D01*
X0191453Y0014315D02*
X0193188Y0014315D01*
X0194056Y0013448D01*
X0350252Y0108835D02*
X0353154Y0108835D01*
X0353154Y0114031D02*
X0350154Y0114031D01*
X0409209Y0105370D02*
X0412110Y0105370D01*
X0412209Y0100173D02*
X0409209Y0100173D01*
X0388587Y0148992D02*
X0385685Y0148992D01*
X0385587Y0154189D02*
X0388587Y0154189D01*
X0351890Y0154913D02*
X0351890Y0157815D01*
X0346693Y0157815D02*
X0346693Y0154815D01*
D14*
X0365827Y0150803D02*
X0372126Y0150803D01*
X0372126Y0161827D01*
X0365827Y0161827D01*
X0365827Y0150803D01*
X0371650Y0147181D02*
X0394650Y0147181D01*
X0394650Y0107181D01*
X0387150Y0107181D01*
X0387148Y0107307D01*
X0387142Y0107432D01*
X0387132Y0107557D01*
X0387118Y0107682D01*
X0387101Y0107807D01*
X0387079Y0107931D01*
X0387054Y0108054D01*
X0387024Y0108176D01*
X0386991Y0108297D01*
X0386954Y0108417D01*
X0386914Y0108536D01*
X0386869Y0108653D01*
X0386821Y0108770D01*
X0386769Y0108884D01*
X0386714Y0108997D01*
X0386655Y0109108D01*
X0386593Y0109217D01*
X0386527Y0109324D01*
X0386458Y0109429D01*
X0386386Y0109532D01*
X0386311Y0109633D01*
X0386232Y0109731D01*
X0386150Y0109826D01*
X0386066Y0109919D01*
X0385978Y0110009D01*
X0385888Y0110097D01*
X0385795Y0110181D01*
X0385700Y0110263D01*
X0385602Y0110342D01*
X0385501Y0110417D01*
X0385398Y0110489D01*
X0385293Y0110558D01*
X0385186Y0110624D01*
X0385077Y0110686D01*
X0384966Y0110745D01*
X0384853Y0110800D01*
X0384739Y0110852D01*
X0384622Y0110900D01*
X0384505Y0110945D01*
X0384386Y0110985D01*
X0384266Y0111022D01*
X0384145Y0111055D01*
X0384023Y0111085D01*
X0383900Y0111110D01*
X0383776Y0111132D01*
X0383651Y0111149D01*
X0383526Y0111163D01*
X0383401Y0111173D01*
X0383276Y0111179D01*
X0383150Y0111181D01*
X0383024Y0111179D01*
X0382899Y0111173D01*
X0382774Y0111163D01*
X0382649Y0111149D01*
X0382524Y0111132D01*
X0382400Y0111110D01*
X0382277Y0111085D01*
X0382155Y0111055D01*
X0382034Y0111022D01*
X0381914Y0110985D01*
X0381795Y0110945D01*
X0381678Y0110900D01*
X0381561Y0110852D01*
X0381447Y0110800D01*
X0381334Y0110745D01*
X0381223Y0110686D01*
X0381114Y0110624D01*
X0381007Y0110558D01*
X0380902Y0110489D01*
X0380799Y0110417D01*
X0380698Y0110342D01*
X0380600Y0110263D01*
X0380505Y0110181D01*
X0380412Y0110097D01*
X0380322Y0110009D01*
X0380234Y0109919D01*
X0380150Y0109826D01*
X0380068Y0109731D01*
X0379989Y0109633D01*
X0379914Y0109532D01*
X0379842Y0109429D01*
X0379773Y0109324D01*
X0379707Y0109217D01*
X0379645Y0109108D01*
X0379586Y0108997D01*
X0379531Y0108884D01*
X0379479Y0108770D01*
X0379431Y0108653D01*
X0379386Y0108536D01*
X0379346Y0108417D01*
X0379309Y0108297D01*
X0379276Y0108176D01*
X0379246Y0108054D01*
X0379221Y0107931D01*
X0379199Y0107807D01*
X0379182Y0107682D01*
X0379168Y0107557D01*
X0379158Y0107432D01*
X0379152Y0107307D01*
X0379150Y0107181D01*
X0371650Y0107181D01*
X0371650Y0147181D01*
X0353268Y0134406D02*
X0350039Y0134406D01*
X0350039Y0129406D02*
X0353268Y0129406D01*
X0334469Y0104386D02*
X0334469Y0101157D01*
X0329469Y0101157D02*
X0329469Y0104386D01*
X0350728Y0088638D02*
X0350728Y0085409D01*
X0355728Y0085409D02*
X0355728Y0088638D01*
X0371650Y0098362D02*
X0379150Y0098362D01*
X0379152Y0098236D01*
X0379158Y0098111D01*
X0379168Y0097986D01*
X0379182Y0097861D01*
X0379199Y0097736D01*
X0379221Y0097612D01*
X0379246Y0097489D01*
X0379276Y0097367D01*
X0379309Y0097246D01*
X0379346Y0097126D01*
X0379386Y0097007D01*
X0379431Y0096890D01*
X0379479Y0096773D01*
X0379531Y0096659D01*
X0379586Y0096546D01*
X0379645Y0096435D01*
X0379707Y0096326D01*
X0379773Y0096219D01*
X0379842Y0096114D01*
X0379914Y0096011D01*
X0379989Y0095910D01*
X0380068Y0095812D01*
X0380150Y0095717D01*
X0380234Y0095624D01*
X0380322Y0095534D01*
X0380412Y0095446D01*
X0380505Y0095362D01*
X0380600Y0095280D01*
X0380698Y0095201D01*
X0380799Y0095126D01*
X0380902Y0095054D01*
X0381007Y0094985D01*
X0381114Y0094919D01*
X0381223Y0094857D01*
X0381334Y0094798D01*
X0381447Y0094743D01*
X0381561Y0094691D01*
X0381678Y0094643D01*
X0381795Y0094598D01*
X0381914Y0094558D01*
X0382034Y0094521D01*
X0382155Y0094488D01*
X0382277Y0094458D01*
X0382400Y0094433D01*
X0382524Y0094411D01*
X0382649Y0094394D01*
X0382774Y0094380D01*
X0382899Y0094370D01*
X0383024Y0094364D01*
X0383150Y0094362D01*
X0383276Y0094364D01*
X0383401Y0094370D01*
X0383526Y0094380D01*
X0383651Y0094394D01*
X0383776Y0094411D01*
X0383900Y0094433D01*
X0384023Y0094458D01*
X0384145Y0094488D01*
X0384266Y0094521D01*
X0384386Y0094558D01*
X0384505Y0094598D01*
X0384622Y0094643D01*
X0384739Y0094691D01*
X0384853Y0094743D01*
X0384966Y0094798D01*
X0385077Y0094857D01*
X0385186Y0094919D01*
X0385293Y0094985D01*
X0385398Y0095054D01*
X0385501Y0095126D01*
X0385602Y0095201D01*
X0385700Y0095280D01*
X0385795Y0095362D01*
X0385888Y0095446D01*
X0385978Y0095534D01*
X0386066Y0095624D01*
X0386150Y0095717D01*
X0386232Y0095812D01*
X0386311Y0095910D01*
X0386386Y0096011D01*
X0386458Y0096114D01*
X0386527Y0096219D01*
X0386593Y0096326D01*
X0386655Y0096435D01*
X0386714Y0096546D01*
X0386769Y0096659D01*
X0386821Y0096773D01*
X0386869Y0096890D01*
X0386914Y0097007D01*
X0386954Y0097126D01*
X0386991Y0097246D01*
X0387024Y0097367D01*
X0387054Y0097489D01*
X0387079Y0097612D01*
X0387101Y0097736D01*
X0387118Y0097861D01*
X0387132Y0097986D01*
X0387142Y0098111D01*
X0387148Y0098236D01*
X0387150Y0098362D01*
X0394650Y0098362D01*
X0394650Y0058362D01*
X0371650Y0058362D01*
X0371650Y0098362D01*
X0412146Y0079976D02*
X0412146Y0076748D01*
X0417146Y0076748D02*
X0417146Y0079976D01*
X0417146Y0116906D02*
X0417146Y0120134D01*
X0412146Y0120134D02*
X0412146Y0116906D01*
X0323346Y0066689D02*
X0320118Y0066689D01*
X0320118Y0061689D02*
X0323346Y0061689D01*
X0303661Y0061689D02*
X0300433Y0061689D01*
X0300433Y0066689D02*
X0303661Y0066689D01*
X0296224Y0041118D02*
X0288724Y0041118D01*
X0288722Y0040992D01*
X0288716Y0040867D01*
X0288706Y0040742D01*
X0288692Y0040617D01*
X0288675Y0040492D01*
X0288653Y0040368D01*
X0288628Y0040245D01*
X0288598Y0040123D01*
X0288565Y0040002D01*
X0288528Y0039882D01*
X0288488Y0039763D01*
X0288443Y0039646D01*
X0288395Y0039529D01*
X0288343Y0039415D01*
X0288288Y0039302D01*
X0288229Y0039191D01*
X0288167Y0039082D01*
X0288101Y0038975D01*
X0288032Y0038870D01*
X0287960Y0038767D01*
X0287885Y0038666D01*
X0287806Y0038568D01*
X0287724Y0038473D01*
X0287640Y0038380D01*
X0287552Y0038290D01*
X0287462Y0038202D01*
X0287369Y0038118D01*
X0287274Y0038036D01*
X0287176Y0037957D01*
X0287075Y0037882D01*
X0286972Y0037810D01*
X0286867Y0037741D01*
X0286760Y0037675D01*
X0286651Y0037613D01*
X0286540Y0037554D01*
X0286427Y0037499D01*
X0286313Y0037447D01*
X0286196Y0037399D01*
X0286079Y0037354D01*
X0285960Y0037314D01*
X0285840Y0037277D01*
X0285719Y0037244D01*
X0285597Y0037214D01*
X0285474Y0037189D01*
X0285350Y0037167D01*
X0285225Y0037150D01*
X0285100Y0037136D01*
X0284975Y0037126D01*
X0284850Y0037120D01*
X0284724Y0037118D01*
X0284598Y0037120D01*
X0284473Y0037126D01*
X0284348Y0037136D01*
X0284223Y0037150D01*
X0284098Y0037167D01*
X0283974Y0037189D01*
X0283851Y0037214D01*
X0283729Y0037244D01*
X0283608Y0037277D01*
X0283488Y0037314D01*
X0283369Y0037354D01*
X0283252Y0037399D01*
X0283135Y0037447D01*
X0283021Y0037499D01*
X0282908Y0037554D01*
X0282797Y0037613D01*
X0282688Y0037675D01*
X0282581Y0037741D01*
X0282476Y0037810D01*
X0282373Y0037882D01*
X0282272Y0037957D01*
X0282174Y0038036D01*
X0282079Y0038118D01*
X0281986Y0038202D01*
X0281896Y0038290D01*
X0281808Y0038380D01*
X0281724Y0038473D01*
X0281642Y0038568D01*
X0281563Y0038666D01*
X0281488Y0038767D01*
X0281416Y0038870D01*
X0281347Y0038975D01*
X0281281Y0039082D01*
X0281219Y0039191D01*
X0281160Y0039302D01*
X0281105Y0039415D01*
X0281053Y0039529D01*
X0281005Y0039646D01*
X0280960Y0039763D01*
X0280920Y0039882D01*
X0280883Y0040002D01*
X0280850Y0040123D01*
X0280820Y0040245D01*
X0280795Y0040368D01*
X0280773Y0040492D01*
X0280756Y0040617D01*
X0280742Y0040742D01*
X0280732Y0040867D01*
X0280726Y0040992D01*
X0280724Y0041118D01*
X0273224Y0041118D01*
X0273224Y0021118D01*
X0296224Y0021118D01*
X0296224Y0041118D01*
X0252480Y0039130D02*
X0249252Y0039130D01*
X0249252Y0034130D02*
X0252480Y0034130D01*
X0252480Y0028894D02*
X0249252Y0028894D01*
X0249252Y0023894D02*
X0252480Y0023894D01*
X0135594Y0043016D02*
X0112594Y0043016D01*
X0121594Y0046516D02*
X0121594Y0050016D01*
X0119094Y0050016D01*
X0121594Y0050016D02*
X0121594Y0053516D01*
X0123094Y0053516D02*
X0123094Y0046516D01*
X0125094Y0046516D01*
X0125094Y0053516D01*
X0123094Y0053516D01*
X0126594Y0053516D02*
X0126594Y0050016D01*
X0129094Y0050016D01*
X0126594Y0050016D02*
X0126594Y0046516D01*
X0135594Y0043016D02*
X0135764Y0043018D01*
X0135935Y0043024D01*
X0136105Y0043035D01*
X0136275Y0043049D01*
X0136444Y0043068D01*
X0136613Y0043091D01*
X0136782Y0043117D01*
X0136949Y0043148D01*
X0137116Y0043183D01*
X0137282Y0043223D01*
X0137447Y0043266D01*
X0137611Y0043313D01*
X0137773Y0043364D01*
X0137935Y0043419D01*
X0138095Y0043478D01*
X0138253Y0043541D01*
X0138410Y0043607D01*
X0138565Y0043678D01*
X0138719Y0043752D01*
X0138870Y0043830D01*
X0139020Y0043912D01*
X0139168Y0043997D01*
X0139313Y0044086D01*
X0139456Y0044178D01*
X0139597Y0044274D01*
X0139736Y0044373D01*
X0139872Y0044476D01*
X0140006Y0044581D01*
X0140137Y0044690D01*
X0140265Y0044803D01*
X0140391Y0044918D01*
X0140514Y0045036D01*
X0140633Y0045157D01*
X0140750Y0045282D01*
X0140864Y0045409D01*
X0140975Y0045538D01*
X0141082Y0045671D01*
X0141186Y0045806D01*
X0141287Y0045943D01*
X0141385Y0046083D01*
X0141479Y0046225D01*
X0141569Y0046369D01*
X0141656Y0046516D01*
X0141740Y0046665D01*
X0141819Y0046815D01*
X0141895Y0046968D01*
X0141968Y0047122D01*
X0142036Y0047278D01*
X0142101Y0047436D01*
X0142162Y0047595D01*
X0142219Y0047756D01*
X0142272Y0047918D01*
X0142321Y0048081D01*
X0142366Y0048245D01*
X0142407Y0048411D01*
X0142445Y0048577D01*
X0142478Y0048745D01*
X0142506Y0048913D01*
X0142531Y0049081D01*
X0142552Y0049250D01*
X0142569Y0049420D01*
X0142581Y0049590D01*
X0142589Y0049760D01*
X0142593Y0049931D01*
X0142593Y0050101D01*
X0142589Y0050272D01*
X0142581Y0050442D01*
X0142569Y0050612D01*
X0142552Y0050782D01*
X0142531Y0050951D01*
X0142506Y0051119D01*
X0142478Y0051287D01*
X0142445Y0051455D01*
X0142407Y0051621D01*
X0142366Y0051787D01*
X0142321Y0051951D01*
X0142272Y0052114D01*
X0142219Y0052276D01*
X0142162Y0052437D01*
X0142101Y0052596D01*
X0142036Y0052754D01*
X0141968Y0052910D01*
X0141895Y0053064D01*
X0141819Y0053217D01*
X0141740Y0053367D01*
X0141656Y0053516D01*
X0141569Y0053663D01*
X0141479Y0053807D01*
X0141385Y0053949D01*
X0141287Y0054089D01*
X0141186Y0054226D01*
X0141082Y0054361D01*
X0140975Y0054494D01*
X0140864Y0054623D01*
X0140750Y0054750D01*
X0140633Y0054875D01*
X0140514Y0054996D01*
X0140391Y0055114D01*
X0140265Y0055229D01*
X0140137Y0055342D01*
X0140006Y0055451D01*
X0139872Y0055556D01*
X0139736Y0055659D01*
X0139597Y0055758D01*
X0139456Y0055854D01*
X0139313Y0055946D01*
X0139168Y0056035D01*
X0139020Y0056120D01*
X0138870Y0056202D01*
X0138719Y0056280D01*
X0138565Y0056354D01*
X0138410Y0056425D01*
X0138253Y0056491D01*
X0138095Y0056554D01*
X0137935Y0056613D01*
X0137773Y0056668D01*
X0137611Y0056719D01*
X0137447Y0056766D01*
X0137282Y0056809D01*
X0137116Y0056849D01*
X0136949Y0056884D01*
X0136782Y0056915D01*
X0136613Y0056941D01*
X0136444Y0056964D01*
X0136275Y0056983D01*
X0136105Y0056997D01*
X0135935Y0057008D01*
X0135764Y0057014D01*
X0135594Y0057016D01*
X0112594Y0057016D01*
X0112424Y0057014D01*
X0112253Y0057008D01*
X0112083Y0056997D01*
X0111913Y0056983D01*
X0111744Y0056964D01*
X0111575Y0056941D01*
X0111406Y0056915D01*
X0111239Y0056884D01*
X0111072Y0056849D01*
X0110906Y0056809D01*
X0110741Y0056766D01*
X0110577Y0056719D01*
X0110415Y0056668D01*
X0110253Y0056613D01*
X0110093Y0056554D01*
X0109935Y0056491D01*
X0109778Y0056425D01*
X0109623Y0056354D01*
X0109469Y0056280D01*
X0109318Y0056202D01*
X0109168Y0056120D01*
X0109020Y0056035D01*
X0108875Y0055946D01*
X0108732Y0055854D01*
X0108591Y0055758D01*
X0108452Y0055659D01*
X0108316Y0055556D01*
X0108182Y0055451D01*
X0108051Y0055342D01*
X0107923Y0055229D01*
X0107797Y0055114D01*
X0107674Y0054996D01*
X0107555Y0054875D01*
X0107438Y0054750D01*
X0107324Y0054623D01*
X0107213Y0054494D01*
X0107106Y0054361D01*
X0107002Y0054226D01*
X0106901Y0054089D01*
X0106803Y0053949D01*
X0106709Y0053807D01*
X0106619Y0053663D01*
X0106532Y0053516D01*
X0106448Y0053367D01*
X0106369Y0053217D01*
X0106293Y0053064D01*
X0106220Y0052910D01*
X0106152Y0052754D01*
X0106087Y0052596D01*
X0106026Y0052437D01*
X0105969Y0052276D01*
X0105916Y0052114D01*
X0105867Y0051951D01*
X0105822Y0051787D01*
X0105781Y0051621D01*
X0105743Y0051455D01*
X0105710Y0051287D01*
X0105682Y0051119D01*
X0105657Y0050951D01*
X0105636Y0050782D01*
X0105619Y0050612D01*
X0105607Y0050442D01*
X0105599Y0050272D01*
X0105595Y0050101D01*
X0105595Y0049931D01*
X0105599Y0049760D01*
X0105607Y0049590D01*
X0105619Y0049420D01*
X0105636Y0049250D01*
X0105657Y0049081D01*
X0105682Y0048913D01*
X0105710Y0048745D01*
X0105743Y0048577D01*
X0105781Y0048411D01*
X0105822Y0048245D01*
X0105867Y0048081D01*
X0105916Y0047918D01*
X0105969Y0047756D01*
X0106026Y0047595D01*
X0106087Y0047436D01*
X0106152Y0047278D01*
X0106220Y0047122D01*
X0106293Y0046968D01*
X0106369Y0046815D01*
X0106448Y0046665D01*
X0106532Y0046516D01*
X0106619Y0046369D01*
X0106709Y0046225D01*
X0106803Y0046083D01*
X0106901Y0045943D01*
X0107002Y0045806D01*
X0107106Y0045671D01*
X0107213Y0045538D01*
X0107324Y0045409D01*
X0107438Y0045282D01*
X0107555Y0045157D01*
X0107674Y0045036D01*
X0107797Y0044918D01*
X0107923Y0044803D01*
X0108051Y0044690D01*
X0108182Y0044581D01*
X0108316Y0044476D01*
X0108452Y0044373D01*
X0108591Y0044274D01*
X0108732Y0044178D01*
X0108875Y0044086D01*
X0109020Y0043997D01*
X0109168Y0043912D01*
X0109318Y0043830D01*
X0109469Y0043752D01*
X0109623Y0043678D01*
X0109778Y0043607D01*
X0109935Y0043541D01*
X0110093Y0043478D01*
X0110253Y0043419D01*
X0110415Y0043364D01*
X0110577Y0043313D01*
X0110741Y0043266D01*
X0110906Y0043223D01*
X0111072Y0043183D01*
X0111239Y0043148D01*
X0111406Y0043117D01*
X0111575Y0043091D01*
X0111744Y0043068D01*
X0111913Y0043049D01*
X0112083Y0043035D01*
X0112253Y0043024D01*
X0112424Y0043018D01*
X0112594Y0043016D01*
X0165224Y0083106D02*
X0189224Y0083106D01*
X0189224Y0097606D01*
X0189224Y0103606D01*
X0189224Y0107606D01*
X0189224Y0113606D01*
X0189224Y0117606D01*
X0189224Y0123606D01*
X0189224Y0137606D01*
X0189224Y0143606D01*
X0189224Y0147606D01*
X0189224Y0153606D01*
X0189224Y0160106D01*
X0165224Y0160106D01*
X0165224Y0083106D01*
X0230354Y0094760D02*
X0233583Y0094760D01*
X0233583Y0099760D02*
X0230354Y0099760D01*
X0198248Y0115331D02*
X0198248Y0118559D01*
X0193248Y0118559D02*
X0193248Y0115331D01*
X0064291Y0116295D02*
X0061063Y0116295D01*
X0061063Y0119957D02*
X0064291Y0119957D01*
X0064291Y0124957D02*
X0061063Y0124957D01*
X0061063Y0128618D02*
X0064291Y0128618D01*
X0064291Y0133618D02*
X0061063Y0133618D01*
X0037500Y0134819D02*
X0037500Y0144819D01*
X0037500Y0154819D01*
X0037500Y0164819D01*
X0027500Y0164819D01*
X0027500Y0154819D01*
X0027500Y0144819D01*
X0027500Y0134819D01*
X0027500Y0124819D01*
X0027500Y0114819D01*
X0027500Y0104819D01*
X0027500Y0094819D01*
X0027500Y0084819D01*
X0037500Y0084819D01*
X0037500Y0094819D01*
X0037500Y0104819D01*
X0037500Y0114819D01*
X0037500Y0124819D01*
X0037500Y0134819D01*
X0027500Y0134819D01*
X0027500Y0144819D02*
X0037500Y0144819D01*
X0037500Y0154819D02*
X0027500Y0154819D01*
X0027500Y0124819D02*
X0037500Y0124819D01*
X0037500Y0114819D02*
X0027500Y0114819D01*
X0027500Y0104819D02*
X0037500Y0104819D01*
X0037500Y0094819D02*
X0027500Y0094819D01*
X0056240Y0091787D02*
X0056240Y0088559D01*
X0061240Y0088559D02*
X0061240Y0091787D01*
X0061063Y0111295D02*
X0064291Y0111295D01*
D15*
X0025000Y0109819D02*
X0002500Y0109819D01*
X0002500Y0119819D02*
X0025000Y0119819D01*
X0025000Y0129819D02*
X0002500Y0129819D01*
X0002500Y0139819D02*
X0025000Y0139819D01*
X0025000Y0149819D02*
X0002500Y0149819D01*
X0002500Y0159819D02*
X0025000Y0159819D01*
X0025000Y0099819D02*
X0002500Y0099819D01*
X0002500Y0089819D02*
X0025000Y0089819D01*
D16*
X0026500Y0089819D03*
X0026500Y0099819D03*
X0026500Y0109819D03*
X0026500Y0119819D03*
X0026500Y0129819D03*
X0026500Y0139819D03*
X0026500Y0149819D03*
X0026500Y0159819D03*
D17*
X0039500Y0159819D03*
X0039500Y0149819D03*
X0039500Y0139819D03*
X0039500Y0129819D03*
X0039500Y0119819D03*
X0039500Y0109819D03*
X0039500Y0099819D03*
X0039500Y0089819D03*
D18*
X0059798Y0113789D03*
X0065598Y0113789D03*
X0065598Y0122451D03*
X0059798Y0122451D03*
X0059798Y0131112D03*
X0065598Y0131112D03*
X0229048Y0097266D03*
X0234848Y0097266D03*
X0299127Y0064195D03*
X0304927Y0064195D03*
X0318853Y0064183D03*
X0324653Y0064183D03*
X0253746Y0036636D03*
X0247946Y0036636D03*
X0247987Y0026388D03*
X0253787Y0026388D03*
X0348733Y0131911D03*
X0354533Y0131911D03*
D19*
X0320551Y0164976D02*
X0253622Y0164976D01*
X0253622Y0069307D01*
X0320551Y0069307D01*
X0320551Y0164976D01*
X0320551Y0189780D01*
X0253622Y0189780D01*
X0253622Y0164976D01*
X0240031Y0162102D02*
X0240031Y0132102D01*
X0218031Y0132102D01*
X0218031Y0137102D01*
X0223031Y0137102D01*
X0223031Y0157102D01*
X0218031Y0157102D01*
X0218031Y0162102D01*
X0240031Y0162102D01*
X0218031Y0157102D02*
X0218031Y0137102D01*
X0218031Y0130606D02*
X0218031Y0125606D01*
X0223031Y0125606D01*
X0223031Y0115606D01*
X0218031Y0115606D01*
X0218031Y0125606D01*
X0218031Y0130606D02*
X0240031Y0130606D01*
X0240031Y0110606D01*
X0218031Y0110606D01*
X0218031Y0115606D01*
X0177310Y0101859D02*
X0176142Y0101275D01*
X0174974Y0100108D01*
X0176726Y0100108D01*
X0177310Y0099524D01*
X0177310Y0098940D01*
X0176726Y0098356D01*
X0175558Y0098356D01*
X0174974Y0098940D01*
X0174974Y0100108D01*
X0173909Y0089359D02*
X0172741Y0089359D01*
X0172158Y0088775D01*
X0172158Y0086440D01*
X0172741Y0085856D01*
X0173909Y0085856D01*
X0174493Y0086440D01*
X0175841Y0087608D02*
X0178176Y0087608D01*
X0179524Y0089359D02*
X0179524Y0085856D01*
X0181275Y0085856D01*
X0181859Y0086440D01*
X0181859Y0088775D01*
X0181275Y0089359D01*
X0179524Y0089359D01*
X0183207Y0088775D02*
X0183207Y0086440D01*
X0183791Y0085856D01*
X0184958Y0085856D01*
X0185542Y0086440D01*
X0185542Y0088775D02*
X0184958Y0089359D01*
X0183791Y0089359D01*
X0183207Y0088775D01*
X0174493Y0088775D02*
X0173909Y0089359D01*
X0170810Y0088775D02*
X0170810Y0086440D01*
X0170226Y0085856D01*
X0168474Y0085856D01*
X0168474Y0089359D01*
X0170226Y0089359D01*
X0170810Y0088775D01*
X0174974Y0148856D02*
X0177310Y0148856D01*
X0176142Y0148856D02*
X0176142Y0152359D01*
X0174974Y0151192D01*
D20*
X0159900Y0153943D03*
X0148100Y0153943D03*
D21*
X0149291Y0147457D02*
X0144567Y0147457D01*
X0142992Y0146079D01*
X0142992Y0136433D01*
X0144567Y0135252D01*
X0149291Y0135252D01*
X0144567Y0135252D01*
X0150831Y0136193D02*
X0150831Y0146417D01*
X0156772Y0147654D02*
X0163465Y0147654D01*
X0163465Y0135252D01*
X0156772Y0135252D01*
X0119409Y0144091D02*
X0116909Y0141591D01*
X0111909Y0141591D01*
X0109409Y0144091D01*
X0109409Y0159091D01*
X0106909Y0161591D01*
X0101909Y0161591D01*
X0099409Y0159091D01*
X0099409Y0144091D01*
X0096909Y0141591D01*
X0091909Y0141591D01*
X0089409Y0144091D01*
X0089409Y0159091D01*
X0091909Y0161591D01*
X0096909Y0161591D01*
X0099409Y0159091D01*
X0109409Y0159091D02*
X0111909Y0161591D01*
X0116909Y0161591D01*
X0119409Y0159091D01*
X0119409Y0144091D01*
X0109409Y0144091D02*
X0106909Y0141591D01*
X0101909Y0141591D01*
X0099409Y0144091D01*
X0111909Y0162909D02*
X0116909Y0162909D01*
X0128445Y0094524D02*
X0100846Y0094524D01*
X0100846Y0068323D01*
X0102244Y0066925D01*
X0128445Y0066925D01*
X0128445Y0094524D01*
X0161102Y0076787D02*
X0173504Y0076787D01*
X0173504Y0070094D01*
X0161102Y0070094D02*
X0161102Y0076787D01*
X0190323Y0082601D02*
X0204323Y0082601D01*
X0204323Y0056801D01*
X0190323Y0056801D01*
X0190323Y0082601D01*
X0172563Y0064154D02*
X0162339Y0064154D01*
X0161299Y0062614D02*
X0161299Y0057890D01*
X0162677Y0056315D01*
X0172323Y0056315D01*
X0173504Y0057890D01*
X0173504Y0062614D01*
X0173504Y0057890D01*
X0099546Y0066324D02*
X0099548Y0066373D01*
X0099554Y0066421D01*
X0099564Y0066469D01*
X0099578Y0066516D01*
X0099595Y0066562D01*
X0099616Y0066606D01*
X0099641Y0066648D01*
X0099669Y0066688D01*
X0099701Y0066726D01*
X0099735Y0066761D01*
X0099772Y0066793D01*
X0099811Y0066822D01*
X0099853Y0066848D01*
X0099897Y0066870D01*
X0099942Y0066888D01*
X0099989Y0066903D01*
X0100036Y0066914D01*
X0100085Y0066921D01*
X0100134Y0066924D01*
X0100183Y0066923D01*
X0100231Y0066918D01*
X0100280Y0066909D01*
X0100327Y0066896D01*
X0100373Y0066879D01*
X0100417Y0066859D01*
X0100460Y0066835D01*
X0100501Y0066808D01*
X0100539Y0066777D01*
X0100575Y0066744D01*
X0100607Y0066708D01*
X0100637Y0066669D01*
X0100664Y0066628D01*
X0100687Y0066584D01*
X0100706Y0066539D01*
X0100722Y0066493D01*
X0100734Y0066446D01*
X0100742Y0066397D01*
X0100746Y0066348D01*
X0100746Y0066300D01*
X0100742Y0066251D01*
X0100734Y0066202D01*
X0100722Y0066155D01*
X0100706Y0066109D01*
X0100687Y0066064D01*
X0100664Y0066020D01*
X0100637Y0065979D01*
X0100607Y0065940D01*
X0100575Y0065904D01*
X0100539Y0065871D01*
X0100501Y0065840D01*
X0100460Y0065813D01*
X0100417Y0065789D01*
X0100373Y0065769D01*
X0100327Y0065752D01*
X0100280Y0065739D01*
X0100231Y0065730D01*
X0100183Y0065725D01*
X0100134Y0065724D01*
X0100085Y0065727D01*
X0100036Y0065734D01*
X0099989Y0065745D01*
X0099942Y0065760D01*
X0099897Y0065778D01*
X0099853Y0065800D01*
X0099811Y0065826D01*
X0099772Y0065855D01*
X0099735Y0065887D01*
X0099701Y0065922D01*
X0099669Y0065960D01*
X0099641Y0066000D01*
X0099616Y0066042D01*
X0099595Y0066086D01*
X0099578Y0066132D01*
X0099564Y0066179D01*
X0099554Y0066227D01*
X0099548Y0066275D01*
X0099546Y0066324D01*
X0047461Y0074543D02*
X0042461Y0074543D01*
X0042461Y0084543D02*
X0047461Y0084543D01*
X0327831Y0087396D02*
X0327831Y0070904D01*
X0344331Y0076650D02*
X0344388Y0076925D01*
X0344439Y0077202D01*
X0344483Y0077480D01*
X0344521Y0077758D01*
X0344551Y0078038D01*
X0344575Y0078318D01*
X0344592Y0078599D01*
X0344602Y0078880D01*
X0344605Y0079161D01*
X0344601Y0079442D01*
X0344591Y0079723D01*
X0344573Y0080004D01*
X0344549Y0080284D01*
X0344518Y0080563D01*
X0344480Y0080842D01*
X0344435Y0081120D01*
X0344384Y0081396D01*
X0344326Y0081671D01*
X0344261Y0081945D01*
X0344189Y0082217D01*
X0344111Y0082487D01*
X0344027Y0082755D01*
X0343935Y0083021D01*
X0343838Y0083285D01*
X0343734Y0083546D01*
X0343623Y0083805D01*
X0343506Y0084061D01*
X0343383Y0084314D01*
X0343254Y0084563D01*
X0343119Y0084810D01*
X0342978Y0085053D01*
X0342831Y0085293D01*
X0342678Y0085529D01*
X0342520Y0085761D01*
X0342356Y0085990D01*
X0342186Y0086214D01*
X0342011Y0086434D01*
X0341831Y0086650D01*
X0344331Y0076650D02*
X0344266Y0076375D01*
X0344195Y0076102D01*
X0344117Y0075831D01*
X0344032Y0075561D01*
X0343941Y0075294D01*
X0343843Y0075029D01*
X0343739Y0074767D01*
X0343628Y0074507D01*
X0343512Y0074250D01*
X0343388Y0073996D01*
X0343259Y0073745D01*
X0343124Y0073498D01*
X0342982Y0073253D01*
X0342835Y0073013D01*
X0342681Y0072776D01*
X0342522Y0072542D01*
X0342358Y0072313D01*
X0342187Y0072088D01*
X0342012Y0071867D01*
X0341831Y0071650D01*
X0344331Y0076650D02*
X0344388Y0076924D01*
X0344439Y0077199D01*
X0344483Y0077476D01*
X0344520Y0077753D01*
X0344551Y0078032D01*
X0344574Y0078311D01*
X0344591Y0078590D01*
X0344602Y0078870D01*
X0344605Y0079150D01*
X0344602Y0079430D01*
X0344591Y0079710D01*
X0344574Y0079989D01*
X0344551Y0080268D01*
X0344520Y0080547D01*
X0344483Y0080824D01*
X0344439Y0081101D01*
X0344388Y0081376D01*
X0344331Y0081650D01*
X0367286Y0151315D02*
X0370667Y0151315D01*
X0366186Y0155258D02*
X0366186Y0157372D01*
X0367286Y0161315D02*
X0370667Y0161315D01*
D22*
X0208073Y0069701D03*
X0208073Y0069701D03*
D23*
X0186573Y0069701D03*
X0186573Y0069701D03*
X0186573Y0078801D03*
X0186573Y0078801D03*
X0186573Y0060601D03*
X0186573Y0060601D03*
D24*
X0229602Y0081838D03*
X0238263Y0081838D03*
X0238263Y0087538D03*
X0229602Y0087538D03*
X0204414Y0094383D03*
X0204414Y0100083D03*
X0212279Y0118846D03*
X0212279Y0124546D03*
X0349287Y0153492D03*
X0349287Y0159192D03*
X0067397Y0093050D03*
X0067397Y0087350D03*
D25*
X0044961Y0079543D03*
X0094409Y0146591D03*
X0104409Y0146591D03*
X0114409Y0146591D03*
X0114409Y0156591D03*
X0104409Y0156591D03*
X0094409Y0156591D03*
D26*
X0103622Y0096674D03*
X0106772Y0096674D03*
X0109921Y0096674D03*
X0113071Y0096674D03*
X0116220Y0096674D03*
X0119370Y0096674D03*
X0122520Y0096674D03*
X0125669Y0096674D03*
X0125669Y0064774D03*
X0122520Y0064774D03*
X0119370Y0064774D03*
X0116220Y0064774D03*
X0113071Y0064774D03*
X0109921Y0064774D03*
X0106772Y0064774D03*
X0103622Y0064774D03*
D27*
X0098696Y0069701D03*
X0098696Y0072850D03*
X0098696Y0076000D03*
X0098696Y0079150D03*
X0098696Y0082299D03*
X0098696Y0085449D03*
X0098696Y0088598D03*
X0098696Y0091748D03*
X0130596Y0091748D03*
X0130596Y0088598D03*
X0130596Y0085449D03*
X0130596Y0082299D03*
X0130596Y0079150D03*
X0130596Y0076000D03*
X0130596Y0072850D03*
X0130596Y0069701D03*
D28*
X0129879Y0034263D03*
X0135579Y0034263D03*
X0118256Y0034263D03*
X0112556Y0034263D03*
X0229145Y0105926D03*
X0234845Y0105926D03*
X0282635Y0064184D03*
X0288335Y0064184D03*
X0348830Y0111438D03*
X0354530Y0111438D03*
X0407832Y0102767D03*
X0413532Y0102767D03*
X0389963Y0151595D03*
X0384263Y0151595D03*
X0121406Y0124814D03*
X0115706Y0124814D03*
X0115706Y0116153D03*
X0121406Y0116153D03*
X0115107Y0107492D03*
X0109407Y0107492D03*
D29*
X0058746Y0093094D03*
X0058746Y0087294D03*
X0195742Y0114024D03*
X0195742Y0119824D03*
X0331974Y0105692D03*
X0331974Y0099892D03*
X0353234Y0089944D03*
X0353234Y0084144D03*
X0414652Y0081283D03*
X0414652Y0075483D03*
X0414652Y0115640D03*
X0414652Y0121440D03*
D30*
X0228031Y0125606D03*
X0228031Y0115606D03*
D31*
X0364350Y0152575D03*
X0373602Y0152575D03*
X0373602Y0156315D03*
X0373602Y0160055D03*
X0364350Y0160055D03*
D32*
X0372976Y0150015D03*
D33*
X0135594Y0059016D02*
X0112594Y0059016D01*
X0112375Y0059013D01*
X0112156Y0059005D01*
X0111937Y0058992D01*
X0111719Y0058973D01*
X0111501Y0058949D01*
X0111284Y0058920D01*
X0111067Y0058886D01*
X0110852Y0058846D01*
X0110637Y0058801D01*
X0110424Y0058750D01*
X0110212Y0058695D01*
X0110001Y0058634D01*
X0109792Y0058569D01*
X0109585Y0058498D01*
X0109379Y0058422D01*
X0109175Y0058341D01*
X0108973Y0058256D01*
X0108774Y0058165D01*
X0108577Y0058070D01*
X0108382Y0057969D01*
X0108189Y0057864D01*
X0107999Y0057755D01*
X0107812Y0057641D01*
X0107628Y0057522D01*
X0107447Y0057399D01*
X0107269Y0057271D01*
X0107093Y0057139D01*
X0106922Y0057003D01*
X0106753Y0056863D01*
X0106588Y0056719D01*
X0106427Y0056571D01*
X0106269Y0056419D01*
X0106115Y0056263D01*
X0105965Y0056103D01*
X0105818Y0055940D01*
X0105676Y0055773D01*
X0105538Y0055603D01*
X0105404Y0055429D01*
X0105274Y0055253D01*
X0105149Y0055073D01*
X0105028Y0054890D01*
X0104912Y0054704D01*
X0104800Y0054516D01*
X0104693Y0054325D01*
X0104590Y0054131D01*
X0104492Y0053935D01*
X0104399Y0053737D01*
X0104311Y0053536D01*
X0104228Y0053333D01*
X0104149Y0053128D01*
X0104076Y0052922D01*
X0104008Y0052714D01*
X0103945Y0052504D01*
X0103887Y0052292D01*
X0103834Y0052080D01*
X0103786Y0051866D01*
X0103744Y0051651D01*
X0103707Y0051435D01*
X0103675Y0051218D01*
X0103648Y0051000D01*
X0103627Y0050782D01*
X0103611Y0050564D01*
X0103600Y0050345D01*
X0103595Y0050126D01*
X0103595Y0049906D01*
X0103600Y0049687D01*
X0103611Y0049468D01*
X0103627Y0049250D01*
X0103648Y0049032D01*
X0103675Y0048814D01*
X0103707Y0048597D01*
X0103744Y0048381D01*
X0103786Y0048166D01*
X0103834Y0047952D01*
X0103887Y0047740D01*
X0103945Y0047528D01*
X0104008Y0047318D01*
X0104076Y0047110D01*
X0104149Y0046904D01*
X0104228Y0046699D01*
X0104311Y0046496D01*
X0104399Y0046295D01*
X0104492Y0046097D01*
X0104590Y0045901D01*
X0104693Y0045707D01*
X0104800Y0045516D01*
X0104912Y0045328D01*
X0105028Y0045142D01*
X0105149Y0044959D01*
X0105274Y0044779D01*
X0105404Y0044603D01*
X0105538Y0044429D01*
X0105676Y0044259D01*
X0105818Y0044092D01*
X0105965Y0043929D01*
X0106115Y0043769D01*
X0106269Y0043613D01*
X0106427Y0043461D01*
X0106588Y0043313D01*
X0106753Y0043169D01*
X0106922Y0043029D01*
X0107093Y0042893D01*
X0107269Y0042761D01*
X0107447Y0042633D01*
X0107628Y0042510D01*
X0107812Y0042391D01*
X0107999Y0042277D01*
X0108189Y0042168D01*
X0108382Y0042063D01*
X0108577Y0041962D01*
X0108774Y0041867D01*
X0108973Y0041776D01*
X0109175Y0041691D01*
X0109379Y0041610D01*
X0109585Y0041534D01*
X0109792Y0041463D01*
X0110001Y0041398D01*
X0110212Y0041337D01*
X0110424Y0041282D01*
X0110637Y0041231D01*
X0110852Y0041186D01*
X0111067Y0041146D01*
X0111284Y0041112D01*
X0111501Y0041083D01*
X0111719Y0041059D01*
X0111937Y0041040D01*
X0112156Y0041027D01*
X0112375Y0041019D01*
X0112594Y0041016D01*
X0135594Y0041016D01*
X0135813Y0041019D01*
X0136032Y0041027D01*
X0136251Y0041040D01*
X0136469Y0041059D01*
X0136687Y0041083D01*
X0136904Y0041112D01*
X0137121Y0041146D01*
X0137336Y0041186D01*
X0137551Y0041231D01*
X0137764Y0041282D01*
X0137976Y0041337D01*
X0138187Y0041398D01*
X0138396Y0041463D01*
X0138603Y0041534D01*
X0138809Y0041610D01*
X0139013Y0041691D01*
X0139215Y0041776D01*
X0139414Y0041867D01*
X0139611Y0041962D01*
X0139806Y0042063D01*
X0139999Y0042168D01*
X0140189Y0042277D01*
X0140376Y0042391D01*
X0140560Y0042510D01*
X0140741Y0042633D01*
X0140919Y0042761D01*
X0141095Y0042893D01*
X0141266Y0043029D01*
X0141435Y0043169D01*
X0141600Y0043313D01*
X0141761Y0043461D01*
X0141919Y0043613D01*
X0142073Y0043769D01*
X0142223Y0043929D01*
X0142370Y0044092D01*
X0142512Y0044259D01*
X0142650Y0044429D01*
X0142784Y0044603D01*
X0142914Y0044779D01*
X0143039Y0044959D01*
X0143160Y0045142D01*
X0143276Y0045328D01*
X0143388Y0045516D01*
X0143495Y0045707D01*
X0143598Y0045901D01*
X0143696Y0046097D01*
X0143789Y0046295D01*
X0143877Y0046496D01*
X0143960Y0046699D01*
X0144039Y0046904D01*
X0144112Y0047110D01*
X0144180Y0047318D01*
X0144243Y0047528D01*
X0144301Y0047740D01*
X0144354Y0047952D01*
X0144402Y0048166D01*
X0144444Y0048381D01*
X0144481Y0048597D01*
X0144513Y0048814D01*
X0144540Y0049032D01*
X0144561Y0049250D01*
X0144577Y0049468D01*
X0144588Y0049687D01*
X0144593Y0049906D01*
X0144593Y0050126D01*
X0144588Y0050345D01*
X0144577Y0050564D01*
X0144561Y0050782D01*
X0144540Y0051000D01*
X0144513Y0051218D01*
X0144481Y0051435D01*
X0144444Y0051651D01*
X0144402Y0051866D01*
X0144354Y0052080D01*
X0144301Y0052292D01*
X0144243Y0052504D01*
X0144180Y0052714D01*
X0144112Y0052922D01*
X0144039Y0053128D01*
X0143960Y0053333D01*
X0143877Y0053536D01*
X0143789Y0053737D01*
X0143696Y0053935D01*
X0143598Y0054131D01*
X0143495Y0054325D01*
X0143388Y0054516D01*
X0143276Y0054704D01*
X0143160Y0054890D01*
X0143039Y0055073D01*
X0142914Y0055253D01*
X0142784Y0055429D01*
X0142650Y0055603D01*
X0142512Y0055773D01*
X0142370Y0055940D01*
X0142223Y0056103D01*
X0142073Y0056263D01*
X0141919Y0056419D01*
X0141761Y0056571D01*
X0141600Y0056719D01*
X0141435Y0056863D01*
X0141266Y0057003D01*
X0141095Y0057139D01*
X0140919Y0057271D01*
X0140741Y0057399D01*
X0140560Y0057522D01*
X0140376Y0057641D01*
X0140189Y0057755D01*
X0139999Y0057864D01*
X0139806Y0057969D01*
X0139611Y0058070D01*
X0139414Y0058165D01*
X0139215Y0058256D01*
X0139013Y0058341D01*
X0138809Y0058422D01*
X0138603Y0058498D01*
X0138396Y0058569D01*
X0138187Y0058634D01*
X0137976Y0058695D01*
X0137764Y0058750D01*
X0137551Y0058801D01*
X0137336Y0058846D01*
X0137121Y0058886D01*
X0136904Y0058920D01*
X0136687Y0058949D01*
X0136469Y0058973D01*
X0136251Y0058992D01*
X0136032Y0059005D01*
X0135813Y0059013D01*
X0135594Y0059016D01*
D34*
X0327640Y0070597D02*
X0328086Y0071162D01*
X0328085Y0071162D02*
X0328282Y0071012D01*
X0328483Y0070866D01*
X0328687Y0070726D01*
X0328895Y0070590D01*
X0329106Y0070460D01*
X0329320Y0070335D01*
X0329537Y0070215D01*
X0329757Y0070100D01*
X0329979Y0069991D01*
X0330204Y0069888D01*
X0330432Y0069790D01*
X0330662Y0069697D01*
X0330894Y0069610D01*
X0331128Y0069529D01*
X0331364Y0069454D01*
X0331602Y0069384D01*
X0331842Y0069320D01*
X0332083Y0069262D01*
X0332325Y0069210D01*
X0332569Y0069164D01*
X0332813Y0069124D01*
X0333059Y0069090D01*
X0333305Y0069062D01*
X0333552Y0069040D01*
X0333799Y0069024D01*
X0334047Y0069014D01*
X0334295Y0069010D01*
X0334543Y0069012D01*
X0334790Y0069020D01*
X0335038Y0069035D01*
X0335285Y0069055D01*
X0335531Y0069081D01*
X0335777Y0069114D01*
X0336022Y0069152D01*
X0336266Y0069196D01*
X0336509Y0069247D01*
X0336750Y0069303D01*
X0336990Y0069365D01*
X0337228Y0069433D01*
X0337465Y0069506D01*
X0337700Y0069586D01*
X0337933Y0069671D01*
X0338163Y0069762D01*
X0338391Y0069858D01*
X0338617Y0069961D01*
X0338841Y0070068D01*
X0339061Y0070181D01*
X0339279Y0070299D01*
X0339494Y0070423D01*
X0339706Y0070552D01*
X0339914Y0070686D01*
X0340120Y0070825D01*
X0340321Y0070969D01*
X0340519Y0071117D01*
X0340714Y0071271D01*
X0340905Y0071429D01*
X0341091Y0071592D01*
X0341274Y0071760D01*
X0341453Y0071932D01*
X0341627Y0072108D01*
X0341797Y0072289D01*
X0341962Y0072473D01*
X0342123Y0072662D01*
X0342280Y0072854D01*
X0342431Y0073050D01*
X0342578Y0073250D01*
X0342720Y0073453D01*
X0342856Y0073660D01*
X0342988Y0073870D01*
X0343114Y0074083D01*
X0343236Y0074299D01*
X0343351Y0074519D01*
X0343462Y0074740D01*
X0343567Y0074965D01*
X0343667Y0075192D01*
X0343761Y0075421D01*
X0343849Y0075653D01*
X0343932Y0075887D01*
X0344008Y0076122D01*
X0344696Y0075910D01*
X0344614Y0075657D01*
X0344526Y0075407D01*
X0344431Y0075159D01*
X0344330Y0074913D01*
X0344224Y0074670D01*
X0344111Y0074429D01*
X0343993Y0074192D01*
X0343869Y0073957D01*
X0343739Y0073725D01*
X0343604Y0073497D01*
X0343463Y0073272D01*
X0343316Y0073050D01*
X0343164Y0072833D01*
X0343007Y0072619D01*
X0342845Y0072408D01*
X0342678Y0072202D01*
X0342505Y0072000D01*
X0342328Y0071802D01*
X0342146Y0071609D01*
X0341959Y0071420D01*
X0341768Y0071236D01*
X0341572Y0071057D01*
X0341372Y0070882D01*
X0341168Y0070712D01*
X0340960Y0070548D01*
X0340747Y0070388D01*
X0340531Y0070234D01*
X0340311Y0070085D01*
X0340088Y0069942D01*
X0339861Y0069804D01*
X0339631Y0069671D01*
X0339398Y0069544D01*
X0339161Y0069423D01*
X0338922Y0069308D01*
X0338680Y0069199D01*
X0338435Y0069095D01*
X0338188Y0068998D01*
X0337939Y0068907D01*
X0337688Y0068822D01*
X0337434Y0068743D01*
X0337179Y0068670D01*
X0336922Y0068604D01*
X0336663Y0068543D01*
X0336403Y0068489D01*
X0336142Y0068442D01*
X0335879Y0068401D01*
X0335616Y0068366D01*
X0335352Y0068338D01*
X0335087Y0068316D01*
X0334822Y0068301D01*
X0334557Y0068292D01*
X0334291Y0068290D01*
X0334026Y0068294D01*
X0333760Y0068305D01*
X0333496Y0068322D01*
X0333231Y0068346D01*
X0332967Y0068376D01*
X0332704Y0068413D01*
X0332442Y0068456D01*
X0332181Y0068505D01*
X0331922Y0068561D01*
X0331663Y0068623D01*
X0331407Y0068691D01*
X0331152Y0068766D01*
X0330899Y0068847D01*
X0330648Y0068934D01*
X0330400Y0069027D01*
X0330153Y0069126D01*
X0329909Y0069231D01*
X0329668Y0069342D01*
X0329430Y0069459D01*
X0329194Y0069582D01*
X0328962Y0069710D01*
X0328733Y0069844D01*
X0328507Y0069984D01*
X0328284Y0070129D01*
X0328066Y0070280D01*
X0327851Y0070435D01*
X0327640Y0070596D01*
X0327686Y0070655D01*
X0327896Y0070495D01*
X0328109Y0070341D01*
X0328326Y0070191D01*
X0328547Y0070047D01*
X0328772Y0069908D01*
X0328999Y0069775D01*
X0329230Y0069648D01*
X0329464Y0069526D01*
X0329701Y0069410D01*
X0329940Y0069299D01*
X0330182Y0069195D01*
X0330427Y0069096D01*
X0330674Y0069004D01*
X0330923Y0068918D01*
X0331174Y0068837D01*
X0331427Y0068763D01*
X0331682Y0068695D01*
X0331938Y0068634D01*
X0332196Y0068578D01*
X0332455Y0068529D01*
X0332716Y0068487D01*
X0332977Y0068450D01*
X0333239Y0068420D01*
X0333501Y0068397D01*
X0333765Y0068380D01*
X0334028Y0068369D01*
X0334292Y0068365D01*
X0334555Y0068367D01*
X0334819Y0068376D01*
X0335082Y0068391D01*
X0335345Y0068413D01*
X0335607Y0068441D01*
X0335869Y0068475D01*
X0336129Y0068516D01*
X0336389Y0068563D01*
X0336647Y0068617D01*
X0336904Y0068676D01*
X0337159Y0068742D01*
X0337413Y0068815D01*
X0337664Y0068893D01*
X0337914Y0068978D01*
X0338162Y0069068D01*
X0338407Y0069165D01*
X0338650Y0069268D01*
X0338890Y0069376D01*
X0339128Y0069491D01*
X0339363Y0069611D01*
X0339594Y0069737D01*
X0339823Y0069868D01*
X0340048Y0070005D01*
X0340270Y0070148D01*
X0340488Y0070295D01*
X0340703Y0070449D01*
X0340914Y0070607D01*
X0341121Y0070771D01*
X0341324Y0070939D01*
X0341522Y0071112D01*
X0341717Y0071291D01*
X0341907Y0071474D01*
X0342092Y0071661D01*
X0342273Y0071853D01*
X0342449Y0072049D01*
X0342620Y0072250D01*
X0342786Y0072455D01*
X0342947Y0072663D01*
X0343103Y0072876D01*
X0343254Y0073092D01*
X0343400Y0073312D01*
X0343540Y0073536D01*
X0343674Y0073763D01*
X0343803Y0073993D01*
X0343926Y0074226D01*
X0344044Y0074462D01*
X0344155Y0074701D01*
X0344261Y0074942D01*
X0344361Y0075186D01*
X0344455Y0075433D01*
X0344543Y0075681D01*
X0344625Y0075932D01*
X0344553Y0075954D01*
X0344472Y0075705D01*
X0344385Y0075458D01*
X0344291Y0075214D01*
X0344192Y0074971D01*
X0344087Y0074731D01*
X0343976Y0074494D01*
X0343859Y0074260D01*
X0343737Y0074028D01*
X0343609Y0073800D01*
X0343475Y0073575D01*
X0343336Y0073353D01*
X0343192Y0073134D01*
X0343042Y0072920D01*
X0342887Y0072708D01*
X0342727Y0072501D01*
X0342562Y0072298D01*
X0342392Y0072099D01*
X0342217Y0071904D01*
X0342038Y0071713D01*
X0341854Y0071527D01*
X0341665Y0071345D01*
X0341472Y0071168D01*
X0341275Y0070996D01*
X0341073Y0070829D01*
X0340868Y0070666D01*
X0340659Y0070509D01*
X0340446Y0070357D01*
X0340229Y0070210D01*
X0340008Y0070069D01*
X0339785Y0069933D01*
X0339558Y0069802D01*
X0339328Y0069677D01*
X0339095Y0069558D01*
X0338859Y0069444D01*
X0338620Y0069336D01*
X0338379Y0069234D01*
X0338135Y0069138D01*
X0337889Y0069048D01*
X0337641Y0068964D01*
X0337391Y0068886D01*
X0337139Y0068815D01*
X0336886Y0068749D01*
X0336631Y0068690D01*
X0336374Y0068637D01*
X0336117Y0068590D01*
X0335858Y0068549D01*
X0335598Y0068515D01*
X0335338Y0068487D01*
X0335077Y0068466D01*
X0334816Y0068451D01*
X0334554Y0068442D01*
X0334292Y0068440D01*
X0334030Y0068444D01*
X0333769Y0068455D01*
X0333507Y0068472D01*
X0333246Y0068495D01*
X0332986Y0068525D01*
X0332727Y0068561D01*
X0332469Y0068603D01*
X0332211Y0068652D01*
X0331955Y0068707D01*
X0331701Y0068768D01*
X0331448Y0068835D01*
X0331196Y0068909D01*
X0330947Y0068989D01*
X0330699Y0069075D01*
X0330454Y0069166D01*
X0330211Y0069264D01*
X0329971Y0069368D01*
X0329733Y0069477D01*
X0329498Y0069593D01*
X0329266Y0069714D01*
X0329036Y0069840D01*
X0328810Y0069972D01*
X0328588Y0070110D01*
X0328368Y0070253D01*
X0328153Y0070402D01*
X0327941Y0070555D01*
X0327732Y0070714D01*
X0327779Y0070773D01*
X0327986Y0070615D01*
X0328196Y0070463D01*
X0328410Y0070315D01*
X0328628Y0070173D01*
X0328849Y0070037D01*
X0329074Y0069905D01*
X0329301Y0069780D01*
X0329532Y0069659D01*
X0329765Y0069545D01*
X0330002Y0069436D01*
X0330240Y0069333D01*
X0330481Y0069236D01*
X0330725Y0069145D01*
X0330971Y0069060D01*
X0331218Y0068981D01*
X0331468Y0068908D01*
X0331719Y0068841D01*
X0331972Y0068780D01*
X0332226Y0068725D01*
X0332482Y0068677D01*
X0332738Y0068635D01*
X0332996Y0068599D01*
X0333254Y0068570D01*
X0333513Y0068546D01*
X0333773Y0068530D01*
X0334032Y0068519D01*
X0334292Y0068515D01*
X0334552Y0068517D01*
X0334812Y0068526D01*
X0335072Y0068541D01*
X0335331Y0068562D01*
X0335590Y0068590D01*
X0335847Y0068624D01*
X0336104Y0068664D01*
X0336360Y0068710D01*
X0336615Y0068763D01*
X0336868Y0068822D01*
X0337120Y0068887D01*
X0337370Y0068958D01*
X0337618Y0069036D01*
X0337864Y0069119D01*
X0338108Y0069208D01*
X0338350Y0069304D01*
X0338590Y0069405D01*
X0338827Y0069512D01*
X0339061Y0069625D01*
X0339293Y0069743D01*
X0339521Y0069867D01*
X0339746Y0069997D01*
X0339969Y0070132D01*
X0340187Y0070273D01*
X0340403Y0070419D01*
X0340614Y0070570D01*
X0340822Y0070726D01*
X0341026Y0070887D01*
X0341226Y0071053D01*
X0341422Y0071224D01*
X0341614Y0071400D01*
X0341801Y0071580D01*
X0341984Y0071765D01*
X0342162Y0071954D01*
X0342336Y0072148D01*
X0342504Y0072346D01*
X0342668Y0072548D01*
X0342827Y0072753D01*
X0342981Y0072963D01*
X0343130Y0073176D01*
X0343273Y0073393D01*
X0343411Y0073614D01*
X0343544Y0073837D01*
X0343671Y0074064D01*
X0343793Y0074294D01*
X0343908Y0074527D01*
X0344019Y0074762D01*
X0344123Y0075000D01*
X0344222Y0075241D01*
X0344314Y0075484D01*
X0344401Y0075729D01*
X0344481Y0075976D01*
X0344410Y0075998D01*
X0344330Y0075753D01*
X0344244Y0075510D01*
X0344152Y0075268D01*
X0344054Y0075029D01*
X0343950Y0074793D01*
X0343841Y0074559D01*
X0343726Y0074328D01*
X0343605Y0074100D01*
X0343479Y0073874D01*
X0343347Y0073652D01*
X0343210Y0073434D01*
X0343068Y0073218D01*
X0342920Y0073007D01*
X0342767Y0072798D01*
X0342609Y0072594D01*
X0342447Y0072394D01*
X0342279Y0072197D01*
X0342107Y0072005D01*
X0341930Y0071817D01*
X0341748Y0071633D01*
X0341562Y0071454D01*
X0341372Y0071280D01*
X0341177Y0071110D01*
X0340979Y0070945D01*
X0340776Y0070785D01*
X0340570Y0070630D01*
X0340360Y0070480D01*
X0340146Y0070335D01*
X0339929Y0070196D01*
X0339708Y0070062D01*
X0339484Y0069933D01*
X0339258Y0069810D01*
X0339028Y0069692D01*
X0338795Y0069580D01*
X0338560Y0069474D01*
X0338322Y0069373D01*
X0338082Y0069279D01*
X0337839Y0069190D01*
X0337595Y0069107D01*
X0337348Y0069030D01*
X0337100Y0068960D01*
X0336850Y0068895D01*
X0336599Y0068836D01*
X0336346Y0068784D01*
X0336092Y0068738D01*
X0335837Y0068698D01*
X0335581Y0068664D01*
X0335324Y0068637D01*
X0335067Y0068616D01*
X0334809Y0068601D01*
X0334551Y0068592D01*
X0334293Y0068590D01*
X0334035Y0068594D01*
X0333777Y0068605D01*
X0333519Y0068621D01*
X0333262Y0068644D01*
X0333005Y0068674D01*
X0332750Y0068709D01*
X0332495Y0068751D01*
X0332241Y0068799D01*
X0331989Y0068853D01*
X0331738Y0068913D01*
X0331488Y0068980D01*
X0331240Y0069052D01*
X0330995Y0069131D01*
X0330751Y0069215D01*
X0330509Y0069306D01*
X0330269Y0069402D01*
X0330032Y0069505D01*
X0329798Y0069613D01*
X0329566Y0069726D01*
X0329337Y0069846D01*
X0329111Y0069970D01*
X0328888Y0070101D01*
X0328669Y0070237D01*
X0328452Y0070378D01*
X0328240Y0070524D01*
X0328031Y0070675D01*
X0327825Y0070832D01*
X0327872Y0070891D01*
X0328076Y0070735D01*
X0328283Y0070585D01*
X0328494Y0070440D01*
X0328709Y0070300D01*
X0328927Y0070165D01*
X0329148Y0070035D01*
X0329373Y0069912D01*
X0329600Y0069793D01*
X0329830Y0069680D01*
X0330063Y0069573D01*
X0330298Y0069472D01*
X0330536Y0069376D01*
X0330776Y0069286D01*
X0331018Y0069202D01*
X0331263Y0069124D01*
X0331509Y0069052D01*
X0331756Y0068986D01*
X0332006Y0068926D01*
X0332256Y0068872D01*
X0332508Y0068825D01*
X0332761Y0068783D01*
X0333015Y0068748D01*
X0333270Y0068719D01*
X0333525Y0068696D01*
X0333781Y0068679D01*
X0334037Y0068669D01*
X0334293Y0068665D01*
X0334549Y0068667D01*
X0334806Y0068676D01*
X0335062Y0068690D01*
X0335317Y0068711D01*
X0335572Y0068739D01*
X0335826Y0068772D01*
X0336079Y0068812D01*
X0336332Y0068858D01*
X0336583Y0068910D01*
X0336832Y0068968D01*
X0337080Y0069032D01*
X0337327Y0069102D01*
X0337572Y0069178D01*
X0337814Y0069261D01*
X0338055Y0069349D01*
X0338294Y0069443D01*
X0338530Y0069542D01*
X0338763Y0069648D01*
X0338994Y0069759D01*
X0339222Y0069876D01*
X0339448Y0069998D01*
X0339670Y0070126D01*
X0339889Y0070259D01*
X0340105Y0070398D01*
X0340317Y0070542D01*
X0340526Y0070690D01*
X0340730Y0070844D01*
X0340932Y0071003D01*
X0341129Y0071167D01*
X0341322Y0071336D01*
X0341511Y0071509D01*
X0341695Y0071687D01*
X0341876Y0071869D01*
X0342051Y0072056D01*
X0342223Y0072246D01*
X0342389Y0072441D01*
X0342551Y0072640D01*
X0342707Y0072843D01*
X0342859Y0073050D01*
X0343005Y0073260D01*
X0343147Y0073474D01*
X0343283Y0073691D01*
X0343414Y0073912D01*
X0343539Y0074135D01*
X0343659Y0074362D01*
X0343773Y0074591D01*
X0343882Y0074824D01*
X0343985Y0075058D01*
X0344082Y0075296D01*
X0344173Y0075535D01*
X0344259Y0075777D01*
X0344338Y0076021D01*
X0344266Y0076043D01*
X0344187Y0075801D01*
X0344103Y0075561D01*
X0344012Y0075323D01*
X0343916Y0075087D01*
X0343813Y0074854D01*
X0343706Y0074624D01*
X0343592Y0074396D01*
X0343473Y0074171D01*
X0343349Y0073949D01*
X0343219Y0073730D01*
X0343084Y0073515D01*
X0342943Y0073302D01*
X0342798Y0073093D01*
X0342647Y0072888D01*
X0342492Y0072687D01*
X0342331Y0072489D01*
X0342166Y0072296D01*
X0341996Y0072106D01*
X0341822Y0071921D01*
X0341643Y0071740D01*
X0341459Y0071564D01*
X0341272Y0071392D01*
X0341080Y0071224D01*
X0340884Y0071062D01*
X0340685Y0070904D01*
X0340481Y0070751D01*
X0340274Y0070603D01*
X0340063Y0070460D01*
X0339849Y0070323D01*
X0339632Y0070191D01*
X0339411Y0070064D01*
X0339187Y0069942D01*
X0338961Y0069826D01*
X0338732Y0069716D01*
X0338500Y0069611D01*
X0338265Y0069512D01*
X0338028Y0069419D01*
X0337789Y0069331D01*
X0337548Y0069250D01*
X0337305Y0069174D01*
X0337061Y0069104D01*
X0336814Y0069041D01*
X0336566Y0068983D01*
X0336317Y0068931D01*
X0336067Y0068886D01*
X0335815Y0068846D01*
X0335563Y0068813D01*
X0335310Y0068786D01*
X0335056Y0068765D01*
X0334802Y0068751D01*
X0334548Y0068742D01*
X0334293Y0068740D01*
X0334039Y0068744D01*
X0333785Y0068754D01*
X0333531Y0068771D01*
X0333277Y0068793D01*
X0333024Y0068822D01*
X0332772Y0068857D01*
X0332521Y0068899D01*
X0332271Y0068946D01*
X0332022Y0068999D01*
X0331775Y0069059D01*
X0331529Y0069124D01*
X0331285Y0069196D01*
X0331042Y0069273D01*
X0330802Y0069356D01*
X0330563Y0069446D01*
X0330327Y0069541D01*
X0330094Y0069641D01*
X0329863Y0069748D01*
X0329634Y0069860D01*
X0329408Y0069977D01*
X0329186Y0070101D01*
X0328966Y0070229D01*
X0328749Y0070363D01*
X0328536Y0070502D01*
X0328327Y0070646D01*
X0328121Y0070795D01*
X0327918Y0070950D01*
X0327965Y0071009D01*
X0328165Y0070856D01*
X0328370Y0070707D01*
X0328578Y0070564D01*
X0328790Y0070426D01*
X0329005Y0070293D01*
X0329223Y0070166D01*
X0329444Y0070043D01*
X0329668Y0069927D01*
X0329895Y0069815D01*
X0330124Y0069710D01*
X0330356Y0069610D01*
X0330591Y0069516D01*
X0330827Y0069427D01*
X0331066Y0069344D01*
X0331307Y0069267D01*
X0331549Y0069196D01*
X0331793Y0069131D01*
X0332039Y0069072D01*
X0332286Y0069019D01*
X0332534Y0068972D01*
X0332784Y0068931D01*
X0333034Y0068897D01*
X0333285Y0068868D01*
X0333537Y0068846D01*
X0333789Y0068829D01*
X0334041Y0068819D01*
X0334294Y0068815D01*
X0334546Y0068817D01*
X0334799Y0068826D01*
X0335051Y0068840D01*
X0335303Y0068861D01*
X0335554Y0068888D01*
X0335805Y0068921D01*
X0336054Y0068960D01*
X0336303Y0069005D01*
X0336550Y0069056D01*
X0336796Y0069113D01*
X0337041Y0069177D01*
X0337284Y0069246D01*
X0337525Y0069321D01*
X0337765Y0069402D01*
X0338002Y0069489D01*
X0338237Y0069581D01*
X0338470Y0069680D01*
X0338700Y0069784D01*
X0338928Y0069893D01*
X0339152Y0070009D01*
X0339374Y0070129D01*
X0339593Y0070255D01*
X0339809Y0070386D01*
X0340022Y0070523D01*
X0340231Y0070665D01*
X0340437Y0070811D01*
X0340639Y0070963D01*
X0340837Y0071120D01*
X0341031Y0071281D01*
X0341222Y0071447D01*
X0341408Y0071618D01*
X0341590Y0071793D01*
X0341768Y0071973D01*
X0341941Y0072157D01*
X0342109Y0072345D01*
X0342273Y0072537D01*
X0342433Y0072733D01*
X0342587Y0072933D01*
X0342737Y0073137D01*
X0342881Y0073344D01*
X0343021Y0073555D01*
X0343155Y0073769D01*
X0343284Y0073986D01*
X0343407Y0074207D01*
X0343525Y0074430D01*
X0343638Y0074656D01*
X0343745Y0074885D01*
X0343846Y0075116D01*
X0343942Y0075350D01*
X0344032Y0075586D01*
X0344116Y0075825D01*
X0344195Y0076065D01*
X0344123Y0076087D01*
X0344045Y0075848D01*
X0343962Y0075612D01*
X0343872Y0075378D01*
X0343777Y0075145D01*
X0343677Y0074916D01*
X0343570Y0074689D01*
X0343458Y0074464D01*
X0343341Y0074242D01*
X0343219Y0074024D01*
X0343091Y0073808D01*
X0342957Y0073595D01*
X0342819Y0073386D01*
X0342676Y0073180D01*
X0342527Y0072978D01*
X0342374Y0072780D01*
X0342216Y0072585D01*
X0342053Y0072394D01*
X0341885Y0072208D01*
X0341713Y0072025D01*
X0341537Y0071847D01*
X0341356Y0071673D01*
X0341172Y0071503D01*
X0340983Y0071338D01*
X0340790Y0071178D01*
X0340593Y0071022D01*
X0340392Y0070872D01*
X0340188Y0070726D01*
X0339981Y0070586D01*
X0339769Y0070450D01*
X0339555Y0070320D01*
X0339338Y0070195D01*
X0339117Y0070075D01*
X0338894Y0069961D01*
X0338668Y0069852D01*
X0338440Y0069749D01*
X0338209Y0069651D01*
X0337975Y0069559D01*
X0337740Y0069473D01*
X0337502Y0069392D01*
X0337263Y0069318D01*
X0337021Y0069249D01*
X0336779Y0069186D01*
X0336534Y0069129D01*
X0336289Y0069079D01*
X0336042Y0069034D01*
X0335794Y0068995D01*
X0335545Y0068962D01*
X0335296Y0068935D01*
X0335046Y0068915D01*
X0334796Y0068901D01*
X0334545Y0068892D01*
X0334294Y0068890D01*
X0334043Y0068894D01*
X0333793Y0068904D01*
X0333543Y0068920D01*
X0333293Y0068943D01*
X0333044Y0068971D01*
X0332795Y0069006D01*
X0332548Y0069046D01*
X0332301Y0069093D01*
X0332056Y0069145D01*
X0331812Y0069204D01*
X0331570Y0069269D01*
X0331329Y0069339D01*
X0331090Y0069415D01*
X0330853Y0069497D01*
X0330618Y0069585D01*
X0330385Y0069679D01*
X0330155Y0069778D01*
X0329927Y0069883D01*
X0329702Y0069994D01*
X0329480Y0070109D01*
X0329260Y0070231D01*
X0329044Y0070357D01*
X0328830Y0070489D01*
X0328620Y0070626D01*
X0328414Y0070768D01*
X0328210Y0070916D01*
X0328011Y0071068D01*
X0328057Y0071127D01*
X0328255Y0070976D01*
X0328457Y0070829D01*
X0328662Y0070688D01*
X0328871Y0070552D01*
X0329082Y0070421D01*
X0329297Y0070296D01*
X0329515Y0070175D01*
X0329736Y0070060D01*
X0329960Y0069951D01*
X0330186Y0069847D01*
X0330414Y0069748D01*
X0330645Y0069655D01*
X0330879Y0069568D01*
X0331114Y0069486D01*
X0331351Y0069411D01*
X0331590Y0069341D01*
X0331831Y0069277D01*
X0332073Y0069219D01*
X0332316Y0069166D01*
X0332561Y0069120D01*
X0332806Y0069080D01*
X0333053Y0069045D01*
X0333300Y0069017D01*
X0333548Y0068995D01*
X0333797Y0068979D01*
X0334046Y0068969D01*
X0334295Y0068965D01*
X0334544Y0068967D01*
X0334792Y0068975D01*
X0335041Y0068990D01*
X0335289Y0069010D01*
X0335537Y0069037D01*
X0335783Y0069069D01*
X0336029Y0069108D01*
X0336274Y0069152D01*
X0336518Y0069203D01*
X0336761Y0069259D01*
X0337002Y0069321D01*
X0337241Y0069390D01*
X0337479Y0069464D01*
X0337715Y0069544D01*
X0337949Y0069629D01*
X0338180Y0069720D01*
X0338409Y0069817D01*
X0338636Y0069920D01*
X0338861Y0070028D01*
X0339082Y0070141D01*
X0339301Y0070260D01*
X0339517Y0070384D01*
X0339730Y0070514D01*
X0339939Y0070648D01*
X0340145Y0070788D01*
X0340348Y0070932D01*
X0340547Y0071082D01*
X0340742Y0071236D01*
X0340934Y0071395D01*
X0341121Y0071559D01*
X0341305Y0071727D01*
X0341484Y0071900D01*
X0341659Y0072077D01*
X0341830Y0072258D01*
X0341996Y0072444D01*
X0342158Y0072633D01*
X0342315Y0072826D01*
X0342467Y0073023D01*
X0342614Y0073224D01*
X0342757Y0073428D01*
X0342894Y0073636D01*
X0343026Y0073847D01*
X0343153Y0074061D01*
X0343275Y0074278D01*
X0343392Y0074498D01*
X0343503Y0074721D01*
X0343608Y0074946D01*
X0343708Y0075175D01*
X0343802Y0075405D01*
X0343891Y0075638D01*
X0343974Y0075872D01*
X0344051Y0076109D01*
X0344696Y0082389D02*
X0344008Y0082177D01*
X0344008Y0082178D02*
X0343932Y0082413D01*
X0343849Y0082647D01*
X0343761Y0082879D01*
X0343667Y0083108D01*
X0343567Y0083335D01*
X0343462Y0083559D01*
X0343352Y0083781D01*
X0343236Y0084000D01*
X0343114Y0084217D01*
X0342988Y0084430D01*
X0342856Y0084640D01*
X0342720Y0084847D01*
X0342578Y0085050D01*
X0342431Y0085250D01*
X0342280Y0085446D01*
X0342123Y0085638D01*
X0341962Y0085827D01*
X0341797Y0086011D01*
X0341627Y0086192D01*
X0341453Y0086368D01*
X0341274Y0086540D01*
X0341092Y0086707D01*
X0340905Y0086870D01*
X0340714Y0087029D01*
X0340520Y0087182D01*
X0340321Y0087331D01*
X0340120Y0087475D01*
X0339914Y0087614D01*
X0339706Y0087748D01*
X0339494Y0087877D01*
X0339279Y0088001D01*
X0339061Y0088119D01*
X0338841Y0088232D01*
X0338617Y0088339D01*
X0338392Y0088441D01*
X0338163Y0088538D01*
X0337933Y0088629D01*
X0337700Y0088714D01*
X0337465Y0088793D01*
X0337228Y0088867D01*
X0336990Y0088935D01*
X0336750Y0088997D01*
X0336509Y0089053D01*
X0336266Y0089104D01*
X0336022Y0089148D01*
X0335777Y0089186D01*
X0335531Y0089219D01*
X0335285Y0089245D01*
X0335038Y0089265D01*
X0334791Y0089280D01*
X0334543Y0089288D01*
X0334295Y0089290D01*
X0334047Y0089286D01*
X0333799Y0089276D01*
X0333552Y0089260D01*
X0333305Y0089238D01*
X0333059Y0089210D01*
X0332813Y0089176D01*
X0332569Y0089136D01*
X0332325Y0089090D01*
X0332083Y0089038D01*
X0331842Y0088980D01*
X0331602Y0088916D01*
X0331365Y0088846D01*
X0331128Y0088771D01*
X0330894Y0088690D01*
X0330662Y0088603D01*
X0330432Y0088510D01*
X0330204Y0088412D01*
X0329979Y0088309D01*
X0329757Y0088200D01*
X0329537Y0088085D01*
X0329320Y0087965D01*
X0329106Y0087840D01*
X0328895Y0087710D01*
X0328688Y0087574D01*
X0328483Y0087434D01*
X0328283Y0087289D01*
X0328085Y0087138D01*
X0327640Y0087703D01*
X0327640Y0087704D01*
X0327851Y0087865D01*
X0328066Y0088021D01*
X0328285Y0088171D01*
X0328507Y0088316D01*
X0328733Y0088456D01*
X0328962Y0088590D01*
X0329194Y0088718D01*
X0329430Y0088841D01*
X0329668Y0088958D01*
X0329910Y0089069D01*
X0330153Y0089174D01*
X0330400Y0089273D01*
X0330648Y0089367D01*
X0330899Y0089454D01*
X0331152Y0089534D01*
X0331407Y0089609D01*
X0331664Y0089677D01*
X0331922Y0089739D01*
X0332181Y0089795D01*
X0332442Y0089845D01*
X0332704Y0089887D01*
X0332967Y0089924D01*
X0333231Y0089954D01*
X0333496Y0089978D01*
X0333761Y0089995D01*
X0334026Y0090006D01*
X0334291Y0090010D01*
X0334557Y0090008D01*
X0334822Y0089999D01*
X0335088Y0089984D01*
X0335352Y0089962D01*
X0335616Y0089934D01*
X0335879Y0089899D01*
X0336142Y0089858D01*
X0336403Y0089810D01*
X0336663Y0089757D01*
X0336922Y0089696D01*
X0337179Y0089630D01*
X0337434Y0089557D01*
X0337688Y0089478D01*
X0337939Y0089393D01*
X0338189Y0089302D01*
X0338436Y0089204D01*
X0338680Y0089101D01*
X0338922Y0088992D01*
X0339161Y0088877D01*
X0339398Y0088756D01*
X0339631Y0088629D01*
X0339861Y0088496D01*
X0340088Y0088358D01*
X0340312Y0088215D01*
X0340531Y0088066D01*
X0340748Y0087912D01*
X0340960Y0087752D01*
X0341168Y0087588D01*
X0341372Y0087418D01*
X0341572Y0087243D01*
X0341768Y0087064D01*
X0341959Y0086880D01*
X0342146Y0086691D01*
X0342328Y0086497D01*
X0342505Y0086300D01*
X0342678Y0086098D01*
X0342845Y0085892D01*
X0343007Y0085681D01*
X0343165Y0085467D01*
X0343316Y0085249D01*
X0343463Y0085028D01*
X0343604Y0084803D01*
X0343739Y0084575D01*
X0343869Y0084343D01*
X0343993Y0084108D01*
X0344111Y0083870D01*
X0344224Y0083630D01*
X0344331Y0083387D01*
X0344431Y0083141D01*
X0344526Y0082893D01*
X0344614Y0082642D01*
X0344696Y0082390D01*
X0344625Y0082368D01*
X0344543Y0082619D01*
X0344455Y0082867D01*
X0344361Y0083114D01*
X0344261Y0083358D01*
X0344156Y0083599D01*
X0344044Y0083838D01*
X0343926Y0084074D01*
X0343803Y0084307D01*
X0343674Y0084537D01*
X0343540Y0084764D01*
X0343400Y0084988D01*
X0343254Y0085207D01*
X0343103Y0085424D01*
X0342947Y0085636D01*
X0342786Y0085845D01*
X0342620Y0086050D01*
X0342449Y0086250D01*
X0342273Y0086447D01*
X0342092Y0086639D01*
X0341907Y0086826D01*
X0341717Y0087009D01*
X0341522Y0087187D01*
X0341324Y0087361D01*
X0341121Y0087529D01*
X0340914Y0087693D01*
X0340703Y0087851D01*
X0340489Y0088004D01*
X0340270Y0088152D01*
X0340048Y0088295D01*
X0339823Y0088432D01*
X0339594Y0088563D01*
X0339363Y0088689D01*
X0339128Y0088809D01*
X0338890Y0088924D01*
X0338650Y0089032D01*
X0338407Y0089135D01*
X0338162Y0089232D01*
X0337914Y0089322D01*
X0337665Y0089407D01*
X0337413Y0089485D01*
X0337159Y0089558D01*
X0336904Y0089624D01*
X0336647Y0089683D01*
X0336389Y0089737D01*
X0336129Y0089784D01*
X0335869Y0089825D01*
X0335607Y0089859D01*
X0335345Y0089887D01*
X0335082Y0089909D01*
X0334819Y0089924D01*
X0334556Y0089933D01*
X0334292Y0089935D01*
X0334028Y0089931D01*
X0333765Y0089920D01*
X0333502Y0089903D01*
X0333239Y0089880D01*
X0332977Y0089850D01*
X0332716Y0089813D01*
X0332456Y0089771D01*
X0332196Y0089722D01*
X0331939Y0089666D01*
X0331682Y0089605D01*
X0331427Y0089537D01*
X0331174Y0089463D01*
X0330923Y0089382D01*
X0330674Y0089296D01*
X0330427Y0089204D01*
X0330182Y0089105D01*
X0329940Y0089001D01*
X0329701Y0088890D01*
X0329464Y0088774D01*
X0329230Y0088652D01*
X0328999Y0088525D01*
X0328772Y0088392D01*
X0328547Y0088253D01*
X0328327Y0088109D01*
X0328109Y0087960D01*
X0327896Y0087805D01*
X0327686Y0087645D01*
X0327733Y0087586D01*
X0327941Y0087745D01*
X0328153Y0087898D01*
X0328369Y0088047D01*
X0328588Y0088190D01*
X0328811Y0088328D01*
X0329037Y0088460D01*
X0329266Y0088587D01*
X0329498Y0088708D01*
X0329733Y0088823D01*
X0329971Y0088932D01*
X0330211Y0089036D01*
X0330454Y0089134D01*
X0330700Y0089226D01*
X0330947Y0089311D01*
X0331196Y0089391D01*
X0331448Y0089465D01*
X0331701Y0089532D01*
X0331955Y0089593D01*
X0332211Y0089648D01*
X0332469Y0089697D01*
X0332727Y0089739D01*
X0332986Y0089775D01*
X0333247Y0089805D01*
X0333507Y0089828D01*
X0333769Y0089845D01*
X0334030Y0089856D01*
X0334292Y0089860D01*
X0334554Y0089858D01*
X0334816Y0089849D01*
X0335077Y0089834D01*
X0335338Y0089813D01*
X0335599Y0089785D01*
X0335858Y0089751D01*
X0336117Y0089710D01*
X0336375Y0089663D01*
X0336631Y0089610D01*
X0336886Y0089551D01*
X0337139Y0089485D01*
X0337391Y0089413D01*
X0337641Y0089336D01*
X0337889Y0089252D01*
X0338135Y0089162D01*
X0338379Y0089066D01*
X0338620Y0088964D01*
X0338859Y0088856D01*
X0339095Y0088742D01*
X0339328Y0088623D01*
X0339558Y0088498D01*
X0339785Y0088367D01*
X0340009Y0088231D01*
X0340229Y0088090D01*
X0340446Y0087943D01*
X0340659Y0087791D01*
X0340868Y0087634D01*
X0341074Y0087471D01*
X0341275Y0087304D01*
X0341472Y0087132D01*
X0341665Y0086955D01*
X0341854Y0086773D01*
X0342038Y0086587D01*
X0342218Y0086396D01*
X0342392Y0086201D01*
X0342562Y0086002D01*
X0342727Y0085799D01*
X0342887Y0085591D01*
X0343042Y0085380D01*
X0343192Y0085166D01*
X0343336Y0084947D01*
X0343475Y0084725D01*
X0343609Y0084500D01*
X0343737Y0084272D01*
X0343859Y0084040D01*
X0343976Y0083806D01*
X0344087Y0083568D01*
X0344192Y0083329D01*
X0344291Y0083086D01*
X0344385Y0082842D01*
X0344472Y0082595D01*
X0344553Y0082346D01*
X0344481Y0082324D01*
X0344401Y0082571D01*
X0344314Y0082816D01*
X0344222Y0083059D01*
X0344123Y0083300D01*
X0344019Y0083538D01*
X0343909Y0083773D01*
X0343793Y0084006D01*
X0343671Y0084236D01*
X0343544Y0084463D01*
X0343411Y0084686D01*
X0343273Y0084907D01*
X0343130Y0085124D01*
X0342981Y0085337D01*
X0342827Y0085546D01*
X0342668Y0085752D01*
X0342505Y0085954D01*
X0342336Y0086152D01*
X0342162Y0086346D01*
X0341984Y0086535D01*
X0341801Y0086720D01*
X0341614Y0086900D01*
X0341422Y0087076D01*
X0341226Y0087247D01*
X0341026Y0087413D01*
X0340822Y0087574D01*
X0340614Y0087730D01*
X0340403Y0087881D01*
X0340187Y0088027D01*
X0339969Y0088168D01*
X0339747Y0088303D01*
X0339521Y0088433D01*
X0339293Y0088557D01*
X0339061Y0088675D01*
X0338827Y0088788D01*
X0338590Y0088895D01*
X0338350Y0088996D01*
X0338109Y0089091D01*
X0337864Y0089181D01*
X0337618Y0089264D01*
X0337370Y0089342D01*
X0337120Y0089413D01*
X0336868Y0089478D01*
X0336615Y0089537D01*
X0336360Y0089590D01*
X0336104Y0089636D01*
X0335848Y0089676D01*
X0335590Y0089710D01*
X0335331Y0089738D01*
X0335072Y0089759D01*
X0334812Y0089774D01*
X0334553Y0089783D01*
X0334293Y0089785D01*
X0334033Y0089781D01*
X0333773Y0089770D01*
X0333513Y0089754D01*
X0333254Y0089730D01*
X0332996Y0089701D01*
X0332738Y0089665D01*
X0332482Y0089623D01*
X0332226Y0089575D01*
X0331972Y0089520D01*
X0331719Y0089459D01*
X0331468Y0089392D01*
X0331219Y0089319D01*
X0330971Y0089240D01*
X0330725Y0089155D01*
X0330482Y0089064D01*
X0330240Y0088967D01*
X0330002Y0088864D01*
X0329766Y0088755D01*
X0329532Y0088641D01*
X0329301Y0088521D01*
X0329074Y0088395D01*
X0328849Y0088263D01*
X0328628Y0088127D01*
X0328411Y0087985D01*
X0328196Y0087837D01*
X0327986Y0087685D01*
X0327779Y0087527D01*
X0327825Y0087468D01*
X0328031Y0087625D01*
X0328240Y0087776D01*
X0328453Y0087923D01*
X0328669Y0088064D01*
X0328888Y0088199D01*
X0329111Y0088330D01*
X0329337Y0088455D01*
X0329566Y0088574D01*
X0329798Y0088688D01*
X0330032Y0088796D01*
X0330269Y0088898D01*
X0330509Y0088994D01*
X0330751Y0089085D01*
X0330995Y0089169D01*
X0331241Y0089248D01*
X0331488Y0089320D01*
X0331738Y0089387D01*
X0331989Y0089447D01*
X0332241Y0089501D01*
X0332495Y0089549D01*
X0332750Y0089591D01*
X0333006Y0089626D01*
X0333262Y0089656D01*
X0333519Y0089679D01*
X0333777Y0089695D01*
X0334035Y0089706D01*
X0334293Y0089710D01*
X0334551Y0089708D01*
X0334809Y0089699D01*
X0335067Y0089684D01*
X0335324Y0089663D01*
X0335581Y0089636D01*
X0335837Y0089602D01*
X0336092Y0089562D01*
X0336346Y0089516D01*
X0336599Y0089464D01*
X0336850Y0089405D01*
X0337100Y0089340D01*
X0337348Y0089270D01*
X0337595Y0089193D01*
X0337839Y0089110D01*
X0338082Y0089021D01*
X0338322Y0088927D01*
X0338560Y0088826D01*
X0338795Y0088720D01*
X0339028Y0088608D01*
X0339258Y0088490D01*
X0339485Y0088367D01*
X0339708Y0088238D01*
X0339929Y0088104D01*
X0340146Y0087965D01*
X0340360Y0087820D01*
X0340570Y0087670D01*
X0340776Y0087515D01*
X0340979Y0087355D01*
X0341178Y0087190D01*
X0341372Y0087020D01*
X0341562Y0086846D01*
X0341748Y0086666D01*
X0341930Y0086483D01*
X0342107Y0086295D01*
X0342279Y0086103D01*
X0342447Y0085906D01*
X0342610Y0085706D01*
X0342767Y0085502D01*
X0342920Y0085293D01*
X0343068Y0085082D01*
X0343210Y0084866D01*
X0343347Y0084647D01*
X0343479Y0084425D01*
X0343605Y0084200D01*
X0343726Y0083972D01*
X0343841Y0083741D01*
X0343950Y0083507D01*
X0344054Y0083271D01*
X0344152Y0083032D01*
X0344244Y0082790D01*
X0344330Y0082547D01*
X0344410Y0082302D01*
X0344338Y0082279D01*
X0344259Y0082523D01*
X0344173Y0082765D01*
X0344082Y0083004D01*
X0343985Y0083242D01*
X0343882Y0083476D01*
X0343773Y0083708D01*
X0343659Y0083938D01*
X0343539Y0084165D01*
X0343414Y0084388D01*
X0343283Y0084609D01*
X0343147Y0084826D01*
X0343006Y0085040D01*
X0342859Y0085250D01*
X0342707Y0085457D01*
X0342551Y0085659D01*
X0342389Y0085858D01*
X0342223Y0086053D01*
X0342052Y0086244D01*
X0341876Y0086431D01*
X0341696Y0086613D01*
X0341511Y0086791D01*
X0341322Y0086964D01*
X0341129Y0087133D01*
X0340932Y0087297D01*
X0340731Y0087455D01*
X0340526Y0087609D01*
X0340317Y0087758D01*
X0340105Y0087902D01*
X0339889Y0088041D01*
X0339670Y0088174D01*
X0339448Y0088302D01*
X0339223Y0088424D01*
X0338994Y0088541D01*
X0338763Y0088652D01*
X0338530Y0088758D01*
X0338294Y0088857D01*
X0338055Y0088951D01*
X0337815Y0089039D01*
X0337572Y0089122D01*
X0337327Y0089198D01*
X0337081Y0089268D01*
X0336832Y0089332D01*
X0336583Y0089390D01*
X0336332Y0089442D01*
X0336079Y0089488D01*
X0335826Y0089528D01*
X0335572Y0089561D01*
X0335317Y0089589D01*
X0335062Y0089610D01*
X0334806Y0089624D01*
X0334550Y0089633D01*
X0334293Y0089635D01*
X0334037Y0089631D01*
X0333781Y0089621D01*
X0333525Y0089604D01*
X0333270Y0089581D01*
X0333015Y0089552D01*
X0332761Y0089517D01*
X0332508Y0089475D01*
X0332256Y0089428D01*
X0332006Y0089374D01*
X0331756Y0089314D01*
X0331509Y0089248D01*
X0331263Y0089176D01*
X0331019Y0089098D01*
X0330776Y0089014D01*
X0330536Y0088924D01*
X0330299Y0088829D01*
X0330063Y0088727D01*
X0329830Y0088620D01*
X0329600Y0088507D01*
X0329373Y0088389D01*
X0329148Y0088265D01*
X0328927Y0088135D01*
X0328709Y0088000D01*
X0328494Y0087860D01*
X0328283Y0087715D01*
X0328076Y0087565D01*
X0327872Y0087409D01*
X0327918Y0087350D01*
X0328121Y0087505D01*
X0328327Y0087654D01*
X0328536Y0087798D01*
X0328750Y0087937D01*
X0328966Y0088071D01*
X0329186Y0088200D01*
X0329408Y0088323D01*
X0329634Y0088440D01*
X0329863Y0088552D01*
X0330094Y0088659D01*
X0330328Y0088759D01*
X0330564Y0088854D01*
X0330802Y0088944D01*
X0331042Y0089027D01*
X0331285Y0089104D01*
X0331529Y0089176D01*
X0331775Y0089241D01*
X0332023Y0089301D01*
X0332271Y0089354D01*
X0332521Y0089402D01*
X0332773Y0089443D01*
X0333025Y0089478D01*
X0333277Y0089507D01*
X0333531Y0089529D01*
X0333785Y0089546D01*
X0334039Y0089556D01*
X0334294Y0089560D01*
X0334548Y0089558D01*
X0334802Y0089549D01*
X0335057Y0089535D01*
X0335310Y0089514D01*
X0335563Y0089487D01*
X0335816Y0089454D01*
X0336067Y0089414D01*
X0336317Y0089369D01*
X0336567Y0089317D01*
X0336814Y0089259D01*
X0337061Y0089196D01*
X0337306Y0089126D01*
X0337549Y0089050D01*
X0337790Y0088969D01*
X0338029Y0088881D01*
X0338265Y0088788D01*
X0338500Y0088689D01*
X0338732Y0088584D01*
X0338961Y0088474D01*
X0339188Y0088358D01*
X0339411Y0088236D01*
X0339632Y0088109D01*
X0339849Y0087977D01*
X0340063Y0087840D01*
X0340274Y0087697D01*
X0340481Y0087549D01*
X0340685Y0087396D01*
X0340884Y0087238D01*
X0341080Y0087076D01*
X0341272Y0086908D01*
X0341459Y0086736D01*
X0341643Y0086560D01*
X0341822Y0086379D01*
X0341996Y0086194D01*
X0342166Y0086004D01*
X0342331Y0085811D01*
X0342492Y0085613D01*
X0342647Y0085412D01*
X0342798Y0085206D01*
X0342943Y0084998D01*
X0343084Y0084785D01*
X0343219Y0084570D01*
X0343349Y0084351D01*
X0343473Y0084129D01*
X0343592Y0083904D01*
X0343706Y0083676D01*
X0343813Y0083446D01*
X0343916Y0083212D01*
X0344012Y0082977D01*
X0344103Y0082739D01*
X0344188Y0082499D01*
X0344266Y0082257D01*
X0344195Y0082235D01*
X0344116Y0082475D01*
X0344032Y0082714D01*
X0343942Y0082950D01*
X0343846Y0083183D01*
X0343745Y0083415D01*
X0343638Y0083644D01*
X0343525Y0083870D01*
X0343407Y0084093D01*
X0343284Y0084314D01*
X0343155Y0084531D01*
X0343021Y0084745D01*
X0342881Y0084956D01*
X0342737Y0085163D01*
X0342587Y0085367D01*
X0342433Y0085567D01*
X0342274Y0085763D01*
X0342110Y0085955D01*
X0341941Y0086143D01*
X0341768Y0086327D01*
X0341590Y0086507D01*
X0341408Y0086682D01*
X0341222Y0086853D01*
X0341031Y0087019D01*
X0340837Y0087180D01*
X0340639Y0087337D01*
X0340437Y0087489D01*
X0340231Y0087635D01*
X0340022Y0087777D01*
X0339809Y0087914D01*
X0339594Y0088045D01*
X0339375Y0088171D01*
X0339153Y0088291D01*
X0338928Y0088407D01*
X0338700Y0088516D01*
X0338470Y0088620D01*
X0338237Y0088718D01*
X0338002Y0088811D01*
X0337765Y0088898D01*
X0337525Y0088979D01*
X0337284Y0089054D01*
X0337041Y0089123D01*
X0336797Y0089187D01*
X0336551Y0089244D01*
X0336303Y0089295D01*
X0336055Y0089340D01*
X0335805Y0089379D01*
X0335554Y0089412D01*
X0335303Y0089439D01*
X0335051Y0089460D01*
X0334799Y0089474D01*
X0334547Y0089483D01*
X0334294Y0089485D01*
X0334041Y0089481D01*
X0333789Y0089471D01*
X0333537Y0089454D01*
X0333285Y0089432D01*
X0333034Y0089403D01*
X0332784Y0089369D01*
X0332535Y0089328D01*
X0332286Y0089281D01*
X0332039Y0089228D01*
X0331794Y0089169D01*
X0331549Y0089104D01*
X0331307Y0089033D01*
X0331066Y0088956D01*
X0330828Y0088873D01*
X0330591Y0088785D01*
X0330357Y0088690D01*
X0330125Y0088590D01*
X0329895Y0088485D01*
X0329668Y0088373D01*
X0329444Y0088257D01*
X0329223Y0088134D01*
X0329005Y0088007D01*
X0328790Y0087874D01*
X0328578Y0087736D01*
X0328370Y0087593D01*
X0328166Y0087445D01*
X0327965Y0087291D01*
X0328011Y0087233D01*
X0328211Y0087385D01*
X0328414Y0087532D01*
X0328620Y0087674D01*
X0328830Y0087811D01*
X0329044Y0087943D01*
X0329260Y0088069D01*
X0329480Y0088191D01*
X0329702Y0088307D01*
X0329927Y0088417D01*
X0330155Y0088522D01*
X0330386Y0088621D01*
X0330618Y0088715D01*
X0330853Y0088803D01*
X0331090Y0088885D01*
X0331329Y0088961D01*
X0331570Y0089031D01*
X0331812Y0089096D01*
X0332056Y0089155D01*
X0332301Y0089207D01*
X0332548Y0089254D01*
X0332795Y0089294D01*
X0333044Y0089329D01*
X0333293Y0089357D01*
X0333543Y0089380D01*
X0333793Y0089396D01*
X0334044Y0089406D01*
X0334294Y0089410D01*
X0334545Y0089408D01*
X0334796Y0089399D01*
X0335046Y0089385D01*
X0335296Y0089364D01*
X0335546Y0089338D01*
X0335794Y0089305D01*
X0336042Y0089266D01*
X0336289Y0089221D01*
X0336534Y0089171D01*
X0336779Y0089114D01*
X0337022Y0089051D01*
X0337263Y0088982D01*
X0337502Y0088908D01*
X0337740Y0088827D01*
X0337975Y0088741D01*
X0338209Y0088649D01*
X0338440Y0088551D01*
X0338668Y0088448D01*
X0338894Y0088339D01*
X0339118Y0088225D01*
X0339338Y0088105D01*
X0339555Y0087980D01*
X0339770Y0087850D01*
X0339981Y0087714D01*
X0340188Y0087574D01*
X0340392Y0087428D01*
X0340593Y0087277D01*
X0340790Y0087122D01*
X0340983Y0086962D01*
X0341172Y0086797D01*
X0341357Y0086627D01*
X0341537Y0086453D01*
X0341714Y0086275D01*
X0341886Y0086092D01*
X0342053Y0085906D01*
X0342216Y0085715D01*
X0342374Y0085520D01*
X0342527Y0085322D01*
X0342676Y0085119D01*
X0342819Y0084914D01*
X0342957Y0084705D01*
X0343091Y0084492D01*
X0343219Y0084276D01*
X0343341Y0084058D01*
X0343458Y0083836D01*
X0343570Y0083611D01*
X0343677Y0083384D01*
X0343777Y0083154D01*
X0343872Y0082922D01*
X0343962Y0082688D01*
X0344045Y0082451D01*
X0344123Y0082213D01*
X0344051Y0082191D01*
X0343974Y0082428D01*
X0343891Y0082662D01*
X0343802Y0082895D01*
X0343708Y0083125D01*
X0343608Y0083353D01*
X0343503Y0083579D01*
X0343392Y0083802D01*
X0343275Y0084022D01*
X0343153Y0084239D01*
X0343026Y0084453D01*
X0342894Y0084664D01*
X0342757Y0084872D01*
X0342615Y0085076D01*
X0342467Y0085277D01*
X0342315Y0085474D01*
X0342158Y0085667D01*
X0341996Y0085856D01*
X0341830Y0086042D01*
X0341660Y0086223D01*
X0341484Y0086400D01*
X0341305Y0086573D01*
X0341122Y0086741D01*
X0340934Y0086905D01*
X0340742Y0087064D01*
X0340547Y0087218D01*
X0340348Y0087368D01*
X0340145Y0087512D01*
X0339939Y0087652D01*
X0339730Y0087786D01*
X0339517Y0087916D01*
X0339301Y0088040D01*
X0339082Y0088159D01*
X0338861Y0088272D01*
X0338637Y0088380D01*
X0338410Y0088483D01*
X0338180Y0088580D01*
X0337949Y0088671D01*
X0337715Y0088756D01*
X0337479Y0088836D01*
X0337241Y0088910D01*
X0337002Y0088979D01*
X0336761Y0089041D01*
X0336518Y0089097D01*
X0336275Y0089148D01*
X0336030Y0089192D01*
X0335784Y0089231D01*
X0335537Y0089263D01*
X0335289Y0089290D01*
X0335041Y0089310D01*
X0334793Y0089325D01*
X0334544Y0089333D01*
X0334295Y0089335D01*
X0334046Y0089331D01*
X0333797Y0089321D01*
X0333549Y0089305D01*
X0333301Y0089283D01*
X0333053Y0089255D01*
X0332807Y0089220D01*
X0332561Y0089180D01*
X0332316Y0089134D01*
X0332073Y0089082D01*
X0331831Y0089023D01*
X0331590Y0088959D01*
X0331351Y0088889D01*
X0331114Y0088814D01*
X0330879Y0088732D01*
X0330646Y0088645D01*
X0330415Y0088552D01*
X0330186Y0088453D01*
X0329960Y0088349D01*
X0329736Y0088240D01*
X0329516Y0088125D01*
X0329298Y0088004D01*
X0329083Y0087879D01*
X0328871Y0087748D01*
X0328662Y0087612D01*
X0328457Y0087471D01*
X0328256Y0087325D01*
X0328058Y0087174D01*
D35*
X0220941Y0088310D03*
X0195752Y0093611D03*
X0195744Y0104058D03*
X0220948Y0077863D03*
D36*
X0159239Y0129547D03*
X0148792Y0129540D03*
X0067901Y0102775D03*
X0057454Y0102768D03*
M02*
