G75*
%MOIN*%
%OFA0B0*%
%FSLAX25Y25*%
%IPPOS*%
%LPD*%
%AMOC8*
5,1,8,0,0,1.08239X$1,22.5*
%
%ADD10C,0.00000*%
%ADD11C,0.06400*%
%ADD12C,0.05600*%
%ADD13R,0.07800X0.07800*%
%ADD14OC8,0.07800*%
%ADD15C,0.07800*%
%ADD16C,0.07800*%
%ADD17C,0.05600*%
%ADD18C,0.20085*%
D10*
X0027244Y0007496D02*
X0027244Y0188598D01*
X0188661Y0188598D01*
X0212283Y0164976D01*
X0420157Y0164976D01*
X0420157Y0007496D01*
X0027244Y0007496D01*
D11*
X0042000Y0089819D02*
X0048000Y0089819D01*
X0048000Y0099819D02*
X0042000Y0099819D01*
X0042000Y0109819D02*
X0048000Y0109819D01*
X0048000Y0119819D02*
X0042000Y0119819D01*
X0042000Y0129819D02*
X0048000Y0129819D01*
X0048000Y0139819D02*
X0042000Y0139819D01*
X0042000Y0149819D02*
X0048000Y0149819D01*
X0048000Y0159819D02*
X0042000Y0159819D01*
D12*
X0182124Y0150606D02*
X0187324Y0150606D01*
X0187324Y0140606D02*
X0182124Y0140606D01*
X0182124Y0120606D02*
X0187324Y0120606D01*
X0187324Y0110606D02*
X0182124Y0110606D01*
X0182124Y0100606D02*
X0187324Y0100606D01*
X0264524Y0036118D02*
X0269724Y0036118D01*
X0269724Y0026118D02*
X0264524Y0026118D01*
X0299724Y0026118D02*
X0304924Y0026118D01*
X0304924Y0036118D02*
X0299724Y0036118D01*
X0362950Y0063362D02*
X0368150Y0063362D01*
X0368150Y0073362D02*
X0362950Y0073362D01*
X0362950Y0083362D02*
X0368150Y0083362D01*
X0368150Y0093362D02*
X0362950Y0093362D01*
X0398150Y0093362D02*
X0403350Y0093362D01*
X0403350Y0083362D02*
X0398150Y0083362D01*
X0398150Y0073362D02*
X0403350Y0073362D01*
X0403350Y0063362D02*
X0398150Y0063362D01*
X0398150Y0112181D02*
X0403350Y0112181D01*
X0403350Y0122181D02*
X0398150Y0122181D01*
X0398150Y0132181D02*
X0403350Y0132181D01*
X0403350Y0142181D02*
X0398150Y0142181D01*
X0368150Y0142181D02*
X0362950Y0142181D01*
X0362950Y0132181D02*
X0368150Y0132181D01*
X0368150Y0122181D02*
X0362950Y0122181D01*
X0362950Y0112181D02*
X0368150Y0112181D01*
D13*
X0228031Y0126106D03*
X0228031Y0157102D03*
X0114409Y0156591D03*
D14*
X0104409Y0156591D03*
X0094409Y0156591D03*
X0094409Y0146591D03*
X0104409Y0146591D03*
X0114409Y0146591D03*
D15*
X0228031Y0147102D03*
X0228031Y0137102D03*
X0228031Y0115106D03*
X0334331Y0089150D03*
X0334331Y0079150D03*
X0334331Y0069150D03*
D16*
X0048661Y0079543D02*
X0041261Y0079543D01*
D17*
X0114594Y0050016D03*
X0133594Y0050016D03*
D18*
X0042992Y0031906D03*
X0405197Y0031906D03*
M02*
