G75*
%MOIN*%
%OFA0B0*%
%FSLAX25Y25*%
%IPPOS*%
%LPD*%
%AMOC8*
5,1,8,0,0,1.08239X$1,22.5*
%
%ADD10C,0.00000*%
%ADD11R,0.05118X0.05906*%
%ADD12R,0.11811X0.03937*%
%ADD13R,0.04724X0.06299*%
%ADD14R,0.08800X0.04800*%
%ADD15R,0.08661X0.14173*%
%ADD16R,0.05906X0.05118*%
%ADD17R,0.02200X0.05000*%
%ADD18R,0.05000X0.02200*%
%ADD19R,0.09843X0.04724*%
%ADD20R,0.04724X0.02165*%
%ADD21R,0.07087X0.06299*%
%ADD22R,0.06299X0.07087*%
%ADD23R,0.04724X0.09843*%
D10*
X0027244Y0007496D02*
X0027244Y0188598D01*
X0188661Y0188598D01*
X0212283Y0164976D01*
X0420157Y0164976D01*
X0420157Y0007496D01*
X0027244Y0007496D01*
D11*
X0111693Y0034268D03*
X0119173Y0034268D03*
X0129016Y0034268D03*
X0136496Y0034268D03*
X0247126Y0036630D03*
X0254606Y0036630D03*
X0254606Y0026394D03*
X0247126Y0026394D03*
X0281772Y0064189D03*
X0289252Y0064189D03*
X0298307Y0064189D03*
X0305787Y0064189D03*
X0317992Y0064189D03*
X0325472Y0064189D03*
X0406969Y0102772D03*
X0414449Y0102772D03*
X0355394Y0111433D03*
X0347913Y0111433D03*
X0347913Y0131906D03*
X0355394Y0131906D03*
X0383346Y0151591D03*
X0390827Y0151591D03*
X0235709Y0105921D03*
X0228228Y0105921D03*
X0228228Y0097260D03*
X0235709Y0097260D03*
X0122323Y0116157D03*
X0114843Y0116157D03*
X0116024Y0107496D03*
X0108543Y0107496D03*
X0114843Y0124819D03*
X0122323Y0124819D03*
X0066417Y0122457D03*
X0058937Y0122457D03*
X0058937Y0131118D03*
X0066417Y0131118D03*
X0066417Y0113795D03*
X0058937Y0113795D03*
D12*
X0253622Y0113008D03*
X0253622Y0118126D03*
X0253622Y0123244D03*
X0253622Y0128362D03*
X0253622Y0133480D03*
X0253622Y0107890D03*
X0253622Y0102772D03*
X0253622Y0097654D03*
X0253622Y0092535D03*
X0253622Y0087417D03*
X0253622Y0082299D03*
X0253622Y0077181D03*
X0320551Y0081512D03*
X0320551Y0086630D03*
X0320551Y0091748D03*
X0320551Y0096866D03*
X0320551Y0101984D03*
X0320551Y0107102D03*
X0320551Y0112220D03*
X0320551Y0117339D03*
X0320551Y0122457D03*
X0320551Y0127575D03*
X0320551Y0132693D03*
D13*
X0159921Y0153953D03*
X0148110Y0153953D03*
D14*
X0185123Y0078801D03*
X0185123Y0069701D03*
X0185123Y0060601D03*
D15*
X0209524Y0069701D03*
D16*
X0229606Y0080921D03*
X0238268Y0080921D03*
X0238268Y0088402D03*
X0229606Y0088402D03*
X0204409Y0093520D03*
X0204409Y0101000D03*
X0195748Y0113205D03*
X0212283Y0117929D03*
X0195748Y0120685D03*
X0212283Y0125409D03*
X0331969Y0106512D03*
X0331969Y0099031D03*
X0353228Y0090764D03*
X0353228Y0083283D03*
X0414646Y0082102D03*
X0414646Y0074622D03*
X0414646Y0114780D03*
X0414646Y0122260D03*
X0349291Y0152575D03*
X0349291Y0160055D03*
X0067402Y0093913D03*
X0058740Y0093913D03*
X0058740Y0086433D03*
X0067402Y0086433D03*
D17*
X0103622Y0097624D03*
X0106772Y0097624D03*
X0109921Y0097624D03*
X0113071Y0097624D03*
X0116220Y0097624D03*
X0119370Y0097624D03*
X0122520Y0097624D03*
X0125669Y0097624D03*
X0125669Y0063824D03*
X0122520Y0063824D03*
X0119370Y0063824D03*
X0116220Y0063824D03*
X0113071Y0063824D03*
X0109921Y0063824D03*
X0106772Y0063824D03*
X0103622Y0063824D03*
D18*
X0097746Y0069701D03*
X0097746Y0072850D03*
X0097746Y0076000D03*
X0097746Y0079150D03*
X0097746Y0082299D03*
X0097746Y0085449D03*
X0097746Y0088598D03*
X0097746Y0091748D03*
X0131546Y0091748D03*
X0131546Y0088598D03*
X0131546Y0085449D03*
X0131546Y0082299D03*
X0131546Y0079150D03*
X0131546Y0076000D03*
X0131546Y0072850D03*
X0131546Y0069701D03*
D19*
X0167402Y0073047D03*
X0167402Y0060055D03*
D20*
X0363858Y0152575D03*
X0374095Y0152575D03*
X0374095Y0156315D03*
X0374095Y0160055D03*
X0363858Y0160055D03*
D21*
X0220945Y0088598D03*
X0195748Y0093323D03*
X0195748Y0104346D03*
X0220945Y0077575D03*
D22*
X0159528Y0129543D03*
X0148504Y0129543D03*
X0068189Y0102772D03*
X0057165Y0102772D03*
D23*
X0146732Y0141354D03*
X0159724Y0141354D03*
M02*
