G75*
%MOIN*%
%OFA0B0*%
%FSLAX25Y25*%
%IPPOS*%
%LPD*%
%AMOC8*
5,1,8,0,0,1.08239X$1,22.5*
%
%ADD10C,0.00000*%
%ADD11C,0.06000*%
%ADD12R,0.05118X0.05906*%
%ADD13C,0.05200*%
%ADD14R,0.11811X0.03937*%
%ADD15R,0.04724X0.06299*%
%ADD16R,0.08800X0.04800*%
%ADD17R,0.08661X0.14173*%
%ADD18R,0.05906X0.05118*%
%ADD19R,0.07400X0.07400*%
%ADD20OC8,0.07400*%
%ADD21R,0.02200X0.05000*%
%ADD22R,0.05000X0.02200*%
%ADD23C,0.07400*%
%ADD24C,0.07400*%
%ADD25R,0.09843X0.04724*%
%ADD26R,0.04724X0.02165*%
%ADD27C,0.05200*%
%ADD28R,0.07087X0.06299*%
%ADD29R,0.06299X0.07087*%
%ADD30R,0.04724X0.09843*%
%ADD31C,0.01969*%
%ADD32C,0.05600*%
%ADD33C,0.05000*%
%ADD34C,0.07000*%
%ADD35C,0.07600*%
%ADD36C,0.03169*%
%ADD37C,0.19685*%
%ADD38C,0.01181*%
%ADD39C,0.03200*%
%ADD40C,0.04134*%
%ADD41C,0.04000*%
%ADD42C,0.00600*%
%ADD43C,0.02400*%
D10*
X0027244Y0007496D02*
X0027244Y0188598D01*
X0188661Y0188598D01*
X0212283Y0164976D01*
X0420157Y0164976D01*
X0420157Y0007496D01*
X0027244Y0007496D01*
D11*
X0042000Y0089819D02*
X0048000Y0089819D01*
X0048000Y0099819D02*
X0042000Y0099819D01*
X0042000Y0109819D02*
X0048000Y0109819D01*
X0048000Y0119819D02*
X0042000Y0119819D01*
X0042000Y0129819D02*
X0048000Y0129819D01*
X0048000Y0139819D02*
X0042000Y0139819D01*
X0042000Y0149819D02*
X0048000Y0149819D01*
X0048000Y0159819D02*
X0042000Y0159819D01*
D12*
X0058937Y0131118D03*
X0066417Y0131118D03*
X0066417Y0122457D03*
X0058937Y0122457D03*
X0058937Y0113795D03*
X0066417Y0113795D03*
X0108543Y0107496D03*
X0116024Y0107496D03*
X0114843Y0116157D03*
X0122323Y0116157D03*
X0122323Y0124819D03*
X0114843Y0124819D03*
X0228228Y0105921D03*
X0235709Y0105921D03*
X0235709Y0097260D03*
X0228228Y0097260D03*
X0281772Y0064189D03*
X0289252Y0064189D03*
X0298307Y0064189D03*
X0305787Y0064189D03*
X0317992Y0064189D03*
X0325472Y0064189D03*
X0254606Y0036630D03*
X0247126Y0036630D03*
X0247126Y0026394D03*
X0254606Y0026394D03*
X0136496Y0034268D03*
X0129016Y0034268D03*
X0119173Y0034268D03*
X0111693Y0034268D03*
X0347913Y0111433D03*
X0355394Y0111433D03*
X0355394Y0131906D03*
X0347913Y0131906D03*
X0383346Y0151591D03*
X0390827Y0151591D03*
X0406969Y0102772D03*
X0414449Y0102772D03*
D13*
X0403350Y0112181D02*
X0398150Y0112181D01*
X0398150Y0122181D02*
X0403350Y0122181D01*
X0403350Y0132181D02*
X0398150Y0132181D01*
X0398150Y0142181D02*
X0403350Y0142181D01*
X0368150Y0142181D02*
X0362950Y0142181D01*
X0362950Y0132181D02*
X0368150Y0132181D01*
X0368150Y0122181D02*
X0362950Y0122181D01*
X0362950Y0112181D02*
X0368150Y0112181D01*
X0368150Y0093362D02*
X0362950Y0093362D01*
X0362950Y0083362D02*
X0368150Y0083362D01*
X0368150Y0073362D02*
X0362950Y0073362D01*
X0362950Y0063362D02*
X0368150Y0063362D01*
X0398150Y0063362D02*
X0403350Y0063362D01*
X0403350Y0073362D02*
X0398150Y0073362D01*
X0398150Y0083362D02*
X0403350Y0083362D01*
X0403350Y0093362D02*
X0398150Y0093362D01*
X0304924Y0036118D02*
X0299724Y0036118D01*
X0299724Y0026118D02*
X0304924Y0026118D01*
X0269724Y0026118D02*
X0264524Y0026118D01*
X0264524Y0036118D02*
X0269724Y0036118D01*
X0187324Y0100606D02*
X0182124Y0100606D01*
X0182124Y0110606D02*
X0187324Y0110606D01*
X0187324Y0120606D02*
X0182124Y0120606D01*
X0182124Y0140606D02*
X0187324Y0140606D01*
X0187324Y0150606D02*
X0182124Y0150606D01*
D14*
X0253622Y0133480D03*
X0253622Y0128362D03*
X0253622Y0123244D03*
X0253622Y0118126D03*
X0253622Y0113008D03*
X0253622Y0107890D03*
X0253622Y0102772D03*
X0253622Y0097654D03*
X0253622Y0092535D03*
X0253622Y0087417D03*
X0253622Y0082299D03*
X0253622Y0077181D03*
X0320551Y0081512D03*
X0320551Y0086630D03*
X0320551Y0091748D03*
X0320551Y0096866D03*
X0320551Y0101984D03*
X0320551Y0107102D03*
X0320551Y0112220D03*
X0320551Y0117339D03*
X0320551Y0122457D03*
X0320551Y0127575D03*
X0320551Y0132693D03*
D15*
X0159921Y0153953D03*
X0148110Y0153953D03*
D16*
X0185123Y0078801D03*
X0185123Y0069701D03*
X0185123Y0060601D03*
D17*
X0209524Y0069701D03*
D18*
X0229606Y0080921D03*
X0238268Y0080921D03*
X0238268Y0088402D03*
X0229606Y0088402D03*
X0204409Y0093520D03*
X0204409Y0101000D03*
X0195748Y0113205D03*
X0212283Y0117929D03*
X0195748Y0120685D03*
X0212283Y0125409D03*
X0331969Y0106512D03*
X0331969Y0099031D03*
X0353228Y0090764D03*
X0353228Y0083283D03*
X0414646Y0082102D03*
X0414646Y0074622D03*
X0414646Y0114780D03*
X0414646Y0122260D03*
X0349291Y0152575D03*
X0349291Y0160055D03*
X0067402Y0093913D03*
X0058740Y0093913D03*
X0058740Y0086433D03*
X0067402Y0086433D03*
D19*
X0114409Y0156591D03*
X0228031Y0157102D03*
X0228031Y0126106D03*
D20*
X0114409Y0146591D03*
X0104409Y0146591D03*
X0094409Y0146591D03*
X0094409Y0156591D03*
X0104409Y0156591D03*
D21*
X0103622Y0097624D03*
X0106772Y0097624D03*
X0109921Y0097624D03*
X0113071Y0097624D03*
X0116220Y0097624D03*
X0119370Y0097624D03*
X0122520Y0097624D03*
X0125669Y0097624D03*
X0125669Y0063824D03*
X0122520Y0063824D03*
X0119370Y0063824D03*
X0116220Y0063824D03*
X0113071Y0063824D03*
X0109921Y0063824D03*
X0106772Y0063824D03*
X0103622Y0063824D03*
D22*
X0097746Y0069701D03*
X0097746Y0072850D03*
X0097746Y0076000D03*
X0097746Y0079150D03*
X0097746Y0082299D03*
X0097746Y0085449D03*
X0097746Y0088598D03*
X0097746Y0091748D03*
X0131546Y0091748D03*
X0131546Y0088598D03*
X0131546Y0085449D03*
X0131546Y0082299D03*
X0131546Y0079150D03*
X0131546Y0076000D03*
X0131546Y0072850D03*
X0131546Y0069701D03*
D23*
X0228031Y0115106D03*
X0228031Y0137102D03*
X0228031Y0147102D03*
X0334331Y0089150D03*
X0334331Y0079150D03*
X0334331Y0069150D03*
D24*
X0048661Y0079543D02*
X0041261Y0079543D01*
D25*
X0167402Y0073047D03*
X0167402Y0060055D03*
D26*
X0363858Y0152575D03*
X0374095Y0152575D03*
X0374095Y0156315D03*
X0374095Y0160055D03*
X0363858Y0160055D03*
D27*
X0133594Y0050016D03*
X0114594Y0050016D03*
D28*
X0195748Y0093323D03*
X0220945Y0088598D03*
X0220945Y0077575D03*
X0195748Y0104346D03*
D29*
X0159528Y0129543D03*
X0148504Y0129543D03*
X0068189Y0102772D03*
X0057165Y0102772D03*
D30*
X0146732Y0141354D03*
X0159724Y0141354D03*
D31*
X0159528Y0139780D01*
X0159528Y0139286D02*
X0159921Y0139286D01*
X0159528Y0140567D02*
X0184724Y0140567D01*
X0184724Y0140606D01*
X0177540Y0140606D01*
X0177540Y0140245D01*
X0177653Y0139533D01*
X0177876Y0138847D01*
X0178204Y0138204D01*
X0178628Y0137620D01*
X0179138Y0137110D01*
X0179722Y0136685D01*
X0180365Y0136358D01*
X0181051Y0136135D01*
X0181764Y0136022D01*
X0184724Y0136022D01*
X0184724Y0140606D01*
X0184724Y0140606D01*
X0184724Y0140606D01*
X0177540Y0140606D01*
X0177540Y0140967D01*
X0177653Y0141680D01*
X0177876Y0142366D01*
X0178204Y0143009D01*
X0178628Y0143593D01*
X0179138Y0144103D01*
X0179722Y0144527D01*
X0180365Y0144855D01*
X0181051Y0145078D01*
X0181764Y0145191D01*
X0184724Y0145191D01*
X0184724Y0140606D01*
X0184724Y0136022D01*
X0187685Y0136022D01*
X0188398Y0136135D01*
X0189084Y0136358D01*
X0189727Y0136685D01*
X0190311Y0137110D01*
X0190821Y0137620D01*
X0191245Y0138204D01*
X0191573Y0138847D01*
X0191796Y0139533D01*
X0191909Y0140245D01*
X0191909Y0140606D01*
X0184725Y0140606D01*
X0184725Y0140606D01*
X0191909Y0140606D01*
X0191909Y0140967D01*
X0191796Y0141680D01*
X0191573Y0142366D01*
X0191245Y0143009D01*
X0190821Y0143593D01*
X0190311Y0144103D01*
X0189727Y0144527D01*
X0189084Y0144855D01*
X0188398Y0145078D01*
X0187685Y0145191D01*
X0184724Y0145191D01*
X0184724Y0140606D01*
X0184724Y0140606D01*
X0184724Y0141253D02*
X0184724Y0141253D01*
X0184724Y0139286D02*
X0184724Y0139286D01*
X0184724Y0137319D02*
X0184724Y0137319D01*
X0178929Y0137319D02*
X0164071Y0137319D01*
X0164071Y0136172D02*
X0164071Y0141157D01*
X0159921Y0141157D01*
X0159921Y0134449D01*
X0160118Y0134449D01*
X0160118Y0130134D01*
X0158937Y0130134D01*
X0158937Y0134449D01*
X0159528Y0134449D01*
X0159528Y0141157D01*
X0159921Y0141157D01*
X0159921Y0141551D01*
X0164071Y0141551D01*
X0164071Y0146231D01*
X0185634Y0146231D01*
X0185641Y0146235D01*
X0188194Y0146235D01*
X0189801Y0146900D01*
X0191031Y0148130D01*
X0191696Y0149737D01*
X0191696Y0151476D01*
X0191031Y0153083D01*
X0189801Y0154312D01*
X0188194Y0154978D01*
X0186592Y0154978D01*
X0185634Y0155375D01*
X0164674Y0155375D01*
X0164191Y0156542D01*
X0164055Y0156678D01*
X0164055Y0157836D01*
X0163017Y0158874D01*
X0156825Y0158874D01*
X0156216Y0158265D01*
X0156216Y0161103D01*
X0155002Y0162316D01*
X0153851Y0163468D01*
X0109486Y0163468D01*
X0108286Y0162268D01*
X0107378Y0161360D01*
X0106676Y0162062D01*
X0102143Y0162062D01*
X0099409Y0159329D01*
X0096676Y0162062D01*
X0092143Y0162062D01*
X0088938Y0158857D01*
X0088938Y0154324D01*
X0091521Y0151741D01*
X0088725Y0148945D01*
X0088725Y0146606D01*
X0094394Y0146606D01*
X0094394Y0146575D01*
X0094425Y0146575D01*
X0094425Y0140906D01*
X0096764Y0140906D01*
X0099560Y0143702D01*
X0102143Y0141119D01*
X0106676Y0141119D01*
X0109409Y0143852D01*
X0112143Y0141119D01*
X0116676Y0141119D01*
X0117851Y0142294D01*
X0142598Y0142294D01*
X0142598Y0142058D01*
X0142357Y0141476D01*
X0142357Y0134933D01*
X0143053Y0133253D01*
X0143583Y0132724D01*
X0143583Y0132299D01*
X0122759Y0132299D01*
X0121746Y0131880D01*
X0120959Y0131092D01*
X0120183Y0130317D01*
X0119863Y0129543D01*
X0119030Y0129543D01*
X0118733Y0129246D01*
X0118620Y0129359D01*
X0118167Y0129621D01*
X0117663Y0129756D01*
X0115138Y0129756D01*
X0115138Y0125114D01*
X0114547Y0125114D01*
X0114547Y0124524D01*
X0110299Y0124524D01*
X0110299Y0121605D01*
X0110434Y0121100D01*
X0110696Y0120648D01*
X0110855Y0120488D01*
X0110696Y0120329D01*
X0110434Y0119876D01*
X0110299Y0119371D01*
X0110299Y0116453D01*
X0114547Y0116453D01*
X0114547Y0124524D01*
X0115138Y0124524D01*
X0115138Y0121094D01*
X0115138Y0116453D01*
X0114547Y0116453D01*
X0114547Y0115862D01*
X0110299Y0115862D01*
X0110299Y0112943D01*
X0110434Y0112439D01*
X0110438Y0112433D01*
X0108839Y0112433D01*
X0108839Y0107791D01*
X0108248Y0107791D01*
X0108248Y0107201D01*
X0104000Y0107201D01*
X0104000Y0104282D01*
X0104135Y0103777D01*
X0104396Y0103325D01*
X0104766Y0102956D01*
X0105218Y0102694D01*
X0105723Y0102559D01*
X0108248Y0102559D01*
X0108248Y0107201D01*
X0108839Y0107201D01*
X0108839Y0102559D01*
X0111364Y0102559D01*
X0111868Y0102694D01*
X0112321Y0102956D01*
X0112434Y0103069D01*
X0112731Y0102772D01*
X0113465Y0102772D01*
X0113465Y0102109D01*
X0113071Y0102109D01*
X0113071Y0097625D01*
X0113071Y0097625D01*
X0113071Y0102109D01*
X0111710Y0102109D01*
X0111205Y0101973D01*
X0111071Y0101896D01*
X0101788Y0101896D01*
X0100750Y0100858D01*
X0100750Y0094620D01*
X0094512Y0094620D01*
X0093474Y0093582D01*
X0093474Y0089507D01*
X0083306Y0099675D01*
X0081923Y0101058D01*
X0079428Y0101058D01*
X0078945Y0101541D01*
X0077712Y0102052D01*
X0076377Y0102052D01*
X0075143Y0101541D01*
X0074199Y0100597D01*
X0073688Y0099364D01*
X0073688Y0098029D01*
X0074199Y0096795D01*
X0075143Y0095851D01*
X0076377Y0095340D01*
X0076688Y0095340D01*
X0076688Y0094729D01*
X0077199Y0093495D01*
X0078143Y0092551D01*
X0079377Y0092040D01*
X0080059Y0092040D01*
X0090194Y0081905D01*
X0076417Y0081905D01*
X0072126Y0086197D01*
X0072126Y0089726D01*
X0071829Y0090023D01*
X0071942Y0090136D01*
X0072203Y0090588D01*
X0072339Y0091093D01*
X0072339Y0093618D01*
X0067697Y0093618D01*
X0067697Y0094209D01*
X0067106Y0094209D01*
X0067106Y0097244D01*
X0067598Y0097244D01*
X0067598Y0102181D01*
X0063055Y0102181D01*
X0063055Y0098967D01*
X0063190Y0098462D01*
X0063375Y0098143D01*
X0063230Y0098060D01*
X0062921Y0097750D01*
X0062427Y0098244D01*
X0061838Y0098244D01*
X0061839Y0098247D01*
X0062087Y0098495D01*
X0062087Y0099484D01*
X0062839Y0102495D01*
X0062513Y0104688D01*
X0062087Y0105399D01*
X0062087Y0107049D01*
X0061049Y0108087D01*
X0059764Y0108087D01*
X0060301Y0108309D01*
X0061063Y0109071D01*
X0062230Y0109071D01*
X0062677Y0109518D01*
X0063124Y0109071D01*
X0067829Y0109071D01*
X0068566Y0108334D01*
X0069260Y0108334D01*
X0069295Y0108299D01*
X0068780Y0108299D01*
X0068780Y0103362D01*
X0073323Y0103362D01*
X0073323Y0106576D01*
X0073188Y0107081D01*
X0072926Y0107533D01*
X0072883Y0107577D01*
X0073545Y0107851D01*
X0074489Y0108795D01*
X0075000Y0110029D01*
X0075000Y0111364D01*
X0074489Y0112597D01*
X0073545Y0113541D01*
X0072447Y0113996D01*
X0073545Y0114451D01*
X0074489Y0115395D01*
X0075000Y0116629D01*
X0075000Y0117964D01*
X0074489Y0119197D01*
X0073545Y0120141D01*
X0072312Y0120652D01*
X0071629Y0120652D01*
X0070748Y0121533D01*
X0070748Y0123551D01*
X0076688Y0117611D01*
X0076688Y0116929D01*
X0077199Y0115695D01*
X0078143Y0114751D01*
X0079377Y0114240D01*
X0080712Y0114240D01*
X0081945Y0114751D01*
X0082889Y0115695D01*
X0083400Y0116929D01*
X0083400Y0118264D01*
X0082889Y0119497D01*
X0081945Y0120441D01*
X0080712Y0120952D01*
X0080029Y0120952D01*
X0070748Y0130233D01*
X0070748Y0134805D01*
X0069710Y0135843D01*
X0063124Y0135843D01*
X0062677Y0135395D01*
X0062230Y0135843D01*
X0055644Y0135843D01*
X0054606Y0134805D01*
X0054606Y0132299D01*
X0052137Y0132299D01*
X0052045Y0132522D01*
X0050703Y0133864D01*
X0048949Y0134591D01*
X0041051Y0134591D01*
X0039297Y0133864D01*
X0037955Y0132522D01*
X0037228Y0130768D01*
X0037228Y0128870D01*
X0037955Y0127116D01*
X0039297Y0125774D01*
X0041051Y0125047D01*
X0048949Y0125047D01*
X0050703Y0125774D01*
X0051717Y0126787D01*
X0055250Y0126787D01*
X0054606Y0126143D01*
X0054606Y0123638D01*
X0052680Y0123638D01*
X0051667Y0123218D01*
X0051508Y0123059D01*
X0050703Y0123864D01*
X0048949Y0124591D01*
X0041051Y0124591D01*
X0039297Y0123864D01*
X0037955Y0122522D01*
X0037228Y0120768D01*
X0037228Y0118870D01*
X0037955Y0117116D01*
X0039297Y0115774D01*
X0041051Y0115047D01*
X0048949Y0115047D01*
X0050703Y0115774D01*
X0052045Y0117116D01*
X0052137Y0117339D01*
X0052989Y0117339D01*
X0054002Y0117758D01*
X0054370Y0118126D01*
X0055250Y0118126D01*
X0055250Y0118126D01*
X0054606Y0117482D01*
X0054606Y0112614D01*
X0051953Y0112614D01*
X0050703Y0113864D01*
X0048949Y0114591D01*
X0041051Y0114591D01*
X0039297Y0113864D01*
X0037955Y0112522D01*
X0037228Y0110768D01*
X0037228Y0108870D01*
X0037955Y0107116D01*
X0039297Y0105774D01*
X0041051Y0105047D01*
X0043018Y0105047D01*
X0042404Y0104872D01*
X0042050Y0104591D01*
X0041051Y0104591D01*
X0039297Y0103864D01*
X0037955Y0102522D01*
X0037228Y0100768D01*
X0037228Y0098870D01*
X0037955Y0097116D01*
X0039297Y0095774D01*
X0041051Y0095047D01*
X0042050Y0095047D01*
X0042198Y0094899D01*
X0042927Y0094597D01*
X0042938Y0094591D01*
X0041051Y0094591D01*
X0039297Y0093864D01*
X0037955Y0092522D01*
X0037228Y0090768D01*
X0037228Y0088870D01*
X0037955Y0087116D01*
X0039297Y0085774D01*
X0041051Y0085047D01*
X0048949Y0085047D01*
X0050060Y0085507D01*
X0051120Y0084447D01*
X0049749Y0085015D01*
X0040172Y0085015D01*
X0038161Y0084182D01*
X0036622Y0082643D01*
X0035789Y0080632D01*
X0035789Y0078455D01*
X0036622Y0076444D01*
X0038161Y0074905D01*
X0040172Y0074072D01*
X0046535Y0074072D01*
X0050092Y0070514D01*
X0053242Y0067364D01*
X0054255Y0066945D01*
X0094396Y0066945D01*
X0094512Y0066829D01*
X0100750Y0066829D01*
X0100750Y0060591D01*
X0101788Y0059553D01*
X0107921Y0059553D01*
X0108055Y0059475D01*
X0108560Y0059340D01*
X0109921Y0059340D01*
X0109921Y0063824D01*
X0109921Y0063824D01*
X0109921Y0059340D01*
X0111282Y0059340D01*
X0111787Y0059475D01*
X0111921Y0059553D01*
X0114221Y0059553D01*
X0114355Y0059475D01*
X0114859Y0059340D01*
X0116220Y0059340D01*
X0116220Y0063824D01*
X0116221Y0063824D01*
X0116221Y0059340D01*
X0117582Y0059340D01*
X0118086Y0059475D01*
X0118220Y0059553D01*
X0119764Y0059553D01*
X0119764Y0059082D01*
X0115069Y0054387D01*
X0113725Y0054387D01*
X0112118Y0053722D01*
X0110888Y0052492D01*
X0110223Y0050885D01*
X0110223Y0049542D01*
X0109935Y0049254D01*
X0109160Y0048478D01*
X0108740Y0047466D01*
X0108740Y0038992D01*
X0108400Y0038992D01*
X0107362Y0037954D01*
X0107362Y0030581D01*
X0108400Y0029543D01*
X0114986Y0029543D01*
X0115283Y0029840D01*
X0115396Y0029727D01*
X0115848Y0029466D01*
X0116353Y0029331D01*
X0118878Y0029331D01*
X0118878Y0033972D01*
X0119469Y0033972D01*
X0119469Y0034563D01*
X0123717Y0034563D01*
X0123717Y0037482D01*
X0123581Y0037986D01*
X0123320Y0038439D01*
X0122951Y0038808D01*
X0122498Y0039069D01*
X0121994Y0039205D01*
X0119469Y0039205D01*
X0119469Y0034563D01*
X0118878Y0034563D01*
X0118878Y0039205D01*
X0116353Y0039205D01*
X0115848Y0039069D01*
X0115396Y0038808D01*
X0115283Y0038695D01*
X0114986Y0038992D01*
X0114252Y0038992D01*
X0114252Y0045644D01*
X0115464Y0045644D01*
X0117071Y0046310D01*
X0118301Y0047539D01*
X0118966Y0049146D01*
X0118966Y0050490D01*
X0124081Y0055605D01*
X0124094Y0055618D01*
X0124108Y0055605D01*
X0129223Y0050490D01*
X0129223Y0049146D01*
X0129888Y0047539D01*
X0131118Y0046310D01*
X0132725Y0045644D01*
X0133937Y0045644D01*
X0133937Y0038992D01*
X0133203Y0038992D01*
X0132906Y0038695D01*
X0132793Y0038808D01*
X0132341Y0039069D01*
X0131836Y0039205D01*
X0129311Y0039205D01*
X0129311Y0034563D01*
X0128720Y0034563D01*
X0128720Y0033972D01*
X0129311Y0033972D01*
X0129311Y0029331D01*
X0131836Y0029331D01*
X0132341Y0029466D01*
X0132793Y0029727D01*
X0132906Y0029840D01*
X0133203Y0029543D01*
X0139789Y0029543D01*
X0140827Y0030581D01*
X0140827Y0037954D01*
X0139789Y0038992D01*
X0139449Y0038992D01*
X0139449Y0047466D01*
X0139029Y0048478D01*
X0138254Y0049254D01*
X0137966Y0049542D01*
X0137966Y0050885D01*
X0137301Y0052492D01*
X0136071Y0053722D01*
X0134464Y0054387D01*
X0133120Y0054387D01*
X0128425Y0059082D01*
X0128425Y0060475D01*
X0128541Y0060591D01*
X0128541Y0066829D01*
X0134780Y0066829D01*
X0135817Y0067867D01*
X0135817Y0076534D01*
X0138166Y0076534D01*
X0156378Y0058322D01*
X0156378Y0055528D01*
X0162677Y0049228D01*
X0165471Y0049228D01*
X0183582Y0031118D01*
X0184966Y0029734D01*
X0242616Y0029734D01*
X0242583Y0029608D01*
X0242583Y0026689D01*
X0246831Y0026689D01*
X0246831Y0026098D01*
X0247421Y0026098D01*
X0247421Y0021457D01*
X0249946Y0021457D01*
X0250451Y0021592D01*
X0250903Y0021853D01*
X0251016Y0021966D01*
X0251313Y0021669D01*
X0257899Y0021669D01*
X0258937Y0022707D01*
X0258937Y0023638D01*
X0260822Y0023638D01*
X0262048Y0022412D01*
X0263655Y0021746D01*
X0269764Y0021746D01*
X0269764Y0021669D01*
X0275276Y0016157D01*
X0343780Y0016157D01*
X0387087Y0059465D01*
X0387087Y0142707D01*
X0393778Y0142707D01*
X0393778Y0141312D01*
X0394443Y0139705D01*
X0395673Y0138475D01*
X0397280Y0137809D01*
X0404219Y0137809D01*
X0405826Y0138475D01*
X0407056Y0139705D01*
X0407721Y0141312D01*
X0407721Y0143051D01*
X0407056Y0144657D01*
X0405826Y0145887D01*
X0404219Y0146553D01*
X0400190Y0146553D01*
X0400694Y0147770D01*
X0400694Y0159809D01*
X0400181Y0161048D01*
X0399233Y0161997D01*
X0398237Y0162992D01*
X0418173Y0162992D01*
X0418173Y0126591D01*
X0410959Y0126591D01*
X0409921Y0125553D01*
X0409921Y0125213D01*
X0406501Y0125213D01*
X0405826Y0125887D01*
X0404219Y0126553D01*
X0397280Y0126553D01*
X0395673Y0125887D01*
X0394443Y0124657D01*
X0393778Y0123051D01*
X0393778Y0121312D01*
X0394443Y0119705D01*
X0395673Y0118475D01*
X0397280Y0117809D01*
X0404219Y0117809D01*
X0405826Y0118475D01*
X0407052Y0119701D01*
X0409921Y0119701D01*
X0409921Y0118967D01*
X0410369Y0118520D01*
X0409921Y0118072D01*
X0409921Y0111487D01*
X0410959Y0110449D01*
X0411274Y0110449D01*
X0411274Y0107496D01*
X0411156Y0107496D01*
X0410859Y0107199D01*
X0410746Y0107312D01*
X0410293Y0107573D01*
X0409789Y0107709D01*
X0407264Y0107709D01*
X0407264Y0103067D01*
X0406673Y0103067D01*
X0406673Y0102476D01*
X0407264Y0102476D01*
X0407264Y0097835D01*
X0409789Y0097835D01*
X0410293Y0097970D01*
X0410746Y0098231D01*
X0410859Y0098344D01*
X0411156Y0098047D01*
X0411274Y0098047D01*
X0411274Y0086734D01*
X0406160Y0086734D01*
X0405826Y0087068D01*
X0404219Y0087734D01*
X0397280Y0087734D01*
X0395673Y0087068D01*
X0394443Y0085839D01*
X0393778Y0084232D01*
X0393778Y0082493D01*
X0394443Y0080886D01*
X0395673Y0079656D01*
X0397280Y0078991D01*
X0404219Y0078991D01*
X0405826Y0079656D01*
X0406160Y0079991D01*
X0409921Y0079991D01*
X0409921Y0078809D01*
X0410369Y0078362D01*
X0409921Y0077915D01*
X0409921Y0077181D01*
X0406223Y0077181D01*
X0405863Y0077032D01*
X0405826Y0077068D01*
X0404219Y0077734D01*
X0397280Y0077734D01*
X0395673Y0077068D01*
X0394443Y0075839D01*
X0393778Y0074232D01*
X0393778Y0072493D01*
X0394443Y0070886D01*
X0395673Y0069656D01*
X0397280Y0068991D01*
X0404219Y0068991D01*
X0405826Y0069656D01*
X0407056Y0070886D01*
X0407162Y0071143D01*
X0407545Y0071301D01*
X0407913Y0071669D01*
X0409921Y0071669D01*
X0409921Y0071329D01*
X0410959Y0070291D01*
X0418173Y0070291D01*
X0418173Y0009480D01*
X0029228Y0009480D01*
X0029228Y0186614D01*
X0187840Y0186614D01*
X0205984Y0168469D01*
X0205984Y0133480D01*
X0165039Y0133480D01*
X0164661Y0133102D01*
X0164661Y0133348D01*
X0164526Y0133852D01*
X0164265Y0134305D01*
X0163896Y0134674D01*
X0163443Y0134936D01*
X0163405Y0134946D01*
X0163674Y0135215D01*
X0163936Y0135667D01*
X0164071Y0136172D01*
X0163754Y0135352D02*
X0205984Y0135352D01*
X0205984Y0137319D02*
X0190520Y0137319D01*
X0191716Y0139286D02*
X0205984Y0139286D01*
X0205984Y0141253D02*
X0191863Y0141253D01*
X0191092Y0143220D02*
X0205984Y0143220D01*
X0205984Y0145187D02*
X0187707Y0145187D01*
X0184724Y0145187D02*
X0184724Y0145187D01*
X0181742Y0145187D02*
X0164071Y0145187D01*
X0164071Y0143220D02*
X0178357Y0143220D01*
X0177585Y0141253D02*
X0159921Y0141253D01*
X0159724Y0141354D02*
X0159528Y0141354D01*
X0159528Y0140567D01*
X0164071Y0139286D02*
X0177733Y0139286D01*
X0184724Y0143220D02*
X0184724Y0143220D01*
X0190055Y0147154D02*
X0205984Y0147154D01*
X0205984Y0149121D02*
X0191441Y0149121D01*
X0191696Y0151088D02*
X0205984Y0151088D01*
X0205984Y0153055D02*
X0191042Y0153055D01*
X0186485Y0155022D02*
X0205984Y0155022D01*
X0205984Y0156989D02*
X0164055Y0156989D01*
X0160315Y0153953D02*
X0159921Y0153953D01*
X0148504Y0153953D02*
X0148110Y0153953D01*
X0148504Y0148441D02*
X0147717Y0147654D01*
X0146929Y0147654D02*
X0146142Y0146866D01*
X0146929Y0147654D02*
X0146929Y0141354D01*
X0146732Y0141354D01*
X0146929Y0140567D01*
X0142357Y0141253D02*
X0116810Y0141253D01*
X0112009Y0141253D02*
X0106810Y0141253D01*
X0108777Y0143220D02*
X0110042Y0143220D01*
X0114409Y0146591D02*
X0116220Y0146866D01*
X0128944Y0140396D02*
X0117844Y0129296D01*
X0114646Y0127969D01*
X0114547Y0127484D02*
X0115138Y0127484D01*
X0115138Y0129451D02*
X0114547Y0129451D01*
X0114547Y0129756D02*
X0112022Y0129756D01*
X0111518Y0129621D01*
X0111065Y0129359D01*
X0110696Y0128990D01*
X0110434Y0128538D01*
X0110299Y0128033D01*
X0110299Y0125114D01*
X0114547Y0125114D01*
X0114547Y0129756D01*
X0111224Y0129451D02*
X0071530Y0129451D01*
X0070748Y0131418D02*
X0121284Y0131418D01*
X0123307Y0129543D02*
X0122520Y0128756D01*
X0122520Y0125606D01*
X0122323Y0124819D01*
X0122520Y0124819D01*
X0122520Y0116157D01*
X0122323Y0116157D01*
X0122520Y0115370D01*
X0122520Y0097624D01*
X0122520Y0092225D01*
X0119681Y0089386D01*
X0116220Y0089386D01*
X0113071Y0086236D01*
X0113071Y0068126D01*
X0118583Y0068126D01*
X0119370Y0067339D01*
X0119370Y0063824D01*
X0116220Y0063824D02*
X0116220Y0060252D01*
X0115433Y0059465D01*
X0109921Y0059465D01*
X0109744Y0059283D01*
X0103710Y0053249D01*
X0103710Y0032767D01*
X0107377Y0029101D01*
X0114849Y0029101D01*
X0119044Y0033296D01*
X0119173Y0034268D01*
X0119344Y0034196D01*
X0128944Y0034196D01*
X0129016Y0034268D01*
X0129244Y0033296D01*
X0136144Y0026396D01*
X0246844Y0026396D01*
X0247126Y0026394D01*
X0246657Y0025496D01*
X0258132Y0014021D01*
X0341567Y0014021D01*
X0390543Y0062996D01*
X0390844Y0062996D01*
X0391024Y0063402D01*
X0398110Y0063402D01*
X0398150Y0063362D01*
X0398150Y0063362D01*
X0407934Y0063362D01*
X0407934Y0063001D01*
X0407821Y0062289D01*
X0407598Y0061602D01*
X0407270Y0060960D01*
X0406846Y0060376D01*
X0406336Y0059866D01*
X0405752Y0059441D01*
X0405109Y0059114D01*
X0404423Y0058891D01*
X0403710Y0058778D01*
X0398150Y0058778D01*
X0398150Y0063362D01*
X0398150Y0063362D01*
X0407934Y0063362D01*
X0407934Y0063723D01*
X0407821Y0064436D01*
X0407598Y0065122D01*
X0407270Y0065765D01*
X0406846Y0066349D01*
X0406336Y0066859D01*
X0405752Y0067283D01*
X0405109Y0067611D01*
X0404423Y0067834D01*
X0403710Y0067946D01*
X0398150Y0067946D01*
X0398150Y0063362D01*
X0398150Y0058778D01*
X0397789Y0058778D01*
X0397076Y0058891D01*
X0396390Y0059114D01*
X0395747Y0059441D01*
X0395163Y0059866D01*
X0394653Y0060376D01*
X0394229Y0060960D01*
X0393901Y0061602D01*
X0393678Y0062289D01*
X0393565Y0063001D01*
X0393565Y0063362D01*
X0398149Y0063362D01*
X0398149Y0063362D01*
X0393565Y0063362D01*
X0393565Y0063723D01*
X0393678Y0064436D01*
X0393901Y0065122D01*
X0394229Y0065765D01*
X0394653Y0066349D01*
X0395163Y0066859D01*
X0395747Y0067283D01*
X0396390Y0067611D01*
X0397076Y0067834D01*
X0397789Y0067946D01*
X0398150Y0067946D01*
X0398150Y0063362D01*
X0398150Y0063362D01*
X0398150Y0062572D02*
X0398150Y0062572D01*
X0398150Y0060605D02*
X0398150Y0060605D01*
X0394486Y0060605D02*
X0387087Y0060605D01*
X0387087Y0062572D02*
X0393633Y0062572D01*
X0393712Y0064540D02*
X0387087Y0064540D01*
X0387087Y0066507D02*
X0394811Y0066507D01*
X0398150Y0066507D02*
X0398150Y0066507D01*
X0398150Y0064540D02*
X0398150Y0064540D01*
X0391024Y0063402D02*
X0391024Y0095685D01*
X0398110Y0102772D01*
X0406969Y0102772D01*
X0406673Y0103067D02*
X0402425Y0103067D01*
X0402425Y0105986D01*
X0402560Y0106490D01*
X0402822Y0106943D01*
X0403191Y0107312D01*
X0403644Y0107573D01*
X0404148Y0107709D01*
X0406673Y0107709D01*
X0406673Y0103067D01*
X0406673Y0102476D02*
X0402425Y0102476D01*
X0402425Y0099558D01*
X0402560Y0099053D01*
X0402822Y0098601D01*
X0403191Y0098231D01*
X0403644Y0097970D01*
X0404148Y0097835D01*
X0406673Y0097835D01*
X0406673Y0102476D01*
X0406673Y0101913D02*
X0407264Y0101913D01*
X0407264Y0103880D02*
X0406673Y0103880D01*
X0406673Y0105847D02*
X0407264Y0105847D01*
X0405826Y0108475D02*
X0407056Y0109705D01*
X0407721Y0111312D01*
X0407721Y0113051D01*
X0407056Y0114657D01*
X0405826Y0115887D01*
X0404219Y0116553D01*
X0397280Y0116553D01*
X0395673Y0115887D01*
X0394443Y0114657D01*
X0393778Y0113051D01*
X0393778Y0111312D01*
X0394443Y0109705D01*
X0395673Y0108475D01*
X0397280Y0107809D01*
X0404219Y0107809D01*
X0405826Y0108475D01*
X0404230Y0107814D02*
X0411274Y0107814D01*
X0411274Y0109781D02*
X0407087Y0109781D01*
X0407721Y0111748D02*
X0409921Y0111748D01*
X0409921Y0113715D02*
X0407446Y0113715D01*
X0406031Y0115682D02*
X0409921Y0115682D01*
X0409921Y0117649D02*
X0387087Y0117649D01*
X0387087Y0119616D02*
X0394532Y0119616D01*
X0393778Y0121583D02*
X0387087Y0121583D01*
X0387087Y0123550D02*
X0393985Y0123550D01*
X0395303Y0125517D02*
X0387087Y0125517D01*
X0387087Y0127484D02*
X0418173Y0127484D01*
X0418173Y0129451D02*
X0406802Y0129451D01*
X0407056Y0129705D02*
X0407721Y0131312D01*
X0407721Y0133051D01*
X0407056Y0134657D01*
X0405826Y0135887D01*
X0404219Y0136553D01*
X0397280Y0136553D01*
X0395673Y0135887D01*
X0394443Y0134657D01*
X0393778Y0133051D01*
X0393778Y0131312D01*
X0394443Y0129705D01*
X0395673Y0128475D01*
X0397280Y0127809D01*
X0404219Y0127809D01*
X0405826Y0128475D01*
X0407056Y0129705D01*
X0407721Y0131418D02*
X0418173Y0131418D01*
X0418173Y0133385D02*
X0407583Y0133385D01*
X0406361Y0135352D02*
X0418173Y0135352D01*
X0418173Y0137319D02*
X0387087Y0137319D01*
X0387087Y0135352D02*
X0395138Y0135352D01*
X0393916Y0133385D02*
X0387087Y0133385D01*
X0387087Y0131418D02*
X0393778Y0131418D01*
X0394697Y0129451D02*
X0387087Y0129451D01*
X0374488Y0129408D02*
X0374488Y0135055D01*
X0368189Y0141354D01*
X0368150Y0142181D01*
X0368189Y0142929D01*
X0368189Y0157102D01*
X0360315Y0157102D01*
X0357165Y0160252D01*
X0349291Y0160252D01*
X0349291Y0160055D01*
X0348504Y0160252D01*
X0349291Y0152575D02*
X0348504Y0152378D01*
X0347717Y0152378D01*
X0349291Y0152378D02*
X0349291Y0152575D01*
X0363465Y0152378D02*
X0363858Y0152575D01*
X0370551Y0157102D02*
X0371339Y0156315D01*
X0374095Y0156315D01*
X0387683Y0156315D01*
X0391024Y0152974D01*
X0391024Y0151591D01*
X0390827Y0151591D01*
X0383346Y0151591D02*
X0383150Y0150803D01*
X0383150Y0151591D02*
X0383346Y0151591D01*
X0383150Y0151591D02*
X0383150Y0152378D01*
X0374488Y0152378D02*
X0374095Y0152575D01*
X0370551Y0157102D02*
X0368189Y0157102D01*
X0374095Y0160055D02*
X0374488Y0160252D01*
X0398339Y0162890D02*
X0418173Y0162890D01*
X0418173Y0160923D02*
X0400233Y0160923D01*
X0400694Y0158956D02*
X0418173Y0158956D01*
X0418173Y0156989D02*
X0400694Y0156989D01*
X0400694Y0155022D02*
X0418173Y0155022D01*
X0418173Y0153055D02*
X0400694Y0153055D01*
X0400694Y0151088D02*
X0418173Y0151088D01*
X0418173Y0149121D02*
X0400694Y0149121D01*
X0400439Y0147154D02*
X0418173Y0147154D01*
X0418173Y0145187D02*
X0406526Y0145187D01*
X0407651Y0143220D02*
X0418173Y0143220D01*
X0418173Y0141253D02*
X0407697Y0141253D01*
X0406637Y0139286D02*
X0418173Y0139286D01*
X0395354Y0146472D02*
X0394961Y0146079D01*
X0393802Y0141253D02*
X0387087Y0141253D01*
X0387087Y0139286D02*
X0394862Y0139286D01*
X0374488Y0129408D02*
X0372261Y0127181D01*
X0361102Y0127181D01*
X0357953Y0124031D01*
X0352441Y0124031D01*
X0347717Y0119307D01*
X0347717Y0111433D01*
X0347913Y0111433D01*
X0355394Y0111433D02*
X0355591Y0111433D01*
X0355591Y0112220D01*
X0366614Y0112220D02*
X0368150Y0112181D01*
X0367402Y0112220D01*
X0368150Y0122181D02*
X0368189Y0122457D01*
X0355591Y0127969D02*
X0354803Y0127181D01*
X0339843Y0127181D01*
X0335118Y0122457D01*
X0335118Y0115370D01*
X0333543Y0113795D01*
X0333150Y0113402D01*
X0331969Y0113008D01*
X0325669Y0113008D01*
X0324882Y0112220D01*
X0320551Y0112220D01*
X0320945Y0107496D02*
X0320551Y0107102D01*
X0320945Y0107496D02*
X0324882Y0107496D01*
X0325669Y0106709D01*
X0331969Y0106709D01*
X0331969Y0106512D01*
X0331969Y0099031D02*
X0331969Y0098835D01*
X0330394Y0098835D01*
X0330394Y0093323D01*
X0328819Y0091748D01*
X0328819Y0085449D01*
X0330394Y0083874D01*
X0330394Y0080724D01*
X0331969Y0079150D01*
X0334331Y0079150D01*
X0331969Y0078362D01*
X0328031Y0074425D01*
X0320945Y0074425D01*
X0317795Y0071276D01*
X0317795Y0064189D01*
X0317992Y0064189D01*
X0325472Y0064189D02*
X0325669Y0063402D01*
X0325669Y0064189D02*
X0325472Y0064189D01*
X0334331Y0068913D02*
X0334331Y0069150D01*
X0341417Y0078362D02*
X0346142Y0073638D01*
X0367402Y0073638D01*
X0368150Y0073362D01*
X0367402Y0083087D02*
X0353228Y0083087D01*
X0353228Y0083283D01*
X0359344Y0090596D02*
X0362044Y0087896D01*
X0369844Y0087896D01*
X0372544Y0085196D01*
X0372544Y0052842D01*
X0341298Y0021596D01*
X0277560Y0021596D01*
X0274144Y0025012D01*
X0274144Y0054792D01*
X0261740Y0067196D01*
X0241284Y0067196D01*
X0232898Y0075582D01*
X0232898Y0079794D01*
X0231969Y0080724D01*
X0224094Y0081512D01*
X0220945Y0076645D01*
X0195748Y0072063D02*
X0195748Y0093323D01*
X0195945Y0093520D01*
X0204409Y0093520D01*
X0206181Y0091748D01*
X0209921Y0091748D01*
X0213858Y0091748D01*
X0217008Y0088598D01*
X0220945Y0088598D01*
X0213858Y0091748D02*
X0213858Y0105921D01*
X0204409Y0115370D01*
X0204409Y0117732D01*
X0201457Y0120685D01*
X0195748Y0120685D01*
X0195748Y0120882D01*
X0184724Y0120882D01*
X0184724Y0120606D01*
X0164944Y0133385D02*
X0164651Y0133385D01*
X0160118Y0133385D02*
X0158937Y0133385D01*
X0158937Y0131418D02*
X0160118Y0131418D01*
X0159921Y0135352D02*
X0159528Y0135352D01*
X0159528Y0137319D02*
X0159921Y0137319D01*
X0148504Y0135055D02*
X0147717Y0135055D01*
X0142999Y0133385D02*
X0070748Y0133385D01*
X0070201Y0135352D02*
X0142357Y0135352D01*
X0142357Y0137319D02*
X0052129Y0137319D01*
X0052045Y0137116D02*
X0052772Y0138870D01*
X0052772Y0140768D01*
X0052045Y0142522D01*
X0050703Y0143864D01*
X0048949Y0144591D01*
X0041051Y0144591D01*
X0039297Y0143864D01*
X0037955Y0142522D01*
X0037228Y0140768D01*
X0037228Y0138870D01*
X0037955Y0137116D01*
X0039297Y0135774D01*
X0041051Y0135047D01*
X0048949Y0135047D01*
X0050703Y0135774D01*
X0052045Y0137116D01*
X0052772Y0139286D02*
X0142357Y0139286D01*
X0148504Y0129543D02*
X0123307Y0129543D01*
X0118938Y0129451D02*
X0118461Y0129451D01*
X0115138Y0125517D02*
X0114547Y0125517D01*
X0114646Y0124819D02*
X0114843Y0124819D01*
X0115138Y0123550D02*
X0114547Y0123550D01*
X0114547Y0121583D02*
X0115138Y0121583D01*
X0115138Y0119616D02*
X0114547Y0119616D01*
X0114547Y0117649D02*
X0115138Y0117649D01*
X0114646Y0116945D02*
X0114843Y0116157D01*
X0114646Y0116157D01*
X0114547Y0115862D02*
X0115138Y0115862D01*
X0115138Y0112220D01*
X0114547Y0112220D01*
X0114547Y0115862D01*
X0114547Y0115682D02*
X0115138Y0115682D01*
X0114646Y0115370D02*
X0113858Y0115370D01*
X0114547Y0113715D02*
X0115138Y0113715D01*
X0110299Y0113715D02*
X0073125Y0113715D01*
X0074608Y0115682D02*
X0077212Y0115682D01*
X0076651Y0117649D02*
X0075000Y0117649D01*
X0074684Y0119616D02*
X0074070Y0119616D01*
X0072717Y0121583D02*
X0070748Y0121583D01*
X0070748Y0123550D02*
X0070750Y0123550D01*
X0075464Y0125517D02*
X0110299Y0125517D01*
X0110299Y0127484D02*
X0073497Y0127484D01*
X0077431Y0123550D02*
X0110299Y0123550D01*
X0110305Y0121583D02*
X0079398Y0121583D01*
X0082770Y0119616D02*
X0110365Y0119616D01*
X0110299Y0117649D02*
X0083400Y0117649D01*
X0082876Y0115682D02*
X0110299Y0115682D01*
X0108248Y0112433D02*
X0105723Y0112433D01*
X0105218Y0112298D01*
X0104766Y0112037D01*
X0104396Y0111667D01*
X0104135Y0111215D01*
X0104000Y0110710D01*
X0104000Y0107791D01*
X0108248Y0107791D01*
X0108248Y0112433D01*
X0108248Y0111748D02*
X0108839Y0111748D01*
X0108839Y0109781D02*
X0108248Y0109781D01*
X0108248Y0107814D02*
X0108839Y0107814D01*
X0108543Y0107496D02*
X0107559Y0106709D01*
X0076850Y0106709D01*
X0074488Y0104346D01*
X0068189Y0104346D01*
X0068189Y0102772D01*
X0068189Y0094898D01*
X0067402Y0094110D01*
X0067402Y0093913D01*
X0067697Y0094045D02*
X0076971Y0094045D01*
X0074982Y0096012D02*
X0072339Y0096012D01*
X0072339Y0096734D02*
X0072203Y0097238D01*
X0072118Y0097387D01*
X0072557Y0097641D01*
X0072926Y0098010D01*
X0073188Y0098462D01*
X0073323Y0098967D01*
X0073323Y0102181D01*
X0068780Y0102181D01*
X0068780Y0103362D01*
X0067598Y0103362D01*
X0067598Y0102181D01*
X0068780Y0102181D01*
X0068780Y0098457D01*
X0067697Y0098457D01*
X0067697Y0094209D01*
X0072339Y0094209D01*
X0072339Y0096734D01*
X0072895Y0097979D02*
X0073709Y0097979D01*
X0073929Y0099946D02*
X0073323Y0099946D01*
X0073323Y0101913D02*
X0076041Y0101913D01*
X0078048Y0101913D02*
X0111100Y0101913D01*
X0110709Y0103559D02*
X0109134Y0103559D01*
X0108346Y0104346D01*
X0108346Y0107496D01*
X0108543Y0107496D01*
X0108248Y0105847D02*
X0108839Y0105847D01*
X0108839Y0103880D02*
X0108248Y0103880D01*
X0110709Y0103559D02*
X0113071Y0101197D01*
X0113071Y0097624D01*
X0113071Y0093140D01*
X0114432Y0093140D01*
X0114937Y0093275D01*
X0115071Y0093353D01*
X0119750Y0093353D01*
X0118539Y0092142D01*
X0115672Y0092142D01*
X0114659Y0091722D01*
X0111510Y0088573D01*
X0110735Y0087797D01*
X0110315Y0086784D01*
X0110315Y0068309D01*
X0109921Y0068309D01*
X0108560Y0068309D01*
X0108055Y0068173D01*
X0107921Y0068096D01*
X0102017Y0068096D01*
X0102017Y0069606D01*
X0102177Y0069540D01*
X0103512Y0069540D01*
X0104745Y0070051D01*
X0105689Y0070995D01*
X0106200Y0072229D01*
X0106200Y0072540D01*
X0107112Y0072540D01*
X0108345Y0073051D01*
X0109289Y0073995D01*
X0109800Y0075229D01*
X0109800Y0076564D01*
X0109289Y0077797D01*
X0108345Y0078741D01*
X0107112Y0079252D01*
X0105777Y0079252D01*
X0104543Y0078741D01*
X0104060Y0078258D01*
X0102017Y0078258D01*
X0102017Y0093353D01*
X0111071Y0093353D01*
X0111205Y0093275D01*
X0111710Y0093140D01*
X0113071Y0093140D01*
X0113071Y0097624D01*
X0113071Y0097624D01*
X0113071Y0090173D01*
X0109921Y0087024D01*
X0109921Y0063824D01*
X0109921Y0059465D01*
X0109744Y0059283D02*
X0109744Y0059283D01*
X0109921Y0060605D02*
X0109921Y0060605D01*
X0109921Y0062572D02*
X0109921Y0062572D01*
X0109921Y0063825D02*
X0109921Y0068309D01*
X0109921Y0063825D01*
X0109921Y0063825D01*
X0109921Y0064540D02*
X0109921Y0064540D01*
X0109921Y0066507D02*
X0109921Y0066507D01*
X0110315Y0068474D02*
X0102017Y0068474D01*
X0100750Y0066507D02*
X0029228Y0066507D01*
X0029228Y0068474D02*
X0052133Y0068474D01*
X0050166Y0070441D02*
X0029228Y0070441D01*
X0029228Y0072408D02*
X0048199Y0072408D01*
X0051654Y0072850D02*
X0044961Y0079543D01*
X0036724Y0076342D02*
X0029228Y0076342D01*
X0029228Y0078309D02*
X0035850Y0078309D01*
X0035789Y0080276D02*
X0029228Y0080276D01*
X0029228Y0082243D02*
X0036456Y0082243D01*
X0038228Y0084210D02*
X0029228Y0084210D01*
X0029228Y0086177D02*
X0038894Y0086177D01*
X0037529Y0088144D02*
X0029228Y0088144D01*
X0029228Y0090111D02*
X0037228Y0090111D01*
X0037771Y0092078D02*
X0029228Y0092078D01*
X0029228Y0094045D02*
X0039733Y0094045D01*
X0039059Y0096012D02*
X0029228Y0096012D01*
X0029228Y0097979D02*
X0037597Y0097979D01*
X0037228Y0099946D02*
X0029228Y0099946D01*
X0029228Y0101913D02*
X0037703Y0101913D01*
X0039335Y0103880D02*
X0029228Y0103880D01*
X0029228Y0105847D02*
X0039224Y0105847D01*
X0037666Y0107814D02*
X0029228Y0107814D01*
X0029228Y0109781D02*
X0037228Y0109781D01*
X0037634Y0111748D02*
X0029228Y0111748D01*
X0029228Y0113715D02*
X0039148Y0113715D01*
X0039519Y0115682D02*
X0029228Y0115682D01*
X0029228Y0117649D02*
X0037734Y0117649D01*
X0037228Y0119616D02*
X0029228Y0119616D01*
X0029228Y0121583D02*
X0037566Y0121583D01*
X0038983Y0123550D02*
X0029228Y0123550D01*
X0029228Y0125517D02*
X0039917Y0125517D01*
X0037802Y0127484D02*
X0029228Y0127484D01*
X0029228Y0129451D02*
X0037228Y0129451D01*
X0037498Y0131418D02*
X0029228Y0131418D01*
X0029228Y0133385D02*
X0038818Y0133385D01*
X0040315Y0135352D02*
X0029228Y0135352D01*
X0029228Y0137319D02*
X0037871Y0137319D01*
X0037228Y0139286D02*
X0029228Y0139286D01*
X0029228Y0141253D02*
X0037429Y0141253D01*
X0038653Y0143220D02*
X0029228Y0143220D01*
X0029228Y0145187D02*
X0040126Y0145187D01*
X0040087Y0145200D02*
X0040833Y0144957D01*
X0041608Y0144835D01*
X0044984Y0144835D01*
X0044984Y0149803D01*
X0037016Y0149803D01*
X0037016Y0149427D01*
X0037138Y0148652D01*
X0037381Y0147906D01*
X0037737Y0147207D01*
X0038198Y0146572D01*
X0038753Y0146017D01*
X0039388Y0145556D01*
X0040087Y0145200D01*
X0037775Y0147154D02*
X0029228Y0147154D01*
X0029228Y0149121D02*
X0037064Y0149121D01*
X0037016Y0149835D02*
X0044984Y0149835D01*
X0044984Y0154803D01*
X0041608Y0154803D01*
X0040833Y0154680D01*
X0040087Y0154438D01*
X0039388Y0154082D01*
X0038753Y0153621D01*
X0038198Y0153066D01*
X0037737Y0152431D01*
X0037381Y0151732D01*
X0037138Y0150986D01*
X0037016Y0150211D01*
X0037016Y0149835D01*
X0037172Y0151088D02*
X0029228Y0151088D01*
X0029228Y0153055D02*
X0038190Y0153055D01*
X0039297Y0155774D02*
X0041051Y0155047D01*
X0048949Y0155047D01*
X0050703Y0155774D01*
X0052045Y0157116D01*
X0052772Y0158870D01*
X0052772Y0160768D01*
X0052045Y0162522D01*
X0050703Y0163864D01*
X0048949Y0164591D01*
X0041051Y0164591D01*
X0039297Y0163864D01*
X0037955Y0162522D01*
X0037228Y0160768D01*
X0037228Y0158870D01*
X0037955Y0157116D01*
X0039297Y0155774D01*
X0038082Y0156989D02*
X0029228Y0156989D01*
X0029228Y0155022D02*
X0088938Y0155022D01*
X0088938Y0156989D02*
X0051918Y0156989D01*
X0052772Y0158956D02*
X0089037Y0158956D01*
X0091004Y0160923D02*
X0052707Y0160923D01*
X0051677Y0162890D02*
X0108909Y0162890D01*
X0101004Y0160923D02*
X0097815Y0160923D01*
X0090207Y0153055D02*
X0051810Y0153055D01*
X0051802Y0153066D02*
X0051247Y0153621D01*
X0050612Y0154082D01*
X0049913Y0154438D01*
X0049167Y0154680D01*
X0048392Y0154803D01*
X0045016Y0154803D01*
X0045016Y0149835D01*
X0044984Y0149835D01*
X0044984Y0149803D01*
X0045016Y0149803D01*
X0045016Y0149835D01*
X0052984Y0149835D01*
X0052984Y0150211D01*
X0052862Y0150986D01*
X0052619Y0151732D01*
X0052263Y0152431D01*
X0051802Y0153066D01*
X0052828Y0151088D02*
X0090868Y0151088D01*
X0088901Y0149121D02*
X0052936Y0149121D01*
X0052984Y0149427D02*
X0052984Y0149803D01*
X0045016Y0149803D01*
X0045016Y0144835D01*
X0048392Y0144835D01*
X0049167Y0144957D01*
X0049913Y0145200D01*
X0050612Y0145556D01*
X0051247Y0146017D01*
X0051802Y0146572D01*
X0052263Y0147207D01*
X0052619Y0147906D01*
X0052862Y0148652D01*
X0052984Y0149427D01*
X0052225Y0147154D02*
X0088725Y0147154D01*
X0088725Y0146575D02*
X0088725Y0144236D01*
X0092055Y0140906D01*
X0094394Y0140906D01*
X0094394Y0146575D01*
X0088725Y0146575D01*
X0088725Y0145187D02*
X0049874Y0145187D01*
X0045016Y0145187D02*
X0044984Y0145187D01*
X0044984Y0147154D02*
X0045016Y0147154D01*
X0044984Y0149121D02*
X0045016Y0149121D01*
X0044984Y0151088D02*
X0045016Y0151088D01*
X0044984Y0153055D02*
X0045016Y0153055D01*
X0037228Y0158956D02*
X0029228Y0158956D01*
X0029228Y0160923D02*
X0037293Y0160923D01*
X0038323Y0162890D02*
X0029228Y0162890D01*
X0029228Y0164857D02*
X0205984Y0164857D01*
X0205984Y0162890D02*
X0154428Y0162890D01*
X0156216Y0160923D02*
X0205984Y0160923D01*
X0205984Y0158956D02*
X0156216Y0158956D01*
X0184724Y0150803D02*
X0184724Y0150606D01*
X0205984Y0166824D02*
X0029228Y0166824D01*
X0029228Y0168791D02*
X0205662Y0168791D01*
X0203695Y0170758D02*
X0029228Y0170758D01*
X0029228Y0172725D02*
X0201728Y0172725D01*
X0199761Y0174692D02*
X0029228Y0174692D01*
X0029228Y0176659D02*
X0197794Y0176659D01*
X0195827Y0178626D02*
X0029228Y0178626D01*
X0029228Y0180593D02*
X0193860Y0180593D01*
X0191893Y0182560D02*
X0029228Y0182560D01*
X0029228Y0184527D02*
X0189926Y0184527D01*
X0187959Y0186494D02*
X0029228Y0186494D01*
X0094394Y0145187D02*
X0094425Y0145187D01*
X0094394Y0143220D02*
X0094425Y0143220D01*
X0094394Y0141253D02*
X0094425Y0141253D01*
X0097111Y0141253D02*
X0102009Y0141253D01*
X0100042Y0143220D02*
X0099078Y0143220D01*
X0091708Y0141253D02*
X0052571Y0141253D01*
X0051347Y0143220D02*
X0089741Y0143220D01*
X0058937Y0131118D02*
X0058740Y0131118D01*
X0058740Y0129543D01*
X0045354Y0129543D01*
X0045000Y0129819D01*
X0050083Y0125517D02*
X0054606Y0125517D01*
X0055250Y0126787D02*
X0055250Y0126787D01*
X0052468Y0123550D02*
X0051017Y0123550D01*
X0053228Y0120882D02*
X0052441Y0120094D01*
X0045354Y0120094D01*
X0045000Y0119819D01*
X0050481Y0115682D02*
X0054606Y0115682D01*
X0054606Y0113715D02*
X0050852Y0113715D01*
X0053738Y0117649D02*
X0054773Y0117649D01*
X0053228Y0120882D02*
X0058740Y0120882D01*
X0058740Y0122457D01*
X0058937Y0122457D01*
X0058937Y0113795D02*
X0058740Y0113795D01*
X0058740Y0110646D01*
X0057165Y0110646D01*
X0056378Y0109858D01*
X0045354Y0109858D01*
X0045000Y0109819D01*
X0057165Y0102772D02*
X0057165Y0094898D01*
X0057953Y0094110D01*
X0058740Y0094110D01*
X0058740Y0093913D01*
X0062692Y0097979D02*
X0063149Y0097979D01*
X0063055Y0099946D02*
X0062202Y0099946D01*
X0062694Y0101913D02*
X0063055Y0101913D01*
X0063055Y0103362D02*
X0067598Y0103362D01*
X0067598Y0108299D01*
X0064778Y0108299D01*
X0064273Y0108164D01*
X0063821Y0107903D01*
X0063452Y0107533D01*
X0063190Y0107081D01*
X0063055Y0106576D01*
X0063055Y0103362D01*
X0063055Y0103880D02*
X0062633Y0103880D01*
X0063055Y0105847D02*
X0062087Y0105847D01*
X0061322Y0107814D02*
X0063732Y0107814D01*
X0067598Y0107814D02*
X0068780Y0107814D01*
X0068780Y0105847D02*
X0067598Y0105847D01*
X0067598Y0103880D02*
X0068780Y0103880D01*
X0068780Y0101913D02*
X0067598Y0101913D01*
X0067598Y0099946D02*
X0068780Y0099946D01*
X0067697Y0097979D02*
X0067598Y0097979D01*
X0067697Y0096012D02*
X0067106Y0096012D01*
X0072339Y0092078D02*
X0079286Y0092078D01*
X0081989Y0090111D02*
X0071917Y0090111D01*
X0072126Y0088144D02*
X0083956Y0088144D01*
X0085923Y0086177D02*
X0072146Y0086177D01*
X0074113Y0084210D02*
X0087890Y0084210D01*
X0089857Y0082243D02*
X0076080Y0082243D01*
X0075276Y0079150D02*
X0068189Y0086236D01*
X0067402Y0086433D01*
X0067402Y0086236D01*
X0059528Y0086236D01*
X0058740Y0086433D01*
X0058740Y0086236D01*
X0053228Y0086236D01*
X0049291Y0090173D01*
X0045354Y0090173D01*
X0045000Y0089819D01*
X0073323Y0103880D02*
X0104108Y0103880D01*
X0104000Y0105847D02*
X0073323Y0105847D01*
X0073455Y0107814D02*
X0104000Y0107814D01*
X0104000Y0109781D02*
X0074897Y0109781D01*
X0074841Y0111748D02*
X0104477Y0111748D01*
X0116024Y0107496D02*
X0116220Y0107496D01*
X0116220Y0097624D01*
X0113071Y0097979D02*
X0113071Y0097979D01*
X0113071Y0099946D02*
X0113071Y0099946D01*
X0113071Y0101913D02*
X0113071Y0101913D01*
X0113071Y0096012D02*
X0113071Y0096012D01*
X0113071Y0094045D02*
X0113071Y0094045D01*
X0115518Y0092078D02*
X0102017Y0092078D01*
X0102017Y0090111D02*
X0113048Y0090111D01*
X0111081Y0088144D02*
X0102017Y0088144D01*
X0102017Y0086177D02*
X0110315Y0086177D01*
X0110315Y0084210D02*
X0102017Y0084210D01*
X0102017Y0082243D02*
X0110315Y0082243D01*
X0110315Y0080276D02*
X0102017Y0080276D01*
X0097746Y0079150D02*
X0075276Y0079150D01*
X0054803Y0069701D02*
X0051654Y0072850D01*
X0054803Y0069701D02*
X0097746Y0069701D01*
X0105135Y0070441D02*
X0110315Y0070441D01*
X0110315Y0072408D02*
X0106200Y0072408D01*
X0109446Y0074375D02*
X0110315Y0074375D01*
X0110315Y0076342D02*
X0109800Y0076342D01*
X0110315Y0078309D02*
X0108777Y0078309D01*
X0104111Y0078309D02*
X0102017Y0078309D01*
X0113071Y0068126D02*
X0113071Y0063824D01*
X0116220Y0062572D02*
X0116221Y0062572D01*
X0116220Y0060605D02*
X0116221Y0060605D01*
X0119320Y0058638D02*
X0029228Y0058638D01*
X0029228Y0056671D02*
X0117353Y0056671D01*
X0115386Y0054704D02*
X0029228Y0054704D01*
X0029228Y0052737D02*
X0111134Y0052737D01*
X0110223Y0050770D02*
X0029228Y0050770D01*
X0029228Y0048803D02*
X0109485Y0048803D01*
X0108740Y0046836D02*
X0029228Y0046836D01*
X0029228Y0044869D02*
X0108740Y0044869D01*
X0108740Y0042902D02*
X0029228Y0042902D01*
X0029228Y0040935D02*
X0108740Y0040935D01*
X0108376Y0038968D02*
X0029228Y0038968D01*
X0029228Y0037001D02*
X0107362Y0037001D01*
X0107362Y0035034D02*
X0029228Y0035034D01*
X0029228Y0033067D02*
X0107362Y0033067D01*
X0107362Y0031100D02*
X0029228Y0031100D01*
X0029228Y0029133D02*
X0242583Y0029133D01*
X0242583Y0027166D02*
X0029228Y0027166D01*
X0029228Y0025199D02*
X0242583Y0025199D01*
X0242583Y0026098D02*
X0242583Y0023180D01*
X0242718Y0022675D01*
X0242979Y0022223D01*
X0243349Y0021853D01*
X0243801Y0021592D01*
X0244306Y0021457D01*
X0246831Y0021457D01*
X0246831Y0026098D01*
X0242583Y0026098D01*
X0242583Y0023232D02*
X0029228Y0023232D01*
X0029228Y0021265D02*
X0270168Y0021265D01*
X0272135Y0019298D02*
X0029228Y0019298D01*
X0029228Y0017331D02*
X0274102Y0017331D01*
X0261228Y0023232D02*
X0258937Y0023232D01*
X0254606Y0026394D02*
X0268976Y0026394D01*
X0269724Y0026118D01*
X0268976Y0035843D02*
X0254803Y0035843D01*
X0254016Y0036630D01*
X0254606Y0036630D01*
X0247144Y0036896D02*
X0247126Y0036630D01*
X0247144Y0036896D02*
X0247144Y0037496D01*
X0247184Y0058009D01*
X0220945Y0058677D02*
X0220157Y0057890D01*
X0195748Y0072063D02*
X0193386Y0069701D01*
X0185123Y0069701D01*
X0170748Y0069701D01*
X0167402Y0073047D01*
X0184724Y0079199D02*
X0185123Y0078801D01*
X0150160Y0064540D02*
X0128541Y0064540D01*
X0128541Y0066507D02*
X0148193Y0066507D01*
X0146226Y0068474D02*
X0135817Y0068474D01*
X0135817Y0070441D02*
X0144259Y0070441D01*
X0142292Y0072408D02*
X0135817Y0072408D01*
X0135817Y0074375D02*
X0140325Y0074375D01*
X0138358Y0076342D02*
X0135817Y0076342D01*
X0125669Y0063824D02*
X0125669Y0057941D01*
X0133594Y0050016D01*
X0136693Y0046917D01*
X0136693Y0034268D01*
X0136496Y0034268D01*
X0140827Y0035034D02*
X0179665Y0035034D01*
X0181632Y0033067D02*
X0140827Y0033067D01*
X0140827Y0031100D02*
X0183599Y0031100D01*
X0177698Y0037001D02*
X0140827Y0037001D01*
X0139813Y0038968D02*
X0175731Y0038968D01*
X0173764Y0040935D02*
X0139449Y0040935D01*
X0139449Y0042902D02*
X0171797Y0042902D01*
X0169830Y0044869D02*
X0139449Y0044869D01*
X0139449Y0046836D02*
X0167863Y0046836D01*
X0165896Y0048803D02*
X0138704Y0048803D01*
X0137966Y0050770D02*
X0161135Y0050770D01*
X0159168Y0052737D02*
X0137055Y0052737D01*
X0132803Y0054704D02*
X0157201Y0054704D01*
X0156378Y0056671D02*
X0130836Y0056671D01*
X0128869Y0058638D02*
X0156061Y0058638D01*
X0154094Y0060605D02*
X0128541Y0060605D01*
X0128541Y0062572D02*
X0152127Y0062572D01*
X0167402Y0060055D02*
X0167947Y0060601D01*
X0133937Y0044869D02*
X0114252Y0044869D01*
X0114252Y0042902D02*
X0133937Y0042902D01*
X0133937Y0040935D02*
X0114252Y0040935D01*
X0115010Y0038968D02*
X0115673Y0038968D01*
X0118878Y0038968D02*
X0119469Y0038968D01*
X0119469Y0037001D02*
X0118878Y0037001D01*
X0118878Y0035034D02*
X0119469Y0035034D01*
X0119469Y0033972D02*
X0123717Y0033972D01*
X0123717Y0031054D01*
X0123581Y0030549D01*
X0123320Y0030097D01*
X0122951Y0029727D01*
X0122498Y0029466D01*
X0121994Y0029331D01*
X0119469Y0029331D01*
X0119469Y0033972D01*
X0119469Y0033067D02*
X0118878Y0033067D01*
X0118878Y0031100D02*
X0119469Y0031100D01*
X0123717Y0031100D02*
X0124472Y0031100D01*
X0124472Y0031054D02*
X0124608Y0030549D01*
X0124869Y0030097D01*
X0125238Y0029727D01*
X0125691Y0029466D01*
X0126195Y0029331D01*
X0128720Y0029331D01*
X0128720Y0033972D01*
X0124472Y0033972D01*
X0124472Y0031054D01*
X0124472Y0033067D02*
X0123717Y0033067D01*
X0124472Y0034563D02*
X0128720Y0034563D01*
X0128720Y0039205D01*
X0126195Y0039205D01*
X0125691Y0039069D01*
X0125238Y0038808D01*
X0124869Y0038439D01*
X0124608Y0037986D01*
X0124472Y0037482D01*
X0124472Y0034563D01*
X0124472Y0035034D02*
X0123717Y0035034D01*
X0123717Y0037001D02*
X0124472Y0037001D01*
X0125516Y0038968D02*
X0122673Y0038968D01*
X0128720Y0038968D02*
X0129311Y0038968D01*
X0129311Y0037001D02*
X0128720Y0037001D01*
X0128720Y0035034D02*
X0129311Y0035034D01*
X0129311Y0033067D02*
X0128720Y0033067D01*
X0128720Y0031100D02*
X0129311Y0031100D01*
X0132516Y0038968D02*
X0133179Y0038968D01*
X0130591Y0046836D02*
X0117598Y0046836D01*
X0118824Y0048803D02*
X0129365Y0048803D01*
X0128942Y0050770D02*
X0119247Y0050770D01*
X0121214Y0052737D02*
X0126975Y0052737D01*
X0125008Y0054704D02*
X0123181Y0054704D01*
X0122520Y0057941D02*
X0114594Y0050016D01*
X0111496Y0046917D01*
X0111496Y0034268D01*
X0111693Y0034268D01*
X0122520Y0057941D02*
X0122520Y0063824D01*
X0100750Y0064540D02*
X0029228Y0064540D01*
X0029228Y0062572D02*
X0100750Y0062572D01*
X0100750Y0060605D02*
X0029228Y0060605D01*
X0029228Y0074375D02*
X0039441Y0074375D01*
X0088936Y0094045D02*
X0093937Y0094045D01*
X0093474Y0092078D02*
X0090903Y0092078D01*
X0092870Y0090111D02*
X0093474Y0090111D01*
X0086969Y0096012D02*
X0100750Y0096012D01*
X0100750Y0097979D02*
X0085002Y0097979D01*
X0083035Y0099946D02*
X0100750Y0099946D01*
X0054606Y0133385D02*
X0051182Y0133385D01*
X0049685Y0135352D02*
X0055154Y0135352D01*
X0184724Y0100409D02*
X0187874Y0100409D01*
X0212283Y0117732D02*
X0212283Y0117929D01*
X0212283Y0125409D02*
X0213071Y0125606D01*
X0228031Y0126106D02*
X0228031Y0126394D01*
X0236693Y0125606D02*
X0236693Y0131118D01*
X0231969Y0135843D01*
X0230394Y0137417D01*
X0228031Y0137417D01*
X0228031Y0137102D01*
X0236693Y0138205D02*
X0228819Y0146079D01*
X0228819Y0147654D01*
X0228031Y0146866D01*
X0228031Y0147102D01*
X0236693Y0138205D02*
X0240630Y0134268D01*
X0240630Y0129543D01*
X0241417Y0128756D01*
X0246142Y0128756D01*
X0253228Y0128756D01*
X0253622Y0128362D01*
X0253622Y0123244D02*
X0244567Y0123244D01*
X0239055Y0123244D01*
X0236693Y0125606D01*
X0239055Y0118520D02*
X0253228Y0118520D01*
X0253622Y0118126D01*
X0253622Y0113008D02*
X0245219Y0113008D01*
X0242992Y0110781D01*
X0242992Y0099622D01*
X0240630Y0097260D01*
X0235709Y0097260D01*
X0228228Y0097260D02*
X0228031Y0097260D01*
X0228031Y0105921D01*
X0228228Y0105921D01*
X0228031Y0106709D01*
X0235709Y0105921D02*
X0235906Y0105921D01*
X0235906Y0115370D01*
X0239055Y0118520D01*
X0228031Y0115370D02*
X0228031Y0115106D01*
X0229409Y0088598D02*
X0229606Y0088402D01*
X0253622Y0082299D02*
X0254344Y0081896D01*
X0281575Y0064976D02*
X0281772Y0064189D01*
X0281575Y0064189D01*
X0289252Y0064189D02*
X0298307Y0064189D01*
X0298110Y0063402D01*
X0298110Y0053953D01*
X0309269Y0053953D01*
X0311496Y0056180D01*
X0311496Y0074425D01*
X0314646Y0077575D01*
X0314646Y0080724D01*
X0317008Y0081512D01*
X0316220Y0080724D01*
X0314646Y0080724D01*
X0334331Y0089150D02*
X0334331Y0089386D01*
X0341417Y0082299D01*
X0341417Y0078362D01*
X0353344Y0090596D02*
X0353228Y0090764D01*
X0353344Y0090596D02*
X0359344Y0090596D01*
X0367402Y0083087D02*
X0368150Y0083362D01*
X0387087Y0084210D02*
X0393778Y0084210D01*
X0393881Y0082243D02*
X0387087Y0082243D01*
X0387087Y0080276D02*
X0395054Y0080276D01*
X0387087Y0078309D02*
X0410315Y0078309D01*
X0414646Y0074622D02*
X0414646Y0074425D01*
X0406772Y0074425D01*
X0405984Y0073638D01*
X0398898Y0073638D01*
X0398150Y0073362D01*
X0394947Y0076342D02*
X0387087Y0076342D01*
X0387087Y0074375D02*
X0393837Y0074375D01*
X0393813Y0072408D02*
X0387087Y0072408D01*
X0387087Y0070441D02*
X0394889Y0070441D01*
X0387087Y0068474D02*
X0418173Y0068474D01*
X0418173Y0066507D02*
X0406688Y0066507D01*
X0407787Y0064540D02*
X0418173Y0064540D01*
X0418173Y0062572D02*
X0407866Y0062572D01*
X0407013Y0060605D02*
X0418173Y0060605D01*
X0418173Y0058638D02*
X0386261Y0058638D01*
X0384293Y0056671D02*
X0418173Y0056671D01*
X0418173Y0054704D02*
X0382326Y0054704D01*
X0380359Y0052737D02*
X0418173Y0052737D01*
X0418173Y0050770D02*
X0378392Y0050770D01*
X0376425Y0048803D02*
X0418173Y0048803D01*
X0418173Y0046836D02*
X0374458Y0046836D01*
X0372491Y0044869D02*
X0418173Y0044869D01*
X0418173Y0042902D02*
X0370524Y0042902D01*
X0368557Y0040935D02*
X0418173Y0040935D01*
X0418173Y0038968D02*
X0366590Y0038968D01*
X0364623Y0037001D02*
X0418173Y0037001D01*
X0418173Y0035034D02*
X0362656Y0035034D01*
X0360689Y0033067D02*
X0418173Y0033067D01*
X0418173Y0031100D02*
X0358722Y0031100D01*
X0356755Y0029133D02*
X0418173Y0029133D01*
X0418173Y0027166D02*
X0354788Y0027166D01*
X0352821Y0025199D02*
X0418173Y0025199D01*
X0418173Y0023232D02*
X0350854Y0023232D01*
X0348887Y0021265D02*
X0418173Y0021265D01*
X0418173Y0019298D02*
X0346920Y0019298D01*
X0344953Y0017331D02*
X0418173Y0017331D01*
X0418173Y0015364D02*
X0029228Y0015364D01*
X0029228Y0013397D02*
X0418173Y0013397D01*
X0418173Y0011430D02*
X0029228Y0011430D01*
X0246831Y0023232D02*
X0247421Y0023232D01*
X0247421Y0025199D02*
X0246831Y0025199D01*
X0268976Y0035843D02*
X0269724Y0036118D01*
X0298110Y0038205D02*
X0298110Y0053953D01*
X0305787Y0064189D02*
X0305984Y0064189D01*
X0305984Y0134268D01*
X0309921Y0138205D01*
X0347717Y0138205D01*
X0347717Y0131906D02*
X0347913Y0131906D01*
X0355394Y0131906D02*
X0355591Y0131118D01*
X0355591Y0127969D01*
X0355394Y0131906D02*
X0367402Y0131906D01*
X0368150Y0132181D01*
X0398150Y0122181D02*
X0398898Y0122457D01*
X0414646Y0122457D01*
X0414646Y0122260D01*
X0409921Y0125517D02*
X0406196Y0125517D01*
X0406967Y0119616D02*
X0409921Y0119616D01*
X0395468Y0115682D02*
X0387087Y0115682D01*
X0387087Y0113715D02*
X0394053Y0113715D01*
X0393778Y0111748D02*
X0387087Y0111748D01*
X0387087Y0109781D02*
X0394412Y0109781D01*
X0397269Y0107814D02*
X0387087Y0107814D01*
X0387087Y0105847D02*
X0402425Y0105847D01*
X0402425Y0103880D02*
X0387087Y0103880D01*
X0387087Y0101913D02*
X0402425Y0101913D01*
X0402425Y0099946D02*
X0387087Y0099946D01*
X0387087Y0097979D02*
X0403628Y0097979D01*
X0404219Y0097734D02*
X0405826Y0097068D01*
X0407056Y0095839D01*
X0407721Y0094232D01*
X0407721Y0092493D01*
X0407056Y0090886D01*
X0405826Y0089656D01*
X0404219Y0088991D01*
X0397280Y0088991D01*
X0395673Y0089656D01*
X0394443Y0090886D01*
X0393778Y0092493D01*
X0393778Y0094232D01*
X0394443Y0095839D01*
X0395673Y0097068D01*
X0397280Y0097734D01*
X0404219Y0097734D01*
X0406673Y0097979D02*
X0407264Y0097979D01*
X0407264Y0099946D02*
X0406673Y0099946D01*
X0410309Y0097979D02*
X0411274Y0097979D01*
X0411274Y0096012D02*
X0406883Y0096012D01*
X0407721Y0094045D02*
X0411274Y0094045D01*
X0411274Y0092078D02*
X0407549Y0092078D01*
X0406281Y0090111D02*
X0411274Y0090111D01*
X0411274Y0088144D02*
X0387087Y0088144D01*
X0387087Y0090111D02*
X0395219Y0090111D01*
X0393950Y0092078D02*
X0387087Y0092078D01*
X0387087Y0094045D02*
X0393778Y0094045D01*
X0394617Y0096012D02*
X0387087Y0096012D01*
X0387087Y0086177D02*
X0394782Y0086177D01*
X0413858Y0082299D02*
X0414646Y0082102D01*
X0414646Y0082299D01*
X0415061Y0082299D01*
X0415061Y0092120D01*
X0414646Y0092535D01*
X0414646Y0094110D01*
X0414646Y0101984D02*
X0414449Y0102772D01*
X0414646Y0102772D01*
X0410810Y0070441D02*
X0406610Y0070441D01*
X0299685Y0036630D02*
X0299724Y0036118D01*
X0299685Y0036630D02*
X0298110Y0038205D01*
X0299685Y0026394D02*
X0299724Y0026118D01*
X0300472Y0026394D01*
D32*
X0184724Y0100409D02*
X0184724Y0100606D01*
X0159528Y0129543D02*
X0159528Y0139780D01*
X0148504Y0135055D02*
X0148504Y0129543D01*
X0147717Y0135055D02*
X0146929Y0135843D01*
X0146929Y0140567D01*
X0146142Y0146866D02*
X0116220Y0146866D01*
X0146929Y0147654D02*
X0147717Y0147654D01*
X0148504Y0148441D02*
X0148504Y0153953D01*
X0160315Y0153953D02*
X0160315Y0150803D01*
X0184724Y0150803D01*
D33*
X0114646Y0124819D02*
X0114646Y0116945D01*
X0114646Y0116157D02*
X0114646Y0115370D01*
X0113858Y0115370D02*
X0108346Y0115370D01*
X0108346Y0108283D01*
X0108543Y0107496D01*
X0184724Y0100409D02*
X0184724Y0079199D01*
X0220945Y0077575D02*
X0220945Y0076645D01*
X0220945Y0058677D01*
X0220157Y0057890D02*
X0187834Y0057890D01*
X0185123Y0060601D01*
X0167947Y0060601D01*
X0220945Y0077575D02*
X0224291Y0080921D01*
X0229606Y0080921D01*
X0238268Y0080921D01*
X0204409Y0101000D02*
X0201063Y0104346D01*
X0195748Y0104346D01*
X0195748Y0113205D01*
X0195748Y0104346D02*
X0191811Y0104346D01*
X0187874Y0100409D01*
D34*
X0114843Y0124819D02*
X0114646Y0125606D01*
X0114646Y0127969D01*
X0113858Y0128756D01*
X0091024Y0128756D01*
X0085512Y0134268D01*
X0084724Y0137417D01*
X0084724Y0146079D01*
X0094409Y0146591D01*
X0084724Y0146866D02*
X0084724Y0146079D01*
D35*
X0084724Y0146866D02*
X0094409Y0146591D01*
X0084724Y0146866D02*
X0081575Y0150016D01*
X0045354Y0150016D01*
X0045000Y0149819D01*
X0057165Y0102772D02*
X0056378Y0099622D01*
X0045354Y0099622D01*
X0045000Y0099819D01*
D36*
X0071644Y0110696D03*
X0071644Y0117296D03*
X0080044Y0117596D03*
X0077044Y0098696D03*
X0080044Y0095396D03*
X0106444Y0075896D03*
X0102844Y0072896D03*
X0116644Y0072896D03*
X0128944Y0140396D03*
D37*
X0042992Y0031906D03*
X0405197Y0031906D03*
D38*
X0254606Y0036630D02*
X0254531Y0035696D01*
X0250931Y0032096D01*
X0185944Y0032096D01*
X0139144Y0078896D01*
X0131644Y0078896D01*
X0131546Y0079150D01*
X0131546Y0076000D02*
X0131344Y0075896D01*
X0119644Y0075896D01*
X0116644Y0072896D01*
X0106444Y0075896D02*
X0098044Y0075896D01*
X0097746Y0076000D01*
X0098044Y0072896D02*
X0097746Y0072850D01*
X0098044Y0072896D02*
X0102844Y0072896D01*
X0097746Y0082299D02*
X0097744Y0082496D01*
X0092944Y0082496D01*
X0080044Y0095396D01*
X0080944Y0098696D02*
X0077044Y0098696D01*
X0080944Y0098696D02*
X0094144Y0085496D01*
X0097744Y0085496D01*
X0097746Y0085449D01*
X0071644Y0110696D02*
X0069544Y0110696D01*
X0066544Y0113696D01*
X0066417Y0113795D01*
X0071644Y0117296D02*
X0066544Y0122396D01*
X0066417Y0122457D01*
X0066544Y0131096D02*
X0080044Y0117596D01*
X0066544Y0131096D02*
X0066417Y0131118D01*
D39*
X0148504Y0129543D02*
X0148504Y0100409D01*
X0209921Y0091748D02*
X0209921Y0084661D01*
X0281575Y0071276D02*
X0281575Y0064976D01*
X0281575Y0064189D02*
X0281575Y0030848D01*
X0286029Y0026394D01*
X0299685Y0026394D01*
X0300472Y0026394D02*
X0320627Y0026394D01*
X0325669Y0031436D01*
X0325669Y0063402D01*
X0325669Y0064189D02*
X0330394Y0068913D01*
X0334331Y0068913D01*
X0320551Y0081512D02*
X0317008Y0081512D01*
X0282362Y0072063D02*
X0281575Y0071276D01*
X0282362Y0072063D02*
X0282362Y0139780D01*
X0302835Y0160252D01*
X0348504Y0160252D01*
X0349291Y0152378D02*
X0363465Y0152378D01*
X0374488Y0152378D02*
X0383150Y0152378D01*
X0383150Y0150803D02*
X0383150Y0146079D01*
X0383150Y0124819D01*
X0380787Y0122457D01*
X0368189Y0122457D01*
X0368150Y0122181D02*
X0367402Y0121669D01*
X0367402Y0112220D01*
X0366614Y0112220D02*
X0355591Y0112220D01*
X0347717Y0131906D02*
X0347717Y0138205D01*
X0347717Y0152378D01*
X0374488Y0160252D02*
X0378425Y0160252D01*
X0379213Y0160252D01*
X0396209Y0160252D01*
X0397323Y0159138D01*
X0397323Y0148441D01*
X0395354Y0146472D01*
X0394173Y0146079D01*
X0383150Y0146079D01*
X0414646Y0114780D02*
X0414646Y0102772D01*
X0414646Y0101984D02*
X0414646Y0094110D01*
X0414646Y0083362D01*
X0398150Y0083362D01*
D40*
X0247184Y0058009D03*
X0148504Y0100409D03*
D41*
X0164030Y0095463D02*
X0179437Y0095463D01*
X0179437Y0095888D02*
X0179437Y0083685D01*
X0179144Y0083564D01*
X0178360Y0082780D01*
X0177935Y0081755D01*
X0177935Y0075846D01*
X0178360Y0074822D01*
X0178781Y0074401D01*
X0178393Y0074013D01*
X0178064Y0073522D01*
X0177838Y0072976D01*
X0177723Y0072396D01*
X0177723Y0069701D01*
X0185123Y0069701D01*
X0192523Y0069701D01*
X0192523Y0072396D01*
X0192408Y0072976D01*
X0192181Y0073522D01*
X0191853Y0074013D01*
X0191465Y0074401D01*
X0191886Y0074822D01*
X0192310Y0075846D01*
X0192310Y0081755D01*
X0191886Y0082780D01*
X0191102Y0083564D01*
X0190077Y0083988D01*
X0190012Y0083988D01*
X0190012Y0088124D01*
X0190292Y0087843D01*
X0190784Y0087515D01*
X0191330Y0087289D01*
X0191909Y0087173D01*
X0195748Y0087173D01*
X0195748Y0093323D01*
X0195748Y0093323D01*
X0195748Y0087173D01*
X0199587Y0087173D01*
X0200166Y0087289D01*
X0200712Y0087515D01*
X0201204Y0087843D01*
X0201321Y0087961D01*
X0204409Y0087961D01*
X0204409Y0093520D01*
X0204409Y0093520D01*
X0204410Y0093520D02*
X0210362Y0093520D01*
X0210362Y0096374D01*
X0210247Y0096954D01*
X0210021Y0097500D01*
X0210001Y0097529D01*
X0210150Y0097886D01*
X0210150Y0104113D01*
X0209725Y0105138D01*
X0208941Y0105922D01*
X0207917Y0106346D01*
X0206541Y0106346D01*
X0204058Y0108829D01*
X0202115Y0109634D01*
X0201299Y0109634D01*
X0201488Y0110091D01*
X0201488Y0116318D01*
X0201340Y0116676D01*
X0201359Y0116705D01*
X0201585Y0117251D01*
X0201701Y0117830D01*
X0201701Y0120685D01*
X0201701Y0123540D01*
X0201585Y0124119D01*
X0201359Y0124665D01*
X0201031Y0125156D01*
X0200613Y0125574D01*
X0200122Y0125903D01*
X0199576Y0126129D01*
X0198996Y0126244D01*
X0195748Y0126244D01*
X0192500Y0126244D01*
X0191920Y0126129D01*
X0191374Y0125903D01*
X0190883Y0125574D01*
X0190517Y0125209D01*
X0190259Y0125396D01*
X0189474Y0125796D01*
X0188636Y0126068D01*
X0187765Y0126206D01*
X0184724Y0126206D01*
X0181684Y0126206D01*
X0180813Y0126068D01*
X0179975Y0125796D01*
X0179189Y0125396D01*
X0178476Y0124878D01*
X0177853Y0124254D01*
X0177335Y0123541D01*
X0176935Y0122756D01*
X0176662Y0121918D01*
X0176524Y0121047D01*
X0176524Y0120606D01*
X0176524Y0120166D01*
X0176662Y0119295D01*
X0176935Y0118457D01*
X0177335Y0117671D01*
X0177853Y0116958D01*
X0178476Y0116335D01*
X0179189Y0115817D01*
X0179833Y0115489D01*
X0179073Y0115174D01*
X0177557Y0113658D01*
X0176737Y0111678D01*
X0176737Y0109535D01*
X0177557Y0107555D01*
X0179073Y0106039D01*
X0180118Y0105606D01*
X0179073Y0105174D01*
X0177557Y0103658D01*
X0176737Y0101678D01*
X0176737Y0099535D01*
X0177557Y0097555D01*
X0179073Y0096039D01*
X0179437Y0095888D01*
X0176767Y0099462D02*
X0165827Y0099462D01*
X0165827Y0097260D02*
X0165827Y0127181D01*
X0206543Y0127181D01*
X0206543Y0122296D01*
X0206803Y0121669D01*
X0206543Y0121043D01*
X0206543Y0114816D01*
X0206968Y0113791D01*
X0207752Y0113007D01*
X0208776Y0112583D01*
X0215791Y0112583D01*
X0216062Y0112695D01*
X0217446Y0111312D01*
X0219205Y0110583D01*
X0223244Y0110583D01*
X0223244Y0110303D01*
X0222882Y0109428D01*
X0222882Y0102414D01*
X0223223Y0101591D01*
X0222882Y0100767D01*
X0222882Y0094748D01*
X0220945Y0094748D01*
X0220945Y0088599D01*
X0220945Y0088599D01*
X0220945Y0094748D01*
X0217106Y0094748D01*
X0216527Y0094633D01*
X0215981Y0094407D01*
X0215489Y0094078D01*
X0215071Y0093660D01*
X0214743Y0093169D01*
X0214517Y0092623D01*
X0214402Y0092044D01*
X0214402Y0088598D01*
X0214402Y0085153D01*
X0214517Y0084574D01*
X0214743Y0084028D01*
X0215071Y0083536D01*
X0215477Y0083131D01*
X0211921Y0079575D01*
X0204638Y0079575D01*
X0203614Y0079150D01*
X0202830Y0078366D01*
X0202406Y0077342D01*
X0202406Y0070059D01*
X0198110Y0065764D01*
X0192104Y0065764D01*
X0192181Y0065880D01*
X0192408Y0066426D01*
X0192523Y0067005D01*
X0192523Y0069701D01*
X0185123Y0069701D01*
X0185123Y0069701D01*
X0185123Y0069701D01*
X0177723Y0069701D01*
X0177723Y0067005D01*
X0177838Y0066426D01*
X0178061Y0065888D01*
X0166896Y0065888D01*
X0166595Y0065764D01*
X0162677Y0065764D01*
X0161890Y0066551D01*
X0161890Y0067744D01*
X0162185Y0067685D01*
X0167402Y0067685D01*
X0172618Y0067685D01*
X0173198Y0067800D01*
X0173744Y0068026D01*
X0174235Y0068355D01*
X0174653Y0068773D01*
X0174981Y0069264D01*
X0175208Y0069810D01*
X0175323Y0070390D01*
X0175323Y0073047D01*
X0167402Y0073047D01*
X0167402Y0073047D01*
X0167402Y0067685D01*
X0167402Y0073047D01*
X0167402Y0073047D01*
X0175323Y0073047D01*
X0175323Y0075705D01*
X0175208Y0076285D01*
X0174981Y0076830D01*
X0174653Y0077322D01*
X0174235Y0077740D01*
X0173744Y0078068D01*
X0173198Y0078294D01*
X0172618Y0078409D01*
X0167402Y0078409D01*
X0167402Y0073047D01*
X0167402Y0073047D01*
X0167402Y0078409D01*
X0162185Y0078409D01*
X0161890Y0078351D01*
X0161890Y0093323D01*
X0165827Y0097260D01*
X0161890Y0091465D02*
X0179437Y0091465D01*
X0179437Y0087466D02*
X0161890Y0087466D01*
X0161890Y0083468D02*
X0179048Y0083468D01*
X0177935Y0079469D02*
X0161890Y0079469D01*
X0167402Y0075471D02*
X0167402Y0075471D01*
X0167402Y0071472D02*
X0167402Y0071472D01*
X0161890Y0067474D02*
X0177723Y0067474D01*
X0177723Y0071472D02*
X0175323Y0071472D01*
X0175323Y0075471D02*
X0178091Y0075471D01*
X0192155Y0075471D02*
X0202406Y0075471D01*
X0202406Y0071472D02*
X0192523Y0071472D01*
X0192523Y0067474D02*
X0199820Y0067474D01*
X0204384Y0079469D02*
X0192310Y0079469D01*
X0191198Y0083468D02*
X0215140Y0083468D01*
X0214402Y0087466D02*
X0200596Y0087466D01*
X0204409Y0087961D02*
X0207658Y0087961D01*
X0208237Y0088076D01*
X0208783Y0088302D01*
X0209275Y0088630D01*
X0209692Y0089048D01*
X0210021Y0089540D01*
X0210247Y0090086D01*
X0210362Y0090665D01*
X0210362Y0093520D01*
X0204410Y0093520D01*
X0204410Y0093520D01*
X0204409Y0093520D02*
X0204409Y0087961D01*
X0204409Y0091465D02*
X0204409Y0091465D01*
X0210362Y0091465D02*
X0214402Y0091465D01*
X0214402Y0088598D02*
X0220945Y0088598D01*
X0214402Y0088598D01*
X0220945Y0088598D02*
X0220945Y0088598D01*
X0229409Y0088598D01*
X0229606Y0088402D02*
X0238268Y0088402D01*
X0244220Y0088402D01*
X0244220Y0091256D01*
X0244105Y0091836D01*
X0243879Y0092382D01*
X0243551Y0092873D01*
X0243133Y0093291D01*
X0242641Y0093619D01*
X0242169Y0093815D01*
X0242766Y0094062D01*
X0243827Y0095123D01*
X0244929Y0096225D01*
X0244929Y0095614D01*
X0244832Y0095379D01*
X0244717Y0094799D01*
X0244717Y0092535D01*
X0244717Y0090271D01*
X0244832Y0089692D01*
X0244929Y0089457D01*
X0244929Y0087087D01*
X0244220Y0087087D01*
X0244220Y0088402D01*
X0238268Y0088402D01*
X0238268Y0088402D01*
X0242402Y0092535D01*
X0253622Y0092535D01*
X0244717Y0092535D01*
X0253622Y0092535D01*
X0253622Y0092535D01*
X0253622Y0092535D01*
X0262528Y0092535D01*
X0262528Y0090271D01*
X0262412Y0089692D01*
X0262315Y0089457D01*
X0262315Y0084894D01*
X0262300Y0084858D01*
X0262315Y0084822D01*
X0262315Y0079776D01*
X0262300Y0079740D01*
X0262315Y0079704D01*
X0262315Y0074658D01*
X0261891Y0073634D01*
X0261890Y0073633D01*
X0261890Y0070968D01*
X0262490Y0070968D01*
X0263876Y0070394D01*
X0264937Y0069333D01*
X0277342Y0056928D01*
X0277916Y0055542D01*
X0277916Y0051467D01*
X0280000Y0049383D01*
X0280000Y0030331D01*
X0284724Y0025606D01*
X0294136Y0025606D01*
X0294124Y0025677D01*
X0294124Y0026118D01*
X0299724Y0026118D01*
X0299724Y0026118D01*
X0294124Y0026118D01*
X0294124Y0026559D01*
X0294262Y0027429D01*
X0294535Y0028268D01*
X0294935Y0029053D01*
X0295453Y0029766D01*
X0296076Y0030390D01*
X0296789Y0030908D01*
X0297433Y0031236D01*
X0296673Y0031551D01*
X0295157Y0033066D01*
X0294337Y0035046D01*
X0294337Y0037190D01*
X0294393Y0037324D01*
X0294339Y0037454D01*
X0294339Y0058803D01*
X0294169Y0058873D01*
X0293780Y0059263D01*
X0293390Y0058873D01*
X0292365Y0058449D01*
X0286138Y0058449D01*
X0285781Y0058597D01*
X0285752Y0058578D01*
X0285206Y0058352D01*
X0284626Y0058236D01*
X0281772Y0058236D01*
X0281772Y0064189D01*
X0281772Y0064189D01*
X0281772Y0070142D01*
X0284626Y0070142D01*
X0285206Y0070026D01*
X0285752Y0069800D01*
X0285781Y0069781D01*
X0286138Y0069929D01*
X0292365Y0069929D01*
X0293390Y0069505D01*
X0293780Y0069115D01*
X0294169Y0069505D01*
X0295194Y0069929D01*
X0301421Y0069929D01*
X0302047Y0069670D01*
X0302213Y0069738D01*
X0302213Y0135018D01*
X0302787Y0136404D01*
X0306724Y0140341D01*
X0307785Y0141402D01*
X0309171Y0141976D01*
X0343329Y0141976D01*
X0343329Y0153251D01*
X0343551Y0153787D01*
X0343551Y0155688D01*
X0343699Y0156046D01*
X0343680Y0156075D01*
X0343454Y0156621D01*
X0343339Y0157201D01*
X0343339Y0160055D01*
X0349291Y0160055D01*
X0349291Y0160055D01*
X0343339Y0160055D01*
X0343339Y0161039D01*
X0254016Y0161039D01*
X0254016Y0138268D01*
X0254574Y0138268D01*
X0254650Y0138236D01*
X0260082Y0138236D01*
X0261106Y0137812D01*
X0261891Y0137028D01*
X0262315Y0136003D01*
X0262315Y0130957D01*
X0262300Y0130921D01*
X0262315Y0130885D01*
X0262315Y0125839D01*
X0262300Y0125803D01*
X0262315Y0125767D01*
X0262315Y0120721D01*
X0262300Y0120685D01*
X0262315Y0120649D01*
X0262315Y0115603D01*
X0262300Y0115567D01*
X0262315Y0115531D01*
X0262315Y0110485D01*
X0262300Y0110449D01*
X0262315Y0110413D01*
X0262315Y0105367D01*
X0262300Y0105331D01*
X0262315Y0105295D01*
X0262315Y0100249D01*
X0262300Y0100213D01*
X0262315Y0100176D01*
X0262315Y0095614D01*
X0262412Y0095379D01*
X0262528Y0094799D01*
X0262528Y0092535D01*
X0253622Y0092535D01*
X0244717Y0091465D02*
X0244179Y0091465D01*
X0244167Y0095463D02*
X0244867Y0095463D01*
X0238268Y0088402D02*
X0238268Y0088402D01*
X0235559Y0088402D01*
X0229606Y0088402D01*
X0229606Y0088402D01*
X0238268Y0088402D01*
X0244220Y0087466D02*
X0244929Y0087466D01*
X0239646Y0082299D02*
X0238268Y0080921D01*
X0239646Y0082299D02*
X0253622Y0082299D01*
X0262315Y0083468D02*
X0302213Y0083468D01*
X0302213Y0087466D02*
X0262315Y0087466D01*
X0262528Y0091465D02*
X0302213Y0091465D01*
X0302213Y0095463D02*
X0262377Y0095463D01*
X0262315Y0099462D02*
X0302213Y0099462D01*
X0302213Y0103460D02*
X0262315Y0103460D01*
X0262315Y0107459D02*
X0302213Y0107459D01*
X0302213Y0111457D02*
X0262315Y0111457D01*
X0262315Y0115456D02*
X0302213Y0115456D01*
X0302213Y0119454D02*
X0262315Y0119454D01*
X0262315Y0123453D02*
X0302213Y0123453D01*
X0302213Y0127451D02*
X0262315Y0127451D01*
X0262315Y0131450D02*
X0302213Y0131450D01*
X0302391Y0135448D02*
X0262315Y0135448D01*
X0253622Y0133480D02*
X0246142Y0133480D01*
X0245354Y0134268D01*
X0245354Y0137417D01*
X0238268Y0144504D01*
X0238268Y0151591D01*
X0232756Y0157102D01*
X0228031Y0157102D01*
X0226802Y0157102D01*
X0212283Y0142583D01*
X0212283Y0125409D01*
X0213071Y0125606D02*
X0219370Y0125606D01*
X0220157Y0126394D01*
X0228031Y0126394D01*
X0217795Y0117732D02*
X0212283Y0117732D01*
X0206543Y0119454D02*
X0201701Y0119454D01*
X0201701Y0120685D02*
X0195748Y0120685D01*
X0195748Y0126244D01*
X0195748Y0120685D01*
X0195748Y0120685D01*
X0195748Y0120685D01*
X0201701Y0120685D01*
X0201701Y0123453D02*
X0206543Y0123453D01*
X0195748Y0123453D02*
X0195748Y0123453D01*
X0184724Y0123453D02*
X0184724Y0123453D01*
X0184724Y0126206D02*
X0184724Y0120606D01*
X0176524Y0120606D01*
X0184724Y0120606D01*
X0184724Y0120606D01*
X0184724Y0126206D01*
X0177290Y0123453D02*
X0165827Y0123453D01*
X0165827Y0119454D02*
X0176637Y0119454D01*
X0179754Y0115456D02*
X0165827Y0115456D01*
X0165827Y0111457D02*
X0176737Y0111457D01*
X0177653Y0107459D02*
X0165827Y0107459D01*
X0165827Y0103460D02*
X0177475Y0103460D01*
X0201488Y0111457D02*
X0217300Y0111457D01*
X0220157Y0115370D02*
X0217795Y0117732D01*
X0220157Y0115370D02*
X0228031Y0115370D01*
X0228031Y0115106D02*
X0228031Y0106709D01*
X0222882Y0107459D02*
X0205428Y0107459D01*
X0210150Y0103460D02*
X0222882Y0103460D01*
X0222882Y0099462D02*
X0210150Y0099462D01*
X0210362Y0095463D02*
X0222882Y0095463D01*
X0220945Y0091465D02*
X0220945Y0091465D01*
X0195748Y0091465D02*
X0195748Y0091465D01*
X0195748Y0087466D02*
X0195748Y0087466D01*
X0190900Y0087466D02*
X0190012Y0087466D01*
X0201488Y0115456D02*
X0206543Y0115456D01*
X0184724Y0120606D02*
X0184724Y0120606D01*
X0254016Y0139447D02*
X0305830Y0139447D01*
X0338890Y0120894D02*
X0341405Y0123409D01*
X0355553Y0123409D01*
X0356940Y0123984D01*
X0358001Y0125045D01*
X0358788Y0125832D01*
X0359013Y0126375D01*
X0359532Y0126590D01*
X0360316Y0127374D01*
X0360339Y0127431D01*
X0360943Y0127181D01*
X0359898Y0126748D01*
X0358382Y0125233D01*
X0357562Y0123253D01*
X0357562Y0121109D01*
X0358382Y0119129D01*
X0359898Y0117614D01*
X0360943Y0117181D01*
X0359898Y0116748D01*
X0359757Y0116608D01*
X0359673Y0116608D01*
X0359532Y0116749D01*
X0358507Y0117173D01*
X0352280Y0117173D01*
X0351922Y0117025D01*
X0351893Y0117044D01*
X0351348Y0117271D01*
X0350768Y0117386D01*
X0347913Y0117386D01*
X0345059Y0117386D01*
X0344479Y0117271D01*
X0343933Y0117044D01*
X0343442Y0116716D01*
X0343024Y0116298D01*
X0342696Y0115807D01*
X0342470Y0115261D01*
X0342354Y0114681D01*
X0342354Y0111433D01*
X0342354Y0108185D01*
X0342470Y0107605D01*
X0342696Y0107059D01*
X0343024Y0106568D01*
X0343442Y0106150D01*
X0343933Y0105822D01*
X0344479Y0105596D01*
X0345059Y0105480D01*
X0347913Y0105480D01*
X0347913Y0111433D01*
X0342354Y0111433D01*
X0347913Y0111433D01*
X0347913Y0111433D01*
X0347913Y0111433D01*
X0347913Y0117386D01*
X0347913Y0111433D01*
X0347913Y0111433D01*
X0347913Y0105480D01*
X0350768Y0105480D01*
X0351348Y0105596D01*
X0351893Y0105822D01*
X0351922Y0105841D01*
X0352280Y0105693D01*
X0358507Y0105693D01*
X0359532Y0106117D01*
X0360316Y0106901D01*
X0360506Y0107362D01*
X0361878Y0106794D01*
X0369221Y0106794D01*
X0371201Y0107614D01*
X0372717Y0109129D01*
X0373537Y0111109D01*
X0373537Y0113253D01*
X0372717Y0115233D01*
X0371789Y0116161D01*
X0371789Y0118069D01*
X0381575Y0118069D01*
X0381575Y0061827D01*
X0376316Y0056568D01*
X0376316Y0085946D01*
X0375742Y0087333D01*
X0374681Y0088394D01*
X0372731Y0090344D01*
X0373537Y0092291D01*
X0373537Y0094434D01*
X0372717Y0096414D01*
X0371201Y0097929D01*
X0369221Y0098750D01*
X0361878Y0098750D01*
X0359898Y0097929D01*
X0358382Y0096414D01*
X0357987Y0095459D01*
X0357760Y0095686D01*
X0356736Y0096110D01*
X0349721Y0096110D01*
X0348697Y0095686D01*
X0347913Y0094902D01*
X0347488Y0093877D01*
X0347488Y0087650D01*
X0347748Y0087024D01*
X0347488Y0086397D01*
X0347488Y0080170D01*
X0347913Y0079145D01*
X0348697Y0078361D01*
X0349721Y0077937D01*
X0356736Y0077937D01*
X0357760Y0078361D01*
X0358544Y0079145D01*
X0358614Y0079315D01*
X0359378Y0079315D01*
X0359898Y0078795D01*
X0360943Y0078362D01*
X0359898Y0077929D01*
X0359378Y0077409D01*
X0347704Y0077409D01*
X0345189Y0079924D01*
X0345189Y0083049D01*
X0344615Y0084436D01*
X0343554Y0085497D01*
X0340818Y0088232D01*
X0340818Y0090440D01*
X0339830Y0092824D01*
X0338006Y0094649D01*
X0337304Y0094940D01*
X0337709Y0095918D01*
X0337709Y0102145D01*
X0337449Y0102772D01*
X0337709Y0103398D01*
X0337709Y0109625D01*
X0337284Y0110650D01*
X0336508Y0111426D01*
X0336741Y0111659D01*
X0337255Y0112173D01*
X0338316Y0113234D01*
X0338890Y0114620D01*
X0338890Y0120894D01*
X0338890Y0119454D02*
X0358248Y0119454D01*
X0357645Y0123453D02*
X0355658Y0123453D01*
X0347913Y0115456D02*
X0347913Y0115456D01*
X0347913Y0111457D02*
X0347913Y0111457D01*
X0347913Y0107459D02*
X0347913Y0107459D01*
X0342530Y0107459D02*
X0337709Y0107459D01*
X0337709Y0103460D02*
X0381575Y0103460D01*
X0381575Y0099462D02*
X0337709Y0099462D01*
X0337520Y0095463D02*
X0348474Y0095463D01*
X0347488Y0091465D02*
X0340394Y0091465D01*
X0341584Y0087466D02*
X0347564Y0087466D01*
X0347488Y0083468D02*
X0345016Y0083468D01*
X0345644Y0079469D02*
X0347778Y0079469D01*
X0342944Y0071501D02*
X0339401Y0075045D01*
X0338642Y0074286D01*
X0338758Y0074198D01*
X0339379Y0073577D01*
X0339913Y0072880D01*
X0340353Y0072119D01*
X0340689Y0071308D01*
X0340916Y0070460D01*
X0341031Y0069589D01*
X0341031Y0069150D01*
X0334331Y0069150D01*
X0334331Y0069150D01*
X0341031Y0069150D01*
X0341031Y0068710D01*
X0340916Y0067840D01*
X0340689Y0066991D01*
X0340353Y0066180D01*
X0339913Y0065419D01*
X0339379Y0064723D01*
X0338758Y0064101D01*
X0338061Y0063567D01*
X0337300Y0063128D01*
X0336489Y0062792D01*
X0335641Y0062564D01*
X0334770Y0062450D01*
X0334331Y0062450D01*
X0334331Y0069149D01*
X0334331Y0069149D01*
X0334331Y0062450D01*
X0333892Y0062450D01*
X0333021Y0062564D01*
X0332172Y0062792D01*
X0331361Y0063128D01*
X0331031Y0063318D01*
X0331031Y0060941D01*
X0330916Y0060361D01*
X0330690Y0059815D01*
X0330362Y0059324D01*
X0329944Y0058906D01*
X0329453Y0058578D01*
X0328907Y0058352D01*
X0328327Y0058236D01*
X0325472Y0058236D01*
X0325472Y0064189D01*
X0325472Y0070142D01*
X0322618Y0070142D01*
X0322038Y0070026D01*
X0321768Y0069914D01*
X0322507Y0070654D01*
X0327797Y0070654D01*
X0327745Y0070460D01*
X0327704Y0070142D01*
X0325472Y0070142D01*
X0325472Y0064189D01*
X0325472Y0064189D01*
X0325472Y0064189D01*
X0325472Y0058236D01*
X0322618Y0058236D01*
X0322038Y0058352D01*
X0321492Y0058578D01*
X0321463Y0058597D01*
X0321106Y0058449D01*
X0315268Y0058449D01*
X0315268Y0055430D01*
X0314694Y0054043D01*
X0312466Y0051816D01*
X0311405Y0050755D01*
X0310019Y0050181D01*
X0301882Y0050181D01*
X0301882Y0041505D01*
X0305996Y0041505D01*
X0307976Y0040685D01*
X0309492Y0039170D01*
X0310312Y0037190D01*
X0310312Y0035046D01*
X0309492Y0033066D01*
X0307976Y0031551D01*
X0307215Y0031236D01*
X0307859Y0030908D01*
X0308573Y0030390D01*
X0309196Y0029766D01*
X0309714Y0029053D01*
X0310114Y0028268D01*
X0310387Y0027429D01*
X0310524Y0026559D01*
X0310524Y0026118D01*
X0299725Y0026118D01*
X0299725Y0026118D01*
X0310524Y0026118D01*
X0310524Y0025677D01*
X0310513Y0025606D01*
X0339975Y0025606D01*
X0368772Y0054404D01*
X0368772Y0057975D01*
X0361878Y0057975D01*
X0359898Y0058795D01*
X0358382Y0060310D01*
X0357562Y0062291D01*
X0357562Y0064434D01*
X0358382Y0066414D01*
X0359898Y0067929D01*
X0360943Y0068362D01*
X0359898Y0068795D01*
X0358827Y0069866D01*
X0345391Y0069866D01*
X0344005Y0070440D01*
X0342944Y0071501D01*
X0342973Y0071472D02*
X0340621Y0071472D01*
X0340818Y0067474D02*
X0359442Y0067474D01*
X0357562Y0063475D02*
X0337902Y0063475D01*
X0334331Y0063475D02*
X0334331Y0063475D01*
X0329816Y0064189D02*
X0325473Y0064189D01*
X0329816Y0064189D01*
X0329816Y0064189D01*
X0325473Y0064189D02*
X0325473Y0064189D01*
X0325472Y0063475D02*
X0325472Y0063475D01*
X0325472Y0059477D02*
X0325472Y0059477D01*
X0330464Y0059477D02*
X0359216Y0059477D01*
X0368772Y0055478D02*
X0315268Y0055478D01*
X0312130Y0051480D02*
X0365848Y0051480D01*
X0361849Y0047481D02*
X0301882Y0047481D01*
X0301882Y0043483D02*
X0357851Y0043483D01*
X0353852Y0039484D02*
X0309177Y0039484D01*
X0310312Y0035486D02*
X0349854Y0035486D01*
X0345855Y0031487D02*
X0307822Y0031487D01*
X0310367Y0027489D02*
X0341857Y0027489D01*
X0296827Y0031487D02*
X0280000Y0031487D01*
X0280000Y0035486D02*
X0294337Y0035486D01*
X0294339Y0039484D02*
X0280000Y0039484D01*
X0280000Y0043483D02*
X0294339Y0043483D01*
X0294339Y0047481D02*
X0280000Y0047481D01*
X0277916Y0051480D02*
X0294339Y0051480D01*
X0294339Y0055478D02*
X0277916Y0055478D01*
X0278338Y0058352D02*
X0278917Y0058236D01*
X0281772Y0058236D01*
X0281772Y0064189D01*
X0281772Y0064189D01*
X0281772Y0070142D01*
X0278917Y0070142D01*
X0278338Y0070026D01*
X0277792Y0069800D01*
X0277300Y0069472D01*
X0276882Y0069054D01*
X0276554Y0068563D01*
X0276328Y0068017D01*
X0276213Y0067437D01*
X0276213Y0064189D01*
X0276213Y0060941D01*
X0276328Y0060361D01*
X0276554Y0059815D01*
X0276882Y0059324D01*
X0277300Y0058906D01*
X0277792Y0058578D01*
X0278338Y0058352D01*
X0276780Y0059477D02*
X0274793Y0059477D01*
X0281772Y0059477D02*
X0281772Y0059477D01*
X0281772Y0063475D02*
X0281772Y0063475D01*
X0281772Y0064189D02*
X0276213Y0064189D01*
X0281772Y0064189D01*
X0281772Y0064189D01*
X0276213Y0063475D02*
X0270795Y0063475D01*
X0266796Y0067474D02*
X0276220Y0067474D01*
X0281772Y0067474D02*
X0281772Y0067474D01*
X0261890Y0071472D02*
X0302213Y0071472D01*
X0302213Y0075471D02*
X0262315Y0075471D01*
X0262315Y0079469D02*
X0302213Y0079469D01*
X0325472Y0067474D02*
X0325472Y0067474D01*
X0334331Y0067474D02*
X0334331Y0067474D01*
X0376316Y0067474D02*
X0381575Y0067474D01*
X0381575Y0071472D02*
X0376316Y0071472D01*
X0376316Y0075471D02*
X0381575Y0075471D01*
X0381575Y0079469D02*
X0376316Y0079469D01*
X0376316Y0083468D02*
X0381575Y0083468D01*
X0381575Y0087466D02*
X0375608Y0087466D01*
X0373195Y0091465D02*
X0381575Y0091465D01*
X0381575Y0095463D02*
X0373111Y0095463D01*
X0357989Y0095463D02*
X0357983Y0095463D01*
X0370827Y0107459D02*
X0381575Y0107459D01*
X0381575Y0111457D02*
X0373537Y0111457D01*
X0372494Y0115456D02*
X0381575Y0115456D01*
X0378762Y0126844D02*
X0370970Y0126844D01*
X0370156Y0127181D01*
X0371201Y0127614D01*
X0372717Y0129129D01*
X0373537Y0131109D01*
X0373537Y0133253D01*
X0372717Y0135233D01*
X0371201Y0136748D01*
X0370441Y0137063D01*
X0371085Y0137392D01*
X0371798Y0137910D01*
X0372421Y0138533D01*
X0372939Y0139246D01*
X0373339Y0140031D01*
X0373612Y0140870D01*
X0373750Y0141740D01*
X0373750Y0142181D01*
X0368150Y0142181D01*
X0368150Y0142181D01*
X0373750Y0142181D01*
X0373750Y0142622D01*
X0373612Y0143492D01*
X0373339Y0144331D01*
X0372939Y0145116D01*
X0372421Y0145829D01*
X0371798Y0146453D01*
X0371085Y0146971D01*
X0370299Y0147371D01*
X0369461Y0147643D01*
X0368590Y0147781D01*
X0368150Y0147781D01*
X0368150Y0142181D01*
X0368150Y0142181D01*
X0368150Y0147781D01*
X0362509Y0147781D01*
X0361638Y0147643D01*
X0360800Y0147371D01*
X0360015Y0146971D01*
X0359301Y0146453D01*
X0358678Y0145829D01*
X0358160Y0145116D01*
X0357760Y0144331D01*
X0357487Y0143492D01*
X0357350Y0142622D01*
X0357350Y0142181D01*
X0357350Y0141740D01*
X0357487Y0140870D01*
X0357760Y0140031D01*
X0358160Y0139246D01*
X0358678Y0138533D01*
X0359301Y0137910D01*
X0360015Y0137392D01*
X0360659Y0137063D01*
X0359973Y0136780D01*
X0359532Y0137221D01*
X0358507Y0137646D01*
X0352280Y0137646D01*
X0352104Y0137573D01*
X0352104Y0147228D01*
X0352799Y0147228D01*
X0353823Y0147653D01*
X0354161Y0147991D01*
X0364337Y0147991D01*
X0365950Y0148658D01*
X0365996Y0148705D01*
X0366775Y0148705D01*
X0367799Y0149129D01*
X0368583Y0149913D01*
X0368976Y0150863D01*
X0369370Y0149913D01*
X0370154Y0149129D01*
X0371178Y0148705D01*
X0371957Y0148705D01*
X0372003Y0148658D01*
X0373615Y0147991D01*
X0378038Y0147991D01*
X0378424Y0147059D01*
X0378762Y0146721D01*
X0378762Y0126844D01*
X0378762Y0127451D02*
X0370809Y0127451D01*
X0373537Y0131450D02*
X0378762Y0131450D01*
X0378762Y0135448D02*
X0372501Y0135448D01*
X0373041Y0139447D02*
X0378762Y0139447D01*
X0378762Y0143445D02*
X0373619Y0143445D01*
X0370074Y0147444D02*
X0378265Y0147444D01*
X0368150Y0147444D02*
X0368150Y0147444D01*
X0361025Y0147444D02*
X0353319Y0147444D01*
X0352104Y0143445D02*
X0357480Y0143445D01*
X0357350Y0142181D02*
X0368149Y0142181D01*
X0357350Y0142181D01*
X0358058Y0139447D02*
X0352104Y0139447D01*
X0343329Y0143445D02*
X0254016Y0143445D01*
X0254016Y0147444D02*
X0343329Y0147444D01*
X0343329Y0151442D02*
X0254016Y0151442D01*
X0254016Y0155441D02*
X0343551Y0155441D01*
X0343339Y0159439D02*
X0254016Y0159439D01*
X0349291Y0160055D02*
X0349291Y0161039D01*
X0349291Y0161039D01*
X0349291Y0160055D01*
X0349291Y0160055D01*
X0349291Y0160055D01*
X0355244Y0160055D01*
X0355244Y0157201D01*
X0355157Y0156765D01*
X0359761Y0156765D01*
X0359133Y0157394D01*
X0358708Y0158418D01*
X0358708Y0161039D01*
X0355244Y0161039D01*
X0355244Y0160055D01*
X0349291Y0160055D01*
X0355244Y0159439D02*
X0358708Y0159439D01*
X0368150Y0143445D02*
X0368150Y0143445D01*
X0368149Y0142181D02*
X0368149Y0142181D01*
X0342550Y0115456D02*
X0338890Y0115456D01*
X0336539Y0111457D02*
X0342354Y0111457D01*
X0376316Y0063475D02*
X0381575Y0063475D01*
X0379225Y0059477D02*
X0376316Y0059477D01*
X0294282Y0027489D02*
X0282842Y0027489D01*
D42*
X0154144Y0093289D02*
X0149651Y0088796D01*
X0131644Y0088796D01*
X0131546Y0088598D01*
X0131546Y0091748D02*
X0131644Y0091796D01*
X0148180Y0091798D01*
X0152944Y0096562D01*
X0152944Y0157820D01*
X0152368Y0158396D01*
X0116344Y0158396D01*
X0114544Y0156596D01*
X0114409Y0156591D01*
X0110344Y0161396D02*
X0109144Y0160196D01*
X0109144Y0151196D01*
X0104644Y0146696D01*
X0104409Y0146591D01*
X0110344Y0161396D02*
X0152993Y0161396D01*
X0154144Y0160245D01*
X0154144Y0093289D01*
X0125669Y0097624D02*
X0125644Y0097796D01*
X0125644Y0105484D01*
D43*
X0125644Y0105484D03*
M02*
