%
M48
M72
T01C0.01200
T02C0.01969
T03C0.02756
T04C0.03200
T05C0.04000
T06C0.04400
T07C0.11024
%
T01
X125644Y105484
T02
X80044Y95396
X77044Y98696
X71644Y110696
X71644Y117296
X80044Y117596
X128944Y140396
X106444Y75896
X102844Y72896
X116644Y72896
T03
X148504Y100409
X247184Y58009
T04
X269724Y36118
X269724Y26118
X299724Y26118
X299724Y36118
X368150Y63362
X368150Y73362
X368150Y83362
X368150Y93362
X398150Y93362
X398150Y83362
X398150Y73362
X398150Y63362
X334331Y69150
X334331Y79150
X334331Y89150
X368150Y112181
X368150Y122181
X368150Y132181
X368150Y142181
X398150Y142181
X398150Y132181
X398150Y122181
X398150Y112181
X184724Y110606
X184724Y100606
X184724Y120606
X184724Y140606
X184724Y150606
X133594Y50016
X114594Y50016
T05
X45000Y89819
X45000Y99819
X45000Y109819
X45000Y119819
X45000Y129819
X45000Y139819
X45000Y149819
X45000Y159819
X94409Y156591
X104409Y156591
X114409Y156591
X114409Y146591
X104409Y146591
X94409Y146591
X228031Y147102
X228031Y157102
X228031Y137102
X228031Y126106
X228031Y115106
T06
X44961Y79543
T07
X42992Y31906
X405197Y31906
M30
