G75*
%MOIN*%
%OFA0B0*%
%FSLAX25Y25*%
%IPPOS*%
%LPD*%
%AMOC8*
5,1,8,0,0,1.08239X$1,22.5*
%
%ADD10C,0.00000*%
%ADD11C,0.06000*%
%ADD12C,0.05200*%
%ADD13R,0.07400X0.07400*%
%ADD14OC8,0.07400*%
%ADD15C,0.07400*%
%ADD16C,0.07400*%
%ADD17C,0.05200*%
%ADD18C,0.01969*%
%ADD19C,0.03169*%
%ADD20C,0.19685*%
%ADD21C,0.01181*%
%ADD22C,0.07600*%
%ADD23C,0.03200*%
%ADD24C,0.04134*%
%ADD25C,0.00600*%
%ADD26C,0.02400*%
%ADD27C,0.05600*%
D10*
X0027244Y0007496D02*
X0027244Y0188598D01*
X0188661Y0188598D01*
X0212283Y0164976D01*
X0420157Y0164976D01*
X0420157Y0007496D01*
X0027244Y0007496D01*
D11*
X0042000Y0089819D02*
X0048000Y0089819D01*
X0048000Y0099819D02*
X0042000Y0099819D01*
X0042000Y0109819D02*
X0048000Y0109819D01*
X0048000Y0119819D02*
X0042000Y0119819D01*
X0042000Y0129819D02*
X0048000Y0129819D01*
X0048000Y0139819D02*
X0042000Y0139819D01*
X0042000Y0149819D02*
X0048000Y0149819D01*
X0048000Y0159819D02*
X0042000Y0159819D01*
D12*
X0182124Y0150606D02*
X0187324Y0150606D01*
X0187324Y0140606D02*
X0182124Y0140606D01*
X0182124Y0120606D02*
X0187324Y0120606D01*
X0187324Y0110606D02*
X0182124Y0110606D01*
X0182124Y0100606D02*
X0187324Y0100606D01*
X0264524Y0036118D02*
X0269724Y0036118D01*
X0269724Y0026118D02*
X0264524Y0026118D01*
X0299724Y0026118D02*
X0304924Y0026118D01*
X0304924Y0036118D02*
X0299724Y0036118D01*
X0362950Y0063362D02*
X0368150Y0063362D01*
X0368150Y0073362D02*
X0362950Y0073362D01*
X0362950Y0083362D02*
X0368150Y0083362D01*
X0368150Y0093362D02*
X0362950Y0093362D01*
X0398150Y0093362D02*
X0403350Y0093362D01*
X0403350Y0083362D02*
X0398150Y0083362D01*
X0398150Y0073362D02*
X0403350Y0073362D01*
X0403350Y0063362D02*
X0398150Y0063362D01*
X0398150Y0112181D02*
X0403350Y0112181D01*
X0403350Y0122181D02*
X0398150Y0122181D01*
X0398150Y0132181D02*
X0403350Y0132181D01*
X0403350Y0142181D02*
X0398150Y0142181D01*
X0368150Y0142181D02*
X0362950Y0142181D01*
X0362950Y0132181D02*
X0368150Y0132181D01*
X0368150Y0122181D02*
X0362950Y0122181D01*
X0362950Y0112181D02*
X0368150Y0112181D01*
D13*
X0228031Y0126106D03*
X0228031Y0157102D03*
X0114409Y0156591D03*
D14*
X0104409Y0156591D03*
X0094409Y0156591D03*
X0094409Y0146591D03*
X0104409Y0146591D03*
X0114409Y0146591D03*
D15*
X0228031Y0147102D03*
X0228031Y0137102D03*
X0228031Y0115106D03*
X0334331Y0089150D03*
X0334331Y0079150D03*
X0334331Y0069150D03*
D16*
X0048661Y0079543D02*
X0041261Y0079543D01*
D17*
X0114594Y0050016D03*
X0133594Y0050016D03*
D18*
X0129365Y0048803D02*
X0118824Y0048803D01*
X0118966Y0049146D02*
X0118301Y0047539D01*
X0117071Y0046310D01*
X0115464Y0045644D01*
X0113725Y0045644D01*
X0112118Y0046310D01*
X0110888Y0047539D01*
X0110223Y0049146D01*
X0110223Y0050885D01*
X0110888Y0052492D01*
X0112118Y0053722D01*
X0113725Y0054387D01*
X0115464Y0054387D01*
X0117071Y0053722D01*
X0118301Y0052492D01*
X0118966Y0050885D01*
X0118966Y0049146D01*
X0118966Y0050770D02*
X0129223Y0050770D01*
X0129223Y0050885D02*
X0129223Y0049146D01*
X0129888Y0047539D01*
X0131118Y0046310D01*
X0132725Y0045644D01*
X0134464Y0045644D01*
X0136071Y0046310D01*
X0137301Y0047539D01*
X0137966Y0049146D01*
X0137966Y0050885D01*
X0137301Y0052492D01*
X0136071Y0053722D01*
X0134464Y0054387D01*
X0132725Y0054387D01*
X0131118Y0053722D01*
X0129888Y0052492D01*
X0129223Y0050885D01*
X0130134Y0052737D02*
X0118055Y0052737D01*
X0111134Y0052737D02*
X0029228Y0052737D01*
X0029228Y0050770D02*
X0110223Y0050770D01*
X0110365Y0048803D02*
X0029228Y0048803D01*
X0029228Y0046836D02*
X0111591Y0046836D01*
X0117598Y0046836D02*
X0130591Y0046836D01*
X0136598Y0046836D02*
X0418173Y0046836D01*
X0418173Y0044869D02*
X0029228Y0044869D01*
X0029228Y0042902D02*
X0418173Y0042902D01*
X0418173Y0040935D02*
X0029228Y0040935D01*
X0029228Y0038968D02*
X0261192Y0038968D01*
X0260818Y0038594D02*
X0260153Y0036988D01*
X0260153Y0035249D01*
X0260818Y0033642D01*
X0262048Y0032412D01*
X0263655Y0031746D01*
X0270594Y0031746D01*
X0272201Y0032412D01*
X0273431Y0033642D01*
X0274096Y0035249D01*
X0274096Y0036988D01*
X0273431Y0038594D01*
X0272201Y0039824D01*
X0270594Y0040490D01*
X0263655Y0040490D01*
X0262048Y0039824D01*
X0260818Y0038594D01*
X0260158Y0037001D02*
X0029228Y0037001D01*
X0029228Y0035034D02*
X0260241Y0035034D01*
X0261393Y0033067D02*
X0029228Y0033067D01*
X0029228Y0031100D02*
X0418173Y0031100D01*
X0418173Y0029133D02*
X0308092Y0029133D01*
X0308631Y0028594D02*
X0307401Y0029824D01*
X0305794Y0030490D01*
X0298855Y0030490D01*
X0297248Y0029824D01*
X0296018Y0028594D01*
X0295353Y0026988D01*
X0295353Y0025249D01*
X0296018Y0023642D01*
X0297248Y0022412D01*
X0298855Y0021746D01*
X0305794Y0021746D01*
X0307401Y0022412D01*
X0308631Y0023642D01*
X0309296Y0025249D01*
X0309296Y0026988D01*
X0308631Y0028594D01*
X0309222Y0027166D02*
X0418173Y0027166D01*
X0418173Y0025199D02*
X0309276Y0025199D01*
X0308221Y0023232D02*
X0418173Y0023232D01*
X0418173Y0021265D02*
X0029228Y0021265D01*
X0029228Y0019298D02*
X0418173Y0019298D01*
X0418173Y0017331D02*
X0029228Y0017331D01*
X0029228Y0015364D02*
X0418173Y0015364D01*
X0418173Y0013397D02*
X0029228Y0013397D01*
X0029228Y0011430D02*
X0418173Y0011430D01*
X0418173Y0009480D02*
X0029228Y0009480D01*
X0029228Y0186614D01*
X0187840Y0186614D01*
X0211462Y0162992D01*
X0213105Y0162992D01*
X0418173Y0162992D01*
X0418173Y0009480D01*
X0418173Y0033067D02*
X0308056Y0033067D01*
X0308631Y0033642D02*
X0307401Y0032412D01*
X0305794Y0031746D01*
X0298855Y0031746D01*
X0297248Y0032412D01*
X0296018Y0033642D01*
X0295353Y0035249D01*
X0295353Y0036988D01*
X0296018Y0038594D01*
X0297248Y0039824D01*
X0298855Y0040490D01*
X0305794Y0040490D01*
X0307401Y0039824D01*
X0308631Y0038594D01*
X0309296Y0036988D01*
X0309296Y0035249D01*
X0308631Y0033642D01*
X0309207Y0035034D02*
X0418173Y0035034D01*
X0418173Y0037001D02*
X0309290Y0037001D01*
X0308257Y0038968D02*
X0418173Y0038968D01*
X0418173Y0048803D02*
X0137824Y0048803D01*
X0137966Y0050770D02*
X0218979Y0050770D01*
X0219045Y0050705D02*
X0378894Y0050705D01*
X0380277Y0052089D01*
X0397209Y0069020D01*
X0397280Y0068991D01*
X0404219Y0068991D01*
X0405826Y0069656D01*
X0407056Y0070886D01*
X0407721Y0072493D01*
X0407721Y0074232D01*
X0407056Y0075839D01*
X0405826Y0077068D01*
X0404219Y0077734D01*
X0397450Y0077734D01*
X0398707Y0078991D01*
X0404219Y0078991D01*
X0405826Y0079656D01*
X0407056Y0080886D01*
X0407721Y0082493D01*
X0407721Y0084232D01*
X0407056Y0085839D01*
X0405826Y0087068D01*
X0404219Y0087734D01*
X0401521Y0087734D01*
X0401521Y0088991D01*
X0404219Y0088991D01*
X0405826Y0089656D01*
X0407056Y0090886D01*
X0407721Y0092493D01*
X0407721Y0094232D01*
X0407056Y0095839D01*
X0405826Y0097068D01*
X0404219Y0097734D01*
X0397280Y0097734D01*
X0395673Y0097068D01*
X0394443Y0095839D01*
X0393778Y0094232D01*
X0393778Y0092493D01*
X0394443Y0090886D01*
X0394778Y0090551D01*
X0394778Y0086173D01*
X0394443Y0085839D01*
X0393778Y0084232D01*
X0393778Y0083598D01*
X0372414Y0062235D01*
X0372521Y0062493D01*
X0372521Y0064232D01*
X0371856Y0065839D01*
X0370626Y0067068D01*
X0369019Y0067734D01*
X0362080Y0067734D01*
X0360473Y0067068D01*
X0359243Y0065839D01*
X0358578Y0064232D01*
X0358578Y0062493D01*
X0359039Y0061380D01*
X0249075Y0061380D01*
X0248029Y0061813D01*
X0247888Y0061954D01*
X0247805Y0061989D01*
X0247738Y0062049D01*
X0247188Y0062244D01*
X0246649Y0062468D01*
X0246559Y0062468D01*
X0246474Y0062498D01*
X0245892Y0062468D01*
X0222141Y0062468D01*
X0191286Y0093323D01*
X0330766Y0093323D01*
X0329692Y0092249D01*
X0328859Y0090238D01*
X0328859Y0088061D01*
X0329692Y0086050D01*
X0331231Y0084511D01*
X0332104Y0084150D01*
X0331231Y0083788D01*
X0329692Y0082249D01*
X0328859Y0080238D01*
X0328859Y0078061D01*
X0329692Y0076050D01*
X0331231Y0074511D01*
X0332104Y0074150D01*
X0331231Y0073788D01*
X0329692Y0072249D01*
X0328859Y0070238D01*
X0328859Y0068061D01*
X0329692Y0066050D01*
X0331231Y0064511D01*
X0333242Y0063678D01*
X0335419Y0063678D01*
X0337430Y0064511D01*
X0338969Y0066050D01*
X0339802Y0068061D01*
X0339802Y0070238D01*
X0338969Y0072249D01*
X0337430Y0073788D01*
X0336558Y0074150D01*
X0337430Y0074511D01*
X0338969Y0076050D01*
X0339802Y0078061D01*
X0339802Y0080238D01*
X0338969Y0082249D01*
X0337430Y0083788D01*
X0336558Y0084150D01*
X0337430Y0084511D01*
X0338969Y0086050D01*
X0339802Y0088061D01*
X0339802Y0090238D01*
X0338969Y0092249D01*
X0337896Y0093323D01*
X0348695Y0093323D01*
X0349006Y0093634D01*
X0358578Y0093634D01*
X0358578Y0092493D01*
X0359243Y0090886D01*
X0360473Y0089656D01*
X0362080Y0088991D01*
X0369019Y0088991D01*
X0370626Y0089656D01*
X0371856Y0090886D01*
X0372521Y0092493D01*
X0372521Y0094232D01*
X0371856Y0095839D01*
X0370626Y0097068D01*
X0369019Y0097734D01*
X0365023Y0097734D01*
X0395737Y0128449D01*
X0397280Y0127809D01*
X0404219Y0127809D01*
X0405826Y0128475D01*
X0407056Y0129705D01*
X0407721Y0131312D01*
X0407721Y0133051D01*
X0407056Y0134657D01*
X0405826Y0135887D01*
X0404219Y0136553D01*
X0397280Y0136553D01*
X0395673Y0135887D01*
X0394443Y0134657D01*
X0393863Y0133255D01*
X0393582Y0132975D01*
X0372721Y0112114D01*
X0372721Y0113090D01*
X0372025Y0114771D01*
X0370739Y0116057D01*
X0369059Y0116753D01*
X0367240Y0116753D01*
X0366757Y0116553D01*
X0362080Y0116553D01*
X0360473Y0115887D01*
X0359243Y0114657D01*
X0358578Y0113051D01*
X0358578Y0111312D01*
X0359233Y0109730D01*
X0354484Y0104981D01*
X0186109Y0104981D01*
X0185634Y0105178D01*
X0183815Y0105178D01*
X0183340Y0104981D01*
X0183028Y0104981D01*
X0183020Y0104978D01*
X0181255Y0104978D01*
X0179648Y0104312D01*
X0178418Y0103083D01*
X0177753Y0101476D01*
X0177753Y0099737D01*
X0178418Y0098130D01*
X0178501Y0098047D01*
X0161293Y0098047D01*
X0154016Y0105325D01*
X0152632Y0106709D01*
X0145951Y0106709D01*
X0121852Y0082610D01*
X0105618Y0082610D01*
X0104234Y0081226D01*
X0100482Y0077475D01*
X0100482Y0075280D01*
X0099999Y0074797D01*
X0099936Y0074645D01*
X0081987Y0092593D01*
X0082889Y0093495D01*
X0083400Y0094729D01*
X0083400Y0096064D01*
X0082889Y0097297D01*
X0082406Y0097780D01*
X0082406Y0115212D01*
X0082889Y0115695D01*
X0083400Y0116929D01*
X0083400Y0118264D01*
X0082889Y0119497D01*
X0081945Y0120441D01*
X0080712Y0120952D01*
X0079377Y0120952D01*
X0078143Y0120441D01*
X0077199Y0119497D01*
X0076688Y0118264D01*
X0076688Y0116929D01*
X0077199Y0115695D01*
X0077682Y0115212D01*
X0077682Y0114599D01*
X0075000Y0117281D01*
X0075000Y0117964D01*
X0074489Y0119197D01*
X0073545Y0120141D01*
X0072312Y0120652D01*
X0070977Y0120652D01*
X0069743Y0120141D01*
X0068799Y0119197D01*
X0068288Y0117964D01*
X0068288Y0116629D01*
X0068799Y0115395D01*
X0069743Y0114451D01*
X0070842Y0113996D01*
X0069743Y0113541D01*
X0068799Y0112597D01*
X0068288Y0111364D01*
X0068288Y0110029D01*
X0068799Y0108795D01*
X0069282Y0108312D01*
X0069282Y0098618D01*
X0070666Y0097234D01*
X0100366Y0067534D01*
X0105023Y0067534D01*
X0106406Y0068918D01*
X0108023Y0070534D01*
X0114260Y0070534D01*
X0114743Y0070051D01*
X0115977Y0069540D01*
X0117312Y0069540D01*
X0118545Y0070051D01*
X0119489Y0070995D01*
X0120000Y0072229D01*
X0120000Y0073534D01*
X0196216Y0073534D01*
X0219045Y0050705D01*
X0217012Y0052737D02*
X0137055Y0052737D01*
X0105962Y0068474D02*
X0201276Y0068474D01*
X0199309Y0070441D02*
X0118935Y0070441D01*
X0120000Y0072408D02*
X0197342Y0072408D01*
X0208267Y0076342D02*
X0329571Y0076342D01*
X0328859Y0078309D02*
X0206300Y0078309D01*
X0204333Y0080276D02*
X0328875Y0080276D01*
X0329689Y0082243D02*
X0202366Y0082243D01*
X0200399Y0084210D02*
X0331959Y0084210D01*
X0329640Y0086177D02*
X0198432Y0086177D01*
X0196465Y0088144D02*
X0328859Y0088144D01*
X0328859Y0090111D02*
X0194498Y0090111D01*
X0192531Y0092078D02*
X0329621Y0092078D01*
X0339040Y0092078D02*
X0358750Y0092078D01*
X0360019Y0090111D02*
X0339802Y0090111D01*
X0339802Y0088144D02*
X0394778Y0088144D01*
X0394778Y0090111D02*
X0371081Y0090111D01*
X0372349Y0092078D02*
X0393950Y0092078D01*
X0393778Y0094045D02*
X0372521Y0094045D01*
X0371683Y0096012D02*
X0394617Y0096012D01*
X0406883Y0096012D02*
X0418173Y0096012D01*
X0418173Y0097979D02*
X0365267Y0097979D01*
X0367234Y0099946D02*
X0418173Y0099946D01*
X0418173Y0101913D02*
X0369201Y0101913D01*
X0371168Y0103880D02*
X0418173Y0103880D01*
X0418173Y0105847D02*
X0373136Y0105847D01*
X0375103Y0107814D02*
X0397269Y0107814D01*
X0397280Y0107809D02*
X0404219Y0107809D01*
X0405826Y0108475D01*
X0407056Y0109705D01*
X0407721Y0111312D01*
X0407721Y0113051D01*
X0407056Y0114657D01*
X0405826Y0115887D01*
X0404219Y0116553D01*
X0397280Y0116553D01*
X0395673Y0115887D01*
X0394443Y0114657D01*
X0393778Y0113051D01*
X0393778Y0111312D01*
X0394443Y0109705D01*
X0395673Y0108475D01*
X0397280Y0107809D01*
X0394412Y0109781D02*
X0377070Y0109781D01*
X0379037Y0111748D02*
X0393778Y0111748D01*
X0394053Y0113715D02*
X0381004Y0113715D01*
X0382971Y0115682D02*
X0395468Y0115682D01*
X0397280Y0117809D02*
X0404219Y0117809D01*
X0405826Y0118475D01*
X0407056Y0119705D01*
X0407721Y0121312D01*
X0407721Y0123051D01*
X0407056Y0124657D01*
X0405826Y0125887D01*
X0404219Y0126553D01*
X0397280Y0126553D01*
X0395673Y0125887D01*
X0394443Y0124657D01*
X0393778Y0123051D01*
X0393778Y0121312D01*
X0394443Y0119705D01*
X0395673Y0118475D01*
X0397280Y0117809D01*
X0394532Y0119616D02*
X0386905Y0119616D01*
X0388872Y0121583D02*
X0393778Y0121583D01*
X0393985Y0123550D02*
X0390839Y0123550D01*
X0392806Y0125517D02*
X0395303Y0125517D01*
X0394773Y0127484D02*
X0418173Y0127484D01*
X0418173Y0129451D02*
X0406802Y0129451D01*
X0407721Y0131418D02*
X0418173Y0131418D01*
X0418173Y0133385D02*
X0407583Y0133385D01*
X0406361Y0135352D02*
X0418173Y0135352D01*
X0418173Y0137319D02*
X0233503Y0137319D01*
X0233503Y0138191D02*
X0233503Y0136014D01*
X0232670Y0134003D01*
X0231131Y0132464D01*
X0229120Y0131631D01*
X0226943Y0131631D01*
X0224932Y0132464D01*
X0223393Y0134003D01*
X0222560Y0136014D01*
X0222560Y0138191D01*
X0223393Y0140202D01*
X0224932Y0141741D01*
X0225804Y0142102D01*
X0224932Y0142464D01*
X0223393Y0144003D01*
X0222560Y0146014D01*
X0222560Y0148191D01*
X0223393Y0150202D01*
X0224822Y0151631D01*
X0223598Y0151631D01*
X0222560Y0152669D01*
X0222560Y0161536D01*
X0223598Y0162574D01*
X0232465Y0162574D01*
X0233503Y0161536D01*
X0233503Y0152669D01*
X0232465Y0151631D01*
X0231241Y0151631D01*
X0232670Y0150202D01*
X0233503Y0148191D01*
X0233503Y0146014D01*
X0232670Y0144003D01*
X0231131Y0142464D01*
X0230259Y0142102D01*
X0231131Y0141741D01*
X0232670Y0140202D01*
X0233503Y0138191D01*
X0233049Y0139286D02*
X0359662Y0139286D01*
X0359243Y0139705D02*
X0360473Y0138475D01*
X0362080Y0137809D01*
X0369019Y0137809D01*
X0370626Y0138475D01*
X0371856Y0139705D01*
X0372521Y0141312D01*
X0372521Y0143051D01*
X0371856Y0144657D01*
X0370626Y0145887D01*
X0369019Y0146553D01*
X0362080Y0146553D01*
X0360473Y0145887D01*
X0359243Y0144657D01*
X0358578Y0143051D01*
X0358578Y0141312D01*
X0359243Y0139705D01*
X0358602Y0141253D02*
X0231619Y0141253D01*
X0231887Y0143220D02*
X0358648Y0143220D01*
X0359773Y0145187D02*
X0233161Y0145187D01*
X0233503Y0147154D02*
X0418173Y0147154D01*
X0418173Y0145187D02*
X0406526Y0145187D01*
X0407056Y0144657D02*
X0405826Y0145887D01*
X0404219Y0146553D01*
X0397280Y0146553D01*
X0395673Y0145887D01*
X0394443Y0144657D01*
X0393778Y0143051D01*
X0393778Y0141312D01*
X0394443Y0139705D01*
X0395673Y0138475D01*
X0397280Y0137809D01*
X0404219Y0137809D01*
X0405826Y0138475D01*
X0407056Y0139705D01*
X0407721Y0141312D01*
X0407721Y0143051D01*
X0407056Y0144657D01*
X0407651Y0143220D02*
X0418173Y0143220D01*
X0418173Y0141253D02*
X0407697Y0141253D01*
X0406637Y0139286D02*
X0418173Y0139286D01*
X0395138Y0135352D02*
X0371161Y0135352D01*
X0370626Y0135887D02*
X0371856Y0134657D01*
X0372521Y0133051D01*
X0372521Y0131312D01*
X0371856Y0129705D01*
X0370626Y0128475D01*
X0369019Y0127809D01*
X0362080Y0127809D01*
X0360473Y0128475D01*
X0359243Y0129705D01*
X0358578Y0131312D01*
X0358578Y0133051D01*
X0359243Y0134657D01*
X0360473Y0135887D01*
X0362080Y0136553D01*
X0369019Y0136553D01*
X0370626Y0135887D01*
X0371437Y0139286D02*
X0394862Y0139286D01*
X0393802Y0141253D02*
X0372497Y0141253D01*
X0372451Y0143220D02*
X0393848Y0143220D01*
X0394973Y0145187D02*
X0371326Y0145187D01*
X0359938Y0135352D02*
X0233229Y0135352D01*
X0232052Y0133385D02*
X0358716Y0133385D01*
X0358578Y0131418D02*
X0232625Y0131418D01*
X0232465Y0131578D02*
X0223598Y0131578D01*
X0222560Y0130540D01*
X0222560Y0121672D01*
X0223598Y0120635D01*
X0232465Y0120635D01*
X0233503Y0121672D01*
X0233503Y0130540D01*
X0232465Y0131578D01*
X0233503Y0129451D02*
X0359497Y0129451D01*
X0360473Y0125887D02*
X0362080Y0126553D01*
X0369019Y0126553D01*
X0370626Y0125887D01*
X0371856Y0124657D01*
X0372521Y0123051D01*
X0372521Y0121312D01*
X0371856Y0119705D01*
X0370626Y0118475D01*
X0369019Y0117809D01*
X0362080Y0117809D01*
X0360473Y0118475D01*
X0359243Y0119705D01*
X0358578Y0121312D01*
X0358578Y0123051D01*
X0359243Y0124657D01*
X0360473Y0125887D01*
X0360103Y0125517D02*
X0233503Y0125517D01*
X0233503Y0127484D02*
X0388091Y0127484D01*
X0386124Y0125517D02*
X0370996Y0125517D01*
X0372314Y0123550D02*
X0384157Y0123550D01*
X0382190Y0121583D02*
X0372521Y0121583D01*
X0371767Y0119616D02*
X0380223Y0119616D01*
X0378256Y0117649D02*
X0232901Y0117649D01*
X0232670Y0118206D02*
X0231131Y0119745D01*
X0229120Y0120578D01*
X0226943Y0120578D01*
X0224932Y0119745D01*
X0223393Y0118206D01*
X0222560Y0116195D01*
X0222560Y0114018D01*
X0223393Y0112007D01*
X0224932Y0110468D01*
X0226943Y0109635D01*
X0229120Y0109635D01*
X0231131Y0110468D01*
X0232670Y0112007D01*
X0233503Y0114018D01*
X0233503Y0116195D01*
X0232670Y0118206D01*
X0231260Y0119616D02*
X0359332Y0119616D01*
X0358578Y0121583D02*
X0233414Y0121583D01*
X0233503Y0123550D02*
X0358785Y0123550D01*
X0371602Y0129451D02*
X0390058Y0129451D01*
X0392025Y0131418D02*
X0372521Y0131418D01*
X0372383Y0133385D02*
X0393916Y0133385D01*
X0406196Y0125517D02*
X0418173Y0125517D01*
X0418173Y0123550D02*
X0407514Y0123550D01*
X0407721Y0121583D02*
X0418173Y0121583D01*
X0418173Y0119616D02*
X0406967Y0119616D01*
X0406031Y0115682D02*
X0418173Y0115682D01*
X0418173Y0117649D02*
X0384938Y0117649D01*
X0376289Y0115682D02*
X0371114Y0115682D01*
X0372463Y0113715D02*
X0374322Y0113715D01*
X0360268Y0115682D02*
X0233503Y0115682D01*
X0233378Y0113715D02*
X0358853Y0113715D01*
X0358578Y0111748D02*
X0232411Y0111748D01*
X0229473Y0109781D02*
X0359212Y0109781D01*
X0357317Y0107814D02*
X0190714Y0107814D01*
X0191031Y0108130D02*
X0189801Y0106900D01*
X0188194Y0106235D01*
X0181255Y0106235D01*
X0179648Y0106900D01*
X0178418Y0108130D01*
X0177753Y0109737D01*
X0177753Y0111476D01*
X0178418Y0113083D01*
X0179648Y0114312D01*
X0181255Y0114978D01*
X0188194Y0114978D01*
X0189801Y0114312D01*
X0191031Y0113083D01*
X0191696Y0111476D01*
X0191696Y0109737D01*
X0191031Y0108130D01*
X0191696Y0109781D02*
X0226590Y0109781D01*
X0223652Y0111748D02*
X0191583Y0111748D01*
X0190398Y0113715D02*
X0222685Y0113715D01*
X0222560Y0115682D02*
X0127716Y0115682D01*
X0127716Y0117649D02*
X0178899Y0117649D01*
X0178418Y0118130D02*
X0179648Y0116900D01*
X0181255Y0116235D01*
X0188194Y0116235D01*
X0189801Y0116900D01*
X0191031Y0118130D01*
X0191696Y0119737D01*
X0191696Y0121476D01*
X0191031Y0123083D01*
X0189801Y0124312D01*
X0188194Y0124978D01*
X0181255Y0124978D01*
X0179648Y0124312D01*
X0178418Y0123083D01*
X0177753Y0121476D01*
X0177753Y0119737D01*
X0178418Y0118130D01*
X0177803Y0119616D02*
X0127716Y0119616D01*
X0127716Y0121583D02*
X0177797Y0121583D01*
X0178886Y0123550D02*
X0127716Y0123550D01*
X0127716Y0125517D02*
X0222560Y0125517D01*
X0222560Y0127484D02*
X0127716Y0127484D01*
X0127716Y0129451D02*
X0222560Y0129451D01*
X0223438Y0131418D02*
X0127716Y0131418D01*
X0127716Y0133385D02*
X0224011Y0133385D01*
X0222834Y0135352D02*
X0127716Y0135352D01*
X0127716Y0137319D02*
X0178929Y0137319D01*
X0179138Y0137110D02*
X0179722Y0136685D01*
X0180365Y0136358D01*
X0181051Y0136135D01*
X0181764Y0136022D01*
X0184724Y0136022D01*
X0184724Y0140606D01*
X0177540Y0140606D01*
X0177540Y0140245D01*
X0177653Y0139533D01*
X0177876Y0138847D01*
X0178204Y0138204D01*
X0178628Y0137620D01*
X0179138Y0137110D01*
X0177733Y0139286D02*
X0127716Y0139286D01*
X0128944Y0140396D02*
X0184444Y0140396D01*
X0184724Y0140606D01*
X0184724Y0140606D01*
X0184724Y0140606D01*
X0177540Y0140606D01*
X0177540Y0140967D01*
X0177653Y0141680D01*
X0177876Y0142366D01*
X0178204Y0143009D01*
X0178628Y0143593D01*
X0179138Y0144103D01*
X0179722Y0144527D01*
X0180365Y0144855D01*
X0181051Y0145078D01*
X0181764Y0145191D01*
X0184724Y0145191D01*
X0184724Y0140606D01*
X0184724Y0136022D01*
X0187685Y0136022D01*
X0188398Y0136135D01*
X0189084Y0136358D01*
X0189727Y0136685D01*
X0190311Y0137110D01*
X0190821Y0137620D01*
X0191245Y0138204D01*
X0191573Y0138847D01*
X0191796Y0139533D01*
X0191909Y0140245D01*
X0191909Y0140606D01*
X0184725Y0140606D01*
X0184725Y0140606D01*
X0191909Y0140606D01*
X0191909Y0140967D01*
X0191796Y0141680D01*
X0191573Y0142366D01*
X0191245Y0143009D01*
X0190821Y0143593D01*
X0190311Y0144103D01*
X0189727Y0144527D01*
X0189084Y0144855D01*
X0188398Y0145078D01*
X0187685Y0145191D01*
X0184724Y0145191D01*
X0184724Y0140606D01*
X0184724Y0140606D01*
X0184724Y0141253D02*
X0184724Y0141253D01*
X0184724Y0139286D02*
X0184724Y0139286D01*
X0184724Y0137319D02*
X0184724Y0137319D01*
X0190520Y0137319D02*
X0222560Y0137319D01*
X0223014Y0139286D02*
X0191716Y0139286D01*
X0191863Y0141253D02*
X0224444Y0141253D01*
X0224176Y0143220D02*
X0191092Y0143220D01*
X0189801Y0146900D02*
X0191031Y0148130D01*
X0191696Y0149737D01*
X0191696Y0151476D01*
X0191031Y0153083D01*
X0189801Y0154312D01*
X0188194Y0154978D01*
X0181255Y0154978D01*
X0179648Y0154312D01*
X0178418Y0153083D01*
X0177753Y0151476D01*
X0177753Y0149737D01*
X0178418Y0148130D01*
X0179648Y0146900D01*
X0181255Y0146235D01*
X0188194Y0146235D01*
X0189801Y0146900D01*
X0190055Y0147154D02*
X0222560Y0147154D01*
X0222902Y0145187D02*
X0187707Y0145187D01*
X0184724Y0145187D02*
X0184724Y0145187D01*
X0181742Y0145187D02*
X0127716Y0145187D01*
X0127716Y0147154D02*
X0179394Y0147154D01*
X0178008Y0149121D02*
X0127716Y0149121D01*
X0127716Y0151088D02*
X0177753Y0151088D01*
X0178407Y0153055D02*
X0127716Y0153055D01*
X0127716Y0155022D02*
X0222560Y0155022D01*
X0222560Y0153055D02*
X0191042Y0153055D01*
X0191696Y0151088D02*
X0224279Y0151088D01*
X0222945Y0149121D02*
X0191441Y0149121D01*
X0184724Y0143220D02*
X0184724Y0143220D01*
X0178357Y0143220D02*
X0127716Y0143220D01*
X0127716Y0141253D02*
X0177585Y0141253D01*
X0190563Y0123550D02*
X0222560Y0123550D01*
X0222649Y0121583D02*
X0191652Y0121583D01*
X0191646Y0119616D02*
X0224803Y0119616D01*
X0223162Y0117649D02*
X0190549Y0117649D01*
X0179051Y0113715D02*
X0127716Y0113715D01*
X0127716Y0111748D02*
X0177865Y0111748D01*
X0177753Y0109781D02*
X0127716Y0109781D01*
X0127716Y0107814D02*
X0178734Y0107814D01*
X0179215Y0103880D02*
X0155461Y0103880D01*
X0153494Y0105847D02*
X0355350Y0105847D01*
X0362080Y0087734D02*
X0360473Y0087068D01*
X0359243Y0085839D01*
X0358578Y0084232D01*
X0358578Y0082493D01*
X0359243Y0080886D01*
X0360473Y0079656D01*
X0362080Y0078991D01*
X0369019Y0078991D01*
X0370626Y0079656D01*
X0371856Y0080886D01*
X0372521Y0082493D01*
X0372521Y0084232D01*
X0371856Y0085839D01*
X0370626Y0087068D01*
X0369019Y0087734D01*
X0362080Y0087734D01*
X0359582Y0086177D02*
X0339022Y0086177D01*
X0336703Y0084210D02*
X0358578Y0084210D01*
X0358681Y0082243D02*
X0338972Y0082243D01*
X0339787Y0080276D02*
X0359854Y0080276D01*
X0360473Y0077068D02*
X0359243Y0075839D01*
X0358578Y0074232D01*
X0358578Y0072493D01*
X0359243Y0070886D01*
X0360473Y0069656D01*
X0362080Y0068991D01*
X0369019Y0068991D01*
X0370626Y0069656D01*
X0371856Y0070886D01*
X0372521Y0072493D01*
X0372521Y0074232D01*
X0371856Y0075839D01*
X0370626Y0077068D01*
X0369019Y0077734D01*
X0362080Y0077734D01*
X0360473Y0077068D01*
X0359747Y0076342D02*
X0339090Y0076342D01*
X0339802Y0078309D02*
X0388488Y0078309D01*
X0386521Y0076342D02*
X0371353Y0076342D01*
X0372462Y0074375D02*
X0384554Y0074375D01*
X0382587Y0072408D02*
X0372486Y0072408D01*
X0371410Y0070441D02*
X0380620Y0070441D01*
X0378653Y0068474D02*
X0339802Y0068474D01*
X0339718Y0070441D02*
X0359689Y0070441D01*
X0358613Y0072408D02*
X0338811Y0072408D01*
X0337101Y0074375D02*
X0358637Y0074375D01*
X0359911Y0066507D02*
X0339158Y0066507D01*
X0337459Y0064540D02*
X0358705Y0064540D01*
X0358578Y0062572D02*
X0222036Y0062572D01*
X0220069Y0064540D02*
X0331203Y0064540D01*
X0329503Y0066507D02*
X0218102Y0066507D01*
X0216135Y0068474D02*
X0328859Y0068474D01*
X0328943Y0070441D02*
X0214168Y0070441D01*
X0212201Y0072408D02*
X0329851Y0072408D01*
X0331561Y0074375D02*
X0210234Y0074375D01*
X0203243Y0066507D02*
X0029228Y0066507D01*
X0029228Y0068474D02*
X0099426Y0068474D01*
X0097459Y0070441D02*
X0029228Y0070441D01*
X0029228Y0072408D02*
X0095492Y0072408D01*
X0093525Y0074375D02*
X0050480Y0074375D01*
X0049749Y0074072D02*
X0051760Y0074905D01*
X0053299Y0076444D01*
X0054132Y0078455D01*
X0054132Y0080632D01*
X0053299Y0082643D01*
X0051760Y0084182D01*
X0049749Y0085015D01*
X0040172Y0085015D01*
X0038161Y0084182D01*
X0036622Y0082643D01*
X0035789Y0080632D01*
X0035789Y0078455D01*
X0036622Y0076444D01*
X0038161Y0074905D01*
X0040172Y0074072D01*
X0049749Y0074072D01*
X0053197Y0076342D02*
X0091558Y0076342D01*
X0089591Y0078309D02*
X0054072Y0078309D01*
X0054132Y0080276D02*
X0087624Y0080276D01*
X0085657Y0082243D02*
X0053465Y0082243D01*
X0051693Y0084210D02*
X0083690Y0084210D01*
X0081723Y0086177D02*
X0051106Y0086177D01*
X0050703Y0085774D02*
X0052045Y0087116D01*
X0052772Y0088870D01*
X0052772Y0090768D01*
X0052045Y0092522D01*
X0050703Y0093864D01*
X0050253Y0094050D01*
X0056699Y0094050D01*
X0058747Y0094899D01*
X0060314Y0096466D01*
X0061162Y0098514D01*
X0061162Y0114637D01*
X0073245Y0126720D01*
X0076443Y0128696D01*
X0108817Y0128696D01*
X0110865Y0129544D01*
X0117014Y0135694D01*
X0118582Y0137261D01*
X0119430Y0139309D01*
X0119430Y0143873D01*
X0119881Y0144324D01*
X0119881Y0145075D01*
X0119889Y0145090D01*
X0120046Y0147301D01*
X0119881Y0147795D01*
X0119881Y0148857D01*
X0119350Y0149388D01*
X0119345Y0149404D01*
X0117892Y0151078D01*
X0117811Y0151119D01*
X0118843Y0151119D01*
X0119881Y0152157D01*
X0119881Y0159324D01*
X0121962Y0159324D01*
X0123572Y0157714D01*
X0123572Y0107615D01*
X0123125Y0107168D01*
X0122672Y0106075D01*
X0122672Y0104893D01*
X0123125Y0103801D01*
X0123961Y0102965D01*
X0125053Y0102513D01*
X0126235Y0102513D01*
X0127327Y0102965D01*
X0128163Y0103801D01*
X0128616Y0104893D01*
X0128616Y0106075D01*
X0128163Y0107168D01*
X0127716Y0107615D01*
X0127716Y0159430D01*
X0126502Y0160644D01*
X0123678Y0163468D01*
X0108586Y0163468D01*
X0106928Y0161810D01*
X0106676Y0162062D01*
X0102143Y0162062D01*
X0099409Y0159329D01*
X0096676Y0162062D01*
X0092143Y0162062D01*
X0088938Y0158857D01*
X0088938Y0158658D01*
X0079966Y0158658D01*
X0052568Y0131260D01*
X0052045Y0132522D01*
X0050703Y0133864D01*
X0048949Y0134591D01*
X0041051Y0134591D01*
X0039297Y0133864D01*
X0037955Y0132522D01*
X0037228Y0130768D01*
X0037228Y0128870D01*
X0037955Y0127116D01*
X0038839Y0126232D01*
X0038082Y0125475D01*
X0038082Y0125475D01*
X0036466Y0123858D01*
X0036466Y0123858D01*
X0035082Y0122475D01*
X0035082Y0096518D01*
X0038516Y0093083D01*
X0037955Y0092522D01*
X0037228Y0090768D01*
X0037228Y0088870D01*
X0037955Y0087116D01*
X0039297Y0085774D01*
X0041051Y0085047D01*
X0048949Y0085047D01*
X0050703Y0085774D01*
X0052471Y0088144D02*
X0079756Y0088144D01*
X0077789Y0090111D02*
X0052772Y0090111D01*
X0052229Y0092078D02*
X0075822Y0092078D01*
X0073855Y0094045D02*
X0050267Y0094045D01*
X0059860Y0096012D02*
X0071888Y0096012D01*
X0069921Y0097979D02*
X0060941Y0097979D01*
X0061162Y0099946D02*
X0069282Y0099946D01*
X0069282Y0101913D02*
X0061162Y0101913D01*
X0061162Y0103880D02*
X0069282Y0103880D01*
X0069282Y0105847D02*
X0061162Y0105847D01*
X0061162Y0107814D02*
X0069282Y0107814D01*
X0068391Y0109781D02*
X0061162Y0109781D01*
X0061162Y0111748D02*
X0068447Y0111748D01*
X0070163Y0113715D02*
X0061162Y0113715D01*
X0062207Y0115682D02*
X0068680Y0115682D01*
X0068288Y0117649D02*
X0064174Y0117649D01*
X0066141Y0119616D02*
X0069218Y0119616D01*
X0068108Y0121583D02*
X0123572Y0121583D01*
X0123572Y0123550D02*
X0070075Y0123550D01*
X0072042Y0125517D02*
X0123572Y0125517D01*
X0123572Y0127484D02*
X0074482Y0127484D01*
X0064151Y0133385D02*
X0061374Y0133385D01*
X0062184Y0131418D02*
X0059407Y0131418D01*
X0060217Y0129451D02*
X0057440Y0129451D01*
X0058250Y0127484D02*
X0055473Y0127484D01*
X0056283Y0125517D02*
X0053506Y0125517D01*
X0054316Y0123550D02*
X0051539Y0123550D01*
X0051506Y0123518D02*
X0081923Y0153934D01*
X0089328Y0153934D01*
X0091521Y0151741D01*
X0088725Y0148945D01*
X0088725Y0146606D01*
X0094394Y0146606D01*
X0094394Y0146575D01*
X0094425Y0146575D01*
X0094425Y0140906D01*
X0096764Y0140906D01*
X0099560Y0143702D01*
X0102143Y0141119D01*
X0106676Y0141119D01*
X0108287Y0142730D01*
X0108287Y0142725D01*
X0105401Y0139839D01*
X0075509Y0139839D01*
X0075061Y0139945D01*
X0074411Y0139839D01*
X0073752Y0139839D01*
X0073327Y0139663D01*
X0072874Y0139590D01*
X0072313Y0139243D01*
X0071704Y0138991D01*
X0071379Y0138666D01*
X0067217Y0136094D01*
X0066608Y0135842D01*
X0066283Y0135517D01*
X0065892Y0135275D01*
X0065506Y0134740D01*
X0052434Y0121668D01*
X0052409Y0121643D01*
X0052045Y0122522D01*
X0051278Y0123289D01*
X0051506Y0123518D01*
X0038124Y0125517D02*
X0029228Y0125517D01*
X0029228Y0127484D02*
X0037802Y0127484D01*
X0037228Y0129451D02*
X0029228Y0129451D01*
X0029228Y0131418D02*
X0037498Y0131418D01*
X0038818Y0133385D02*
X0029228Y0133385D01*
X0029228Y0135352D02*
X0040315Y0135352D01*
X0041051Y0135047D02*
X0039297Y0135774D01*
X0037955Y0137116D01*
X0037228Y0138870D01*
X0037228Y0140768D01*
X0037955Y0142522D01*
X0039297Y0143864D01*
X0041051Y0144591D01*
X0048949Y0144591D01*
X0050703Y0143864D01*
X0052045Y0142522D01*
X0052772Y0140768D01*
X0052772Y0138870D01*
X0052045Y0137116D01*
X0050703Y0135774D01*
X0048949Y0135047D01*
X0041051Y0135047D01*
X0037871Y0137319D02*
X0029228Y0137319D01*
X0029228Y0139286D02*
X0037228Y0139286D01*
X0037429Y0141253D02*
X0029228Y0141253D01*
X0029228Y0143220D02*
X0038653Y0143220D01*
X0040087Y0145200D02*
X0040833Y0144957D01*
X0041608Y0144835D01*
X0044984Y0144835D01*
X0044984Y0149803D01*
X0037016Y0149803D01*
X0037016Y0149427D01*
X0037138Y0148652D01*
X0037381Y0147906D01*
X0037737Y0147207D01*
X0038198Y0146572D01*
X0038753Y0146017D01*
X0039388Y0145556D01*
X0040087Y0145200D01*
X0040126Y0145187D02*
X0029228Y0145187D01*
X0029228Y0147154D02*
X0037775Y0147154D01*
X0037064Y0149121D02*
X0029228Y0149121D01*
X0029228Y0151088D02*
X0037172Y0151088D01*
X0037138Y0150986D02*
X0037016Y0150211D01*
X0037016Y0149835D01*
X0044984Y0149835D01*
X0044984Y0154803D01*
X0041608Y0154803D01*
X0040833Y0154680D01*
X0040087Y0154438D01*
X0039388Y0154082D01*
X0038753Y0153621D01*
X0038198Y0153066D01*
X0037737Y0152431D01*
X0037381Y0151732D01*
X0037138Y0150986D01*
X0038190Y0153055D02*
X0029228Y0153055D01*
X0029228Y0155022D02*
X0076330Y0155022D01*
X0078297Y0156989D02*
X0051918Y0156989D01*
X0052045Y0157116D02*
X0052772Y0158870D01*
X0052772Y0160768D01*
X0052045Y0162522D01*
X0050703Y0163864D01*
X0048949Y0164591D01*
X0041051Y0164591D01*
X0039297Y0163864D01*
X0037955Y0162522D01*
X0037228Y0160768D01*
X0037228Y0158870D01*
X0037955Y0157116D01*
X0039297Y0155774D01*
X0041051Y0155047D01*
X0048949Y0155047D01*
X0050703Y0155774D01*
X0052045Y0157116D01*
X0052772Y0158956D02*
X0089037Y0158956D01*
X0091004Y0160923D02*
X0052707Y0160923D01*
X0051677Y0162890D02*
X0108009Y0162890D01*
X0101004Y0160923D02*
X0097815Y0160923D01*
X0090207Y0153055D02*
X0081044Y0153055D01*
X0079077Y0151088D02*
X0090868Y0151088D01*
X0088901Y0149121D02*
X0077110Y0149121D01*
X0075143Y0147154D02*
X0088725Y0147154D01*
X0088725Y0146575D02*
X0088725Y0144236D01*
X0092055Y0140906D01*
X0094394Y0140906D01*
X0094394Y0146575D01*
X0088725Y0146575D01*
X0088725Y0145187D02*
X0073176Y0145187D01*
X0068462Y0147154D02*
X0052225Y0147154D01*
X0052263Y0147207D02*
X0052619Y0147906D01*
X0052862Y0148652D01*
X0052984Y0149427D01*
X0052984Y0149803D01*
X0045016Y0149803D01*
X0045016Y0149835D01*
X0044984Y0149835D01*
X0044984Y0149803D01*
X0045016Y0149803D01*
X0045016Y0144835D01*
X0048392Y0144835D01*
X0049167Y0144957D01*
X0049913Y0145200D01*
X0050612Y0145556D01*
X0051247Y0146017D01*
X0051802Y0146572D01*
X0052263Y0147207D01*
X0052936Y0149121D02*
X0070429Y0149121D01*
X0072396Y0151088D02*
X0052828Y0151088D01*
X0052862Y0150986D02*
X0052619Y0151732D01*
X0052263Y0152431D01*
X0051802Y0153066D01*
X0051247Y0153621D01*
X0050612Y0154082D01*
X0049913Y0154438D01*
X0049167Y0154680D01*
X0048392Y0154803D01*
X0045016Y0154803D01*
X0045016Y0149835D01*
X0052984Y0149835D01*
X0052984Y0150211D01*
X0052862Y0150986D01*
X0051810Y0153055D02*
X0074363Y0153055D01*
X0066495Y0145187D02*
X0049874Y0145187D01*
X0045016Y0145187D02*
X0044984Y0145187D01*
X0044984Y0147154D02*
X0045016Y0147154D01*
X0044984Y0149121D02*
X0045016Y0149121D01*
X0044984Y0151088D02*
X0045016Y0151088D01*
X0044984Y0153055D02*
X0045016Y0153055D01*
X0038082Y0156989D02*
X0029228Y0156989D01*
X0029228Y0158956D02*
X0037228Y0158956D01*
X0037293Y0160923D02*
X0029228Y0160923D01*
X0029228Y0162890D02*
X0038323Y0162890D01*
X0029228Y0164857D02*
X0209596Y0164857D01*
X0207629Y0166824D02*
X0029228Y0166824D01*
X0029228Y0168791D02*
X0205662Y0168791D01*
X0203695Y0170758D02*
X0029228Y0170758D01*
X0029228Y0172725D02*
X0201728Y0172725D01*
X0199761Y0174692D02*
X0029228Y0174692D01*
X0029228Y0176659D02*
X0197794Y0176659D01*
X0195827Y0178626D02*
X0029228Y0178626D01*
X0029228Y0180593D02*
X0193860Y0180593D01*
X0191893Y0182560D02*
X0029228Y0182560D01*
X0029228Y0184527D02*
X0189926Y0184527D01*
X0187959Y0186494D02*
X0029228Y0186494D01*
X0094394Y0145187D02*
X0094425Y0145187D01*
X0094394Y0143220D02*
X0094425Y0143220D01*
X0094394Y0141253D02*
X0094425Y0141253D01*
X0097111Y0141253D02*
X0102009Y0141253D01*
X0100042Y0143220D02*
X0099078Y0143220D01*
X0091708Y0141253D02*
X0069242Y0141253D01*
X0071209Y0143220D02*
X0089741Y0143220D01*
X0106810Y0141253D02*
X0106814Y0141253D01*
X0116672Y0135352D02*
X0123572Y0135352D01*
X0123572Y0133385D02*
X0114705Y0133385D01*
X0112738Y0131418D02*
X0123572Y0131418D01*
X0123572Y0129451D02*
X0110639Y0129451D01*
X0118606Y0137319D02*
X0123572Y0137319D01*
X0123572Y0139286D02*
X0119420Y0139286D01*
X0119430Y0141253D02*
X0123572Y0141253D01*
X0123572Y0143220D02*
X0119430Y0143220D01*
X0119895Y0145187D02*
X0123572Y0145187D01*
X0123572Y0147154D02*
X0120035Y0147154D01*
X0119617Y0149121D02*
X0123572Y0149121D01*
X0123572Y0151088D02*
X0117873Y0151088D01*
X0119881Y0153055D02*
X0123572Y0153055D01*
X0123572Y0155022D02*
X0119881Y0155022D01*
X0119881Y0156989D02*
X0123572Y0156989D01*
X0122330Y0158956D02*
X0119881Y0158956D01*
X0124256Y0162890D02*
X0418173Y0162890D01*
X0418173Y0160923D02*
X0233503Y0160923D01*
X0233503Y0158956D02*
X0418173Y0158956D01*
X0418173Y0156989D02*
X0233503Y0156989D01*
X0233503Y0155022D02*
X0418173Y0155022D01*
X0418173Y0153055D02*
X0233503Y0153055D01*
X0231784Y0151088D02*
X0418173Y0151088D01*
X0418173Y0149121D02*
X0233118Y0149121D01*
X0222560Y0156989D02*
X0127716Y0156989D01*
X0127716Y0158956D02*
X0222560Y0158956D01*
X0222560Y0160923D02*
X0126223Y0160923D01*
X0072382Y0139286D02*
X0067275Y0139286D01*
X0069199Y0137319D02*
X0065308Y0137319D01*
X0066017Y0135352D02*
X0063341Y0135352D01*
X0058626Y0137319D02*
X0052129Y0137319D01*
X0052772Y0139286D02*
X0060593Y0139286D01*
X0062560Y0141253D02*
X0052571Y0141253D01*
X0051347Y0143220D02*
X0064527Y0143220D01*
X0056659Y0135352D02*
X0049685Y0135352D01*
X0051182Y0133385D02*
X0054692Y0133385D01*
X0052725Y0131418D02*
X0052502Y0131418D01*
X0036157Y0123550D02*
X0029228Y0123550D01*
X0029228Y0121583D02*
X0035082Y0121583D01*
X0035082Y0119616D02*
X0029228Y0119616D01*
X0029228Y0117649D02*
X0035082Y0117649D01*
X0035082Y0115682D02*
X0029228Y0115682D01*
X0029228Y0113715D02*
X0035082Y0113715D01*
X0035082Y0111748D02*
X0029228Y0111748D01*
X0029228Y0109781D02*
X0035082Y0109781D01*
X0035082Y0107814D02*
X0029228Y0107814D01*
X0029228Y0105847D02*
X0035082Y0105847D01*
X0035082Y0103880D02*
X0029228Y0103880D01*
X0029228Y0101913D02*
X0035082Y0101913D01*
X0035082Y0099946D02*
X0029228Y0099946D01*
X0029228Y0097979D02*
X0035082Y0097979D01*
X0035588Y0096012D02*
X0029228Y0096012D01*
X0029228Y0094045D02*
X0037555Y0094045D01*
X0037771Y0092078D02*
X0029228Y0092078D01*
X0029228Y0090111D02*
X0037228Y0090111D01*
X0037529Y0088144D02*
X0029228Y0088144D01*
X0029228Y0086177D02*
X0038894Y0086177D01*
X0038228Y0084210D02*
X0029228Y0084210D01*
X0029228Y0082243D02*
X0036456Y0082243D01*
X0035789Y0080276D02*
X0029228Y0080276D01*
X0029228Y0078309D02*
X0035850Y0078309D01*
X0036724Y0076342D02*
X0029228Y0076342D01*
X0029228Y0074375D02*
X0039441Y0074375D01*
X0029228Y0064540D02*
X0205210Y0064540D01*
X0207177Y0062572D02*
X0029228Y0062572D01*
X0029228Y0060605D02*
X0209144Y0060605D01*
X0211111Y0058638D02*
X0029228Y0058638D01*
X0029228Y0056671D02*
X0213078Y0056671D01*
X0215045Y0054704D02*
X0029228Y0054704D01*
X0029228Y0029133D02*
X0261357Y0029133D01*
X0260818Y0028594D02*
X0262048Y0029824D01*
X0263655Y0030490D01*
X0270594Y0030490D01*
X0272201Y0029824D01*
X0273431Y0028594D01*
X0274096Y0026988D01*
X0274096Y0025249D01*
X0273431Y0023642D01*
X0272201Y0022412D01*
X0270594Y0021746D01*
X0263655Y0021746D01*
X0262048Y0022412D01*
X0260818Y0023642D01*
X0260153Y0025249D01*
X0260153Y0026988D01*
X0260818Y0028594D01*
X0260227Y0027166D02*
X0029228Y0027166D01*
X0029228Y0025199D02*
X0260173Y0025199D01*
X0261228Y0023232D02*
X0029228Y0023232D01*
X0106406Y0068918D02*
X0106406Y0068918D01*
X0107929Y0070441D02*
X0114354Y0070441D01*
X0100482Y0076342D02*
X0098239Y0076342D01*
X0096272Y0078309D02*
X0101316Y0078309D01*
X0103283Y0080276D02*
X0094305Y0080276D01*
X0092338Y0082243D02*
X0105250Y0082243D01*
X0104234Y0081226D02*
X0104234Y0081226D01*
X0090371Y0084210D02*
X0123452Y0084210D01*
X0125419Y0086177D02*
X0088404Y0086177D01*
X0086437Y0088144D02*
X0127386Y0088144D01*
X0129353Y0090111D02*
X0084470Y0090111D01*
X0082503Y0092078D02*
X0131320Y0092078D01*
X0133287Y0094045D02*
X0083117Y0094045D01*
X0083400Y0096012D02*
X0135254Y0096012D01*
X0137221Y0097979D02*
X0082406Y0097979D01*
X0082406Y0099946D02*
X0139188Y0099946D01*
X0141155Y0101913D02*
X0082406Y0101913D01*
X0082406Y0103880D02*
X0123092Y0103880D01*
X0122672Y0105847D02*
X0082406Y0105847D01*
X0082406Y0107814D02*
X0123572Y0107814D01*
X0123572Y0109781D02*
X0082406Y0109781D01*
X0082406Y0111748D02*
X0123572Y0111748D01*
X0123572Y0113715D02*
X0082406Y0113715D01*
X0082876Y0115682D02*
X0123572Y0115682D01*
X0123572Y0117649D02*
X0083400Y0117649D01*
X0082770Y0119616D02*
X0123572Y0119616D01*
X0128616Y0105847D02*
X0145089Y0105847D01*
X0143122Y0103880D02*
X0128196Y0103880D01*
X0157428Y0101913D02*
X0177934Y0101913D01*
X0177753Y0099946D02*
X0159395Y0099946D01*
X0077212Y0115682D02*
X0076599Y0115682D01*
X0076688Y0117649D02*
X0075000Y0117649D01*
X0074070Y0119616D02*
X0077318Y0119616D01*
X0273057Y0038968D02*
X0296392Y0038968D01*
X0295358Y0037001D02*
X0274090Y0037001D01*
X0274007Y0035034D02*
X0295441Y0035034D01*
X0296593Y0033067D02*
X0272856Y0033067D01*
X0272892Y0029133D02*
X0296557Y0029133D01*
X0295427Y0027166D02*
X0274022Y0027166D01*
X0274076Y0025199D02*
X0295373Y0025199D01*
X0296428Y0023232D02*
X0273021Y0023232D01*
X0372521Y0062572D02*
X0372752Y0062572D01*
X0372394Y0064540D02*
X0374719Y0064540D01*
X0376686Y0066507D02*
X0371188Y0066507D01*
X0386827Y0058638D02*
X0418173Y0058638D01*
X0418173Y0056671D02*
X0384860Y0056671D01*
X0382893Y0054704D02*
X0418173Y0054704D01*
X0418173Y0052737D02*
X0380926Y0052737D01*
X0378959Y0050770D02*
X0418173Y0050770D01*
X0405752Y0059441D02*
X0405109Y0059114D01*
X0404423Y0058891D01*
X0403710Y0058778D01*
X0398150Y0058778D01*
X0398150Y0063362D01*
X0398150Y0063362D01*
X0407934Y0063362D01*
X0407934Y0063001D01*
X0407821Y0062289D01*
X0407598Y0061602D01*
X0407270Y0060960D01*
X0406846Y0060376D01*
X0406336Y0059866D01*
X0405752Y0059441D01*
X0407013Y0060605D02*
X0418173Y0060605D01*
X0418173Y0062572D02*
X0407866Y0062572D01*
X0407934Y0063362D02*
X0407934Y0063723D01*
X0407821Y0064436D01*
X0407598Y0065122D01*
X0407270Y0065765D01*
X0406846Y0066349D01*
X0406336Y0066859D01*
X0405752Y0067283D01*
X0405109Y0067611D01*
X0404423Y0067834D01*
X0403710Y0067946D01*
X0398150Y0067946D01*
X0398150Y0063362D01*
X0398150Y0063362D01*
X0407934Y0063362D01*
X0407787Y0064540D02*
X0418173Y0064540D01*
X0418173Y0066507D02*
X0406688Y0066507D01*
X0406610Y0070441D02*
X0418173Y0070441D01*
X0418173Y0072408D02*
X0407686Y0072408D01*
X0407662Y0074375D02*
X0418173Y0074375D01*
X0418173Y0076342D02*
X0406553Y0076342D01*
X0398025Y0078309D02*
X0418173Y0078309D01*
X0418173Y0080276D02*
X0406445Y0080276D01*
X0407618Y0082243D02*
X0418173Y0082243D01*
X0418173Y0084210D02*
X0407721Y0084210D01*
X0406718Y0086177D02*
X0418173Y0086177D01*
X0418173Y0088144D02*
X0401521Y0088144D01*
X0406281Y0090111D02*
X0418173Y0090111D01*
X0418173Y0092078D02*
X0407549Y0092078D01*
X0407721Y0094045D02*
X0418173Y0094045D01*
X0398150Y0083362D02*
X0398044Y0083096D01*
X0393778Y0084210D02*
X0372521Y0084210D01*
X0372418Y0082243D02*
X0392422Y0082243D01*
X0390455Y0080276D02*
X0371245Y0080276D01*
X0371518Y0086177D02*
X0394778Y0086177D01*
X0396662Y0068474D02*
X0418173Y0068474D01*
X0398150Y0067946D02*
X0398150Y0063362D01*
X0398150Y0058778D01*
X0397789Y0058778D01*
X0397076Y0058891D01*
X0396390Y0059114D01*
X0395747Y0059441D01*
X0395163Y0059866D01*
X0394653Y0060376D01*
X0394229Y0060960D01*
X0393901Y0061602D01*
X0393678Y0062289D01*
X0393565Y0063001D01*
X0393565Y0063362D01*
X0398149Y0063362D01*
X0398149Y0063362D01*
X0393565Y0063362D01*
X0393565Y0063723D01*
X0393678Y0064436D01*
X0393901Y0065122D01*
X0394229Y0065765D01*
X0394653Y0066349D01*
X0395163Y0066859D01*
X0395747Y0067283D01*
X0396390Y0067611D01*
X0397076Y0067834D01*
X0397789Y0067946D01*
X0398150Y0067946D01*
X0398150Y0066507D02*
X0398150Y0066507D01*
X0398150Y0064540D02*
X0398150Y0064540D01*
X0398150Y0063362D02*
X0398150Y0063362D01*
X0398150Y0062572D02*
X0398150Y0062572D01*
X0398150Y0060605D02*
X0398150Y0060605D01*
X0394486Y0060605D02*
X0388794Y0060605D01*
X0390761Y0062572D02*
X0393633Y0062572D01*
X0393712Y0064540D02*
X0392728Y0064540D01*
X0394695Y0066507D02*
X0394811Y0066507D01*
X0404230Y0107814D02*
X0418173Y0107814D01*
X0418173Y0109781D02*
X0407087Y0109781D01*
X0407721Y0111748D02*
X0418173Y0111748D01*
X0418173Y0113715D02*
X0407446Y0113715D01*
D19*
X0128944Y0140396D03*
X0080044Y0117596D03*
X0071644Y0117296D03*
X0071644Y0110696D03*
X0077044Y0098696D03*
X0080044Y0095396D03*
X0106444Y0075896D03*
X0102844Y0072896D03*
X0116644Y0072896D03*
D20*
X0042992Y0031906D03*
X0405197Y0031906D03*
D21*
X0377915Y0053067D02*
X0220024Y0053067D01*
X0197194Y0075896D01*
X0106444Y0075896D01*
X0107044Y0072896D02*
X0104044Y0069896D01*
X0101344Y0069896D01*
X0071644Y0099596D01*
X0071644Y0110696D01*
X0077044Y0111896D02*
X0071644Y0117296D01*
X0080044Y0117596D02*
X0080044Y0095396D01*
X0077044Y0098696D02*
X0077044Y0111896D01*
X0049144Y0124496D02*
X0040444Y0124496D01*
X0037444Y0121496D01*
X0037444Y0097496D01*
X0044944Y0089996D01*
X0045000Y0089819D01*
X0102844Y0076496D02*
X0102844Y0072896D01*
X0107044Y0072896D02*
X0116644Y0072896D01*
X0106596Y0080248D02*
X0102844Y0076496D01*
X0106596Y0080248D02*
X0122831Y0080248D01*
X0146929Y0104346D01*
X0151654Y0104346D01*
X0160315Y0095685D01*
X0347717Y0095685D01*
X0348028Y0095996D01*
X0359944Y0095996D01*
X0395944Y0131996D01*
X0398044Y0131996D01*
X0398150Y0132181D01*
X0398150Y0073362D02*
X0398044Y0073196D01*
X0377915Y0053067D01*
X0094409Y0156591D02*
X0094144Y0156296D01*
X0080944Y0156296D01*
X0049144Y0124496D01*
D22*
X0055591Y0116945D02*
X0055591Y0099622D01*
X0045354Y0099622D01*
X0045000Y0099819D01*
X0055591Y0116945D02*
X0069764Y0131118D01*
X0074860Y0134268D01*
X0107708Y0134268D01*
X0113858Y0140418D01*
X0113858Y0146866D01*
X0114409Y0146591D01*
D23*
X0148504Y0100409D02*
X0156968Y0091946D01*
X0187894Y0091946D01*
X0220744Y0059096D01*
X0245978Y0059096D01*
X0247184Y0058009D01*
X0372957Y0058009D01*
X0398044Y0083096D01*
X0398150Y0083362D02*
X0398150Y0093362D01*
D24*
X0247184Y0058009D03*
X0148504Y0100409D03*
D25*
X0125644Y0105484D02*
X0125644Y0158572D01*
X0122820Y0161396D01*
X0109444Y0161396D01*
X0104644Y0156596D01*
X0104409Y0156591D01*
D26*
X0125644Y0105484D03*
D27*
X0183937Y0100409D02*
X0184724Y0100409D01*
X0184724Y0100606D01*
X0184724Y0100409D02*
X0356378Y0100409D01*
X0368150Y0112181D01*
M02*
